%TF.GenerationSoftware,KiCad,Pcbnew,9.0.5*%
%TF.CreationDate,2026-04-24T16:33:20+02:00*%
%TF.ProjectId,pg-id656,70672d69-6436-4353-962e-6b696361645f,5*%
%TF.SameCoordinates,Original*%
%TF.FileFunction,Legend,Top*%
%TF.FilePolarity,Positive*%
%FSLAX46Y46*%
G04 Gerber Fmt 4.6, Leading zero omitted, Abs format (unit mm)*
G04 Created by KiCad (PCBNEW 9.0.5) date 2026-04-24 16:33:20*
%MOMM*%
%LPD*%
G01*
G04 APERTURE LIST*
%ADD10C,0.400000*%
%ADD11C,0.200000*%
%ADD12C,0.160000*%
%ADD13C,0.250000*%
%ADD14C,0.500000*%
%ADD15C,0.150000*%
%ADD16C,0.125000*%
%ADD17C,0.120000*%
G04 APERTURE END LIST*
D10*
X119964347Y-108184438D02*
X119964347Y-106851104D01*
X119964347Y-107041580D02*
X120059585Y-106946342D01*
X120059585Y-106946342D02*
X120250061Y-106851104D01*
X120250061Y-106851104D02*
X120535776Y-106851104D01*
X120535776Y-106851104D02*
X120726252Y-106946342D01*
X120726252Y-106946342D02*
X120821490Y-107136819D01*
X120821490Y-107136819D02*
X120821490Y-108184438D01*
X120821490Y-107136819D02*
X120916728Y-106946342D01*
X120916728Y-106946342D02*
X121107204Y-106851104D01*
X121107204Y-106851104D02*
X121392918Y-106851104D01*
X121392918Y-106851104D02*
X121583395Y-106946342D01*
X121583395Y-106946342D02*
X121678633Y-107136819D01*
X121678633Y-107136819D02*
X121678633Y-108184438D01*
X123488157Y-108184438D02*
X123488157Y-107136819D01*
X123488157Y-107136819D02*
X123392919Y-106946342D01*
X123392919Y-106946342D02*
X123202443Y-106851104D01*
X123202443Y-106851104D02*
X122821490Y-106851104D01*
X122821490Y-106851104D02*
X122631014Y-106946342D01*
X123488157Y-108089200D02*
X123297681Y-108184438D01*
X123297681Y-108184438D02*
X122821490Y-108184438D01*
X122821490Y-108184438D02*
X122631014Y-108089200D01*
X122631014Y-108089200D02*
X122535776Y-107898723D01*
X122535776Y-107898723D02*
X122535776Y-107708247D01*
X122535776Y-107708247D02*
X122631014Y-107517771D01*
X122631014Y-107517771D02*
X122821490Y-107422533D01*
X122821490Y-107422533D02*
X123297681Y-107422533D01*
X123297681Y-107422533D02*
X123488157Y-107327295D01*
X124440538Y-108184438D02*
X124440538Y-106851104D01*
X124440538Y-106184438D02*
X124345300Y-106279676D01*
X124345300Y-106279676D02*
X124440538Y-106374914D01*
X124440538Y-106374914D02*
X124535776Y-106279676D01*
X124535776Y-106279676D02*
X124440538Y-106184438D01*
X124440538Y-106184438D02*
X124440538Y-106374914D01*
X125392919Y-106851104D02*
X125392919Y-108184438D01*
X125392919Y-107041580D02*
X125488157Y-106946342D01*
X125488157Y-106946342D02*
X125678633Y-106851104D01*
X125678633Y-106851104D02*
X125964348Y-106851104D01*
X125964348Y-106851104D02*
X126154824Y-106946342D01*
X126154824Y-106946342D02*
X126250062Y-107136819D01*
X126250062Y-107136819D02*
X126250062Y-108184438D01*
X127202443Y-107422533D02*
X128726253Y-107422533D01*
X130535776Y-108089200D02*
X130345300Y-108184438D01*
X130345300Y-108184438D02*
X129964347Y-108184438D01*
X129964347Y-108184438D02*
X129773871Y-108089200D01*
X129773871Y-108089200D02*
X129678633Y-107993961D01*
X129678633Y-107993961D02*
X129583395Y-107803485D01*
X129583395Y-107803485D02*
X129583395Y-107232057D01*
X129583395Y-107232057D02*
X129678633Y-107041580D01*
X129678633Y-107041580D02*
X129773871Y-106946342D01*
X129773871Y-106946342D02*
X129964347Y-106851104D01*
X129964347Y-106851104D02*
X130345300Y-106851104D01*
X130345300Y-106851104D02*
X130535776Y-106946342D01*
X131678633Y-108184438D02*
X131488157Y-108089200D01*
X131488157Y-108089200D02*
X131392919Y-107993961D01*
X131392919Y-107993961D02*
X131297681Y-107803485D01*
X131297681Y-107803485D02*
X131297681Y-107232057D01*
X131297681Y-107232057D02*
X131392919Y-107041580D01*
X131392919Y-107041580D02*
X131488157Y-106946342D01*
X131488157Y-106946342D02*
X131678633Y-106851104D01*
X131678633Y-106851104D02*
X131964348Y-106851104D01*
X131964348Y-106851104D02*
X132154824Y-106946342D01*
X132154824Y-106946342D02*
X132250062Y-107041580D01*
X132250062Y-107041580D02*
X132345300Y-107232057D01*
X132345300Y-107232057D02*
X132345300Y-107803485D01*
X132345300Y-107803485D02*
X132250062Y-107993961D01*
X132250062Y-107993961D02*
X132154824Y-108089200D01*
X132154824Y-108089200D02*
X131964348Y-108184438D01*
X131964348Y-108184438D02*
X131678633Y-108184438D01*
X133202443Y-106851104D02*
X133202443Y-108184438D01*
X133202443Y-107041580D02*
X133297681Y-106946342D01*
X133297681Y-106946342D02*
X133488157Y-106851104D01*
X133488157Y-106851104D02*
X133773872Y-106851104D01*
X133773872Y-106851104D02*
X133964348Y-106946342D01*
X133964348Y-106946342D02*
X134059586Y-107136819D01*
X134059586Y-107136819D02*
X134059586Y-108184438D01*
X134726253Y-106851104D02*
X135488157Y-106851104D01*
X135011967Y-106184438D02*
X135011967Y-107898723D01*
X135011967Y-107898723D02*
X135107205Y-108089200D01*
X135107205Y-108089200D02*
X135297681Y-108184438D01*
X135297681Y-108184438D02*
X135488157Y-108184438D01*
X136154824Y-108184438D02*
X136154824Y-106851104D01*
X136154824Y-107232057D02*
X136250062Y-107041580D01*
X136250062Y-107041580D02*
X136345300Y-106946342D01*
X136345300Y-106946342D02*
X136535776Y-106851104D01*
X136535776Y-106851104D02*
X136726253Y-106851104D01*
X137678633Y-108184438D02*
X137488157Y-108089200D01*
X137488157Y-108089200D02*
X137392919Y-107993961D01*
X137392919Y-107993961D02*
X137297681Y-107803485D01*
X137297681Y-107803485D02*
X137297681Y-107232057D01*
X137297681Y-107232057D02*
X137392919Y-107041580D01*
X137392919Y-107041580D02*
X137488157Y-106946342D01*
X137488157Y-106946342D02*
X137678633Y-106851104D01*
X137678633Y-106851104D02*
X137964348Y-106851104D01*
X137964348Y-106851104D02*
X138154824Y-106946342D01*
X138154824Y-106946342D02*
X138250062Y-107041580D01*
X138250062Y-107041580D02*
X138345300Y-107232057D01*
X138345300Y-107232057D02*
X138345300Y-107803485D01*
X138345300Y-107803485D02*
X138250062Y-107993961D01*
X138250062Y-107993961D02*
X138154824Y-108089200D01*
X138154824Y-108089200D02*
X137964348Y-108184438D01*
X137964348Y-108184438D02*
X137678633Y-108184438D01*
X139488157Y-108184438D02*
X139297681Y-108089200D01*
X139297681Y-108089200D02*
X139202443Y-107898723D01*
X139202443Y-107898723D02*
X139202443Y-106184438D01*
X140535776Y-108184438D02*
X140345300Y-108089200D01*
X140345300Y-108089200D02*
X140250062Y-107898723D01*
X140250062Y-107898723D02*
X140250062Y-106184438D01*
X142059586Y-108089200D02*
X141869110Y-108184438D01*
X141869110Y-108184438D02*
X141488157Y-108184438D01*
X141488157Y-108184438D02*
X141297681Y-108089200D01*
X141297681Y-108089200D02*
X141202443Y-107898723D01*
X141202443Y-107898723D02*
X141202443Y-107136819D01*
X141202443Y-107136819D02*
X141297681Y-106946342D01*
X141297681Y-106946342D02*
X141488157Y-106851104D01*
X141488157Y-106851104D02*
X141869110Y-106851104D01*
X141869110Y-106851104D02*
X142059586Y-106946342D01*
X142059586Y-106946342D02*
X142154824Y-107136819D01*
X142154824Y-107136819D02*
X142154824Y-107327295D01*
X142154824Y-107327295D02*
X141202443Y-107517771D01*
X143011967Y-108184438D02*
X143011967Y-106851104D01*
X143011967Y-107232057D02*
X143107205Y-107041580D01*
X143107205Y-107041580D02*
X143202443Y-106946342D01*
X143202443Y-106946342D02*
X143392919Y-106851104D01*
X143392919Y-106851104D02*
X143583396Y-106851104D01*
D11*
X171419600Y-74449374D02*
X171467219Y-74544612D01*
X171467219Y-74544612D02*
X171467219Y-74735088D01*
X171467219Y-74735088D02*
X171419600Y-74830326D01*
X171419600Y-74830326D02*
X171324361Y-74877945D01*
X171324361Y-74877945D02*
X170943409Y-74877945D01*
X170943409Y-74877945D02*
X170848171Y-74830326D01*
X170848171Y-74830326D02*
X170800552Y-74735088D01*
X170800552Y-74735088D02*
X170800552Y-74544612D01*
X170800552Y-74544612D02*
X170848171Y-74449374D01*
X170848171Y-74449374D02*
X170943409Y-74401755D01*
X170943409Y-74401755D02*
X171038647Y-74401755D01*
X171038647Y-74401755D02*
X171133885Y-74877945D01*
X170800552Y-73973183D02*
X171467219Y-73973183D01*
X170895790Y-73973183D02*
X170848171Y-73925564D01*
X170848171Y-73925564D02*
X170800552Y-73830326D01*
X170800552Y-73830326D02*
X170800552Y-73687469D01*
X170800552Y-73687469D02*
X170848171Y-73592231D01*
X170848171Y-73592231D02*
X170943409Y-73544612D01*
X170943409Y-73544612D02*
X171467219Y-73544612D01*
X171467219Y-73068421D02*
X170467219Y-73068421D01*
X171086266Y-72973183D02*
X171467219Y-72687469D01*
X170800552Y-72687469D02*
X171181504Y-73068421D01*
X171086266Y-72258897D02*
X171086266Y-71496993D01*
X170562457Y-71068421D02*
X170514838Y-71020802D01*
X170514838Y-71020802D02*
X170467219Y-70925564D01*
X170467219Y-70925564D02*
X170467219Y-70687469D01*
X170467219Y-70687469D02*
X170514838Y-70592231D01*
X170514838Y-70592231D02*
X170562457Y-70544612D01*
X170562457Y-70544612D02*
X170657695Y-70496993D01*
X170657695Y-70496993D02*
X170752933Y-70496993D01*
X170752933Y-70496993D02*
X170895790Y-70544612D01*
X170895790Y-70544612D02*
X171467219Y-71116040D01*
X171467219Y-71116040D02*
X171467219Y-70496993D01*
X171181504Y-70116040D02*
X171181504Y-69639850D01*
X171467219Y-70211278D02*
X170467219Y-69877945D01*
X170467219Y-69877945D02*
X171467219Y-69544612D01*
X165467219Y-72125564D02*
X165467219Y-71506517D01*
X165467219Y-71506517D02*
X165848171Y-71839850D01*
X165848171Y-71839850D02*
X165848171Y-71696993D01*
X165848171Y-71696993D02*
X165895790Y-71601755D01*
X165895790Y-71601755D02*
X165943409Y-71554136D01*
X165943409Y-71554136D02*
X166038647Y-71506517D01*
X166038647Y-71506517D02*
X166276742Y-71506517D01*
X166276742Y-71506517D02*
X166371980Y-71554136D01*
X166371980Y-71554136D02*
X166419600Y-71601755D01*
X166419600Y-71601755D02*
X166467219Y-71696993D01*
X166467219Y-71696993D02*
X166467219Y-71982707D01*
X166467219Y-71982707D02*
X166419600Y-72077945D01*
X166419600Y-72077945D02*
X166371980Y-72125564D01*
X165467219Y-71220802D02*
X166467219Y-70887469D01*
X166467219Y-70887469D02*
X165467219Y-70554136D01*
X165467219Y-70316040D02*
X165467219Y-69696993D01*
X165467219Y-69696993D02*
X165848171Y-70030326D01*
X165848171Y-70030326D02*
X165848171Y-69887469D01*
X165848171Y-69887469D02*
X165895790Y-69792231D01*
X165895790Y-69792231D02*
X165943409Y-69744612D01*
X165943409Y-69744612D02*
X166038647Y-69696993D01*
X166038647Y-69696993D02*
X166276742Y-69696993D01*
X166276742Y-69696993D02*
X166371980Y-69744612D01*
X166371980Y-69744612D02*
X166419600Y-69792231D01*
X166419600Y-69792231D02*
X166467219Y-69887469D01*
X166467219Y-69887469D02*
X166467219Y-70173183D01*
X166467219Y-70173183D02*
X166419600Y-70268421D01*
X166419600Y-70268421D02*
X166371980Y-70316040D01*
X168114838Y-71706517D02*
X168067219Y-71801755D01*
X168067219Y-71801755D02*
X168067219Y-71944612D01*
X168067219Y-71944612D02*
X168114838Y-72087469D01*
X168114838Y-72087469D02*
X168210076Y-72182707D01*
X168210076Y-72182707D02*
X168305314Y-72230326D01*
X168305314Y-72230326D02*
X168495790Y-72277945D01*
X168495790Y-72277945D02*
X168638647Y-72277945D01*
X168638647Y-72277945D02*
X168829123Y-72230326D01*
X168829123Y-72230326D02*
X168924361Y-72182707D01*
X168924361Y-72182707D02*
X169019600Y-72087469D01*
X169019600Y-72087469D02*
X169067219Y-71944612D01*
X169067219Y-71944612D02*
X169067219Y-71849374D01*
X169067219Y-71849374D02*
X169019600Y-71706517D01*
X169019600Y-71706517D02*
X168971980Y-71658898D01*
X168971980Y-71658898D02*
X168638647Y-71658898D01*
X168638647Y-71658898D02*
X168638647Y-71849374D01*
X169067219Y-71230326D02*
X168067219Y-71230326D01*
X168067219Y-71230326D02*
X169067219Y-70658898D01*
X169067219Y-70658898D02*
X168067219Y-70658898D01*
X169067219Y-70182707D02*
X168067219Y-70182707D01*
X168067219Y-70182707D02*
X168067219Y-69944612D01*
X168067219Y-69944612D02*
X168114838Y-69801755D01*
X168114838Y-69801755D02*
X168210076Y-69706517D01*
X168210076Y-69706517D02*
X168305314Y-69658898D01*
X168305314Y-69658898D02*
X168495790Y-69611279D01*
X168495790Y-69611279D02*
X168638647Y-69611279D01*
X168638647Y-69611279D02*
X168829123Y-69658898D01*
X168829123Y-69658898D02*
X168924361Y-69706517D01*
X168924361Y-69706517D02*
X169019600Y-69801755D01*
X169019600Y-69801755D02*
X169067219Y-69944612D01*
X169067219Y-69944612D02*
X169067219Y-70182707D01*
X174019600Y-74449374D02*
X174067219Y-74544612D01*
X174067219Y-74544612D02*
X174067219Y-74735088D01*
X174067219Y-74735088D02*
X174019600Y-74830326D01*
X174019600Y-74830326D02*
X173924361Y-74877945D01*
X173924361Y-74877945D02*
X173543409Y-74877945D01*
X173543409Y-74877945D02*
X173448171Y-74830326D01*
X173448171Y-74830326D02*
X173400552Y-74735088D01*
X173400552Y-74735088D02*
X173400552Y-74544612D01*
X173400552Y-74544612D02*
X173448171Y-74449374D01*
X173448171Y-74449374D02*
X173543409Y-74401755D01*
X173543409Y-74401755D02*
X173638647Y-74401755D01*
X173638647Y-74401755D02*
X173733885Y-74877945D01*
X173400552Y-73973183D02*
X174067219Y-73973183D01*
X173495790Y-73973183D02*
X173448171Y-73925564D01*
X173448171Y-73925564D02*
X173400552Y-73830326D01*
X173400552Y-73830326D02*
X173400552Y-73687469D01*
X173400552Y-73687469D02*
X173448171Y-73592231D01*
X173448171Y-73592231D02*
X173543409Y-73544612D01*
X173543409Y-73544612D02*
X174067219Y-73544612D01*
X174067219Y-73068421D02*
X173067219Y-73068421D01*
X173686266Y-72973183D02*
X174067219Y-72687469D01*
X173400552Y-72687469D02*
X173781504Y-73068421D01*
X173686266Y-72258897D02*
X173686266Y-71496993D01*
X173162457Y-71068421D02*
X173114838Y-71020802D01*
X173114838Y-71020802D02*
X173067219Y-70925564D01*
X173067219Y-70925564D02*
X173067219Y-70687469D01*
X173067219Y-70687469D02*
X173114838Y-70592231D01*
X173114838Y-70592231D02*
X173162457Y-70544612D01*
X173162457Y-70544612D02*
X173257695Y-70496993D01*
X173257695Y-70496993D02*
X173352933Y-70496993D01*
X173352933Y-70496993D02*
X173495790Y-70544612D01*
X173495790Y-70544612D02*
X174067219Y-71116040D01*
X174067219Y-71116040D02*
X174067219Y-70496993D01*
X173543409Y-69735088D02*
X173591028Y-69592231D01*
X173591028Y-69592231D02*
X173638647Y-69544612D01*
X173638647Y-69544612D02*
X173733885Y-69496993D01*
X173733885Y-69496993D02*
X173876742Y-69496993D01*
X173876742Y-69496993D02*
X173971980Y-69544612D01*
X173971980Y-69544612D02*
X174019600Y-69592231D01*
X174019600Y-69592231D02*
X174067219Y-69687469D01*
X174067219Y-69687469D02*
X174067219Y-70068421D01*
X174067219Y-70068421D02*
X173067219Y-70068421D01*
X173067219Y-70068421D02*
X173067219Y-69735088D01*
X173067219Y-69735088D02*
X173114838Y-69639850D01*
X173114838Y-69639850D02*
X173162457Y-69592231D01*
X173162457Y-69592231D02*
X173257695Y-69544612D01*
X173257695Y-69544612D02*
X173352933Y-69544612D01*
X173352933Y-69544612D02*
X173448171Y-69592231D01*
X173448171Y-69592231D02*
X173495790Y-69639850D01*
X173495790Y-69639850D02*
X173543409Y-69735088D01*
X173543409Y-69735088D02*
X173543409Y-70068421D01*
D12*
X141476691Y-73693775D02*
X141095739Y-73693775D01*
X141095739Y-73693775D02*
X141057643Y-74074727D01*
X141057643Y-74074727D02*
X141095739Y-74036632D01*
X141095739Y-74036632D02*
X141171929Y-73998537D01*
X141171929Y-73998537D02*
X141362405Y-73998537D01*
X141362405Y-73998537D02*
X141438596Y-74036632D01*
X141438596Y-74036632D02*
X141476691Y-74074727D01*
X141476691Y-74074727D02*
X141514786Y-74150918D01*
X141514786Y-74150918D02*
X141514786Y-74341394D01*
X141514786Y-74341394D02*
X141476691Y-74417584D01*
X141476691Y-74417584D02*
X141438596Y-74455680D01*
X141438596Y-74455680D02*
X141362405Y-74493775D01*
X141362405Y-74493775D02*
X141171929Y-74493775D01*
X141171929Y-74493775D02*
X141095739Y-74455680D01*
X141095739Y-74455680D02*
X141057643Y-74417584D01*
X141743358Y-73693775D02*
X142010025Y-74493775D01*
X142010025Y-74493775D02*
X142276691Y-73693775D01*
D11*
X140500000Y-72300000D02*
X142700000Y-72300000D01*
X143300000Y-72300000D02*
X145500000Y-72300000D01*
D12*
X137819548Y-71893775D02*
X138314786Y-71893775D01*
X138314786Y-71893775D02*
X138048120Y-72198537D01*
X138048120Y-72198537D02*
X138162405Y-72198537D01*
X138162405Y-72198537D02*
X138238596Y-72236632D01*
X138238596Y-72236632D02*
X138276691Y-72274727D01*
X138276691Y-72274727D02*
X138314786Y-72350918D01*
X138314786Y-72350918D02*
X138314786Y-72541394D01*
X138314786Y-72541394D02*
X138276691Y-72617584D01*
X138276691Y-72617584D02*
X138238596Y-72655680D01*
X138238596Y-72655680D02*
X138162405Y-72693775D01*
X138162405Y-72693775D02*
X137933834Y-72693775D01*
X137933834Y-72693775D02*
X137857643Y-72655680D01*
X137857643Y-72655680D02*
X137819548Y-72617584D01*
X138543358Y-71893775D02*
X138810025Y-72693775D01*
X138810025Y-72693775D02*
X139076691Y-71893775D01*
X139267167Y-71893775D02*
X139762405Y-71893775D01*
X139762405Y-71893775D02*
X139495739Y-72198537D01*
X139495739Y-72198537D02*
X139610024Y-72198537D01*
X139610024Y-72198537D02*
X139686215Y-72236632D01*
X139686215Y-72236632D02*
X139724310Y-72274727D01*
X139724310Y-72274727D02*
X139762405Y-72350918D01*
X139762405Y-72350918D02*
X139762405Y-72541394D01*
X139762405Y-72541394D02*
X139724310Y-72617584D01*
X139724310Y-72617584D02*
X139686215Y-72655680D01*
X139686215Y-72655680D02*
X139610024Y-72693775D01*
X139610024Y-72693775D02*
X139381453Y-72693775D01*
X139381453Y-72693775D02*
X139305262Y-72655680D01*
X139305262Y-72655680D02*
X139267167Y-72617584D01*
X138676691Y-73693775D02*
X138295739Y-73693775D01*
X138295739Y-73693775D02*
X138257643Y-74074727D01*
X138257643Y-74074727D02*
X138295739Y-74036632D01*
X138295739Y-74036632D02*
X138371929Y-73998537D01*
X138371929Y-73998537D02*
X138562405Y-73998537D01*
X138562405Y-73998537D02*
X138638596Y-74036632D01*
X138638596Y-74036632D02*
X138676691Y-74074727D01*
X138676691Y-74074727D02*
X138714786Y-74150918D01*
X138714786Y-74150918D02*
X138714786Y-74341394D01*
X138714786Y-74341394D02*
X138676691Y-74417584D01*
X138676691Y-74417584D02*
X138638596Y-74455680D01*
X138638596Y-74455680D02*
X138562405Y-74493775D01*
X138562405Y-74493775D02*
X138371929Y-74493775D01*
X138371929Y-74493775D02*
X138295739Y-74455680D01*
X138295739Y-74455680D02*
X138257643Y-74417584D01*
X138943358Y-73693775D02*
X139210025Y-74493775D01*
X139210025Y-74493775D02*
X139476691Y-73693775D01*
X143714786Y-73731870D02*
X143638596Y-73693775D01*
X143638596Y-73693775D02*
X143524310Y-73693775D01*
X143524310Y-73693775D02*
X143410024Y-73731870D01*
X143410024Y-73731870D02*
X143333834Y-73808060D01*
X143333834Y-73808060D02*
X143295739Y-73884251D01*
X143295739Y-73884251D02*
X143257643Y-74036632D01*
X143257643Y-74036632D02*
X143257643Y-74150918D01*
X143257643Y-74150918D02*
X143295739Y-74303299D01*
X143295739Y-74303299D02*
X143333834Y-74379489D01*
X143333834Y-74379489D02*
X143410024Y-74455680D01*
X143410024Y-74455680D02*
X143524310Y-74493775D01*
X143524310Y-74493775D02*
X143600501Y-74493775D01*
X143600501Y-74493775D02*
X143714786Y-74455680D01*
X143714786Y-74455680D02*
X143752882Y-74417584D01*
X143752882Y-74417584D02*
X143752882Y-74150918D01*
X143752882Y-74150918D02*
X143600501Y-74150918D01*
X144095739Y-74493775D02*
X144095739Y-73693775D01*
X144095739Y-73693775D02*
X144552882Y-74493775D01*
X144552882Y-74493775D02*
X144552882Y-73693775D01*
X144933834Y-74493775D02*
X144933834Y-73693775D01*
X144933834Y-73693775D02*
X145124310Y-73693775D01*
X145124310Y-73693775D02*
X145238596Y-73731870D01*
X145238596Y-73731870D02*
X145314786Y-73808060D01*
X145314786Y-73808060D02*
X145352881Y-73884251D01*
X145352881Y-73884251D02*
X145390977Y-74036632D01*
X145390977Y-74036632D02*
X145390977Y-74150918D01*
X145390977Y-74150918D02*
X145352881Y-74303299D01*
X145352881Y-74303299D02*
X145314786Y-74379489D01*
X145314786Y-74379489D02*
X145238596Y-74455680D01*
X145238596Y-74455680D02*
X145124310Y-74493775D01*
X145124310Y-74493775D02*
X144933834Y-74493775D01*
X143457643Y-72655680D02*
X143571929Y-72693775D01*
X143571929Y-72693775D02*
X143762405Y-72693775D01*
X143762405Y-72693775D02*
X143838596Y-72655680D01*
X143838596Y-72655680D02*
X143876691Y-72617584D01*
X143876691Y-72617584D02*
X143914786Y-72541394D01*
X143914786Y-72541394D02*
X143914786Y-72465203D01*
X143914786Y-72465203D02*
X143876691Y-72389013D01*
X143876691Y-72389013D02*
X143838596Y-72350918D01*
X143838596Y-72350918D02*
X143762405Y-72312822D01*
X143762405Y-72312822D02*
X143610024Y-72274727D01*
X143610024Y-72274727D02*
X143533834Y-72236632D01*
X143533834Y-72236632D02*
X143495739Y-72198537D01*
X143495739Y-72198537D02*
X143457643Y-72122346D01*
X143457643Y-72122346D02*
X143457643Y-72046156D01*
X143457643Y-72046156D02*
X143495739Y-71969965D01*
X143495739Y-71969965D02*
X143533834Y-71931870D01*
X143533834Y-71931870D02*
X143610024Y-71893775D01*
X143610024Y-71893775D02*
X143800501Y-71893775D01*
X143800501Y-71893775D02*
X143914786Y-71931870D01*
X144714787Y-72617584D02*
X144676691Y-72655680D01*
X144676691Y-72655680D02*
X144562406Y-72693775D01*
X144562406Y-72693775D02*
X144486215Y-72693775D01*
X144486215Y-72693775D02*
X144371929Y-72655680D01*
X144371929Y-72655680D02*
X144295739Y-72579489D01*
X144295739Y-72579489D02*
X144257644Y-72503299D01*
X144257644Y-72503299D02*
X144219548Y-72350918D01*
X144219548Y-72350918D02*
X144219548Y-72236632D01*
X144219548Y-72236632D02*
X144257644Y-72084251D01*
X144257644Y-72084251D02*
X144295739Y-72008060D01*
X144295739Y-72008060D02*
X144371929Y-71931870D01*
X144371929Y-71931870D02*
X144486215Y-71893775D01*
X144486215Y-71893775D02*
X144562406Y-71893775D01*
X144562406Y-71893775D02*
X144676691Y-71931870D01*
X144676691Y-71931870D02*
X144714787Y-71969965D01*
X145438596Y-72693775D02*
X145057644Y-72693775D01*
X145057644Y-72693775D02*
X145057644Y-71893775D01*
X140657643Y-72655680D02*
X140771929Y-72693775D01*
X140771929Y-72693775D02*
X140962405Y-72693775D01*
X140962405Y-72693775D02*
X141038596Y-72655680D01*
X141038596Y-72655680D02*
X141076691Y-72617584D01*
X141076691Y-72617584D02*
X141114786Y-72541394D01*
X141114786Y-72541394D02*
X141114786Y-72465203D01*
X141114786Y-72465203D02*
X141076691Y-72389013D01*
X141076691Y-72389013D02*
X141038596Y-72350918D01*
X141038596Y-72350918D02*
X140962405Y-72312822D01*
X140962405Y-72312822D02*
X140810024Y-72274727D01*
X140810024Y-72274727D02*
X140733834Y-72236632D01*
X140733834Y-72236632D02*
X140695739Y-72198537D01*
X140695739Y-72198537D02*
X140657643Y-72122346D01*
X140657643Y-72122346D02*
X140657643Y-72046156D01*
X140657643Y-72046156D02*
X140695739Y-71969965D01*
X140695739Y-71969965D02*
X140733834Y-71931870D01*
X140733834Y-71931870D02*
X140810024Y-71893775D01*
X140810024Y-71893775D02*
X141000501Y-71893775D01*
X141000501Y-71893775D02*
X141114786Y-71931870D01*
X141457644Y-72693775D02*
X141457644Y-71893775D01*
X141457644Y-71893775D02*
X141648120Y-71893775D01*
X141648120Y-71893775D02*
X141762406Y-71931870D01*
X141762406Y-71931870D02*
X141838596Y-72008060D01*
X141838596Y-72008060D02*
X141876691Y-72084251D01*
X141876691Y-72084251D02*
X141914787Y-72236632D01*
X141914787Y-72236632D02*
X141914787Y-72350918D01*
X141914787Y-72350918D02*
X141876691Y-72503299D01*
X141876691Y-72503299D02*
X141838596Y-72579489D01*
X141838596Y-72579489D02*
X141762406Y-72655680D01*
X141762406Y-72655680D02*
X141648120Y-72693775D01*
X141648120Y-72693775D02*
X141457644Y-72693775D01*
X142219548Y-72465203D02*
X142600501Y-72465203D01*
X142143358Y-72693775D02*
X142410025Y-71893775D01*
X142410025Y-71893775D02*
X142676691Y-72693775D01*
D11*
X126500000Y-71100000D02*
X126500000Y-68900000D01*
X171310000Y-106410000D02*
G75*
G02*
X170310000Y-106410000I-500000J0D01*
G01*
X170310000Y-106410000D02*
G75*
G02*
X171310000Y-106410000I500000J0D01*
G01*
X169060100Y-106410000D02*
G75*
G02*
X168059900Y-106410000I-500100J0D01*
G01*
X168059900Y-106410000D02*
G75*
G02*
X169060100Y-106410000I500100J0D01*
G01*
X126500000Y-68300000D02*
X126500000Y-66100000D01*
X170243291Y-107217689D02*
G75*
G02*
X169182217Y-107231063I-529991J-50011D01*
G01*
D13*
X172730414Y-106560000D02*
G75*
G02*
X166689586Y-106560000I-3020414J0D01*
G01*
X166689586Y-106560000D02*
G75*
G02*
X172730414Y-106560000I3020414J0D01*
G01*
D12*
X163076691Y-85693775D02*
X162695739Y-85693775D01*
X162695739Y-85693775D02*
X162657643Y-86074727D01*
X162657643Y-86074727D02*
X162695739Y-86036632D01*
X162695739Y-86036632D02*
X162771929Y-85998537D01*
X162771929Y-85998537D02*
X162962405Y-85998537D01*
X162962405Y-85998537D02*
X163038596Y-86036632D01*
X163038596Y-86036632D02*
X163076691Y-86074727D01*
X163076691Y-86074727D02*
X163114786Y-86150918D01*
X163114786Y-86150918D02*
X163114786Y-86341394D01*
X163114786Y-86341394D02*
X163076691Y-86417584D01*
X163076691Y-86417584D02*
X163038596Y-86455680D01*
X163038596Y-86455680D02*
X162962405Y-86493775D01*
X162962405Y-86493775D02*
X162771929Y-86493775D01*
X162771929Y-86493775D02*
X162695739Y-86455680D01*
X162695739Y-86455680D02*
X162657643Y-86417584D01*
X163343358Y-85693775D02*
X163610025Y-86493775D01*
X163610025Y-86493775D02*
X163876691Y-85693775D01*
D11*
X114867219Y-72125564D02*
X114867219Y-71506517D01*
X114867219Y-71506517D02*
X115248171Y-71839850D01*
X115248171Y-71839850D02*
X115248171Y-71696993D01*
X115248171Y-71696993D02*
X115295790Y-71601755D01*
X115295790Y-71601755D02*
X115343409Y-71554136D01*
X115343409Y-71554136D02*
X115438647Y-71506517D01*
X115438647Y-71506517D02*
X115676742Y-71506517D01*
X115676742Y-71506517D02*
X115771980Y-71554136D01*
X115771980Y-71554136D02*
X115819600Y-71601755D01*
X115819600Y-71601755D02*
X115867219Y-71696993D01*
X115867219Y-71696993D02*
X115867219Y-71982707D01*
X115867219Y-71982707D02*
X115819600Y-72077945D01*
X115819600Y-72077945D02*
X115771980Y-72125564D01*
X114867219Y-71220802D02*
X115867219Y-70887469D01*
X115867219Y-70887469D02*
X114867219Y-70554136D01*
X114867219Y-70316040D02*
X114867219Y-69696993D01*
X114867219Y-69696993D02*
X115248171Y-70030326D01*
X115248171Y-70030326D02*
X115248171Y-69887469D01*
X115248171Y-69887469D02*
X115295790Y-69792231D01*
X115295790Y-69792231D02*
X115343409Y-69744612D01*
X115343409Y-69744612D02*
X115438647Y-69696993D01*
X115438647Y-69696993D02*
X115676742Y-69696993D01*
X115676742Y-69696993D02*
X115771980Y-69744612D01*
X115771980Y-69744612D02*
X115819600Y-69792231D01*
X115819600Y-69792231D02*
X115867219Y-69887469D01*
X115867219Y-69887469D02*
X115867219Y-70173183D01*
X115867219Y-70173183D02*
X115819600Y-70268421D01*
X115819600Y-70268421D02*
X115771980Y-70316040D01*
D14*
X120054185Y-105308047D02*
X120054185Y-102808047D01*
X121244661Y-105308047D02*
X121244661Y-102808047D01*
X121244661Y-102808047D02*
X121839899Y-102808047D01*
X121839899Y-102808047D02*
X122197042Y-102927095D01*
X122197042Y-102927095D02*
X122435137Y-103165190D01*
X122435137Y-103165190D02*
X122554184Y-103403285D01*
X122554184Y-103403285D02*
X122673232Y-103879476D01*
X122673232Y-103879476D02*
X122673232Y-104236619D01*
X122673232Y-104236619D02*
X122554184Y-104712809D01*
X122554184Y-104712809D02*
X122435137Y-104950904D01*
X122435137Y-104950904D02*
X122197042Y-105189000D01*
X122197042Y-105189000D02*
X121839899Y-105308047D01*
X121839899Y-105308047D02*
X121244661Y-105308047D01*
X123744661Y-104355666D02*
X125649423Y-104355666D01*
X127911327Y-102808047D02*
X127435137Y-102808047D01*
X127435137Y-102808047D02*
X127197041Y-102927095D01*
X127197041Y-102927095D02*
X127077994Y-103046142D01*
X127077994Y-103046142D02*
X126839899Y-103403285D01*
X126839899Y-103403285D02*
X126720851Y-103879476D01*
X126720851Y-103879476D02*
X126720851Y-104831857D01*
X126720851Y-104831857D02*
X126839899Y-105069952D01*
X126839899Y-105069952D02*
X126958946Y-105189000D01*
X126958946Y-105189000D02*
X127197041Y-105308047D01*
X127197041Y-105308047D02*
X127673232Y-105308047D01*
X127673232Y-105308047D02*
X127911327Y-105189000D01*
X127911327Y-105189000D02*
X128030375Y-105069952D01*
X128030375Y-105069952D02*
X128149422Y-104831857D01*
X128149422Y-104831857D02*
X128149422Y-104236619D01*
X128149422Y-104236619D02*
X128030375Y-103998523D01*
X128030375Y-103998523D02*
X127911327Y-103879476D01*
X127911327Y-103879476D02*
X127673232Y-103760428D01*
X127673232Y-103760428D02*
X127197041Y-103760428D01*
X127197041Y-103760428D02*
X126958946Y-103879476D01*
X126958946Y-103879476D02*
X126839899Y-103998523D01*
X126839899Y-103998523D02*
X126720851Y-104236619D01*
X130411327Y-102808047D02*
X129220851Y-102808047D01*
X129220851Y-102808047D02*
X129101803Y-103998523D01*
X129101803Y-103998523D02*
X129220851Y-103879476D01*
X129220851Y-103879476D02*
X129458946Y-103760428D01*
X129458946Y-103760428D02*
X130054184Y-103760428D01*
X130054184Y-103760428D02*
X130292279Y-103879476D01*
X130292279Y-103879476D02*
X130411327Y-103998523D01*
X130411327Y-103998523D02*
X130530374Y-104236619D01*
X130530374Y-104236619D02*
X130530374Y-104831857D01*
X130530374Y-104831857D02*
X130411327Y-105069952D01*
X130411327Y-105069952D02*
X130292279Y-105189000D01*
X130292279Y-105189000D02*
X130054184Y-105308047D01*
X130054184Y-105308047D02*
X129458946Y-105308047D01*
X129458946Y-105308047D02*
X129220851Y-105189000D01*
X129220851Y-105189000D02*
X129101803Y-105069952D01*
X132673231Y-102808047D02*
X132197041Y-102808047D01*
X132197041Y-102808047D02*
X131958945Y-102927095D01*
X131958945Y-102927095D02*
X131839898Y-103046142D01*
X131839898Y-103046142D02*
X131601803Y-103403285D01*
X131601803Y-103403285D02*
X131482755Y-103879476D01*
X131482755Y-103879476D02*
X131482755Y-104831857D01*
X131482755Y-104831857D02*
X131601803Y-105069952D01*
X131601803Y-105069952D02*
X131720850Y-105189000D01*
X131720850Y-105189000D02*
X131958945Y-105308047D01*
X131958945Y-105308047D02*
X132435136Y-105308047D01*
X132435136Y-105308047D02*
X132673231Y-105189000D01*
X132673231Y-105189000D02*
X132792279Y-105069952D01*
X132792279Y-105069952D02*
X132911326Y-104831857D01*
X132911326Y-104831857D02*
X132911326Y-104236619D01*
X132911326Y-104236619D02*
X132792279Y-103998523D01*
X132792279Y-103998523D02*
X132673231Y-103879476D01*
X132673231Y-103879476D02*
X132435136Y-103760428D01*
X132435136Y-103760428D02*
X131958945Y-103760428D01*
X131958945Y-103760428D02*
X131720850Y-103879476D01*
X131720850Y-103879476D02*
X131601803Y-103998523D01*
X131601803Y-103998523D02*
X131482755Y-104236619D01*
D11*
X110941101Y-104567219D02*
X110607768Y-104091028D01*
X110369673Y-104567219D02*
X110369673Y-103567219D01*
X110369673Y-103567219D02*
X110750625Y-103567219D01*
X110750625Y-103567219D02*
X110845863Y-103614838D01*
X110845863Y-103614838D02*
X110893482Y-103662457D01*
X110893482Y-103662457D02*
X110941101Y-103757695D01*
X110941101Y-103757695D02*
X110941101Y-103900552D01*
X110941101Y-103900552D02*
X110893482Y-103995790D01*
X110893482Y-103995790D02*
X110845863Y-104043409D01*
X110845863Y-104043409D02*
X110750625Y-104091028D01*
X110750625Y-104091028D02*
X110369673Y-104091028D01*
X111274435Y-103567219D02*
X111941101Y-104567219D01*
X111941101Y-103567219D02*
X111274435Y-104567219D01*
X117514838Y-71706517D02*
X117467219Y-71801755D01*
X117467219Y-71801755D02*
X117467219Y-71944612D01*
X117467219Y-71944612D02*
X117514838Y-72087469D01*
X117514838Y-72087469D02*
X117610076Y-72182707D01*
X117610076Y-72182707D02*
X117705314Y-72230326D01*
X117705314Y-72230326D02*
X117895790Y-72277945D01*
X117895790Y-72277945D02*
X118038647Y-72277945D01*
X118038647Y-72277945D02*
X118229123Y-72230326D01*
X118229123Y-72230326D02*
X118324361Y-72182707D01*
X118324361Y-72182707D02*
X118419600Y-72087469D01*
X118419600Y-72087469D02*
X118467219Y-71944612D01*
X118467219Y-71944612D02*
X118467219Y-71849374D01*
X118467219Y-71849374D02*
X118419600Y-71706517D01*
X118419600Y-71706517D02*
X118371980Y-71658898D01*
X118371980Y-71658898D02*
X118038647Y-71658898D01*
X118038647Y-71658898D02*
X118038647Y-71849374D01*
X118467219Y-71230326D02*
X117467219Y-71230326D01*
X117467219Y-71230326D02*
X118467219Y-70658898D01*
X118467219Y-70658898D02*
X117467219Y-70658898D01*
X118467219Y-70182707D02*
X117467219Y-70182707D01*
X117467219Y-70182707D02*
X117467219Y-69944612D01*
X117467219Y-69944612D02*
X117514838Y-69801755D01*
X117514838Y-69801755D02*
X117610076Y-69706517D01*
X117610076Y-69706517D02*
X117705314Y-69658898D01*
X117705314Y-69658898D02*
X117895790Y-69611279D01*
X117895790Y-69611279D02*
X118038647Y-69611279D01*
X118038647Y-69611279D02*
X118229123Y-69658898D01*
X118229123Y-69658898D02*
X118324361Y-69706517D01*
X118324361Y-69706517D02*
X118419600Y-69801755D01*
X118419600Y-69801755D02*
X118467219Y-69944612D01*
X118467219Y-69944612D02*
X118467219Y-70182707D01*
X110122054Y-88519600D02*
X110264911Y-88567219D01*
X110264911Y-88567219D02*
X110503006Y-88567219D01*
X110503006Y-88567219D02*
X110598244Y-88519600D01*
X110598244Y-88519600D02*
X110645863Y-88471980D01*
X110645863Y-88471980D02*
X110693482Y-88376742D01*
X110693482Y-88376742D02*
X110693482Y-88281504D01*
X110693482Y-88281504D02*
X110645863Y-88186266D01*
X110645863Y-88186266D02*
X110598244Y-88138647D01*
X110598244Y-88138647D02*
X110503006Y-88091028D01*
X110503006Y-88091028D02*
X110312530Y-88043409D01*
X110312530Y-88043409D02*
X110217292Y-87995790D01*
X110217292Y-87995790D02*
X110169673Y-87948171D01*
X110169673Y-87948171D02*
X110122054Y-87852933D01*
X110122054Y-87852933D02*
X110122054Y-87757695D01*
X110122054Y-87757695D02*
X110169673Y-87662457D01*
X110169673Y-87662457D02*
X110217292Y-87614838D01*
X110217292Y-87614838D02*
X110312530Y-87567219D01*
X110312530Y-87567219D02*
X110550625Y-87567219D01*
X110550625Y-87567219D02*
X110693482Y-87614838D01*
X111026816Y-87567219D02*
X111264911Y-88567219D01*
X111264911Y-88567219D02*
X111455387Y-87852933D01*
X111455387Y-87852933D02*
X111645863Y-88567219D01*
X111645863Y-88567219D02*
X111883959Y-87567219D01*
X112264911Y-88567219D02*
X112264911Y-87567219D01*
X112264911Y-87567219D02*
X112503006Y-87567219D01*
X112503006Y-87567219D02*
X112645863Y-87614838D01*
X112645863Y-87614838D02*
X112741101Y-87710076D01*
X112741101Y-87710076D02*
X112788720Y-87805314D01*
X112788720Y-87805314D02*
X112836339Y-87995790D01*
X112836339Y-87995790D02*
X112836339Y-88138647D01*
X112836339Y-88138647D02*
X112788720Y-88329123D01*
X112788720Y-88329123D02*
X112741101Y-88424361D01*
X112741101Y-88424361D02*
X112645863Y-88519600D01*
X112645863Y-88519600D02*
X112503006Y-88567219D01*
X112503006Y-88567219D02*
X112264911Y-88567219D01*
X113264911Y-88567219D02*
X113264911Y-87567219D01*
X113931577Y-87567219D02*
X114122053Y-87567219D01*
X114122053Y-87567219D02*
X114217291Y-87614838D01*
X114217291Y-87614838D02*
X114312529Y-87710076D01*
X114312529Y-87710076D02*
X114360148Y-87900552D01*
X114360148Y-87900552D02*
X114360148Y-88233885D01*
X114360148Y-88233885D02*
X114312529Y-88424361D01*
X114312529Y-88424361D02*
X114217291Y-88519600D01*
X114217291Y-88519600D02*
X114122053Y-88567219D01*
X114122053Y-88567219D02*
X113931577Y-88567219D01*
X113931577Y-88567219D02*
X113836339Y-88519600D01*
X113836339Y-88519600D02*
X113741101Y-88424361D01*
X113741101Y-88424361D02*
X113693482Y-88233885D01*
X113693482Y-88233885D02*
X113693482Y-87900552D01*
X113693482Y-87900552D02*
X113741101Y-87710076D01*
X113741101Y-87710076D02*
X113836339Y-87614838D01*
X113836339Y-87614838D02*
X113931577Y-87567219D01*
X110893482Y-108814838D02*
X110798244Y-108767219D01*
X110798244Y-108767219D02*
X110655387Y-108767219D01*
X110655387Y-108767219D02*
X110512530Y-108814838D01*
X110512530Y-108814838D02*
X110417292Y-108910076D01*
X110417292Y-108910076D02*
X110369673Y-109005314D01*
X110369673Y-109005314D02*
X110322054Y-109195790D01*
X110322054Y-109195790D02*
X110322054Y-109338647D01*
X110322054Y-109338647D02*
X110369673Y-109529123D01*
X110369673Y-109529123D02*
X110417292Y-109624361D01*
X110417292Y-109624361D02*
X110512530Y-109719600D01*
X110512530Y-109719600D02*
X110655387Y-109767219D01*
X110655387Y-109767219D02*
X110750625Y-109767219D01*
X110750625Y-109767219D02*
X110893482Y-109719600D01*
X110893482Y-109719600D02*
X110941101Y-109671980D01*
X110941101Y-109671980D02*
X110941101Y-109338647D01*
X110941101Y-109338647D02*
X110750625Y-109338647D01*
X111369673Y-109767219D02*
X111369673Y-108767219D01*
X111369673Y-108767219D02*
X111941101Y-109767219D01*
X111941101Y-109767219D02*
X111941101Y-108767219D01*
X112417292Y-109767219D02*
X112417292Y-108767219D01*
X112417292Y-108767219D02*
X112655387Y-108767219D01*
X112655387Y-108767219D02*
X112798244Y-108814838D01*
X112798244Y-108814838D02*
X112893482Y-108910076D01*
X112893482Y-108910076D02*
X112941101Y-109005314D01*
X112941101Y-109005314D02*
X112988720Y-109195790D01*
X112988720Y-109195790D02*
X112988720Y-109338647D01*
X112988720Y-109338647D02*
X112941101Y-109529123D01*
X112941101Y-109529123D02*
X112893482Y-109624361D01*
X112893482Y-109624361D02*
X112798244Y-109719600D01*
X112798244Y-109719600D02*
X112655387Y-109767219D01*
X112655387Y-109767219D02*
X112417292Y-109767219D01*
D12*
X162695739Y-89093775D02*
X162695739Y-88293775D01*
X163076691Y-89093775D02*
X163076691Y-88293775D01*
X163076691Y-88293775D02*
X163533834Y-89093775D01*
X163533834Y-89093775D02*
X163533834Y-88293775D01*
X163876690Y-88369965D02*
X163914786Y-88331870D01*
X163914786Y-88331870D02*
X163990976Y-88293775D01*
X163990976Y-88293775D02*
X164181452Y-88293775D01*
X164181452Y-88293775D02*
X164257643Y-88331870D01*
X164257643Y-88331870D02*
X164295738Y-88369965D01*
X164295738Y-88369965D02*
X164333833Y-88446156D01*
X164333833Y-88446156D02*
X164333833Y-88522346D01*
X164333833Y-88522346D02*
X164295738Y-88636632D01*
X164295738Y-88636632D02*
X163838595Y-89093775D01*
X163838595Y-89093775D02*
X164333833Y-89093775D01*
D11*
X123419600Y-74449374D02*
X123467219Y-74544612D01*
X123467219Y-74544612D02*
X123467219Y-74735088D01*
X123467219Y-74735088D02*
X123419600Y-74830326D01*
X123419600Y-74830326D02*
X123324361Y-74877945D01*
X123324361Y-74877945D02*
X122943409Y-74877945D01*
X122943409Y-74877945D02*
X122848171Y-74830326D01*
X122848171Y-74830326D02*
X122800552Y-74735088D01*
X122800552Y-74735088D02*
X122800552Y-74544612D01*
X122800552Y-74544612D02*
X122848171Y-74449374D01*
X122848171Y-74449374D02*
X122943409Y-74401755D01*
X122943409Y-74401755D02*
X123038647Y-74401755D01*
X123038647Y-74401755D02*
X123133885Y-74877945D01*
X122800552Y-73973183D02*
X123467219Y-73973183D01*
X122895790Y-73973183D02*
X122848171Y-73925564D01*
X122848171Y-73925564D02*
X122800552Y-73830326D01*
X122800552Y-73830326D02*
X122800552Y-73687469D01*
X122800552Y-73687469D02*
X122848171Y-73592231D01*
X122848171Y-73592231D02*
X122943409Y-73544612D01*
X122943409Y-73544612D02*
X123467219Y-73544612D01*
X123467219Y-73068421D02*
X122467219Y-73068421D01*
X123086266Y-72973183D02*
X123467219Y-72687469D01*
X122800552Y-72687469D02*
X123181504Y-73068421D01*
X123086266Y-72258897D02*
X123086266Y-71496993D01*
X123467219Y-70496993D02*
X123467219Y-71068421D01*
X123467219Y-70782707D02*
X122467219Y-70782707D01*
X122467219Y-70782707D02*
X122610076Y-70877945D01*
X122610076Y-70877945D02*
X122705314Y-70973183D01*
X122705314Y-70973183D02*
X122752933Y-71068421D01*
X122943409Y-69735088D02*
X122991028Y-69592231D01*
X122991028Y-69592231D02*
X123038647Y-69544612D01*
X123038647Y-69544612D02*
X123133885Y-69496993D01*
X123133885Y-69496993D02*
X123276742Y-69496993D01*
X123276742Y-69496993D02*
X123371980Y-69544612D01*
X123371980Y-69544612D02*
X123419600Y-69592231D01*
X123419600Y-69592231D02*
X123467219Y-69687469D01*
X123467219Y-69687469D02*
X123467219Y-70068421D01*
X123467219Y-70068421D02*
X122467219Y-70068421D01*
X122467219Y-70068421D02*
X122467219Y-69735088D01*
X122467219Y-69735088D02*
X122514838Y-69639850D01*
X122514838Y-69639850D02*
X122562457Y-69592231D01*
X122562457Y-69592231D02*
X122657695Y-69544612D01*
X122657695Y-69544612D02*
X122752933Y-69544612D01*
X122752933Y-69544612D02*
X122848171Y-69592231D01*
X122848171Y-69592231D02*
X122895790Y-69639850D01*
X122895790Y-69639850D02*
X122943409Y-69735088D01*
X122943409Y-69735088D02*
X122943409Y-70068421D01*
D12*
X171648120Y-80493775D02*
X171800501Y-80493775D01*
X171800501Y-80493775D02*
X171876691Y-80531870D01*
X171876691Y-80531870D02*
X171952882Y-80608060D01*
X171952882Y-80608060D02*
X171990977Y-80760441D01*
X171990977Y-80760441D02*
X171990977Y-81027108D01*
X171990977Y-81027108D02*
X171952882Y-81179489D01*
X171952882Y-81179489D02*
X171876691Y-81255680D01*
X171876691Y-81255680D02*
X171800501Y-81293775D01*
X171800501Y-81293775D02*
X171648120Y-81293775D01*
X171648120Y-81293775D02*
X171571929Y-81255680D01*
X171571929Y-81255680D02*
X171495739Y-81179489D01*
X171495739Y-81179489D02*
X171457643Y-81027108D01*
X171457643Y-81027108D02*
X171457643Y-80760441D01*
X171457643Y-80760441D02*
X171495739Y-80608060D01*
X171495739Y-80608060D02*
X171571929Y-80531870D01*
X171571929Y-80531870D02*
X171648120Y-80493775D01*
X172333834Y-80493775D02*
X172333834Y-81141394D01*
X172333834Y-81141394D02*
X172371929Y-81217584D01*
X172371929Y-81217584D02*
X172410024Y-81255680D01*
X172410024Y-81255680D02*
X172486215Y-81293775D01*
X172486215Y-81293775D02*
X172638596Y-81293775D01*
X172638596Y-81293775D02*
X172714786Y-81255680D01*
X172714786Y-81255680D02*
X172752881Y-81217584D01*
X172752881Y-81217584D02*
X172790977Y-81141394D01*
X172790977Y-81141394D02*
X172790977Y-80493775D01*
X173057643Y-80493775D02*
X173514786Y-80493775D01*
X173286214Y-81293775D02*
X173286214Y-80493775D01*
X174200500Y-81293775D02*
X173743357Y-81293775D01*
X173971929Y-81293775D02*
X173971929Y-80493775D01*
X173971929Y-80493775D02*
X173895738Y-80608060D01*
X173895738Y-80608060D02*
X173819548Y-80684251D01*
X173819548Y-80684251D02*
X173743357Y-80722346D01*
D11*
X110693482Y-85114838D02*
X110598244Y-85067219D01*
X110598244Y-85067219D02*
X110455387Y-85067219D01*
X110455387Y-85067219D02*
X110312530Y-85114838D01*
X110312530Y-85114838D02*
X110217292Y-85210076D01*
X110217292Y-85210076D02*
X110169673Y-85305314D01*
X110169673Y-85305314D02*
X110122054Y-85495790D01*
X110122054Y-85495790D02*
X110122054Y-85638647D01*
X110122054Y-85638647D02*
X110169673Y-85829123D01*
X110169673Y-85829123D02*
X110217292Y-85924361D01*
X110217292Y-85924361D02*
X110312530Y-86019600D01*
X110312530Y-86019600D02*
X110455387Y-86067219D01*
X110455387Y-86067219D02*
X110550625Y-86067219D01*
X110550625Y-86067219D02*
X110693482Y-86019600D01*
X110693482Y-86019600D02*
X110741101Y-85971980D01*
X110741101Y-85971980D02*
X110741101Y-85638647D01*
X110741101Y-85638647D02*
X110550625Y-85638647D01*
X111169673Y-86067219D02*
X111169673Y-85067219D01*
X111169673Y-85067219D02*
X111741101Y-86067219D01*
X111741101Y-86067219D02*
X111741101Y-85067219D01*
X112217292Y-86067219D02*
X112217292Y-85067219D01*
X112217292Y-85067219D02*
X112455387Y-85067219D01*
X112455387Y-85067219D02*
X112598244Y-85114838D01*
X112598244Y-85114838D02*
X112693482Y-85210076D01*
X112693482Y-85210076D02*
X112741101Y-85305314D01*
X112741101Y-85305314D02*
X112788720Y-85495790D01*
X112788720Y-85495790D02*
X112788720Y-85638647D01*
X112788720Y-85638647D02*
X112741101Y-85829123D01*
X112741101Y-85829123D02*
X112693482Y-85924361D01*
X112693482Y-85924361D02*
X112598244Y-86019600D01*
X112598244Y-86019600D02*
X112455387Y-86067219D01*
X112455387Y-86067219D02*
X112217292Y-86067219D01*
D12*
X162695739Y-91693775D02*
X162695739Y-90893775D01*
X163076691Y-91693775D02*
X163076691Y-90893775D01*
X163076691Y-90893775D02*
X163533834Y-91693775D01*
X163533834Y-91693775D02*
X163533834Y-90893775D01*
X164333833Y-91693775D02*
X163876690Y-91693775D01*
X164105262Y-91693775D02*
X164105262Y-90893775D01*
X164105262Y-90893775D02*
X164029071Y-91008060D01*
X164029071Y-91008060D02*
X163952881Y-91084251D01*
X163952881Y-91084251D02*
X163876690Y-91122346D01*
X177848120Y-83093775D02*
X178000501Y-83093775D01*
X178000501Y-83093775D02*
X178076691Y-83131870D01*
X178076691Y-83131870D02*
X178152882Y-83208060D01*
X178152882Y-83208060D02*
X178190977Y-83360441D01*
X178190977Y-83360441D02*
X178190977Y-83627108D01*
X178190977Y-83627108D02*
X178152882Y-83779489D01*
X178152882Y-83779489D02*
X178076691Y-83855680D01*
X178076691Y-83855680D02*
X178000501Y-83893775D01*
X178000501Y-83893775D02*
X177848120Y-83893775D01*
X177848120Y-83893775D02*
X177771929Y-83855680D01*
X177771929Y-83855680D02*
X177695739Y-83779489D01*
X177695739Y-83779489D02*
X177657643Y-83627108D01*
X177657643Y-83627108D02*
X177657643Y-83360441D01*
X177657643Y-83360441D02*
X177695739Y-83208060D01*
X177695739Y-83208060D02*
X177771929Y-83131870D01*
X177771929Y-83131870D02*
X177848120Y-83093775D01*
X178533834Y-83093775D02*
X178533834Y-83741394D01*
X178533834Y-83741394D02*
X178571929Y-83817584D01*
X178571929Y-83817584D02*
X178610024Y-83855680D01*
X178610024Y-83855680D02*
X178686215Y-83893775D01*
X178686215Y-83893775D02*
X178838596Y-83893775D01*
X178838596Y-83893775D02*
X178914786Y-83855680D01*
X178914786Y-83855680D02*
X178952881Y-83817584D01*
X178952881Y-83817584D02*
X178990977Y-83741394D01*
X178990977Y-83741394D02*
X178990977Y-83093775D01*
X179257643Y-83093775D02*
X179714786Y-83093775D01*
X179486214Y-83893775D02*
X179486214Y-83093775D01*
X179943357Y-83169965D02*
X179981453Y-83131870D01*
X179981453Y-83131870D02*
X180057643Y-83093775D01*
X180057643Y-83093775D02*
X180248119Y-83093775D01*
X180248119Y-83093775D02*
X180324310Y-83131870D01*
X180324310Y-83131870D02*
X180362405Y-83169965D01*
X180362405Y-83169965D02*
X180400500Y-83246156D01*
X180400500Y-83246156D02*
X180400500Y-83322346D01*
X180400500Y-83322346D02*
X180362405Y-83436632D01*
X180362405Y-83436632D02*
X179905262Y-83893775D01*
X179905262Y-83893775D02*
X180400500Y-83893775D01*
X177848120Y-80493775D02*
X178000501Y-80493775D01*
X178000501Y-80493775D02*
X178076691Y-80531870D01*
X178076691Y-80531870D02*
X178152882Y-80608060D01*
X178152882Y-80608060D02*
X178190977Y-80760441D01*
X178190977Y-80760441D02*
X178190977Y-81027108D01*
X178190977Y-81027108D02*
X178152882Y-81179489D01*
X178152882Y-81179489D02*
X178076691Y-81255680D01*
X178076691Y-81255680D02*
X178000501Y-81293775D01*
X178000501Y-81293775D02*
X177848120Y-81293775D01*
X177848120Y-81293775D02*
X177771929Y-81255680D01*
X177771929Y-81255680D02*
X177695739Y-81179489D01*
X177695739Y-81179489D02*
X177657643Y-81027108D01*
X177657643Y-81027108D02*
X177657643Y-80760441D01*
X177657643Y-80760441D02*
X177695739Y-80608060D01*
X177695739Y-80608060D02*
X177771929Y-80531870D01*
X177771929Y-80531870D02*
X177848120Y-80493775D01*
X178533834Y-80493775D02*
X178533834Y-81141394D01*
X178533834Y-81141394D02*
X178571929Y-81217584D01*
X178571929Y-81217584D02*
X178610024Y-81255680D01*
X178610024Y-81255680D02*
X178686215Y-81293775D01*
X178686215Y-81293775D02*
X178838596Y-81293775D01*
X178838596Y-81293775D02*
X178914786Y-81255680D01*
X178914786Y-81255680D02*
X178952881Y-81217584D01*
X178952881Y-81217584D02*
X178990977Y-81141394D01*
X178990977Y-81141394D02*
X178990977Y-80493775D01*
X179257643Y-80493775D02*
X179714786Y-80493775D01*
X179486214Y-81293775D02*
X179486214Y-80493775D01*
X180400500Y-81293775D02*
X179943357Y-81293775D01*
X180171929Y-81293775D02*
X180171929Y-80493775D01*
X180171929Y-80493775D02*
X180095738Y-80608060D01*
X180095738Y-80608060D02*
X180019548Y-80684251D01*
X180019548Y-80684251D02*
X179943357Y-80722346D01*
X171648120Y-83093775D02*
X171800501Y-83093775D01*
X171800501Y-83093775D02*
X171876691Y-83131870D01*
X171876691Y-83131870D02*
X171952882Y-83208060D01*
X171952882Y-83208060D02*
X171990977Y-83360441D01*
X171990977Y-83360441D02*
X171990977Y-83627108D01*
X171990977Y-83627108D02*
X171952882Y-83779489D01*
X171952882Y-83779489D02*
X171876691Y-83855680D01*
X171876691Y-83855680D02*
X171800501Y-83893775D01*
X171800501Y-83893775D02*
X171648120Y-83893775D01*
X171648120Y-83893775D02*
X171571929Y-83855680D01*
X171571929Y-83855680D02*
X171495739Y-83779489D01*
X171495739Y-83779489D02*
X171457643Y-83627108D01*
X171457643Y-83627108D02*
X171457643Y-83360441D01*
X171457643Y-83360441D02*
X171495739Y-83208060D01*
X171495739Y-83208060D02*
X171571929Y-83131870D01*
X171571929Y-83131870D02*
X171648120Y-83093775D01*
X172333834Y-83093775D02*
X172333834Y-83741394D01*
X172333834Y-83741394D02*
X172371929Y-83817584D01*
X172371929Y-83817584D02*
X172410024Y-83855680D01*
X172410024Y-83855680D02*
X172486215Y-83893775D01*
X172486215Y-83893775D02*
X172638596Y-83893775D01*
X172638596Y-83893775D02*
X172714786Y-83855680D01*
X172714786Y-83855680D02*
X172752881Y-83817584D01*
X172752881Y-83817584D02*
X172790977Y-83741394D01*
X172790977Y-83741394D02*
X172790977Y-83093775D01*
X173057643Y-83093775D02*
X173514786Y-83093775D01*
X173286214Y-83893775D02*
X173286214Y-83093775D01*
X173743357Y-83169965D02*
X173781453Y-83131870D01*
X173781453Y-83131870D02*
X173857643Y-83093775D01*
X173857643Y-83093775D02*
X174048119Y-83093775D01*
X174048119Y-83093775D02*
X174124310Y-83131870D01*
X174124310Y-83131870D02*
X174162405Y-83169965D01*
X174162405Y-83169965D02*
X174200500Y-83246156D01*
X174200500Y-83246156D02*
X174200500Y-83322346D01*
X174200500Y-83322346D02*
X174162405Y-83436632D01*
X174162405Y-83436632D02*
X173705262Y-83893775D01*
X173705262Y-83893775D02*
X174200500Y-83893775D01*
D11*
X110122054Y-83419600D02*
X110264911Y-83467219D01*
X110264911Y-83467219D02*
X110503006Y-83467219D01*
X110503006Y-83467219D02*
X110598244Y-83419600D01*
X110598244Y-83419600D02*
X110645863Y-83371980D01*
X110645863Y-83371980D02*
X110693482Y-83276742D01*
X110693482Y-83276742D02*
X110693482Y-83181504D01*
X110693482Y-83181504D02*
X110645863Y-83086266D01*
X110645863Y-83086266D02*
X110598244Y-83038647D01*
X110598244Y-83038647D02*
X110503006Y-82991028D01*
X110503006Y-82991028D02*
X110312530Y-82943409D01*
X110312530Y-82943409D02*
X110217292Y-82895790D01*
X110217292Y-82895790D02*
X110169673Y-82848171D01*
X110169673Y-82848171D02*
X110122054Y-82752933D01*
X110122054Y-82752933D02*
X110122054Y-82657695D01*
X110122054Y-82657695D02*
X110169673Y-82562457D01*
X110169673Y-82562457D02*
X110217292Y-82514838D01*
X110217292Y-82514838D02*
X110312530Y-82467219D01*
X110312530Y-82467219D02*
X110550625Y-82467219D01*
X110550625Y-82467219D02*
X110693482Y-82514838D01*
X111026816Y-82467219D02*
X111264911Y-83467219D01*
X111264911Y-83467219D02*
X111455387Y-82752933D01*
X111455387Y-82752933D02*
X111645863Y-83467219D01*
X111645863Y-83467219D02*
X111883959Y-82467219D01*
X112836339Y-83371980D02*
X112788720Y-83419600D01*
X112788720Y-83419600D02*
X112645863Y-83467219D01*
X112645863Y-83467219D02*
X112550625Y-83467219D01*
X112550625Y-83467219D02*
X112407768Y-83419600D01*
X112407768Y-83419600D02*
X112312530Y-83324361D01*
X112312530Y-83324361D02*
X112264911Y-83229123D01*
X112264911Y-83229123D02*
X112217292Y-83038647D01*
X112217292Y-83038647D02*
X112217292Y-82895790D01*
X112217292Y-82895790D02*
X112264911Y-82705314D01*
X112264911Y-82705314D02*
X112312530Y-82610076D01*
X112312530Y-82610076D02*
X112407768Y-82514838D01*
X112407768Y-82514838D02*
X112550625Y-82467219D01*
X112550625Y-82467219D02*
X112645863Y-82467219D01*
X112645863Y-82467219D02*
X112788720Y-82514838D01*
X112788720Y-82514838D02*
X112836339Y-82562457D01*
X113741101Y-83467219D02*
X113264911Y-83467219D01*
X113264911Y-83467219D02*
X113264911Y-82467219D01*
X114074435Y-83467219D02*
X114074435Y-82467219D01*
X114645863Y-83467219D02*
X114217292Y-82895790D01*
X114645863Y-82467219D02*
X114074435Y-83038647D01*
D12*
X172295739Y-90893775D02*
X172295739Y-91541394D01*
X172295739Y-91541394D02*
X172333834Y-91617584D01*
X172333834Y-91617584D02*
X172371929Y-91655680D01*
X172371929Y-91655680D02*
X172448120Y-91693775D01*
X172448120Y-91693775D02*
X172600501Y-91693775D01*
X172600501Y-91693775D02*
X172676691Y-91655680D01*
X172676691Y-91655680D02*
X172714786Y-91617584D01*
X172714786Y-91617584D02*
X172752882Y-91541394D01*
X172752882Y-91541394D02*
X172752882Y-90893775D01*
X173514786Y-91693775D02*
X173133834Y-91693775D01*
X173133834Y-91693775D02*
X173133834Y-90893775D01*
X173667167Y-90893775D02*
X174124310Y-90893775D01*
X173895738Y-91693775D02*
X173895738Y-90893775D01*
X177848120Y-88093775D02*
X178000501Y-88093775D01*
X178000501Y-88093775D02*
X178076691Y-88131870D01*
X178076691Y-88131870D02*
X178152882Y-88208060D01*
X178152882Y-88208060D02*
X178190977Y-88360441D01*
X178190977Y-88360441D02*
X178190977Y-88627108D01*
X178190977Y-88627108D02*
X178152882Y-88779489D01*
X178152882Y-88779489D02*
X178076691Y-88855680D01*
X178076691Y-88855680D02*
X178000501Y-88893775D01*
X178000501Y-88893775D02*
X177848120Y-88893775D01*
X177848120Y-88893775D02*
X177771929Y-88855680D01*
X177771929Y-88855680D02*
X177695739Y-88779489D01*
X177695739Y-88779489D02*
X177657643Y-88627108D01*
X177657643Y-88627108D02*
X177657643Y-88360441D01*
X177657643Y-88360441D02*
X177695739Y-88208060D01*
X177695739Y-88208060D02*
X177771929Y-88131870D01*
X177771929Y-88131870D02*
X177848120Y-88093775D01*
X178533834Y-88093775D02*
X178533834Y-88741394D01*
X178533834Y-88741394D02*
X178571929Y-88817584D01*
X178571929Y-88817584D02*
X178610024Y-88855680D01*
X178610024Y-88855680D02*
X178686215Y-88893775D01*
X178686215Y-88893775D02*
X178838596Y-88893775D01*
X178838596Y-88893775D02*
X178914786Y-88855680D01*
X178914786Y-88855680D02*
X178952881Y-88817584D01*
X178952881Y-88817584D02*
X178990977Y-88741394D01*
X178990977Y-88741394D02*
X178990977Y-88093775D01*
X179257643Y-88093775D02*
X179714786Y-88093775D01*
X179486214Y-88893775D02*
X179486214Y-88093775D01*
X180324310Y-88360441D02*
X180324310Y-88893775D01*
X180133834Y-88055680D02*
X179943357Y-88627108D01*
X179943357Y-88627108D02*
X180438596Y-88627108D01*
X126855680Y-70942356D02*
X126893775Y-70828070D01*
X126893775Y-70828070D02*
X126893775Y-70637594D01*
X126893775Y-70637594D02*
X126855680Y-70561403D01*
X126855680Y-70561403D02*
X126817584Y-70523308D01*
X126817584Y-70523308D02*
X126741394Y-70485213D01*
X126741394Y-70485213D02*
X126665203Y-70485213D01*
X126665203Y-70485213D02*
X126589013Y-70523308D01*
X126589013Y-70523308D02*
X126550918Y-70561403D01*
X126550918Y-70561403D02*
X126512822Y-70637594D01*
X126512822Y-70637594D02*
X126474727Y-70789975D01*
X126474727Y-70789975D02*
X126436632Y-70866165D01*
X126436632Y-70866165D02*
X126398537Y-70904260D01*
X126398537Y-70904260D02*
X126322346Y-70942356D01*
X126322346Y-70942356D02*
X126246156Y-70942356D01*
X126246156Y-70942356D02*
X126169965Y-70904260D01*
X126169965Y-70904260D02*
X126131870Y-70866165D01*
X126131870Y-70866165D02*
X126093775Y-70789975D01*
X126093775Y-70789975D02*
X126093775Y-70599498D01*
X126093775Y-70599498D02*
X126131870Y-70485213D01*
X126893775Y-70142355D02*
X126093775Y-70142355D01*
X126093775Y-70142355D02*
X126093775Y-69951879D01*
X126093775Y-69951879D02*
X126131870Y-69837593D01*
X126131870Y-69837593D02*
X126208060Y-69761403D01*
X126208060Y-69761403D02*
X126284251Y-69723308D01*
X126284251Y-69723308D02*
X126436632Y-69685212D01*
X126436632Y-69685212D02*
X126550918Y-69685212D01*
X126550918Y-69685212D02*
X126703299Y-69723308D01*
X126703299Y-69723308D02*
X126779489Y-69761403D01*
X126779489Y-69761403D02*
X126855680Y-69837593D01*
X126855680Y-69837593D02*
X126893775Y-69951879D01*
X126893775Y-69951879D02*
X126893775Y-70142355D01*
X126665203Y-69380451D02*
X126665203Y-68999498D01*
X126893775Y-69456641D02*
X126093775Y-69189974D01*
X126093775Y-69189974D02*
X126893775Y-68923308D01*
X163114786Y-83131870D02*
X163038596Y-83093775D01*
X163038596Y-83093775D02*
X162924310Y-83093775D01*
X162924310Y-83093775D02*
X162810024Y-83131870D01*
X162810024Y-83131870D02*
X162733834Y-83208060D01*
X162733834Y-83208060D02*
X162695739Y-83284251D01*
X162695739Y-83284251D02*
X162657643Y-83436632D01*
X162657643Y-83436632D02*
X162657643Y-83550918D01*
X162657643Y-83550918D02*
X162695739Y-83703299D01*
X162695739Y-83703299D02*
X162733834Y-83779489D01*
X162733834Y-83779489D02*
X162810024Y-83855680D01*
X162810024Y-83855680D02*
X162924310Y-83893775D01*
X162924310Y-83893775D02*
X163000501Y-83893775D01*
X163000501Y-83893775D02*
X163114786Y-83855680D01*
X163114786Y-83855680D02*
X163152882Y-83817584D01*
X163152882Y-83817584D02*
X163152882Y-83550918D01*
X163152882Y-83550918D02*
X163000501Y-83550918D01*
X163495739Y-83893775D02*
X163495739Y-83093775D01*
X163495739Y-83093775D02*
X163952882Y-83893775D01*
X163952882Y-83893775D02*
X163952882Y-83093775D01*
X164333834Y-83893775D02*
X164333834Y-83093775D01*
X164333834Y-83093775D02*
X164524310Y-83093775D01*
X164524310Y-83093775D02*
X164638596Y-83131870D01*
X164638596Y-83131870D02*
X164714786Y-83208060D01*
X164714786Y-83208060D02*
X164752881Y-83284251D01*
X164752881Y-83284251D02*
X164790977Y-83436632D01*
X164790977Y-83436632D02*
X164790977Y-83550918D01*
X164790977Y-83550918D02*
X164752881Y-83703299D01*
X164752881Y-83703299D02*
X164714786Y-83779489D01*
X164714786Y-83779489D02*
X164638596Y-83855680D01*
X164638596Y-83855680D02*
X164524310Y-83893775D01*
X164524310Y-83893775D02*
X164333834Y-83893775D01*
X126855680Y-68142356D02*
X126893775Y-68028070D01*
X126893775Y-68028070D02*
X126893775Y-67837594D01*
X126893775Y-67837594D02*
X126855680Y-67761403D01*
X126855680Y-67761403D02*
X126817584Y-67723308D01*
X126817584Y-67723308D02*
X126741394Y-67685213D01*
X126741394Y-67685213D02*
X126665203Y-67685213D01*
X126665203Y-67685213D02*
X126589013Y-67723308D01*
X126589013Y-67723308D02*
X126550918Y-67761403D01*
X126550918Y-67761403D02*
X126512822Y-67837594D01*
X126512822Y-67837594D02*
X126474727Y-67989975D01*
X126474727Y-67989975D02*
X126436632Y-68066165D01*
X126436632Y-68066165D02*
X126398537Y-68104260D01*
X126398537Y-68104260D02*
X126322346Y-68142356D01*
X126322346Y-68142356D02*
X126246156Y-68142356D01*
X126246156Y-68142356D02*
X126169965Y-68104260D01*
X126169965Y-68104260D02*
X126131870Y-68066165D01*
X126131870Y-68066165D02*
X126093775Y-67989975D01*
X126093775Y-67989975D02*
X126093775Y-67799498D01*
X126093775Y-67799498D02*
X126131870Y-67685213D01*
X126817584Y-66885212D02*
X126855680Y-66923308D01*
X126855680Y-66923308D02*
X126893775Y-67037593D01*
X126893775Y-67037593D02*
X126893775Y-67113784D01*
X126893775Y-67113784D02*
X126855680Y-67228070D01*
X126855680Y-67228070D02*
X126779489Y-67304260D01*
X126779489Y-67304260D02*
X126703299Y-67342355D01*
X126703299Y-67342355D02*
X126550918Y-67380451D01*
X126550918Y-67380451D02*
X126436632Y-67380451D01*
X126436632Y-67380451D02*
X126284251Y-67342355D01*
X126284251Y-67342355D02*
X126208060Y-67304260D01*
X126208060Y-67304260D02*
X126131870Y-67228070D01*
X126131870Y-67228070D02*
X126093775Y-67113784D01*
X126093775Y-67113784D02*
X126093775Y-67037593D01*
X126093775Y-67037593D02*
X126131870Y-66923308D01*
X126131870Y-66923308D02*
X126169965Y-66885212D01*
X126893775Y-66161403D02*
X126893775Y-66542355D01*
X126893775Y-66542355D02*
X126093775Y-66542355D01*
X127931870Y-67885213D02*
X127893775Y-67961403D01*
X127893775Y-67961403D02*
X127893775Y-68075689D01*
X127893775Y-68075689D02*
X127931870Y-68189975D01*
X127931870Y-68189975D02*
X128008060Y-68266165D01*
X128008060Y-68266165D02*
X128084251Y-68304260D01*
X128084251Y-68304260D02*
X128236632Y-68342356D01*
X128236632Y-68342356D02*
X128350918Y-68342356D01*
X128350918Y-68342356D02*
X128503299Y-68304260D01*
X128503299Y-68304260D02*
X128579489Y-68266165D01*
X128579489Y-68266165D02*
X128655680Y-68189975D01*
X128655680Y-68189975D02*
X128693775Y-68075689D01*
X128693775Y-68075689D02*
X128693775Y-67999498D01*
X128693775Y-67999498D02*
X128655680Y-67885213D01*
X128655680Y-67885213D02*
X128617584Y-67847117D01*
X128617584Y-67847117D02*
X128350918Y-67847117D01*
X128350918Y-67847117D02*
X128350918Y-67999498D01*
X128693775Y-67504260D02*
X127893775Y-67504260D01*
X127893775Y-67504260D02*
X128693775Y-67047117D01*
X128693775Y-67047117D02*
X127893775Y-67047117D01*
X128693775Y-66666165D02*
X127893775Y-66666165D01*
X127893775Y-66666165D02*
X127893775Y-66475689D01*
X127893775Y-66475689D02*
X127931870Y-66361403D01*
X127931870Y-66361403D02*
X128008060Y-66285213D01*
X128008060Y-66285213D02*
X128084251Y-66247118D01*
X128084251Y-66247118D02*
X128236632Y-66209022D01*
X128236632Y-66209022D02*
X128350918Y-66209022D01*
X128350918Y-66209022D02*
X128503299Y-66247118D01*
X128503299Y-66247118D02*
X128579489Y-66285213D01*
X128579489Y-66285213D02*
X128655680Y-66361403D01*
X128655680Y-66361403D02*
X128693775Y-66475689D01*
X128693775Y-66475689D02*
X128693775Y-66666165D01*
X171648120Y-85693775D02*
X171800501Y-85693775D01*
X171800501Y-85693775D02*
X171876691Y-85731870D01*
X171876691Y-85731870D02*
X171952882Y-85808060D01*
X171952882Y-85808060D02*
X171990977Y-85960441D01*
X171990977Y-85960441D02*
X171990977Y-86227108D01*
X171990977Y-86227108D02*
X171952882Y-86379489D01*
X171952882Y-86379489D02*
X171876691Y-86455680D01*
X171876691Y-86455680D02*
X171800501Y-86493775D01*
X171800501Y-86493775D02*
X171648120Y-86493775D01*
X171648120Y-86493775D02*
X171571929Y-86455680D01*
X171571929Y-86455680D02*
X171495739Y-86379489D01*
X171495739Y-86379489D02*
X171457643Y-86227108D01*
X171457643Y-86227108D02*
X171457643Y-85960441D01*
X171457643Y-85960441D02*
X171495739Y-85808060D01*
X171495739Y-85808060D02*
X171571929Y-85731870D01*
X171571929Y-85731870D02*
X171648120Y-85693775D01*
X172333834Y-85693775D02*
X172333834Y-86341394D01*
X172333834Y-86341394D02*
X172371929Y-86417584D01*
X172371929Y-86417584D02*
X172410024Y-86455680D01*
X172410024Y-86455680D02*
X172486215Y-86493775D01*
X172486215Y-86493775D02*
X172638596Y-86493775D01*
X172638596Y-86493775D02*
X172714786Y-86455680D01*
X172714786Y-86455680D02*
X172752881Y-86417584D01*
X172752881Y-86417584D02*
X172790977Y-86341394D01*
X172790977Y-86341394D02*
X172790977Y-85693775D01*
X173057643Y-85693775D02*
X173514786Y-85693775D01*
X173286214Y-86493775D02*
X173286214Y-85693775D01*
X173705262Y-85693775D02*
X174200500Y-85693775D01*
X174200500Y-85693775D02*
X173933834Y-85998537D01*
X173933834Y-85998537D02*
X174048119Y-85998537D01*
X174048119Y-85998537D02*
X174124310Y-86036632D01*
X174124310Y-86036632D02*
X174162405Y-86074727D01*
X174162405Y-86074727D02*
X174200500Y-86150918D01*
X174200500Y-86150918D02*
X174200500Y-86341394D01*
X174200500Y-86341394D02*
X174162405Y-86417584D01*
X174162405Y-86417584D02*
X174124310Y-86455680D01*
X174124310Y-86455680D02*
X174048119Y-86493775D01*
X174048119Y-86493775D02*
X173819548Y-86493775D01*
X173819548Y-86493775D02*
X173743357Y-86455680D01*
X173743357Y-86455680D02*
X173705262Y-86417584D01*
X127893775Y-72923308D02*
X127893775Y-73304260D01*
X127893775Y-73304260D02*
X128274727Y-73342356D01*
X128274727Y-73342356D02*
X128236632Y-73304260D01*
X128236632Y-73304260D02*
X128198537Y-73228070D01*
X128198537Y-73228070D02*
X128198537Y-73037594D01*
X128198537Y-73037594D02*
X128236632Y-72961403D01*
X128236632Y-72961403D02*
X128274727Y-72923308D01*
X128274727Y-72923308D02*
X128350918Y-72885213D01*
X128350918Y-72885213D02*
X128541394Y-72885213D01*
X128541394Y-72885213D02*
X128617584Y-72923308D01*
X128617584Y-72923308D02*
X128655680Y-72961403D01*
X128655680Y-72961403D02*
X128693775Y-73037594D01*
X128693775Y-73037594D02*
X128693775Y-73228070D01*
X128693775Y-73228070D02*
X128655680Y-73304260D01*
X128655680Y-73304260D02*
X128617584Y-73342356D01*
X127893775Y-72656641D02*
X128693775Y-72389974D01*
X128693775Y-72389974D02*
X127893775Y-72123308D01*
X126093775Y-73780451D02*
X126093775Y-73285213D01*
X126093775Y-73285213D02*
X126398537Y-73551879D01*
X126398537Y-73551879D02*
X126398537Y-73437594D01*
X126398537Y-73437594D02*
X126436632Y-73361403D01*
X126436632Y-73361403D02*
X126474727Y-73323308D01*
X126474727Y-73323308D02*
X126550918Y-73285213D01*
X126550918Y-73285213D02*
X126741394Y-73285213D01*
X126741394Y-73285213D02*
X126817584Y-73323308D01*
X126817584Y-73323308D02*
X126855680Y-73361403D01*
X126855680Y-73361403D02*
X126893775Y-73437594D01*
X126893775Y-73437594D02*
X126893775Y-73666165D01*
X126893775Y-73666165D02*
X126855680Y-73742356D01*
X126855680Y-73742356D02*
X126817584Y-73780451D01*
X126093775Y-73056641D02*
X126893775Y-72789974D01*
X126893775Y-72789974D02*
X126093775Y-72523308D01*
X126093775Y-72332832D02*
X126093775Y-71837594D01*
X126093775Y-71837594D02*
X126398537Y-72104260D01*
X126398537Y-72104260D02*
X126398537Y-71989975D01*
X126398537Y-71989975D02*
X126436632Y-71913784D01*
X126436632Y-71913784D02*
X126474727Y-71875689D01*
X126474727Y-71875689D02*
X126550918Y-71837594D01*
X126550918Y-71837594D02*
X126741394Y-71837594D01*
X126741394Y-71837594D02*
X126817584Y-71875689D01*
X126817584Y-71875689D02*
X126855680Y-71913784D01*
X126855680Y-71913784D02*
X126893775Y-71989975D01*
X126893775Y-71989975D02*
X126893775Y-72218546D01*
X126893775Y-72218546D02*
X126855680Y-72294737D01*
X126855680Y-72294737D02*
X126817584Y-72332832D01*
D11*
X110793482Y-101114838D02*
X110698244Y-101067219D01*
X110698244Y-101067219D02*
X110555387Y-101067219D01*
X110555387Y-101067219D02*
X110412530Y-101114838D01*
X110412530Y-101114838D02*
X110317292Y-101210076D01*
X110317292Y-101210076D02*
X110269673Y-101305314D01*
X110269673Y-101305314D02*
X110222054Y-101495790D01*
X110222054Y-101495790D02*
X110222054Y-101638647D01*
X110222054Y-101638647D02*
X110269673Y-101829123D01*
X110269673Y-101829123D02*
X110317292Y-101924361D01*
X110317292Y-101924361D02*
X110412530Y-102019600D01*
X110412530Y-102019600D02*
X110555387Y-102067219D01*
X110555387Y-102067219D02*
X110650625Y-102067219D01*
X110650625Y-102067219D02*
X110793482Y-102019600D01*
X110793482Y-102019600D02*
X110841101Y-101971980D01*
X110841101Y-101971980D02*
X110841101Y-101638647D01*
X110841101Y-101638647D02*
X110650625Y-101638647D01*
X111269673Y-102067219D02*
X111269673Y-101067219D01*
X111269673Y-101067219D02*
X111841101Y-102067219D01*
X111841101Y-102067219D02*
X111841101Y-101067219D01*
X112317292Y-102067219D02*
X112317292Y-101067219D01*
X112317292Y-101067219D02*
X112555387Y-101067219D01*
X112555387Y-101067219D02*
X112698244Y-101114838D01*
X112698244Y-101114838D02*
X112793482Y-101210076D01*
X112793482Y-101210076D02*
X112841101Y-101305314D01*
X112841101Y-101305314D02*
X112888720Y-101495790D01*
X112888720Y-101495790D02*
X112888720Y-101638647D01*
X112888720Y-101638647D02*
X112841101Y-101829123D01*
X112841101Y-101829123D02*
X112793482Y-101924361D01*
X112793482Y-101924361D02*
X112698244Y-102019600D01*
X112698244Y-102019600D02*
X112555387Y-102067219D01*
X112555387Y-102067219D02*
X112317292Y-102067219D01*
X110174435Y-79967219D02*
X110793482Y-79967219D01*
X110793482Y-79967219D02*
X110460149Y-80348171D01*
X110460149Y-80348171D02*
X110603006Y-80348171D01*
X110603006Y-80348171D02*
X110698244Y-80395790D01*
X110698244Y-80395790D02*
X110745863Y-80443409D01*
X110745863Y-80443409D02*
X110793482Y-80538647D01*
X110793482Y-80538647D02*
X110793482Y-80776742D01*
X110793482Y-80776742D02*
X110745863Y-80871980D01*
X110745863Y-80871980D02*
X110698244Y-80919600D01*
X110698244Y-80919600D02*
X110603006Y-80967219D01*
X110603006Y-80967219D02*
X110317292Y-80967219D01*
X110317292Y-80967219D02*
X110222054Y-80919600D01*
X110222054Y-80919600D02*
X110174435Y-80871980D01*
X111079197Y-79967219D02*
X111412530Y-80967219D01*
X111412530Y-80967219D02*
X111745863Y-79967219D01*
X111983959Y-79967219D02*
X112603006Y-79967219D01*
X112603006Y-79967219D02*
X112269673Y-80348171D01*
X112269673Y-80348171D02*
X112412530Y-80348171D01*
X112412530Y-80348171D02*
X112507768Y-80395790D01*
X112507768Y-80395790D02*
X112555387Y-80443409D01*
X112555387Y-80443409D02*
X112603006Y-80538647D01*
X112603006Y-80538647D02*
X112603006Y-80776742D01*
X112603006Y-80776742D02*
X112555387Y-80871980D01*
X112555387Y-80871980D02*
X112507768Y-80919600D01*
X112507768Y-80919600D02*
X112412530Y-80967219D01*
X112412530Y-80967219D02*
X112126816Y-80967219D01*
X112126816Y-80967219D02*
X112031578Y-80919600D01*
X112031578Y-80919600D02*
X111983959Y-80871980D01*
D12*
X172295739Y-78474727D02*
X172562405Y-78474727D01*
X172676691Y-78893775D02*
X172295739Y-78893775D01*
X172295739Y-78893775D02*
X172295739Y-78093775D01*
X172295739Y-78093775D02*
X172676691Y-78093775D01*
X173019549Y-78474727D02*
X173286215Y-78474727D01*
X173400501Y-78893775D02*
X173019549Y-78893775D01*
X173019549Y-78893775D02*
X173019549Y-78093775D01*
X173019549Y-78093775D02*
X173400501Y-78093775D01*
X173743359Y-78893775D02*
X173743359Y-78093775D01*
X173743359Y-78093775D02*
X174048121Y-78093775D01*
X174048121Y-78093775D02*
X174124311Y-78131870D01*
X174124311Y-78131870D02*
X174162406Y-78169965D01*
X174162406Y-78169965D02*
X174200502Y-78246156D01*
X174200502Y-78246156D02*
X174200502Y-78360441D01*
X174200502Y-78360441D02*
X174162406Y-78436632D01*
X174162406Y-78436632D02*
X174124311Y-78474727D01*
X174124311Y-78474727D02*
X174048121Y-78512822D01*
X174048121Y-78512822D02*
X173743359Y-78512822D01*
D11*
X110741101Y-91067219D02*
X110407768Y-90591028D01*
X110169673Y-91067219D02*
X110169673Y-90067219D01*
X110169673Y-90067219D02*
X110550625Y-90067219D01*
X110550625Y-90067219D02*
X110645863Y-90114838D01*
X110645863Y-90114838D02*
X110693482Y-90162457D01*
X110693482Y-90162457D02*
X110741101Y-90257695D01*
X110741101Y-90257695D02*
X110741101Y-90400552D01*
X110741101Y-90400552D02*
X110693482Y-90495790D01*
X110693482Y-90495790D02*
X110645863Y-90543409D01*
X110645863Y-90543409D02*
X110550625Y-90591028D01*
X110550625Y-90591028D02*
X110169673Y-90591028D01*
X111550625Y-91019600D02*
X111455387Y-91067219D01*
X111455387Y-91067219D02*
X111264911Y-91067219D01*
X111264911Y-91067219D02*
X111169673Y-91019600D01*
X111169673Y-91019600D02*
X111122054Y-90924361D01*
X111122054Y-90924361D02*
X111122054Y-90543409D01*
X111122054Y-90543409D02*
X111169673Y-90448171D01*
X111169673Y-90448171D02*
X111264911Y-90400552D01*
X111264911Y-90400552D02*
X111455387Y-90400552D01*
X111455387Y-90400552D02*
X111550625Y-90448171D01*
X111550625Y-90448171D02*
X111598244Y-90543409D01*
X111598244Y-90543409D02*
X111598244Y-90638647D01*
X111598244Y-90638647D02*
X111122054Y-90733885D01*
X111979197Y-91019600D02*
X112074435Y-91067219D01*
X112074435Y-91067219D02*
X112264911Y-91067219D01*
X112264911Y-91067219D02*
X112360149Y-91019600D01*
X112360149Y-91019600D02*
X112407768Y-90924361D01*
X112407768Y-90924361D02*
X112407768Y-90876742D01*
X112407768Y-90876742D02*
X112360149Y-90781504D01*
X112360149Y-90781504D02*
X112264911Y-90733885D01*
X112264911Y-90733885D02*
X112122054Y-90733885D01*
X112122054Y-90733885D02*
X112026816Y-90686266D01*
X112026816Y-90686266D02*
X111979197Y-90591028D01*
X111979197Y-90591028D02*
X111979197Y-90543409D01*
X111979197Y-90543409D02*
X112026816Y-90448171D01*
X112026816Y-90448171D02*
X112122054Y-90400552D01*
X112122054Y-90400552D02*
X112264911Y-90400552D01*
X112264911Y-90400552D02*
X112360149Y-90448171D01*
X113217292Y-91019600D02*
X113122054Y-91067219D01*
X113122054Y-91067219D02*
X112931578Y-91067219D01*
X112931578Y-91067219D02*
X112836340Y-91019600D01*
X112836340Y-91019600D02*
X112788721Y-90924361D01*
X112788721Y-90924361D02*
X112788721Y-90543409D01*
X112788721Y-90543409D02*
X112836340Y-90448171D01*
X112836340Y-90448171D02*
X112931578Y-90400552D01*
X112931578Y-90400552D02*
X113122054Y-90400552D01*
X113122054Y-90400552D02*
X113217292Y-90448171D01*
X113217292Y-90448171D02*
X113264911Y-90543409D01*
X113264911Y-90543409D02*
X113264911Y-90638647D01*
X113264911Y-90638647D02*
X112788721Y-90733885D01*
X113550626Y-90400552D02*
X113931578Y-90400552D01*
X113693483Y-90067219D02*
X113693483Y-90924361D01*
X113693483Y-90924361D02*
X113741102Y-91019600D01*
X113741102Y-91019600D02*
X113836340Y-91067219D01*
X113836340Y-91067219D02*
X113931578Y-91067219D01*
D12*
X162695739Y-81493775D02*
X162695739Y-80693775D01*
X163076691Y-81493775D02*
X163076691Y-80693775D01*
X163076691Y-80693775D02*
X163533834Y-81493775D01*
X163533834Y-81493775D02*
X163533834Y-80693775D01*
X163838595Y-80693775D02*
X164333833Y-80693775D01*
X164333833Y-80693775D02*
X164067167Y-80998537D01*
X164067167Y-80998537D02*
X164181452Y-80998537D01*
X164181452Y-80998537D02*
X164257643Y-81036632D01*
X164257643Y-81036632D02*
X164295738Y-81074727D01*
X164295738Y-81074727D02*
X164333833Y-81150918D01*
X164333833Y-81150918D02*
X164333833Y-81341394D01*
X164333833Y-81341394D02*
X164295738Y-81417584D01*
X164295738Y-81417584D02*
X164257643Y-81455680D01*
X164257643Y-81455680D02*
X164181452Y-81493775D01*
X164181452Y-81493775D02*
X163952881Y-81493775D01*
X163952881Y-81493775D02*
X163876690Y-81455680D01*
X163876690Y-81455680D02*
X163838595Y-81417584D01*
D11*
X120819600Y-74449374D02*
X120867219Y-74544612D01*
X120867219Y-74544612D02*
X120867219Y-74735088D01*
X120867219Y-74735088D02*
X120819600Y-74830326D01*
X120819600Y-74830326D02*
X120724361Y-74877945D01*
X120724361Y-74877945D02*
X120343409Y-74877945D01*
X120343409Y-74877945D02*
X120248171Y-74830326D01*
X120248171Y-74830326D02*
X120200552Y-74735088D01*
X120200552Y-74735088D02*
X120200552Y-74544612D01*
X120200552Y-74544612D02*
X120248171Y-74449374D01*
X120248171Y-74449374D02*
X120343409Y-74401755D01*
X120343409Y-74401755D02*
X120438647Y-74401755D01*
X120438647Y-74401755D02*
X120533885Y-74877945D01*
X120200552Y-73973183D02*
X120867219Y-73973183D01*
X120295790Y-73973183D02*
X120248171Y-73925564D01*
X120248171Y-73925564D02*
X120200552Y-73830326D01*
X120200552Y-73830326D02*
X120200552Y-73687469D01*
X120200552Y-73687469D02*
X120248171Y-73592231D01*
X120248171Y-73592231D02*
X120343409Y-73544612D01*
X120343409Y-73544612D02*
X120867219Y-73544612D01*
X120867219Y-73068421D02*
X119867219Y-73068421D01*
X120486266Y-72973183D02*
X120867219Y-72687469D01*
X120200552Y-72687469D02*
X120581504Y-73068421D01*
X120486266Y-72258897D02*
X120486266Y-71496993D01*
X120867219Y-70496993D02*
X120867219Y-71068421D01*
X120867219Y-70782707D02*
X119867219Y-70782707D01*
X119867219Y-70782707D02*
X120010076Y-70877945D01*
X120010076Y-70877945D02*
X120105314Y-70973183D01*
X120105314Y-70973183D02*
X120152933Y-71068421D01*
X120581504Y-70116040D02*
X120581504Y-69639850D01*
X120867219Y-70211278D02*
X119867219Y-69877945D01*
X119867219Y-69877945D02*
X120867219Y-69544612D01*
D12*
X171648120Y-88293775D02*
X171800501Y-88293775D01*
X171800501Y-88293775D02*
X171876691Y-88331870D01*
X171876691Y-88331870D02*
X171952882Y-88408060D01*
X171952882Y-88408060D02*
X171990977Y-88560441D01*
X171990977Y-88560441D02*
X171990977Y-88827108D01*
X171990977Y-88827108D02*
X171952882Y-88979489D01*
X171952882Y-88979489D02*
X171876691Y-89055680D01*
X171876691Y-89055680D02*
X171800501Y-89093775D01*
X171800501Y-89093775D02*
X171648120Y-89093775D01*
X171648120Y-89093775D02*
X171571929Y-89055680D01*
X171571929Y-89055680D02*
X171495739Y-88979489D01*
X171495739Y-88979489D02*
X171457643Y-88827108D01*
X171457643Y-88827108D02*
X171457643Y-88560441D01*
X171457643Y-88560441D02*
X171495739Y-88408060D01*
X171495739Y-88408060D02*
X171571929Y-88331870D01*
X171571929Y-88331870D02*
X171648120Y-88293775D01*
X172333834Y-88293775D02*
X172333834Y-88941394D01*
X172333834Y-88941394D02*
X172371929Y-89017584D01*
X172371929Y-89017584D02*
X172410024Y-89055680D01*
X172410024Y-89055680D02*
X172486215Y-89093775D01*
X172486215Y-89093775D02*
X172638596Y-89093775D01*
X172638596Y-89093775D02*
X172714786Y-89055680D01*
X172714786Y-89055680D02*
X172752881Y-89017584D01*
X172752881Y-89017584D02*
X172790977Y-88941394D01*
X172790977Y-88941394D02*
X172790977Y-88293775D01*
X173057643Y-88293775D02*
X173514786Y-88293775D01*
X173286214Y-89093775D02*
X173286214Y-88293775D01*
X174124310Y-88560441D02*
X174124310Y-89093775D01*
X173933834Y-88255680D02*
X173743357Y-88827108D01*
X173743357Y-88827108D02*
X174238596Y-88827108D01*
D11*
X168667219Y-87830326D02*
X167667219Y-87830326D01*
X167667219Y-87830326D02*
X167667219Y-87592231D01*
X167667219Y-87592231D02*
X167714838Y-87449374D01*
X167714838Y-87449374D02*
X167810076Y-87354136D01*
X167810076Y-87354136D02*
X167905314Y-87306517D01*
X167905314Y-87306517D02*
X168095790Y-87258898D01*
X168095790Y-87258898D02*
X168238647Y-87258898D01*
X168238647Y-87258898D02*
X168429123Y-87306517D01*
X168429123Y-87306517D02*
X168524361Y-87354136D01*
X168524361Y-87354136D02*
X168619600Y-87449374D01*
X168619600Y-87449374D02*
X168667219Y-87592231D01*
X168667219Y-87592231D02*
X168667219Y-87830326D01*
X168667219Y-86258898D02*
X168191028Y-86592231D01*
X168667219Y-86830326D02*
X167667219Y-86830326D01*
X167667219Y-86830326D02*
X167667219Y-86449374D01*
X167667219Y-86449374D02*
X167714838Y-86354136D01*
X167714838Y-86354136D02*
X167762457Y-86306517D01*
X167762457Y-86306517D02*
X167857695Y-86258898D01*
X167857695Y-86258898D02*
X168000552Y-86258898D01*
X168000552Y-86258898D02*
X168095790Y-86306517D01*
X168095790Y-86306517D02*
X168143409Y-86354136D01*
X168143409Y-86354136D02*
X168191028Y-86449374D01*
X168191028Y-86449374D02*
X168191028Y-86830326D01*
X167667219Y-85973183D02*
X168667219Y-85639850D01*
X168667219Y-85639850D02*
X167667219Y-85306517D01*
X168095790Y-84830326D02*
X168048171Y-84925564D01*
X168048171Y-84925564D02*
X168000552Y-84973183D01*
X168000552Y-84973183D02*
X167905314Y-85020802D01*
X167905314Y-85020802D02*
X167857695Y-85020802D01*
X167857695Y-85020802D02*
X167762457Y-84973183D01*
X167762457Y-84973183D02*
X167714838Y-84925564D01*
X167714838Y-84925564D02*
X167667219Y-84830326D01*
X167667219Y-84830326D02*
X167667219Y-84639850D01*
X167667219Y-84639850D02*
X167714838Y-84544612D01*
X167714838Y-84544612D02*
X167762457Y-84496993D01*
X167762457Y-84496993D02*
X167857695Y-84449374D01*
X167857695Y-84449374D02*
X167905314Y-84449374D01*
X167905314Y-84449374D02*
X168000552Y-84496993D01*
X168000552Y-84496993D02*
X168048171Y-84544612D01*
X168048171Y-84544612D02*
X168095790Y-84639850D01*
X168095790Y-84639850D02*
X168095790Y-84830326D01*
X168095790Y-84830326D02*
X168143409Y-84925564D01*
X168143409Y-84925564D02*
X168191028Y-84973183D01*
X168191028Y-84973183D02*
X168286266Y-85020802D01*
X168286266Y-85020802D02*
X168476742Y-85020802D01*
X168476742Y-85020802D02*
X168571980Y-84973183D01*
X168571980Y-84973183D02*
X168619600Y-84925564D01*
X168619600Y-84925564D02*
X168667219Y-84830326D01*
X168667219Y-84830326D02*
X168667219Y-84639850D01*
X168667219Y-84639850D02*
X168619600Y-84544612D01*
X168619600Y-84544612D02*
X168571980Y-84496993D01*
X168571980Y-84496993D02*
X168476742Y-84449374D01*
X168476742Y-84449374D02*
X168286266Y-84449374D01*
X168286266Y-84449374D02*
X168191028Y-84496993D01*
X168191028Y-84496993D02*
X168143409Y-84544612D01*
X168143409Y-84544612D02*
X168095790Y-84639850D01*
X168095790Y-83877945D02*
X168048171Y-83973183D01*
X168048171Y-83973183D02*
X168000552Y-84020802D01*
X168000552Y-84020802D02*
X167905314Y-84068421D01*
X167905314Y-84068421D02*
X167857695Y-84068421D01*
X167857695Y-84068421D02*
X167762457Y-84020802D01*
X167762457Y-84020802D02*
X167714838Y-83973183D01*
X167714838Y-83973183D02*
X167667219Y-83877945D01*
X167667219Y-83877945D02*
X167667219Y-83687469D01*
X167667219Y-83687469D02*
X167714838Y-83592231D01*
X167714838Y-83592231D02*
X167762457Y-83544612D01*
X167762457Y-83544612D02*
X167857695Y-83496993D01*
X167857695Y-83496993D02*
X167905314Y-83496993D01*
X167905314Y-83496993D02*
X168000552Y-83544612D01*
X168000552Y-83544612D02*
X168048171Y-83592231D01*
X168048171Y-83592231D02*
X168095790Y-83687469D01*
X168095790Y-83687469D02*
X168095790Y-83877945D01*
X168095790Y-83877945D02*
X168143409Y-83973183D01*
X168143409Y-83973183D02*
X168191028Y-84020802D01*
X168191028Y-84020802D02*
X168286266Y-84068421D01*
X168286266Y-84068421D02*
X168476742Y-84068421D01*
X168476742Y-84068421D02*
X168571980Y-84020802D01*
X168571980Y-84020802D02*
X168619600Y-83973183D01*
X168619600Y-83973183D02*
X168667219Y-83877945D01*
X168667219Y-83877945D02*
X168667219Y-83687469D01*
X168667219Y-83687469D02*
X168619600Y-83592231D01*
X168619600Y-83592231D02*
X168571980Y-83544612D01*
X168571980Y-83544612D02*
X168476742Y-83496993D01*
X168476742Y-83496993D02*
X168286266Y-83496993D01*
X168286266Y-83496993D02*
X168191028Y-83544612D01*
X168191028Y-83544612D02*
X168143409Y-83592231D01*
X168143409Y-83592231D02*
X168095790Y-83687469D01*
X167667219Y-83163659D02*
X167667219Y-82544612D01*
X167667219Y-82544612D02*
X168048171Y-82877945D01*
X168048171Y-82877945D02*
X168048171Y-82735088D01*
X168048171Y-82735088D02*
X168095790Y-82639850D01*
X168095790Y-82639850D02*
X168143409Y-82592231D01*
X168143409Y-82592231D02*
X168238647Y-82544612D01*
X168238647Y-82544612D02*
X168476742Y-82544612D01*
X168476742Y-82544612D02*
X168571980Y-82592231D01*
X168571980Y-82592231D02*
X168619600Y-82639850D01*
X168619600Y-82639850D02*
X168667219Y-82735088D01*
X168667219Y-82735088D02*
X168667219Y-83020802D01*
X168667219Y-83020802D02*
X168619600Y-83116040D01*
X168619600Y-83116040D02*
X168571980Y-83163659D01*
X167667219Y-82211278D02*
X167667219Y-81592231D01*
X167667219Y-81592231D02*
X168048171Y-81925564D01*
X168048171Y-81925564D02*
X168048171Y-81782707D01*
X168048171Y-81782707D02*
X168095790Y-81687469D01*
X168095790Y-81687469D02*
X168143409Y-81639850D01*
X168143409Y-81639850D02*
X168238647Y-81592231D01*
X168238647Y-81592231D02*
X168476742Y-81592231D01*
X168476742Y-81592231D02*
X168571980Y-81639850D01*
X168571980Y-81639850D02*
X168619600Y-81687469D01*
X168619600Y-81687469D02*
X168667219Y-81782707D01*
X168667219Y-81782707D02*
X168667219Y-82068421D01*
X168667219Y-82068421D02*
X168619600Y-82163659D01*
X168619600Y-82163659D02*
X168571980Y-82211278D01*
X110326816Y-106167219D02*
X110898244Y-106167219D01*
X110612530Y-107167219D02*
X110612530Y-106167219D01*
X111136340Y-106167219D02*
X111803006Y-107167219D01*
X111803006Y-106167219D02*
X111136340Y-107167219D01*
D12*
X177848120Y-85693775D02*
X178000501Y-85693775D01*
X178000501Y-85693775D02*
X178076691Y-85731870D01*
X178076691Y-85731870D02*
X178152882Y-85808060D01*
X178152882Y-85808060D02*
X178190977Y-85960441D01*
X178190977Y-85960441D02*
X178190977Y-86227108D01*
X178190977Y-86227108D02*
X178152882Y-86379489D01*
X178152882Y-86379489D02*
X178076691Y-86455680D01*
X178076691Y-86455680D02*
X178000501Y-86493775D01*
X178000501Y-86493775D02*
X177848120Y-86493775D01*
X177848120Y-86493775D02*
X177771929Y-86455680D01*
X177771929Y-86455680D02*
X177695739Y-86379489D01*
X177695739Y-86379489D02*
X177657643Y-86227108D01*
X177657643Y-86227108D02*
X177657643Y-85960441D01*
X177657643Y-85960441D02*
X177695739Y-85808060D01*
X177695739Y-85808060D02*
X177771929Y-85731870D01*
X177771929Y-85731870D02*
X177848120Y-85693775D01*
X178533834Y-85693775D02*
X178533834Y-86341394D01*
X178533834Y-86341394D02*
X178571929Y-86417584D01*
X178571929Y-86417584D02*
X178610024Y-86455680D01*
X178610024Y-86455680D02*
X178686215Y-86493775D01*
X178686215Y-86493775D02*
X178838596Y-86493775D01*
X178838596Y-86493775D02*
X178914786Y-86455680D01*
X178914786Y-86455680D02*
X178952881Y-86417584D01*
X178952881Y-86417584D02*
X178990977Y-86341394D01*
X178990977Y-86341394D02*
X178990977Y-85693775D01*
X179257643Y-85693775D02*
X179714786Y-85693775D01*
X179486214Y-86493775D02*
X179486214Y-85693775D01*
X179905262Y-85693775D02*
X180400500Y-85693775D01*
X180400500Y-85693775D02*
X180133834Y-85998537D01*
X180133834Y-85998537D02*
X180248119Y-85998537D01*
X180248119Y-85998537D02*
X180324310Y-86036632D01*
X180324310Y-86036632D02*
X180362405Y-86074727D01*
X180362405Y-86074727D02*
X180400500Y-86150918D01*
X180400500Y-86150918D02*
X180400500Y-86341394D01*
X180400500Y-86341394D02*
X180362405Y-86417584D01*
X180362405Y-86417584D02*
X180324310Y-86455680D01*
X180324310Y-86455680D02*
X180248119Y-86493775D01*
X180248119Y-86493775D02*
X180019548Y-86493775D01*
X180019548Y-86493775D02*
X179943357Y-86455680D01*
X179943357Y-86455680D02*
X179905262Y-86417584D01*
X162695739Y-78893775D02*
X162695739Y-78093775D01*
X163076691Y-78893775D02*
X163076691Y-78093775D01*
X163076691Y-78093775D02*
X163533834Y-78893775D01*
X163533834Y-78893775D02*
X163533834Y-78093775D01*
X164257643Y-78360441D02*
X164257643Y-78893775D01*
X164067167Y-78055680D02*
X163876690Y-78627108D01*
X163876690Y-78627108D02*
X164371929Y-78627108D01*
D11*
X110122054Y-93619600D02*
X110264911Y-93667219D01*
X110264911Y-93667219D02*
X110503006Y-93667219D01*
X110503006Y-93667219D02*
X110598244Y-93619600D01*
X110598244Y-93619600D02*
X110645863Y-93571980D01*
X110645863Y-93571980D02*
X110693482Y-93476742D01*
X110693482Y-93476742D02*
X110693482Y-93381504D01*
X110693482Y-93381504D02*
X110645863Y-93286266D01*
X110645863Y-93286266D02*
X110598244Y-93238647D01*
X110598244Y-93238647D02*
X110503006Y-93191028D01*
X110503006Y-93191028D02*
X110312530Y-93143409D01*
X110312530Y-93143409D02*
X110217292Y-93095790D01*
X110217292Y-93095790D02*
X110169673Y-93048171D01*
X110169673Y-93048171D02*
X110122054Y-92952933D01*
X110122054Y-92952933D02*
X110122054Y-92857695D01*
X110122054Y-92857695D02*
X110169673Y-92762457D01*
X110169673Y-92762457D02*
X110217292Y-92714838D01*
X110217292Y-92714838D02*
X110312530Y-92667219D01*
X110312530Y-92667219D02*
X110550625Y-92667219D01*
X110550625Y-92667219D02*
X110693482Y-92714838D01*
X111026816Y-92667219D02*
X111264911Y-93667219D01*
X111264911Y-93667219D02*
X111455387Y-92952933D01*
X111455387Y-92952933D02*
X111645863Y-93667219D01*
X111645863Y-93667219D02*
X111883959Y-92667219D01*
X112455387Y-92667219D02*
X112645863Y-92667219D01*
X112645863Y-92667219D02*
X112741101Y-92714838D01*
X112741101Y-92714838D02*
X112836339Y-92810076D01*
X112836339Y-92810076D02*
X112883958Y-93000552D01*
X112883958Y-93000552D02*
X112883958Y-93333885D01*
X112883958Y-93333885D02*
X112836339Y-93524361D01*
X112836339Y-93524361D02*
X112741101Y-93619600D01*
X112741101Y-93619600D02*
X112645863Y-93667219D01*
X112645863Y-93667219D02*
X112455387Y-93667219D01*
X112455387Y-93667219D02*
X112360149Y-93619600D01*
X112360149Y-93619600D02*
X112264911Y-93524361D01*
X112264911Y-93524361D02*
X112217292Y-93333885D01*
X112217292Y-93333885D02*
X112217292Y-93000552D01*
X112217292Y-93000552D02*
X112264911Y-92810076D01*
X112264911Y-92810076D02*
X112360149Y-92714838D01*
X112360149Y-92714838D02*
X112455387Y-92667219D01*
D12*
X127893775Y-70123308D02*
X127893775Y-70504260D01*
X127893775Y-70504260D02*
X128274727Y-70542356D01*
X128274727Y-70542356D02*
X128236632Y-70504260D01*
X128236632Y-70504260D02*
X128198537Y-70428070D01*
X128198537Y-70428070D02*
X128198537Y-70237594D01*
X128198537Y-70237594D02*
X128236632Y-70161403D01*
X128236632Y-70161403D02*
X128274727Y-70123308D01*
X128274727Y-70123308D02*
X128350918Y-70085213D01*
X128350918Y-70085213D02*
X128541394Y-70085213D01*
X128541394Y-70085213D02*
X128617584Y-70123308D01*
X128617584Y-70123308D02*
X128655680Y-70161403D01*
X128655680Y-70161403D02*
X128693775Y-70237594D01*
X128693775Y-70237594D02*
X128693775Y-70428070D01*
X128693775Y-70428070D02*
X128655680Y-70504260D01*
X128655680Y-70504260D02*
X128617584Y-70542356D01*
X127893775Y-69856641D02*
X128693775Y-69589974D01*
X128693775Y-69589974D02*
X127893775Y-69323308D01*
D11*
X167845238Y-115928409D02*
X167988095Y-115976028D01*
X167988095Y-115976028D02*
X168035714Y-116023647D01*
X168035714Y-116023647D02*
X168083333Y-116118885D01*
X168083333Y-116118885D02*
X168083333Y-116261742D01*
X168083333Y-116261742D02*
X168035714Y-116356980D01*
X168035714Y-116356980D02*
X167988095Y-116404600D01*
X167988095Y-116404600D02*
X167892857Y-116452219D01*
X167892857Y-116452219D02*
X167511905Y-116452219D01*
X167511905Y-116452219D02*
X167511905Y-115452219D01*
X167511905Y-115452219D02*
X167845238Y-115452219D01*
X167845238Y-115452219D02*
X167940476Y-115499838D01*
X167940476Y-115499838D02*
X167988095Y-115547457D01*
X167988095Y-115547457D02*
X168035714Y-115642695D01*
X168035714Y-115642695D02*
X168035714Y-115737933D01*
X168035714Y-115737933D02*
X167988095Y-115833171D01*
X167988095Y-115833171D02*
X167940476Y-115880790D01*
X167940476Y-115880790D02*
X167845238Y-115928409D01*
X167845238Y-115928409D02*
X167511905Y-115928409D01*
X169035714Y-116452219D02*
X168464286Y-116452219D01*
X168750000Y-116452219D02*
X168750000Y-115452219D01*
X168750000Y-115452219D02*
X168654762Y-115595076D01*
X168654762Y-115595076D02*
X168559524Y-115690314D01*
X168559524Y-115690314D02*
X168464286Y-115737933D01*
X153297618Y-116452219D02*
X152964285Y-115976028D01*
X152726190Y-116452219D02*
X152726190Y-115452219D01*
X152726190Y-115452219D02*
X153107142Y-115452219D01*
X153107142Y-115452219D02*
X153202380Y-115499838D01*
X153202380Y-115499838D02*
X153249999Y-115547457D01*
X153249999Y-115547457D02*
X153297618Y-115642695D01*
X153297618Y-115642695D02*
X153297618Y-115785552D01*
X153297618Y-115785552D02*
X153249999Y-115880790D01*
X153249999Y-115880790D02*
X153202380Y-115928409D01*
X153202380Y-115928409D02*
X153107142Y-115976028D01*
X153107142Y-115976028D02*
X152726190Y-115976028D01*
X153726190Y-115928409D02*
X154059523Y-115928409D01*
X154202380Y-116452219D02*
X153726190Y-116452219D01*
X153726190Y-116452219D02*
X153726190Y-115452219D01*
X153726190Y-115452219D02*
X154202380Y-115452219D01*
X154583333Y-116404600D02*
X154726190Y-116452219D01*
X154726190Y-116452219D02*
X154964285Y-116452219D01*
X154964285Y-116452219D02*
X155059523Y-116404600D01*
X155059523Y-116404600D02*
X155107142Y-116356980D01*
X155107142Y-116356980D02*
X155154761Y-116261742D01*
X155154761Y-116261742D02*
X155154761Y-116166504D01*
X155154761Y-116166504D02*
X155107142Y-116071266D01*
X155107142Y-116071266D02*
X155059523Y-116023647D01*
X155059523Y-116023647D02*
X154964285Y-115976028D01*
X154964285Y-115976028D02*
X154773809Y-115928409D01*
X154773809Y-115928409D02*
X154678571Y-115880790D01*
X154678571Y-115880790D02*
X154630952Y-115833171D01*
X154630952Y-115833171D02*
X154583333Y-115737933D01*
X154583333Y-115737933D02*
X154583333Y-115642695D01*
X154583333Y-115642695D02*
X154630952Y-115547457D01*
X154630952Y-115547457D02*
X154678571Y-115499838D01*
X154678571Y-115499838D02*
X154773809Y-115452219D01*
X154773809Y-115452219D02*
X155011904Y-115452219D01*
X155011904Y-115452219D02*
X155154761Y-115499838D01*
X155583333Y-115928409D02*
X155916666Y-115928409D01*
X156059523Y-116452219D02*
X155583333Y-116452219D01*
X155583333Y-116452219D02*
X155583333Y-115452219D01*
X155583333Y-115452219D02*
X156059523Y-115452219D01*
X156345238Y-115452219D02*
X156916666Y-115452219D01*
X156630952Y-116452219D02*
X156630952Y-115452219D01*
D15*
X168061905Y-98654819D02*
X168061905Y-97654819D01*
X168061905Y-97654819D02*
X168300000Y-97654819D01*
X168300000Y-97654819D02*
X168442857Y-97702438D01*
X168442857Y-97702438D02*
X168538095Y-97797676D01*
X168538095Y-97797676D02*
X168585714Y-97892914D01*
X168585714Y-97892914D02*
X168633333Y-98083390D01*
X168633333Y-98083390D02*
X168633333Y-98226247D01*
X168633333Y-98226247D02*
X168585714Y-98416723D01*
X168585714Y-98416723D02*
X168538095Y-98511961D01*
X168538095Y-98511961D02*
X168442857Y-98607200D01*
X168442857Y-98607200D02*
X168300000Y-98654819D01*
X168300000Y-98654819D02*
X168061905Y-98654819D01*
X169490476Y-97988152D02*
X169490476Y-98654819D01*
X169252381Y-97607200D02*
X169014286Y-98321485D01*
X169014286Y-98321485D02*
X169633333Y-98321485D01*
D16*
X125761905Y-118356119D02*
X125761905Y-117356119D01*
X125761905Y-117356119D02*
X126000000Y-117356119D01*
X126000000Y-117356119D02*
X126142857Y-117403738D01*
X126142857Y-117403738D02*
X126238095Y-117498976D01*
X126238095Y-117498976D02*
X126285714Y-117594214D01*
X126285714Y-117594214D02*
X126333333Y-117784690D01*
X126333333Y-117784690D02*
X126333333Y-117927547D01*
X126333333Y-117927547D02*
X126285714Y-118118023D01*
X126285714Y-118118023D02*
X126238095Y-118213261D01*
X126238095Y-118213261D02*
X126142857Y-118308500D01*
X126142857Y-118308500D02*
X126000000Y-118356119D01*
X126000000Y-118356119D02*
X125761905Y-118356119D01*
X127285714Y-118356119D02*
X126714286Y-118356119D01*
X127000000Y-118356119D02*
X127000000Y-117356119D01*
X127000000Y-117356119D02*
X126904762Y-117498976D01*
X126904762Y-117498976D02*
X126809524Y-117594214D01*
X126809524Y-117594214D02*
X126714286Y-117641833D01*
X115261905Y-118356119D02*
X115261905Y-117356119D01*
X115261905Y-117356119D02*
X115500000Y-117356119D01*
X115500000Y-117356119D02*
X115642857Y-117403738D01*
X115642857Y-117403738D02*
X115738095Y-117498976D01*
X115738095Y-117498976D02*
X115785714Y-117594214D01*
X115785714Y-117594214D02*
X115833333Y-117784690D01*
X115833333Y-117784690D02*
X115833333Y-117927547D01*
X115833333Y-117927547D02*
X115785714Y-118118023D01*
X115785714Y-118118023D02*
X115738095Y-118213261D01*
X115738095Y-118213261D02*
X115642857Y-118308500D01*
X115642857Y-118308500D02*
X115500000Y-118356119D01*
X115500000Y-118356119D02*
X115261905Y-118356119D01*
X116166667Y-117356119D02*
X116785714Y-117356119D01*
X116785714Y-117356119D02*
X116452381Y-117737071D01*
X116452381Y-117737071D02*
X116595238Y-117737071D01*
X116595238Y-117737071D02*
X116690476Y-117784690D01*
X116690476Y-117784690D02*
X116738095Y-117832309D01*
X116738095Y-117832309D02*
X116785714Y-117927547D01*
X116785714Y-117927547D02*
X116785714Y-118165642D01*
X116785714Y-118165642D02*
X116738095Y-118260880D01*
X116738095Y-118260880D02*
X116690476Y-118308500D01*
X116690476Y-118308500D02*
X116595238Y-118356119D01*
X116595238Y-118356119D02*
X116309524Y-118356119D01*
X116309524Y-118356119D02*
X116214286Y-118308500D01*
X116214286Y-118308500D02*
X116166667Y-118260880D01*
X120761905Y-118356119D02*
X120761905Y-117356119D01*
X120761905Y-117356119D02*
X121000000Y-117356119D01*
X121000000Y-117356119D02*
X121142857Y-117403738D01*
X121142857Y-117403738D02*
X121238095Y-117498976D01*
X121238095Y-117498976D02*
X121285714Y-117594214D01*
X121285714Y-117594214D02*
X121333333Y-117784690D01*
X121333333Y-117784690D02*
X121333333Y-117927547D01*
X121333333Y-117927547D02*
X121285714Y-118118023D01*
X121285714Y-118118023D02*
X121238095Y-118213261D01*
X121238095Y-118213261D02*
X121142857Y-118308500D01*
X121142857Y-118308500D02*
X121000000Y-118356119D01*
X121000000Y-118356119D02*
X120761905Y-118356119D01*
X121714286Y-117451357D02*
X121761905Y-117403738D01*
X121761905Y-117403738D02*
X121857143Y-117356119D01*
X121857143Y-117356119D02*
X122095238Y-117356119D01*
X122095238Y-117356119D02*
X122190476Y-117403738D01*
X122190476Y-117403738D02*
X122238095Y-117451357D01*
X122238095Y-117451357D02*
X122285714Y-117546595D01*
X122285714Y-117546595D02*
X122285714Y-117641833D01*
X122285714Y-117641833D02*
X122238095Y-117784690D01*
X122238095Y-117784690D02*
X121666667Y-118356119D01*
X121666667Y-118356119D02*
X122285714Y-118356119D01*
X145660880Y-81242857D02*
X145708500Y-81290476D01*
X145708500Y-81290476D02*
X145756119Y-81433333D01*
X145756119Y-81433333D02*
X145756119Y-81528571D01*
X145756119Y-81528571D02*
X145708500Y-81671428D01*
X145708500Y-81671428D02*
X145613261Y-81766666D01*
X145613261Y-81766666D02*
X145518023Y-81814285D01*
X145518023Y-81814285D02*
X145327547Y-81861904D01*
X145327547Y-81861904D02*
X145184690Y-81861904D01*
X145184690Y-81861904D02*
X144994214Y-81814285D01*
X144994214Y-81814285D02*
X144898976Y-81766666D01*
X144898976Y-81766666D02*
X144803738Y-81671428D01*
X144803738Y-81671428D02*
X144756119Y-81528571D01*
X144756119Y-81528571D02*
X144756119Y-81433333D01*
X144756119Y-81433333D02*
X144803738Y-81290476D01*
X144803738Y-81290476D02*
X144851357Y-81242857D01*
X145756119Y-80290476D02*
X145756119Y-80861904D01*
X145756119Y-80576190D02*
X144756119Y-80576190D01*
X144756119Y-80576190D02*
X144898976Y-80671428D01*
X144898976Y-80671428D02*
X144994214Y-80766666D01*
X144994214Y-80766666D02*
X145041833Y-80861904D01*
X144756119Y-79385714D02*
X144756119Y-79861904D01*
X144756119Y-79861904D02*
X145232309Y-79909523D01*
X145232309Y-79909523D02*
X145184690Y-79861904D01*
X145184690Y-79861904D02*
X145137071Y-79766666D01*
X145137071Y-79766666D02*
X145137071Y-79528571D01*
X145137071Y-79528571D02*
X145184690Y-79433333D01*
X145184690Y-79433333D02*
X145232309Y-79385714D01*
X145232309Y-79385714D02*
X145327547Y-79338095D01*
X145327547Y-79338095D02*
X145565642Y-79338095D01*
X145565642Y-79338095D02*
X145660880Y-79385714D01*
X145660880Y-79385714D02*
X145708500Y-79433333D01*
X145708500Y-79433333D02*
X145756119Y-79528571D01*
X145756119Y-79528571D02*
X145756119Y-79766666D01*
X145756119Y-79766666D02*
X145708500Y-79861904D01*
X145708500Y-79861904D02*
X145660880Y-79909523D01*
D17*
%TO.C,B1*%
X164750000Y-119500000D02*
X164750000Y-121000000D01*
X166000000Y-123500000D02*
X170500000Y-123500000D01*
X170500000Y-117000000D02*
X166000000Y-117000000D01*
X171750000Y-121000000D02*
X171750000Y-119500000D01*
%TO.C,J5*%
X129580000Y-66120000D02*
X130960000Y-66120000D01*
X129580000Y-67500000D02*
X129580000Y-66120000D01*
X129580000Y-68770000D02*
X129580000Y-73960000D01*
X129580000Y-68770000D02*
X132230000Y-68770000D01*
X129580000Y-73960000D02*
X134880000Y-73960000D01*
X132230000Y-66120000D02*
X134880000Y-66120000D01*
X132230000Y-68770000D02*
X132230000Y-66120000D01*
X134880000Y-66120000D02*
X134880000Y-73960000D01*
%TO.C,J7*%
X137620000Y-66120000D02*
X137620000Y-71420000D01*
X142810000Y-66120000D02*
X137620000Y-66120000D01*
X142810000Y-66120000D02*
X142810000Y-68770000D01*
X142810000Y-68770000D02*
X145460000Y-68770000D01*
X144080000Y-66120000D02*
X145460000Y-66120000D01*
X145460000Y-66120000D02*
X145460000Y-67500000D01*
X145460000Y-68770000D02*
X145460000Y-71420000D01*
X145460000Y-71420000D02*
X137620000Y-71420000D01*
%TO.C,RESET*%
X151250000Y-119500000D02*
X151250000Y-121000000D01*
X152500000Y-123500000D02*
X157000000Y-123500000D01*
X157000000Y-117000000D02*
X152500000Y-117000000D01*
X158250000Y-121000000D02*
X158250000Y-119500000D01*
%TO.C,J2*%
X180620000Y-87350000D02*
X180620000Y-79620000D01*
X183380000Y-79620000D02*
X180620000Y-79620000D01*
X183380000Y-87350000D02*
X180620000Y-87350000D01*
X183380000Y-87350000D02*
X183380000Y-79620000D01*
X183380000Y-88620000D02*
X183380000Y-90000000D01*
X183380000Y-90000000D02*
X182000000Y-90000000D01*
%TO.C,D4*%
X167315000Y-95665000D02*
X167315000Y-97135000D01*
X167315000Y-97135000D02*
X169600000Y-97135000D01*
X169600000Y-95665000D02*
X167315000Y-95665000D01*
%TO.C,J3*%
X114040000Y-68880000D02*
X114040000Y-67500000D01*
X115420000Y-68880000D02*
X114040000Y-68880000D01*
X116690000Y-66120000D02*
X124420000Y-66120000D01*
X116690000Y-68880000D02*
X116690000Y-66120000D01*
X116690000Y-68880000D02*
X124420000Y-68880000D01*
X124420000Y-68880000D02*
X124420000Y-66120000D01*
%TO.C,J4*%
X106670000Y-100190000D02*
X108050000Y-100190000D01*
X106670000Y-101570000D02*
X106670000Y-100190000D01*
X106670000Y-102840000D02*
X106670000Y-110570000D01*
X106670000Y-102840000D02*
X109430000Y-102840000D01*
X106670000Y-110570000D02*
X109430000Y-110570000D01*
X109430000Y-102840000D02*
X109430000Y-110570000D01*
%TO.C,D1*%
X125765000Y-119412500D02*
X125765000Y-121697500D01*
X125765000Y-121697500D02*
X127235000Y-121697500D01*
X127235000Y-121697500D02*
X127235000Y-119412500D01*
%TO.C,D3*%
X115265000Y-119487500D02*
X115265000Y-121772500D01*
X115265000Y-121772500D02*
X116735000Y-121772500D01*
X116735000Y-121772500D02*
X116735000Y-119487500D01*
%TO.C,J8*%
X174620000Y-77080000D02*
X176000000Y-77080000D01*
X174620000Y-78460000D02*
X174620000Y-77080000D01*
X174620000Y-79730000D02*
X174620000Y-92540000D01*
X174620000Y-79730000D02*
X177380000Y-79730000D01*
X174620000Y-92540000D02*
X177380000Y-92540000D01*
X177380000Y-79730000D02*
X177380000Y-92540000D01*
%TO.C,D2*%
X120765000Y-119412500D02*
X120765000Y-121697500D01*
X120765000Y-121697500D02*
X122235000Y-121697500D01*
X122235000Y-121697500D02*
X122235000Y-119412500D01*
%TO.C,J1*%
X106620000Y-79080000D02*
X108000000Y-79080000D01*
X106620000Y-80460000D02*
X106620000Y-79080000D01*
X106620000Y-81730000D02*
X106620000Y-94540000D01*
X106620000Y-81730000D02*
X109380000Y-81730000D01*
X106620000Y-94540000D02*
X109380000Y-94540000D01*
X109380000Y-81730000D02*
X109380000Y-94540000D01*
%TO.C,J6*%
X164580000Y-68880000D02*
X164580000Y-67500000D01*
X165960000Y-68880000D02*
X164580000Y-68880000D01*
X167230000Y-66120000D02*
X174960000Y-66120000D01*
X167230000Y-68880000D02*
X167230000Y-66120000D01*
X167230000Y-68880000D02*
X174960000Y-68880000D01*
X174960000Y-68880000D02*
X174960000Y-66120000D01*
%TO.C,C15*%
X146250000Y-77990000D02*
X147250000Y-77990000D01*
X146750000Y-77490000D02*
X146750000Y-78490000D01*
X147490000Y-77304437D02*
X147490000Y-78990000D01*
X147490000Y-77304437D02*
X148554437Y-76240000D01*
X147490000Y-83695563D02*
X147490000Y-82010000D01*
X147490000Y-83695563D02*
X148554437Y-84760000D01*
X148554437Y-76240000D02*
X156010000Y-76240000D01*
X148554437Y-84760000D02*
X156010000Y-84760000D01*
X156010000Y-76240000D02*
X156010000Y-78990000D01*
X156010000Y-84760000D02*
X156010000Y-82010000D01*
%TO.C,J9*%
X159120000Y-77080000D02*
X160500000Y-77080000D01*
X159120000Y-78460000D02*
X159120000Y-77080000D01*
X159120000Y-79730000D02*
X159120000Y-92540000D01*
X159120000Y-79730000D02*
X161880000Y-79730000D01*
X159120000Y-92540000D02*
X161880000Y-92540000D01*
X161880000Y-79730000D02*
X161880000Y-92540000D01*
%TD*%
M02*
