%TF.GenerationSoftware,KiCad,Pcbnew,9.0.5*%
%TF.CreationDate,2026-04-24T16:33:20+02:00*%
%TF.ProjectId,pg-id656,70672d69-6436-4353-962e-6b696361645f,5*%
%TF.SameCoordinates,Original*%
%TF.FileFunction,Soldermask,Bot*%
%TF.FilePolarity,Negative*%
%FSLAX46Y46*%
G04 Gerber Fmt 4.6, Leading zero omitted, Abs format (unit mm)*
G04 Created by KiCad (PCBNEW 9.0.5) date 2026-04-24 16:33:20*
%MOMM*%
%LPD*%
G01*
G04 APERTURE LIST*
G04 Aperture macros list*
%AMRoundRect*
0 Rectangle with rounded corners*
0 $1 Rounding radius*
0 $2 $3 $4 $5 $6 $7 $8 $9 X,Y pos of 4 corners*
0 Add a 4 corners polygon primitive as box body*
4,1,4,$2,$3,$4,$5,$6,$7,$8,$9,$2,$3,0*
0 Add four circle primitives for the rounded corners*
1,1,$1+$1,$2,$3*
1,1,$1+$1,$4,$5*
1,1,$1+$1,$6,$7*
1,1,$1+$1,$8,$9*
0 Add four rect primitives between the rounded corners*
20,1,$1+$1,$2,$3,$4,$5,0*
20,1,$1+$1,$4,$5,$6,$7,0*
20,1,$1+$1,$6,$7,$8,$9,0*
20,1,$1+$1,$8,$9,$2,$3,0*%
G04 Aperture macros list end*
%ADD10C,0.010000*%
%ADD11C,2.000000*%
%ADD12R,1.700000X1.700000*%
%ADD13C,1.700000*%
%ADD14C,3.200000*%
%ADD15RoundRect,0.200000X0.275000X-0.200000X0.275000X0.200000X-0.275000X0.200000X-0.275000X-0.200000X0*%
%ADD16RoundRect,0.225000X0.250000X-0.225000X0.250000X0.225000X-0.250000X0.225000X-0.250000X-0.225000X0*%
%ADD17RoundRect,0.250000X0.250000X0.475000X-0.250000X0.475000X-0.250000X-0.475000X0.250000X-0.475000X0*%
%ADD18RoundRect,0.200000X-0.275000X0.200000X-0.275000X-0.200000X0.275000X-0.200000X0.275000X0.200000X0*%
%ADD19RoundRect,0.250000X-0.450000X0.262500X-0.450000X-0.262500X0.450000X-0.262500X0.450000X0.262500X0*%
%ADD20RoundRect,0.225000X-0.250000X0.225000X-0.250000X-0.225000X0.250000X-0.225000X0.250000X0.225000X0*%
%ADD21RoundRect,0.225000X-0.225000X-0.250000X0.225000X-0.250000X0.225000X0.250000X-0.225000X0.250000X0*%
%ADD22RoundRect,0.225000X0.225000X0.250000X-0.225000X0.250000X-0.225000X-0.250000X0.225000X-0.250000X0*%
%ADD23RoundRect,0.150000X0.150000X-0.587500X0.150000X0.587500X-0.150000X0.587500X-0.150000X-0.587500X0*%
%ADD24RoundRect,0.200000X-0.200000X-0.275000X0.200000X-0.275000X0.200000X0.275000X-0.200000X0.275000X0*%
%ADD25RoundRect,0.250000X0.475000X-0.250000X0.475000X0.250000X-0.475000X0.250000X-0.475000X-0.250000X0*%
G04 APERTURE END LIST*
D10*
%TO.C,LSM6DSV16XTR*%
X147162500Y-102600000D02*
X146487500Y-102600000D01*
X146487500Y-102150000D01*
X147162500Y-102150000D01*
X147162500Y-102600000D01*
G36*
X147162500Y-102600000D02*
G01*
X146487500Y-102600000D01*
X146487500Y-102150000D01*
X147162500Y-102150000D01*
X147162500Y-102600000D01*
G37*
X147162500Y-103100000D02*
X146487500Y-103100000D01*
X146487500Y-102650000D01*
X147162500Y-102650000D01*
X147162500Y-103100000D01*
G36*
X147162500Y-103100000D02*
G01*
X146487500Y-103100000D01*
X146487500Y-102650000D01*
X147162500Y-102650000D01*
X147162500Y-103100000D01*
G37*
X147162500Y-103600000D02*
X146487500Y-103600000D01*
X146487500Y-103150000D01*
X147162500Y-103150000D01*
X147162500Y-103600000D01*
G36*
X147162500Y-103600000D02*
G01*
X146487500Y-103600000D01*
X146487500Y-103150000D01*
X147162500Y-103150000D01*
X147162500Y-103600000D01*
G37*
X147162500Y-104100000D02*
X146487500Y-104100000D01*
X146487500Y-103650000D01*
X147162500Y-103650000D01*
X147162500Y-104100000D01*
G36*
X147162500Y-104100000D02*
G01*
X146487500Y-104100000D01*
X146487500Y-103650000D01*
X147162500Y-103650000D01*
X147162500Y-104100000D01*
G37*
X147712500Y-102550000D02*
X147262500Y-102550000D01*
X147262500Y-101875000D01*
X147712500Y-101875000D01*
X147712500Y-102550000D01*
G36*
X147712500Y-102550000D02*
G01*
X147262500Y-102550000D01*
X147262500Y-101875000D01*
X147712500Y-101875000D01*
X147712500Y-102550000D01*
G37*
X147712500Y-104375000D02*
X147262500Y-104375000D01*
X147262500Y-103700000D01*
X147712500Y-103700000D01*
X147712500Y-104375000D01*
G36*
X147712500Y-104375000D02*
G01*
X147262500Y-104375000D01*
X147262500Y-103700000D01*
X147712500Y-103700000D01*
X147712500Y-104375000D01*
G37*
X148212500Y-102550000D02*
X147762500Y-102550000D01*
X147762500Y-101875000D01*
X148212500Y-101875000D01*
X148212500Y-102550000D01*
G36*
X148212500Y-102550000D02*
G01*
X147762500Y-102550000D01*
X147762500Y-101875000D01*
X148212500Y-101875000D01*
X148212500Y-102550000D01*
G37*
X148212500Y-104375000D02*
X147762500Y-104375000D01*
X147762500Y-103700000D01*
X148212500Y-103700000D01*
X148212500Y-104375000D01*
G36*
X148212500Y-104375000D02*
G01*
X147762500Y-104375000D01*
X147762500Y-103700000D01*
X148212500Y-103700000D01*
X148212500Y-104375000D01*
G37*
X148712500Y-102550000D02*
X148262500Y-102550000D01*
X148262500Y-101875000D01*
X148712500Y-101875000D01*
X148712500Y-102550000D01*
G36*
X148712500Y-102550000D02*
G01*
X148262500Y-102550000D01*
X148262500Y-101875000D01*
X148712500Y-101875000D01*
X148712500Y-102550000D01*
G37*
X148712500Y-104375000D02*
X148262500Y-104375000D01*
X148262500Y-103700000D01*
X148712500Y-103700000D01*
X148712500Y-104375000D01*
G36*
X148712500Y-104375000D02*
G01*
X148262500Y-104375000D01*
X148262500Y-103700000D01*
X148712500Y-103700000D01*
X148712500Y-104375000D01*
G37*
X149487500Y-102600000D02*
X148812500Y-102600000D01*
X148812500Y-102150000D01*
X149487500Y-102150000D01*
X149487500Y-102600000D01*
G36*
X149487500Y-102600000D02*
G01*
X148812500Y-102600000D01*
X148812500Y-102150000D01*
X149487500Y-102150000D01*
X149487500Y-102600000D01*
G37*
X149487500Y-103100000D02*
X148812500Y-103100000D01*
X148812500Y-102650000D01*
X149487500Y-102650000D01*
X149487500Y-103100000D01*
G36*
X149487500Y-103100000D02*
G01*
X148812500Y-103100000D01*
X148812500Y-102650000D01*
X149487500Y-102650000D01*
X149487500Y-103100000D01*
G37*
X149487500Y-103600000D02*
X148812500Y-103600000D01*
X148812500Y-103150000D01*
X149487500Y-103150000D01*
X149487500Y-103600000D01*
G36*
X149487500Y-103600000D02*
G01*
X148812500Y-103600000D01*
X148812500Y-103150000D01*
X149487500Y-103150000D01*
X149487500Y-103600000D01*
G37*
X149487500Y-104100000D02*
X148812500Y-104100000D01*
X148812500Y-103650000D01*
X149487500Y-103650000D01*
X149487500Y-104100000D01*
G36*
X149487500Y-104100000D02*
G01*
X148812500Y-104100000D01*
X148812500Y-103650000D01*
X149487500Y-103650000D01*
X149487500Y-104100000D01*
G37*
%TO.C,U1*%
X129400000Y-91450000D02*
X128100000Y-91450000D01*
X128100000Y-91050000D01*
X129400000Y-91050000D01*
X129400000Y-91450000D01*
G36*
X129400000Y-91450000D02*
G01*
X128100000Y-91450000D01*
X128100000Y-91050000D01*
X129400000Y-91050000D01*
X129400000Y-91450000D01*
G37*
X129400000Y-91950000D02*
X128100000Y-91950000D01*
X128100000Y-91550000D01*
X129400000Y-91550000D01*
X129400000Y-91950000D01*
G36*
X129400000Y-91950000D02*
G01*
X128100000Y-91950000D01*
X128100000Y-91550000D01*
X129400000Y-91550000D01*
X129400000Y-91950000D01*
G37*
X129400000Y-92450000D02*
X128100000Y-92450000D01*
X128100000Y-92050000D01*
X129400000Y-92050000D01*
X129400000Y-92450000D01*
G36*
X129400000Y-92450000D02*
G01*
X128100000Y-92450000D01*
X128100000Y-92050000D01*
X129400000Y-92050000D01*
X129400000Y-92450000D01*
G37*
X129400000Y-92950000D02*
X128100000Y-92950000D01*
X128100000Y-92550000D01*
X129400000Y-92550000D01*
X129400000Y-92950000D01*
G36*
X129400000Y-92950000D02*
G01*
X128100000Y-92950000D01*
X128100000Y-92550000D01*
X129400000Y-92550000D01*
X129400000Y-92950000D01*
G37*
X129400000Y-93450000D02*
X128100000Y-93450000D01*
X128100000Y-93050000D01*
X129400000Y-93050000D01*
X129400000Y-93450000D01*
G36*
X129400000Y-93450000D02*
G01*
X128100000Y-93450000D01*
X128100000Y-93050000D01*
X129400000Y-93050000D01*
X129400000Y-93450000D01*
G37*
X129400000Y-93950000D02*
X128100000Y-93950000D01*
X128100000Y-93550000D01*
X129400000Y-93550000D01*
X129400000Y-93950000D01*
G36*
X129400000Y-93950000D02*
G01*
X128100000Y-93950000D01*
X128100000Y-93550000D01*
X129400000Y-93550000D01*
X129400000Y-93950000D01*
G37*
X129400000Y-94450000D02*
X128100000Y-94450000D01*
X128100000Y-94050000D01*
X129400000Y-94050000D01*
X129400000Y-94450000D01*
G36*
X129400000Y-94450000D02*
G01*
X128100000Y-94450000D01*
X128100000Y-94050000D01*
X129400000Y-94050000D01*
X129400000Y-94450000D01*
G37*
X129400000Y-94950000D02*
X128100000Y-94950000D01*
X128100000Y-94550000D01*
X129400000Y-94550000D01*
X129400000Y-94950000D01*
G36*
X129400000Y-94950000D02*
G01*
X128100000Y-94950000D01*
X128100000Y-94550000D01*
X129400000Y-94550000D01*
X129400000Y-94950000D01*
G37*
X129400000Y-95450000D02*
X128100000Y-95450000D01*
X128100000Y-95050000D01*
X129400000Y-95050000D01*
X129400000Y-95450000D01*
G36*
X129400000Y-95450000D02*
G01*
X128100000Y-95450000D01*
X128100000Y-95050000D01*
X129400000Y-95050000D01*
X129400000Y-95450000D01*
G37*
X129400000Y-95950000D02*
X128100000Y-95950000D01*
X128100000Y-95550000D01*
X129400000Y-95550000D01*
X129400000Y-95950000D01*
G36*
X129400000Y-95950000D02*
G01*
X128100000Y-95950000D01*
X128100000Y-95550000D01*
X129400000Y-95550000D01*
X129400000Y-95950000D01*
G37*
X129400000Y-96450000D02*
X128100000Y-96450000D01*
X128100000Y-96050000D01*
X129400000Y-96050000D01*
X129400000Y-96450000D01*
G36*
X129400000Y-96450000D02*
G01*
X128100000Y-96450000D01*
X128100000Y-96050000D01*
X129400000Y-96050000D01*
X129400000Y-96450000D01*
G37*
X129400000Y-96950000D02*
X128100000Y-96950000D01*
X128100000Y-96550000D01*
X129400000Y-96550000D01*
X129400000Y-96950000D01*
G36*
X129400000Y-96950000D02*
G01*
X128100000Y-96950000D01*
X128100000Y-96550000D01*
X129400000Y-96550000D01*
X129400000Y-96950000D01*
G37*
X129400000Y-97450000D02*
X128100000Y-97450000D01*
X128100000Y-97050000D01*
X129400000Y-97050000D01*
X129400000Y-97450000D01*
G36*
X129400000Y-97450000D02*
G01*
X128100000Y-97450000D01*
X128100000Y-97050000D01*
X129400000Y-97050000D01*
X129400000Y-97450000D01*
G37*
X129400000Y-97950000D02*
X128100000Y-97950000D01*
X128100000Y-97550000D01*
X129400000Y-97550000D01*
X129400000Y-97950000D01*
G36*
X129400000Y-97950000D02*
G01*
X128100000Y-97950000D01*
X128100000Y-97550000D01*
X129400000Y-97550000D01*
X129400000Y-97950000D01*
G37*
X129400000Y-98450000D02*
X128100000Y-98450000D01*
X128100000Y-98050000D01*
X129400000Y-98050000D01*
X129400000Y-98450000D01*
G36*
X129400000Y-98450000D02*
G01*
X128100000Y-98450000D01*
X128100000Y-98050000D01*
X129400000Y-98050000D01*
X129400000Y-98450000D01*
G37*
X129400000Y-98950000D02*
X128100000Y-98950000D01*
X128100000Y-98550000D01*
X129400000Y-98550000D01*
X129400000Y-98950000D01*
G36*
X129400000Y-98950000D02*
G01*
X128100000Y-98950000D01*
X128100000Y-98550000D01*
X129400000Y-98550000D01*
X129400000Y-98950000D01*
G37*
X130950000Y-89900000D02*
X130550000Y-89900000D01*
X130550000Y-88600000D01*
X130950000Y-88600000D01*
X130950000Y-89900000D01*
G36*
X130950000Y-89900000D02*
G01*
X130550000Y-89900000D01*
X130550000Y-88600000D01*
X130950000Y-88600000D01*
X130950000Y-89900000D01*
G37*
X130950000Y-101400000D02*
X130550000Y-101400000D01*
X130550000Y-100100000D01*
X130950000Y-100100000D01*
X130950000Y-101400000D01*
G36*
X130950000Y-101400000D02*
G01*
X130550000Y-101400000D01*
X130550000Y-100100000D01*
X130950000Y-100100000D01*
X130950000Y-101400000D01*
G37*
X131450000Y-89900000D02*
X131050000Y-89900000D01*
X131050000Y-88600000D01*
X131450000Y-88600000D01*
X131450000Y-89900000D01*
G36*
X131450000Y-89900000D02*
G01*
X131050000Y-89900000D01*
X131050000Y-88600000D01*
X131450000Y-88600000D01*
X131450000Y-89900000D01*
G37*
X131450000Y-101400000D02*
X131050000Y-101400000D01*
X131050000Y-100100000D01*
X131450000Y-100100000D01*
X131450000Y-101400000D01*
G36*
X131450000Y-101400000D02*
G01*
X131050000Y-101400000D01*
X131050000Y-100100000D01*
X131450000Y-100100000D01*
X131450000Y-101400000D01*
G37*
X131950000Y-89900000D02*
X131550000Y-89900000D01*
X131550000Y-88600000D01*
X131950000Y-88600000D01*
X131950000Y-89900000D01*
G36*
X131950000Y-89900000D02*
G01*
X131550000Y-89900000D01*
X131550000Y-88600000D01*
X131950000Y-88600000D01*
X131950000Y-89900000D01*
G37*
X131950000Y-101400000D02*
X131550000Y-101400000D01*
X131550000Y-100100000D01*
X131950000Y-100100000D01*
X131950000Y-101400000D01*
G36*
X131950000Y-101400000D02*
G01*
X131550000Y-101400000D01*
X131550000Y-100100000D01*
X131950000Y-100100000D01*
X131950000Y-101400000D01*
G37*
X132450000Y-89900000D02*
X132050000Y-89900000D01*
X132050000Y-88600000D01*
X132450000Y-88600000D01*
X132450000Y-89900000D01*
G36*
X132450000Y-89900000D02*
G01*
X132050000Y-89900000D01*
X132050000Y-88600000D01*
X132450000Y-88600000D01*
X132450000Y-89900000D01*
G37*
X132450000Y-101400000D02*
X132050000Y-101400000D01*
X132050000Y-100100000D01*
X132450000Y-100100000D01*
X132450000Y-101400000D01*
G36*
X132450000Y-101400000D02*
G01*
X132050000Y-101400000D01*
X132050000Y-100100000D01*
X132450000Y-100100000D01*
X132450000Y-101400000D01*
G37*
X132950000Y-89900000D02*
X132550000Y-89900000D01*
X132550000Y-88600000D01*
X132950000Y-88600000D01*
X132950000Y-89900000D01*
G36*
X132950000Y-89900000D02*
G01*
X132550000Y-89900000D01*
X132550000Y-88600000D01*
X132950000Y-88600000D01*
X132950000Y-89900000D01*
G37*
X132950000Y-101400000D02*
X132550000Y-101400000D01*
X132550000Y-100100000D01*
X132950000Y-100100000D01*
X132950000Y-101400000D01*
G36*
X132950000Y-101400000D02*
G01*
X132550000Y-101400000D01*
X132550000Y-100100000D01*
X132950000Y-100100000D01*
X132950000Y-101400000D01*
G37*
X133450000Y-89900000D02*
X133050000Y-89900000D01*
X133050000Y-88600000D01*
X133450000Y-88600000D01*
X133450000Y-89900000D01*
G36*
X133450000Y-89900000D02*
G01*
X133050000Y-89900000D01*
X133050000Y-88600000D01*
X133450000Y-88600000D01*
X133450000Y-89900000D01*
G37*
X133450000Y-101400000D02*
X133050000Y-101400000D01*
X133050000Y-100100000D01*
X133450000Y-100100000D01*
X133450000Y-101400000D01*
G36*
X133450000Y-101400000D02*
G01*
X133050000Y-101400000D01*
X133050000Y-100100000D01*
X133450000Y-100100000D01*
X133450000Y-101400000D01*
G37*
X133950000Y-89900000D02*
X133550000Y-89900000D01*
X133550000Y-88600000D01*
X133950000Y-88600000D01*
X133950000Y-89900000D01*
G36*
X133950000Y-89900000D02*
G01*
X133550000Y-89900000D01*
X133550000Y-88600000D01*
X133950000Y-88600000D01*
X133950000Y-89900000D01*
G37*
X133950000Y-101400000D02*
X133550000Y-101400000D01*
X133550000Y-100100000D01*
X133950000Y-100100000D01*
X133950000Y-101400000D01*
G36*
X133950000Y-101400000D02*
G01*
X133550000Y-101400000D01*
X133550000Y-100100000D01*
X133950000Y-100100000D01*
X133950000Y-101400000D01*
G37*
X134450000Y-89900000D02*
X134050000Y-89900000D01*
X134050000Y-88600000D01*
X134450000Y-88600000D01*
X134450000Y-89900000D01*
G36*
X134450000Y-89900000D02*
G01*
X134050000Y-89900000D01*
X134050000Y-88600000D01*
X134450000Y-88600000D01*
X134450000Y-89900000D01*
G37*
X134450000Y-101400000D02*
X134050000Y-101400000D01*
X134050000Y-100100000D01*
X134450000Y-100100000D01*
X134450000Y-101400000D01*
G36*
X134450000Y-101400000D02*
G01*
X134050000Y-101400000D01*
X134050000Y-100100000D01*
X134450000Y-100100000D01*
X134450000Y-101400000D01*
G37*
X134950000Y-89900000D02*
X134550000Y-89900000D01*
X134550000Y-88600000D01*
X134950000Y-88600000D01*
X134950000Y-89900000D01*
G36*
X134950000Y-89900000D02*
G01*
X134550000Y-89900000D01*
X134550000Y-88600000D01*
X134950000Y-88600000D01*
X134950000Y-89900000D01*
G37*
X134950000Y-101400000D02*
X134550000Y-101400000D01*
X134550000Y-100100000D01*
X134950000Y-100100000D01*
X134950000Y-101400000D01*
G36*
X134950000Y-101400000D02*
G01*
X134550000Y-101400000D01*
X134550000Y-100100000D01*
X134950000Y-100100000D01*
X134950000Y-101400000D01*
G37*
X135450000Y-89900000D02*
X135050000Y-89900000D01*
X135050000Y-88600000D01*
X135450000Y-88600000D01*
X135450000Y-89900000D01*
G36*
X135450000Y-89900000D02*
G01*
X135050000Y-89900000D01*
X135050000Y-88600000D01*
X135450000Y-88600000D01*
X135450000Y-89900000D01*
G37*
X135450000Y-101400000D02*
X135050000Y-101400000D01*
X135050000Y-100100000D01*
X135450000Y-100100000D01*
X135450000Y-101400000D01*
G36*
X135450000Y-101400000D02*
G01*
X135050000Y-101400000D01*
X135050000Y-100100000D01*
X135450000Y-100100000D01*
X135450000Y-101400000D01*
G37*
X135950000Y-89900000D02*
X135550000Y-89900000D01*
X135550000Y-88600000D01*
X135950000Y-88600000D01*
X135950000Y-89900000D01*
G36*
X135950000Y-89900000D02*
G01*
X135550000Y-89900000D01*
X135550000Y-88600000D01*
X135950000Y-88600000D01*
X135950000Y-89900000D01*
G37*
X135950000Y-101400000D02*
X135550000Y-101400000D01*
X135550000Y-100100000D01*
X135950000Y-100100000D01*
X135950000Y-101400000D01*
G36*
X135950000Y-101400000D02*
G01*
X135550000Y-101400000D01*
X135550000Y-100100000D01*
X135950000Y-100100000D01*
X135950000Y-101400000D01*
G37*
X136450000Y-89900000D02*
X136050000Y-89900000D01*
X136050000Y-88600000D01*
X136450000Y-88600000D01*
X136450000Y-89900000D01*
G36*
X136450000Y-89900000D02*
G01*
X136050000Y-89900000D01*
X136050000Y-88600000D01*
X136450000Y-88600000D01*
X136450000Y-89900000D01*
G37*
X136450000Y-101400000D02*
X136050000Y-101400000D01*
X136050000Y-100100000D01*
X136450000Y-100100000D01*
X136450000Y-101400000D01*
G36*
X136450000Y-101400000D02*
G01*
X136050000Y-101400000D01*
X136050000Y-100100000D01*
X136450000Y-100100000D01*
X136450000Y-101400000D01*
G37*
X136950000Y-89900000D02*
X136550000Y-89900000D01*
X136550000Y-88600000D01*
X136950000Y-88600000D01*
X136950000Y-89900000D01*
G36*
X136950000Y-89900000D02*
G01*
X136550000Y-89900000D01*
X136550000Y-88600000D01*
X136950000Y-88600000D01*
X136950000Y-89900000D01*
G37*
X136950000Y-101400000D02*
X136550000Y-101400000D01*
X136550000Y-100100000D01*
X136950000Y-100100000D01*
X136950000Y-101400000D01*
G36*
X136950000Y-101400000D02*
G01*
X136550000Y-101400000D01*
X136550000Y-100100000D01*
X136950000Y-100100000D01*
X136950000Y-101400000D01*
G37*
X137450000Y-89900000D02*
X137050000Y-89900000D01*
X137050000Y-88600000D01*
X137450000Y-88600000D01*
X137450000Y-89900000D01*
G36*
X137450000Y-89900000D02*
G01*
X137050000Y-89900000D01*
X137050000Y-88600000D01*
X137450000Y-88600000D01*
X137450000Y-89900000D01*
G37*
X137450000Y-101400000D02*
X137050000Y-101400000D01*
X137050000Y-100100000D01*
X137450000Y-100100000D01*
X137450000Y-101400000D01*
G36*
X137450000Y-101400000D02*
G01*
X137050000Y-101400000D01*
X137050000Y-100100000D01*
X137450000Y-100100000D01*
X137450000Y-101400000D01*
G37*
X137950000Y-89900000D02*
X137550000Y-89900000D01*
X137550000Y-88600000D01*
X137950000Y-88600000D01*
X137950000Y-89900000D01*
G36*
X137950000Y-89900000D02*
G01*
X137550000Y-89900000D01*
X137550000Y-88600000D01*
X137950000Y-88600000D01*
X137950000Y-89900000D01*
G37*
X137950000Y-101400000D02*
X137550000Y-101400000D01*
X137550000Y-100100000D01*
X137950000Y-100100000D01*
X137950000Y-101400000D01*
G36*
X137950000Y-101400000D02*
G01*
X137550000Y-101400000D01*
X137550000Y-100100000D01*
X137950000Y-100100000D01*
X137950000Y-101400000D01*
G37*
X138450000Y-89900000D02*
X138050000Y-89900000D01*
X138050000Y-88600000D01*
X138450000Y-88600000D01*
X138450000Y-89900000D01*
G36*
X138450000Y-89900000D02*
G01*
X138050000Y-89900000D01*
X138050000Y-88600000D01*
X138450000Y-88600000D01*
X138450000Y-89900000D01*
G37*
X138450000Y-101400000D02*
X138050000Y-101400000D01*
X138050000Y-100100000D01*
X138450000Y-100100000D01*
X138450000Y-101400000D01*
G36*
X138450000Y-101400000D02*
G01*
X138050000Y-101400000D01*
X138050000Y-100100000D01*
X138450000Y-100100000D01*
X138450000Y-101400000D01*
G37*
X140900000Y-91450000D02*
X139600000Y-91450000D01*
X139600000Y-91050000D01*
X140900000Y-91050000D01*
X140900000Y-91450000D01*
G36*
X140900000Y-91450000D02*
G01*
X139600000Y-91450000D01*
X139600000Y-91050000D01*
X140900000Y-91050000D01*
X140900000Y-91450000D01*
G37*
X140900000Y-91950000D02*
X139600000Y-91950000D01*
X139600000Y-91550000D01*
X140900000Y-91550000D01*
X140900000Y-91950000D01*
G36*
X140900000Y-91950000D02*
G01*
X139600000Y-91950000D01*
X139600000Y-91550000D01*
X140900000Y-91550000D01*
X140900000Y-91950000D01*
G37*
X140900000Y-92450000D02*
X139600000Y-92450000D01*
X139600000Y-92050000D01*
X140900000Y-92050000D01*
X140900000Y-92450000D01*
G36*
X140900000Y-92450000D02*
G01*
X139600000Y-92450000D01*
X139600000Y-92050000D01*
X140900000Y-92050000D01*
X140900000Y-92450000D01*
G37*
X140900000Y-92950000D02*
X139600000Y-92950000D01*
X139600000Y-92550000D01*
X140900000Y-92550000D01*
X140900000Y-92950000D01*
G36*
X140900000Y-92950000D02*
G01*
X139600000Y-92950000D01*
X139600000Y-92550000D01*
X140900000Y-92550000D01*
X140900000Y-92950000D01*
G37*
X140900000Y-93450000D02*
X139600000Y-93450000D01*
X139600000Y-93050000D01*
X140900000Y-93050000D01*
X140900000Y-93450000D01*
G36*
X140900000Y-93450000D02*
G01*
X139600000Y-93450000D01*
X139600000Y-93050000D01*
X140900000Y-93050000D01*
X140900000Y-93450000D01*
G37*
X140900000Y-93950000D02*
X139600000Y-93950000D01*
X139600000Y-93550000D01*
X140900000Y-93550000D01*
X140900000Y-93950000D01*
G36*
X140900000Y-93950000D02*
G01*
X139600000Y-93950000D01*
X139600000Y-93550000D01*
X140900000Y-93550000D01*
X140900000Y-93950000D01*
G37*
X140900000Y-94450000D02*
X139600000Y-94450000D01*
X139600000Y-94050000D01*
X140900000Y-94050000D01*
X140900000Y-94450000D01*
G36*
X140900000Y-94450000D02*
G01*
X139600000Y-94450000D01*
X139600000Y-94050000D01*
X140900000Y-94050000D01*
X140900000Y-94450000D01*
G37*
X140900000Y-94950000D02*
X139600000Y-94950000D01*
X139600000Y-94550000D01*
X140900000Y-94550000D01*
X140900000Y-94950000D01*
G36*
X140900000Y-94950000D02*
G01*
X139600000Y-94950000D01*
X139600000Y-94550000D01*
X140900000Y-94550000D01*
X140900000Y-94950000D01*
G37*
X140900000Y-95450000D02*
X139600000Y-95450000D01*
X139600000Y-95050000D01*
X140900000Y-95050000D01*
X140900000Y-95450000D01*
G36*
X140900000Y-95450000D02*
G01*
X139600000Y-95450000D01*
X139600000Y-95050000D01*
X140900000Y-95050000D01*
X140900000Y-95450000D01*
G37*
X140900000Y-95950000D02*
X139600000Y-95950000D01*
X139600000Y-95550000D01*
X140900000Y-95550000D01*
X140900000Y-95950000D01*
G36*
X140900000Y-95950000D02*
G01*
X139600000Y-95950000D01*
X139600000Y-95550000D01*
X140900000Y-95550000D01*
X140900000Y-95950000D01*
G37*
X140900000Y-96450000D02*
X139600000Y-96450000D01*
X139600000Y-96050000D01*
X140900000Y-96050000D01*
X140900000Y-96450000D01*
G36*
X140900000Y-96450000D02*
G01*
X139600000Y-96450000D01*
X139600000Y-96050000D01*
X140900000Y-96050000D01*
X140900000Y-96450000D01*
G37*
X140900000Y-96950000D02*
X139600000Y-96950000D01*
X139600000Y-96550000D01*
X140900000Y-96550000D01*
X140900000Y-96950000D01*
G36*
X140900000Y-96950000D02*
G01*
X139600000Y-96950000D01*
X139600000Y-96550000D01*
X140900000Y-96550000D01*
X140900000Y-96950000D01*
G37*
X140900000Y-97450000D02*
X139600000Y-97450000D01*
X139600000Y-97050000D01*
X140900000Y-97050000D01*
X140900000Y-97450000D01*
G36*
X140900000Y-97450000D02*
G01*
X139600000Y-97450000D01*
X139600000Y-97050000D01*
X140900000Y-97050000D01*
X140900000Y-97450000D01*
G37*
X140900000Y-97950000D02*
X139600000Y-97950000D01*
X139600000Y-97550000D01*
X140900000Y-97550000D01*
X140900000Y-97950000D01*
G36*
X140900000Y-97950000D02*
G01*
X139600000Y-97950000D01*
X139600000Y-97550000D01*
X140900000Y-97550000D01*
X140900000Y-97950000D01*
G37*
X140900000Y-98450000D02*
X139600000Y-98450000D01*
X139600000Y-98050000D01*
X140900000Y-98050000D01*
X140900000Y-98450000D01*
G36*
X140900000Y-98450000D02*
G01*
X139600000Y-98450000D01*
X139600000Y-98050000D01*
X140900000Y-98050000D01*
X140900000Y-98450000D01*
G37*
X140900000Y-98950000D02*
X139600000Y-98950000D01*
X139600000Y-98550000D01*
X140900000Y-98550000D01*
X140900000Y-98950000D01*
G36*
X140900000Y-98950000D02*
G01*
X139600000Y-98950000D01*
X139600000Y-98550000D01*
X140900000Y-98550000D01*
X140900000Y-98950000D01*
G37*
%TD*%
D11*
%TO.C,B1*%
X165000000Y-118000000D03*
X171500000Y-118000000D03*
X165000000Y-122500000D03*
X171500000Y-122500000D03*
%TD*%
D12*
%TO.C,J5*%
X130960000Y-67500000D03*
D13*
X133500000Y-67500000D03*
X130960000Y-70040000D03*
X133500000Y-70040000D03*
X130960000Y-72580000D03*
X133500000Y-72580000D03*
%TD*%
D12*
%TO.C,J7*%
X144080000Y-67500000D03*
D13*
X144080000Y-70040000D03*
X141540000Y-67500000D03*
X141540000Y-70040000D03*
X139000000Y-67500000D03*
X139000000Y-70040000D03*
%TD*%
D11*
%TO.C,RESET*%
X151500000Y-118000000D03*
X158000000Y-118000000D03*
X151500000Y-122500000D03*
X158000000Y-122500000D03*
%TD*%
D12*
%TO.C,J2*%
X182000000Y-88620000D03*
D13*
X182000000Y-86080000D03*
X182000000Y-83540000D03*
X182000000Y-81000000D03*
%TD*%
D12*
%TO.C,J3*%
X115420000Y-67500000D03*
D13*
X117960000Y-67500000D03*
X120500000Y-67500000D03*
X123040000Y-67500000D03*
%TD*%
D12*
%TO.C,J4*%
X108050000Y-101570000D03*
D13*
X108050000Y-104110000D03*
X108050000Y-106650000D03*
X108050000Y-109190000D03*
%TD*%
D14*
%TO.C,H1*%
X181000000Y-69000000D03*
%TD*%
D12*
%TO.C,J8*%
X176000000Y-78460000D03*
D13*
X176000000Y-81000000D03*
X176000000Y-83540000D03*
X176000000Y-86080000D03*
X176000000Y-88620000D03*
X176000000Y-91160000D03*
%TD*%
D14*
%TO.C,H3*%
X181000000Y-121000000D03*
%TD*%
D12*
%TO.C,J1*%
X108000000Y-80460000D03*
D13*
X108000000Y-83000000D03*
X108000000Y-85540000D03*
X108000000Y-88080000D03*
X108000000Y-90620000D03*
X108000000Y-93160000D03*
%TD*%
D12*
%TO.C,J6*%
X165960000Y-67500000D03*
D13*
X168500000Y-67500000D03*
X171040000Y-67500000D03*
X173580000Y-67500000D03*
%TD*%
D12*
%TO.C,J9*%
X160500000Y-78460000D03*
D13*
X160500000Y-81000000D03*
X160500000Y-83540000D03*
X160500000Y-86080000D03*
X160500000Y-88620000D03*
X160500000Y-91160000D03*
%TD*%
D14*
%TO.C,H2*%
X109000000Y-69000000D03*
%TD*%
%TO.C,H4*%
X109000000Y-121000000D03*
%TD*%
D15*
%TO.C,R8*%
X144000000Y-111950000D03*
X144000000Y-110300000D03*
%TD*%
D16*
%TO.C,C10*%
X129000000Y-104250000D03*
X129000000Y-102700000D03*
%TD*%
D17*
%TO.C,C3*%
X148850000Y-106125000D03*
X146950000Y-106125000D03*
%TD*%
D15*
%TO.C,R3*%
X116000000Y-114575000D03*
X116000000Y-112925000D03*
%TD*%
D17*
%TO.C,C1*%
X140800000Y-74962500D03*
X138900000Y-74962500D03*
%TD*%
D18*
%TO.C,R6*%
X146800000Y-97950000D03*
X146800000Y-99600000D03*
%TD*%
D15*
%TO.C,R5*%
X149125000Y-99625000D03*
X149125000Y-97975000D03*
%TD*%
D16*
%TO.C,C11*%
X130600000Y-104250000D03*
X130600000Y-102700000D03*
%TD*%
%TO.C,C5*%
X136000000Y-104550000D03*
X136000000Y-103000000D03*
%TD*%
D18*
%TO.C,R7*%
X144400000Y-97050000D03*
X144400000Y-98700000D03*
%TD*%
D16*
%TO.C,C8*%
X142350000Y-100275000D03*
X142350000Y-98725000D03*
%TD*%
D17*
%TO.C,C2*%
X141150000Y-81900000D03*
X139250000Y-81900000D03*
%TD*%
D19*
%TO.C,R4*%
X143925000Y-102162500D03*
X143925000Y-103987500D03*
%TD*%
D20*
%TO.C,C6*%
X126000000Y-97500000D03*
X126000000Y-99050000D03*
%TD*%
D21*
%TO.C,C9*%
X137950000Y-86000000D03*
X139500000Y-86000000D03*
%TD*%
D16*
%TO.C,C4*%
X152225000Y-103925000D03*
X152225000Y-102375000D03*
%TD*%
D22*
%TO.C,C13*%
X139775000Y-102500000D03*
X138225000Y-102500000D03*
%TD*%
D23*
%TO.C,U3*%
X139900000Y-79100000D03*
X138000000Y-79100000D03*
X138950000Y-77225000D03*
%TD*%
D24*
%TO.C,R9*%
X162750000Y-96400000D03*
X164400000Y-96400000D03*
%TD*%
D15*
%TO.C,R1*%
X126500000Y-114500000D03*
X126500000Y-112850000D03*
%TD*%
D16*
%TO.C,C14*%
X136500000Y-83325000D03*
X136500000Y-81775000D03*
%TD*%
D21*
%TO.C,C16*%
X156525000Y-86500000D03*
X158075000Y-86500000D03*
%TD*%
D25*
%TO.C,C12*%
X132500000Y-104500000D03*
X132500000Y-102600000D03*
%TD*%
D20*
%TO.C,C7*%
X126000000Y-90725000D03*
X126000000Y-92275000D03*
%TD*%
D15*
%TO.C,R2*%
X121500000Y-114500000D03*
X121500000Y-112850000D03*
%TD*%
M02*
