M48
; DRILL file {KiCad 9.0.5} date 2026-04-24T16:34:12+0200
; FORMAT={-:-/ absolute / metric / decimal}
; #@! TF.CreationDate,2026-04-24T16:34:12+02:00
; #@! TF.GenerationSoftware,Kicad,Pcbnew,9.0.5
; #@! TF.FileFunction,Plated,1,2,PTH
FMAT,2
METRIC
; #@! TA.AperFunction,Plated,PTH,ViaDrill
T1C0.300
; #@! TA.AperFunction,Plated,PTH,ViaDrill
T2C0.600
; #@! TA.AperFunction,Plated,PTH,ComponentDrill
T3C1.000
; #@! TA.AperFunction,Plated,PTH,ComponentDrill
T4C1.100
%
G90
G05
T1
X107.5Y-117.0
X109.5Y-98.5
X110.0Y-75.0
X110.0Y-78.5
X111.0Y-93.5
X111.5Y-106.3
X112.5Y-66.5
X112.5Y-72.0
X112.5Y-84.5
X112.5Y-112.5
X113.0Y-117.0
X113.0Y-123.0
X113.8Y-99.6
X115.0Y-70.0
X115.0Y-75.0
X115.0Y-78.5
X115.0Y-89.5
X115.5Y-102.0
X116.0Y-108.5
X116.0Y-116.25
X118.5Y-123.0
X120.0Y-75.0
X120.0Y-78.5
X120.0Y-97.5
X120.0Y-110.5
X120.5Y-84.5
X120.5Y-105.0
X121.5Y-93.0
X121.5Y-116.25
X122.5Y-89.5
X123.9Y-99.7
X124.0Y-123.0
X125.025Y-86.525
X125.5Y-110.5
X126.0Y-66.5
X126.5Y-80.0
X126.5Y-105.0
X126.5Y-116.25
X126.995Y-96.22
X127.4Y-97.05
X127.5Y-69.5
X127.5Y-72.5
X128.0Y-84.0
X129.175Y-86.55
X130.0Y-115.0
X130.0Y-120.0
X130.475Y-96.7
X130.825Y-98.35
X131.0Y-75.5
X132.075Y-87.85
X132.225Y-95.3
X133.079Y-87.729
X133.5Y-83.0
X133.5Y-96.8
X133.978Y-87.736
X134.0Y-80.0
X134.6Y-92.8
X135.0Y-110.0
X135.0Y-115.0
X135.0Y-120.0
X135.35Y-87.8
X135.85Y-75.325
X136.4Y-67.4
X136.7Y-93.925
X137.9Y-98.3
X140.0Y-110.0
X140.0Y-115.0
X140.0Y-120.0
X141.7Y-102.2
X142.3Y-91.1
X142.375Y-97.675
X142.4Y-77.9
X142.7Y-106.3
X142.9Y-95.725
X143.45Y-109.175
X143.7Y-83.2
X144.425Y-86.775
X144.425Y-100.0
X144.7Y-74.9
X144.8Y-106.4
X144.9Y-80.6
X145.0Y-115.0
X145.0Y-120.0
X146.9Y-100.9
X147.0Y-91.0
X147.5Y-68.0
X147.575Y-104.616
X147.726Y-96.6
X148.825Y-96.55
X149.1Y-85.9
X152.0Y-68.0
X152.0Y-72.0
X152.0Y-83.0
X152.2Y-86.1
X154.2Y-86.7
X155.0Y-100.0
X155.0Y-105.0
X155.0Y-110.0
X156.0Y-77.0
X157.0Y-68.0
X157.0Y-72.0
X160.0Y-100.0
X160.0Y-105.0
X160.0Y-110.0
X161.5Y-68.0
X161.5Y-72.0
X161.9Y-84.8
X161.9Y-89.9
X165.0Y-77.0
X165.0Y-85.0
X165.0Y-91.0
X165.0Y-100.0
X165.0Y-105.0
X165.0Y-110.0
X165.0Y-115.0
X166.2Y-96.4
X166.5Y-72.0
X169.0Y-81.0
X169.0Y-88.0
X170.0Y-100.0
X170.0Y-105.0
X170.0Y-110.0
X170.0Y-115.0
X171.0Y-93.0
X173.0Y-81.0
X173.0Y-88.0
X175.0Y-100.0
X175.0Y-105.0
X175.0Y-110.0
X175.0Y-115.0
X175.0Y-120.0
X176.5Y-67.0
X176.5Y-72.5
X176.5Y-77.0
X180.0Y-95.0
X180.0Y-100.0
X180.0Y-105.0
X180.0Y-110.0
X180.0Y-115.0
X182.0Y-72.5
X182.0Y-77.0
T2
X146.8Y-72.3
T3
X108.0Y-80.46
X108.0Y-83.0
X108.0Y-85.54
X108.0Y-88.08
X108.0Y-90.62
X108.0Y-93.16
X108.05Y-101.57
X108.05Y-104.11
X108.05Y-106.65
X108.05Y-109.19
X115.42Y-67.5
X117.96Y-67.5
X120.5Y-67.5
X123.04Y-67.5
X130.96Y-67.5
X130.96Y-70.04
X130.96Y-72.58
X133.5Y-67.5
X133.5Y-70.04
X133.5Y-72.58
X139.0Y-67.5
X139.0Y-70.04
X141.54Y-67.5
X141.54Y-70.04
X144.08Y-67.5
X144.08Y-70.04
X160.5Y-78.46
X160.5Y-81.0
X160.5Y-83.54
X160.5Y-86.08
X160.5Y-88.62
X160.5Y-91.16
X165.96Y-67.5
X168.5Y-67.5
X171.04Y-67.5
X173.58Y-67.5
X176.0Y-78.46
X176.0Y-81.0
X176.0Y-83.54
X176.0Y-86.08
X176.0Y-88.62
X176.0Y-91.16
X182.0Y-81.0
X182.0Y-83.54
X182.0Y-86.08
X182.0Y-88.62
T4
X151.5Y-118.0
X151.5Y-122.5
X158.0Y-118.0
X158.0Y-122.5
X165.0Y-118.0
X165.0Y-122.5
X171.5Y-118.0
X171.5Y-122.5
M30
