%TF.GenerationSoftware,KiCad,Pcbnew,9.0.5*%
%TF.CreationDate,2026-04-24T16:33:19+02:00*%
%TF.ProjectId,pg-id656,70672d69-6436-4353-962e-6b696361645f,5*%
%TF.SameCoordinates,Original*%
%TF.FileFunction,Copper,L1,Top*%
%TF.FilePolarity,Positive*%
%FSLAX46Y46*%
G04 Gerber Fmt 4.6, Leading zero omitted, Abs format (unit mm)*
G04 Created by KiCad (PCBNEW 9.0.5) date 2026-04-24 16:33:19*
%MOMM*%
%LPD*%
G01*
G04 APERTURE LIST*
G04 Aperture macros list*
%AMRoundRect*
0 Rectangle with rounded corners*
0 $1 Rounding radius*
0 $2 $3 $4 $5 $6 $7 $8 $9 X,Y pos of 4 corners*
0 Add a 4 corners polygon primitive as box body*
4,1,4,$2,$3,$4,$5,$6,$7,$8,$9,$2,$3,0*
0 Add four circle primitives for the rounded corners*
1,1,$1+$1,$2,$3*
1,1,$1+$1,$4,$5*
1,1,$1+$1,$6,$7*
1,1,$1+$1,$8,$9*
0 Add four rect primitives between the rounded corners*
20,1,$1+$1,$2,$3,$4,$5,0*
20,1,$1+$1,$4,$5,$6,$7,0*
20,1,$1+$1,$6,$7,$8,$9,0*
20,1,$1+$1,$8,$9,$2,$3,0*%
G04 Aperture macros list end*
%TA.AperFunction,ComponentPad*%
%ADD10C,2.000000*%
%TD*%
%TA.AperFunction,ComponentPad*%
%ADD11R,1.700000X1.700000*%
%TD*%
%TA.AperFunction,ComponentPad*%
%ADD12C,1.700000*%
%TD*%
%TA.AperFunction,SMDPad,CuDef*%
%ADD13RoundRect,0.218750X-0.218750X-0.256250X0.218750X-0.256250X0.218750X0.256250X-0.218750X0.256250X0*%
%TD*%
%TA.AperFunction,SMDPad,CuDef*%
%ADD14RoundRect,0.218750X0.256250X-0.218750X0.256250X0.218750X-0.256250X0.218750X-0.256250X-0.218750X0*%
%TD*%
%TA.AperFunction,SMDPad,CuDef*%
%ADD15RoundRect,0.250000X-1.500000X-1.000000X1.500000X-1.000000X1.500000X1.000000X-1.500000X1.000000X0*%
%TD*%
%TA.AperFunction,ViaPad*%
%ADD16C,0.600000*%
%TD*%
%TA.AperFunction,ViaPad*%
%ADD17C,1.200000*%
%TD*%
%TA.AperFunction,Conductor*%
%ADD18C,0.250000*%
%TD*%
%TA.AperFunction,Conductor*%
%ADD19C,0.500000*%
%TD*%
%TA.AperFunction,Conductor*%
%ADD20C,0.200000*%
%TD*%
%TA.AperFunction,Conductor*%
%ADD21C,1.200000*%
%TD*%
G04 APERTURE END LIST*
D10*
%TO.P,B1,1,1*%
%TO.N,Net-(U1-PC13)*%
X165000000Y-118000000D03*
X171500000Y-118000000D03*
%TO.P,B1,2,2*%
%TO.N,GND*%
X165000000Y-122500000D03*
X171500000Y-122500000D03*
%TD*%
D11*
%TO.P,J5,1,Pin_1*%
%TO.N,unconnected-(J5-Pin_1-Pad1)*%
X130960000Y-67500000D03*
D12*
%TO.P,J5,2,Pin_2*%
%TO.N,GND*%
X133500000Y-67500000D03*
%TO.P,J5,3,Pin_3*%
%TO.N,unconnected-(J5-Pin_3-Pad3)*%
X130960000Y-70040000D03*
%TO.P,J5,4,Pin_4*%
%TO.N,+5V*%
X133500000Y-70040000D03*
%TO.P,J5,5,Pin_5*%
%TO.N,+3.3V*%
X130960000Y-72580000D03*
%TO.P,J5,6,Pin_6*%
%TO.N,+5V*%
X133500000Y-72580000D03*
%TD*%
D11*
%TO.P,J7,1,Pin_1*%
%TO.N,unconnected-(J7-Pin_1-Pad1)*%
X144080000Y-67500000D03*
D12*
%TO.P,J7,2,Pin_2*%
%TO.N,GND*%
X144080000Y-70040000D03*
%TO.P,J7,3,Pin_3*%
%TO.N,unconnected-(J7-Pin_3-Pad3)*%
X141540000Y-67500000D03*
%TO.P,J7,4,Pin_4*%
%TO.N,+5V*%
X141540000Y-70040000D03*
%TO.P,J7,5,Pin_5*%
%TO.N,+3.3V*%
X139000000Y-67500000D03*
%TO.P,J7,6,Pin_6*%
%TO.N,+5V*%
X139000000Y-70040000D03*
%TD*%
D10*
%TO.P,RESET,1,1*%
%TO.N,Net-(J1-Pin_5)*%
X151500000Y-118000000D03*
X158000000Y-118000000D03*
%TO.P,RESET,2,2*%
%TO.N,GND*%
X151500000Y-122500000D03*
X158000000Y-122500000D03*
%TD*%
D11*
%TO.P,J2,1,Pin_1*%
%TO.N,Net-(J2-Pin_1)*%
X182000000Y-88620000D03*
D12*
%TO.P,J2,2,Pin_2*%
%TO.N,Net-(J2-Pin_2)*%
X182000000Y-86080000D03*
%TO.P,J2,3,Pin_3*%
%TO.N,Net-(J2-Pin_3)*%
X182000000Y-83540000D03*
%TO.P,J2,4,Pin_4*%
%TO.N,Net-(J2-Pin_4)*%
X182000000Y-81000000D03*
%TD*%
D13*
%TO.P,D4,1,K*%
%TO.N,Net-(D4-K)*%
X168012500Y-96400000D03*
%TO.P,D4,2,A*%
%TO.N,Net-(D4-A)*%
X169587500Y-96400000D03*
%TD*%
D11*
%TO.P,J3,1,Pin_1*%
%TO.N,+3.3V*%
X115420000Y-67500000D03*
D12*
%TO.P,J3,2,Pin_2*%
%TO.N,GND*%
X117960000Y-67500000D03*
%TO.P,J3,3,Pin_3*%
%TO.N,Net-(J3-Pin_3)*%
X120500000Y-67500000D03*
%TO.P,J3,4,Pin_4*%
%TO.N,Net-(J3-Pin_4)*%
X123040000Y-67500000D03*
%TD*%
D11*
%TO.P,J4,1,Pin_1*%
%TO.N,GND*%
X108050000Y-101570000D03*
D12*
%TO.P,J4,2,Pin_2*%
%TO.N,Net-(J4-Pin_2)*%
X108050000Y-104110000D03*
%TO.P,J4,3,Pin_3*%
%TO.N,Net-(J4-Pin_3)*%
X108050000Y-106650000D03*
%TO.P,J4,4,Pin_4*%
%TO.N,GND*%
X108050000Y-109190000D03*
%TD*%
D14*
%TO.P,D1,1,K*%
%TO.N,GND*%
X126500000Y-121000000D03*
%TO.P,D1,2,A*%
%TO.N,Net-(D1-A)*%
X126500000Y-119425000D03*
%TD*%
%TO.P,D3,1,K*%
%TO.N,GND*%
X116000000Y-121075000D03*
%TO.P,D3,2,A*%
%TO.N,Net-(D3-A)*%
X116000000Y-119500000D03*
%TD*%
D11*
%TO.P,J8,1,Pin_1*%
%TO.N,+5V*%
X176000000Y-78460000D03*
D12*
%TO.P,J8,2,Pin_2*%
%TO.N,Net-(J2-Pin_4)*%
X176000000Y-81000000D03*
%TO.P,J8,3,Pin_3*%
%TO.N,Net-(J2-Pin_3)*%
X176000000Y-83540000D03*
%TO.P,J8,4,Pin_4*%
%TO.N,Net-(J2-Pin_2)*%
X176000000Y-86080000D03*
%TO.P,J8,5,Pin_5*%
%TO.N,Net-(J2-Pin_1)*%
X176000000Y-88620000D03*
%TO.P,J8,6,Pin_6*%
%TO.N,Net-(D4-A)*%
X176000000Y-91160000D03*
%TD*%
D14*
%TO.P,D2,1,K*%
%TO.N,GND*%
X121500000Y-121000000D03*
%TO.P,D2,2,A*%
%TO.N,Net-(D2-A)*%
X121500000Y-119425000D03*
%TD*%
D11*
%TO.P,J1,1,Pin_1*%
%TO.N,+3.3V*%
X108000000Y-80460000D03*
D12*
%TO.P,J1,2,Pin_2*%
%TO.N,Net-(J1-Pin_2)*%
X108000000Y-83000000D03*
%TO.P,J1,3,Pin_3*%
%TO.N,GND*%
X108000000Y-85540000D03*
%TO.P,J1,4,Pin_4*%
%TO.N,Net-(J1-Pin_4)*%
X108000000Y-88080000D03*
%TO.P,J1,5,Pin_5*%
%TO.N,Net-(J1-Pin_5)*%
X108000000Y-90620000D03*
%TO.P,J1,6,Pin_6*%
%TO.N,Net-(J1-Pin_6)*%
X108000000Y-93160000D03*
%TD*%
D11*
%TO.P,J6,1,Pin_1*%
%TO.N,+3.3V*%
X165960000Y-67500000D03*
D12*
%TO.P,J6,2,Pin_2*%
%TO.N,GND*%
X168500000Y-67500000D03*
%TO.P,J6,3,Pin_3*%
%TO.N,Net-(J6-Pin_3)*%
X171040000Y-67500000D03*
%TO.P,J6,4,Pin_4*%
%TO.N,Net-(J6-Pin_4)*%
X173580000Y-67500000D03*
%TD*%
D15*
%TO.P,C15,1*%
%TO.N,GND*%
X148500000Y-80500000D03*
%TO.P,C15,2*%
%TO.N,+5V*%
X155000000Y-80500000D03*
%TD*%
D11*
%TO.P,J9,1,Pin_1*%
%TO.N,Net-(J9-Pin_1)*%
X160500000Y-78460000D03*
D12*
%TO.P,J9,2,Pin_2*%
%TO.N,Net-(J9-Pin_2)*%
X160500000Y-81000000D03*
%TO.P,J9,3,Pin_3*%
%TO.N,GND*%
X160500000Y-83540000D03*
%TO.P,J9,4,Pin_4*%
%TO.N,+5V*%
X160500000Y-86080000D03*
%TO.P,J9,5,Pin_5*%
%TO.N,Net-(J9-Pin_5)*%
X160500000Y-88620000D03*
%TO.P,J9,6,Pin_6*%
%TO.N,Net-(J9-Pin_6)*%
X160500000Y-91160000D03*
%TD*%
D16*
%TO.N,GND*%
X133500000Y-83000000D03*
X124000000Y-123000000D03*
X169000000Y-81000000D03*
X170000000Y-105000000D03*
X180000000Y-110000000D03*
X182000000Y-72500000D03*
X175000000Y-100000000D03*
X144700000Y-74900000D03*
X180000000Y-100000000D03*
X115000000Y-75000000D03*
X176500000Y-72500000D03*
X165000000Y-91000000D03*
X170000000Y-110000000D03*
X141700000Y-102200000D03*
X140000000Y-115000000D03*
X125500000Y-110500000D03*
X165000000Y-85000000D03*
X110000000Y-78500000D03*
X155000000Y-105000000D03*
X166500000Y-72000000D03*
X112500000Y-72000000D03*
X161500000Y-72000000D03*
X123900000Y-99700000D03*
X120000000Y-97500000D03*
X112500000Y-112500000D03*
X169000000Y-88000000D03*
X135000000Y-110000000D03*
X176500000Y-77000000D03*
X113800000Y-99600000D03*
X165000000Y-77000000D03*
X107500000Y-117000000D03*
X116000000Y-108500000D03*
X127500000Y-69500000D03*
X157000000Y-68000000D03*
X135000000Y-120000000D03*
X160000000Y-100000000D03*
X155000000Y-100000000D03*
X147000000Y-91000000D03*
X135000000Y-115000000D03*
X126000000Y-66500000D03*
X170000000Y-100000000D03*
X175000000Y-115000000D03*
X121500000Y-93000000D03*
X171000000Y-93000000D03*
X161900000Y-84800000D03*
X120000000Y-110500000D03*
X110000000Y-75000000D03*
X144800000Y-106400000D03*
X154200000Y-86700000D03*
X155000000Y-110000000D03*
X126500000Y-80000000D03*
X115000000Y-78500000D03*
X135850000Y-75325000D03*
X118500000Y-123000000D03*
X173000000Y-88000000D03*
X157000000Y-72000000D03*
X175000000Y-110000000D03*
X130000000Y-120000000D03*
X170000000Y-115000000D03*
X152000000Y-83000000D03*
X156000000Y-77000000D03*
X115000000Y-70000000D03*
X165000000Y-105000000D03*
X112500000Y-66500000D03*
X120000000Y-75000000D03*
X140000000Y-120000000D03*
X112500000Y-84500000D03*
X134600000Y-92800000D03*
X160000000Y-110000000D03*
X127500000Y-72500000D03*
X137900000Y-98300000D03*
X176500000Y-67000000D03*
X161900000Y-89900000D03*
X122500000Y-89500000D03*
X134000000Y-80000000D03*
X180000000Y-95000000D03*
X120500000Y-84500000D03*
X144900000Y-80600000D03*
X165000000Y-100000000D03*
X142375000Y-97675000D03*
X133500000Y-96800000D03*
X180000000Y-115000000D03*
X142300000Y-91100000D03*
X182000000Y-77000000D03*
X111500000Y-106300000D03*
X180000000Y-105000000D03*
X109500000Y-98500000D03*
X149100000Y-85900000D03*
X126500000Y-105000000D03*
X175000000Y-120000000D03*
X147574999Y-104616117D03*
X136400000Y-67400000D03*
X130000000Y-115000000D03*
X120500000Y-105000000D03*
X165000000Y-110000000D03*
X115000000Y-89500000D03*
X113000000Y-117000000D03*
X120000000Y-78500000D03*
X115500000Y-102000000D03*
X152000000Y-72000000D03*
X128000000Y-84000000D03*
X147500000Y-68000000D03*
X111000000Y-93500000D03*
X144425000Y-100000000D03*
X145000000Y-115000000D03*
X140000000Y-110000000D03*
X173000000Y-81000000D03*
X160000000Y-105000000D03*
X145000000Y-120000000D03*
X175000000Y-105000000D03*
X152000000Y-68000000D03*
X142400000Y-77900000D03*
X113000000Y-123000000D03*
X131000000Y-75500000D03*
X165000000Y-115000000D03*
X161500000Y-68000000D03*
%TO.N,+3.3V*%
X146900000Y-100900000D03*
X143450000Y-109175000D03*
X147726000Y-96600000D03*
X142700000Y-106300000D03*
%TO.N,Net-(D1-A)*%
X126500000Y-116250000D03*
%TO.N,Net-(D2-A)*%
X121500000Y-116250000D03*
%TO.N,Net-(D3-A)*%
X116000000Y-116250000D03*
%TO.N,Net-(J1-Pin_4)*%
X125025000Y-86525000D03*
X129175000Y-86550000D03*
%TO.N,Net-(J1-Pin_6)*%
X136700000Y-93925000D03*
X132225000Y-95300000D03*
%TO.N,Net-(J3-Pin_3)*%
X130475000Y-96700000D03*
%TO.N,Net-(J3-Pin_4)*%
X130825000Y-98350000D03*
%TO.N,Net-(D4-K)*%
X166200000Y-96400000D03*
D17*
%TO.N,+5V*%
X146800000Y-72300000D03*
D16*
%TO.N,Net-(U1-PB7)*%
X142900000Y-95725000D03*
X148825000Y-96550000D03*
%TO.N,Net-(J6-Pin_4)*%
X126994558Y-96219558D03*
%TO.N,Net-(J6-Pin_3)*%
X127400000Y-97050000D03*
%TO.N,Net-(J9-Pin_6)*%
X143700000Y-83200000D03*
X132075000Y-87850000D03*
%TO.N,Net-(J9-Pin_5)*%
X133079442Y-87729442D03*
%TO.N,Net-(J9-Pin_1)*%
X135350000Y-87800000D03*
X152200000Y-86100000D03*
%TO.N,Net-(J9-Pin_2)*%
X144425000Y-86775000D03*
X133978447Y-87735668D03*
%TD*%
D18*
%TO.N,+3.3V*%
X142700000Y-108425000D02*
X143450000Y-109175000D01*
D19*
X147726000Y-96626000D02*
X147726000Y-96600000D01*
D18*
X142700000Y-106300000D02*
X142700000Y-108425000D01*
D19*
X148000000Y-98400000D02*
X148000000Y-96900000D01*
X146900000Y-100900000D02*
X146900000Y-99500000D01*
X148000000Y-96900000D02*
X147726000Y-96626000D01*
X146900000Y-99500000D02*
X148000000Y-98400000D01*
D18*
%TO.N,Net-(D1-A)*%
X126500000Y-116250000D02*
X126500000Y-119425000D01*
%TO.N,Net-(D2-A)*%
X121500000Y-116250000D02*
X121500000Y-119425000D01*
%TO.N,Net-(D3-A)*%
X116000000Y-116250000D02*
X116000000Y-119500000D01*
D20*
%TO.N,Net-(J1-Pin_4)*%
X129150000Y-86525000D02*
X129175000Y-86550000D01*
X125025000Y-86525000D02*
X129150000Y-86525000D01*
%TO.N,Net-(J1-Pin_6)*%
X135325000Y-95300000D02*
X136700000Y-93925000D01*
X132225000Y-95300000D02*
X135325000Y-95300000D01*
D18*
%TO.N,Net-(J3-Pin_3)*%
X130475000Y-80400000D02*
X120500000Y-70425000D01*
X120500000Y-70425000D02*
X120500000Y-67500000D01*
X130475000Y-96700000D02*
X130475000Y-80400000D01*
%TO.N,Net-(J3-Pin_4)*%
X131449000Y-78999000D02*
X123040000Y-70590000D01*
X123040000Y-70590000D02*
X123040000Y-67500000D01*
X131449000Y-97726000D02*
X131449000Y-78999000D01*
X130825000Y-98350000D02*
X131449000Y-97726000D01*
%TO.N,Net-(D4-A)*%
X176000000Y-93000000D02*
X172600000Y-96400000D01*
X176000000Y-91160000D02*
X176000000Y-93000000D01*
X172600000Y-96400000D02*
X169587500Y-96400000D01*
%TO.N,Net-(D4-K)*%
X166200000Y-96400000D02*
X168012500Y-96400000D01*
D21*
%TO.N,+5V*%
X146800000Y-72300000D02*
X155000000Y-80500000D01*
X155000000Y-80500000D02*
X155000000Y-80580000D01*
X155000000Y-80580000D02*
X160500000Y-86080000D01*
D18*
%TO.N,Net-(U1-PB7)*%
X148825000Y-96400000D02*
X148150000Y-95725000D01*
X148150000Y-95725000D02*
X142900000Y-95725000D01*
X148825000Y-96550000D02*
X148825000Y-96400000D01*
%TO.N,Net-(J6-Pin_4)*%
X148450000Y-93750000D02*
X139900000Y-93750000D01*
X139900000Y-93750000D02*
X134100000Y-99550000D01*
X134100000Y-99550000D02*
X129014702Y-99550000D01*
X166236810Y-94501000D02*
X149351000Y-94501000D01*
X126774000Y-97309298D02*
X126774000Y-96440116D01*
X148525000Y-93675000D02*
X148450000Y-93750000D01*
X171491000Y-89246810D02*
X166236810Y-94501000D01*
X171491000Y-69589000D02*
X171491000Y-89246810D01*
X126774000Y-96440116D02*
X126994558Y-96219558D01*
X129014702Y-99550000D02*
X126774000Y-97309298D01*
X149351000Y-94501000D02*
X148525000Y-93675000D01*
X173580000Y-67500000D02*
X171491000Y-69589000D01*
%TO.N,Net-(J6-Pin_3)*%
X148900000Y-92975000D02*
X149975000Y-94050000D01*
X166050000Y-94050000D02*
X171040000Y-89060000D01*
X133374000Y-98976000D02*
X139375000Y-92975000D01*
X171040000Y-89060000D02*
X171040000Y-67500000D01*
X129326000Y-98976000D02*
X133374000Y-98976000D01*
X127400000Y-97050000D02*
X129326000Y-98976000D01*
X139375000Y-92975000D02*
X148900000Y-92975000D01*
X149975000Y-94050000D02*
X166050000Y-94050000D01*
%TO.N,Net-(J9-Pin_6)*%
X136775000Y-83150000D02*
X143650000Y-83150000D01*
X143650000Y-83150000D02*
X143700000Y-83200000D01*
X132075000Y-87850000D02*
X136775000Y-83150000D01*
%TO.N,Net-(J9-Pin_5)*%
X133079442Y-87729442D02*
X134220000Y-88870000D01*
X134220000Y-88870000D02*
X160250000Y-88870000D01*
X160250000Y-88870000D02*
X160500000Y-88620000D01*
%TO.N,Net-(J9-Pin_1)*%
X135350000Y-87800000D02*
X150500000Y-87800000D01*
X150500000Y-87800000D02*
X152200000Y-86100000D01*
%TO.N,Net-(J9-Pin_2)*%
X144425000Y-86775000D02*
X134939115Y-86775000D01*
X134939115Y-86775000D02*
X133978447Y-87735668D01*
%TD*%
%TA.AperFunction,Conductor*%
%TO.N,GND*%
G36*
X135245943Y-95900501D02*
G01*
X135265550Y-95900501D01*
X135308461Y-95913102D01*
X135332584Y-95920186D01*
X135332584Y-95920187D01*
X135332588Y-95920188D01*
X135360372Y-95952256D01*
X135378339Y-95972990D01*
X135378339Y-95972992D01*
X135378341Y-95972994D01*
X135382269Y-96000322D01*
X135388283Y-96042148D01*
X135388281Y-96042150D01*
X135388282Y-96042153D01*
X135376984Y-96066889D01*
X135359258Y-96105704D01*
X135359255Y-96105705D01*
X135359255Y-96105707D01*
X135353226Y-96112182D01*
X133151229Y-98314181D01*
X133089906Y-98347666D01*
X133063548Y-98350500D01*
X132008454Y-98350500D01*
X131941415Y-98330815D01*
X131895660Y-98278011D01*
X131885716Y-98208853D01*
X131914741Y-98145297D01*
X131920773Y-98138819D01*
X131934855Y-98124736D01*
X131934858Y-98124733D01*
X132003311Y-98022286D01*
X132050463Y-97908452D01*
X132074500Y-97787606D01*
X132074500Y-96224500D01*
X132094185Y-96157461D01*
X132146989Y-96111706D01*
X132198500Y-96100500D01*
X132303844Y-96100500D01*
X132303845Y-96100499D01*
X132458497Y-96069737D01*
X132576592Y-96020821D01*
X132604172Y-96009397D01*
X132604172Y-96009396D01*
X132604179Y-96009394D01*
X132639107Y-95986056D01*
X132735875Y-95921398D01*
X132802553Y-95900520D01*
X132804766Y-95900500D01*
X135238336Y-95900500D01*
X135245940Y-95900500D01*
X135245943Y-95900501D01*
G37*
%TD.AperFunction*%
%TA.AperFunction,Conductor*%
G36*
X133034075Y-67692993D02*
G01*
X133099901Y-67807007D01*
X133192993Y-67900099D01*
X133307007Y-67965925D01*
X133370590Y-67982962D01*
X132738282Y-68615269D01*
X132738282Y-68615270D01*
X132792452Y-68654626D01*
X132792451Y-68654626D01*
X132801495Y-68659234D01*
X132852292Y-68707208D01*
X132869087Y-68775029D01*
X132846550Y-68841164D01*
X132801499Y-68880202D01*
X132792182Y-68884949D01*
X132620213Y-69009890D01*
X132469890Y-69160213D01*
X132344949Y-69332182D01*
X132340484Y-69340946D01*
X132292509Y-69391742D01*
X132224688Y-69408536D01*
X132158553Y-69385998D01*
X132119516Y-69340946D01*
X132115050Y-69332182D01*
X131990109Y-69160213D01*
X131876569Y-69046673D01*
X131843084Y-68985350D01*
X131848068Y-68915658D01*
X131889940Y-68859725D01*
X131920915Y-68842810D01*
X132052331Y-68793796D01*
X132167546Y-68707546D01*
X132253796Y-68592331D01*
X132304091Y-68457483D01*
X132310500Y-68397873D01*
X132310499Y-68387312D01*
X132330179Y-68320275D01*
X132346818Y-68299626D01*
X133017037Y-67629408D01*
X133034075Y-67692993D01*
G37*
%TD.AperFunction*%
%TA.AperFunction,Conductor*%
G36*
X142664340Y-68388068D02*
G01*
X142720274Y-68429939D01*
X142737189Y-68460917D01*
X142786202Y-68592328D01*
X142786206Y-68592335D01*
X142872452Y-68707544D01*
X142872455Y-68707547D01*
X142987664Y-68793793D01*
X142987671Y-68793797D01*
X143028280Y-68808943D01*
X143122517Y-68844091D01*
X143182127Y-68850500D01*
X143192685Y-68850499D01*
X143259723Y-68870179D01*
X143280372Y-68886818D01*
X143950591Y-69557037D01*
X143887007Y-69574075D01*
X143772993Y-69639901D01*
X143679901Y-69732993D01*
X143614075Y-69847007D01*
X143597037Y-69910591D01*
X142964728Y-69278282D01*
X142964727Y-69278282D01*
X142925380Y-69332440D01*
X142925376Y-69332446D01*
X142920760Y-69341505D01*
X142872781Y-69392297D01*
X142804959Y-69409087D01*
X142738826Y-69386543D01*
X142699794Y-69341493D01*
X142695051Y-69332184D01*
X142695049Y-69332181D01*
X142695048Y-69332179D01*
X142570109Y-69160213D01*
X142419786Y-69009890D01*
X142247820Y-68884951D01*
X142247115Y-68884591D01*
X142239054Y-68880485D01*
X142188259Y-68832512D01*
X142171463Y-68764692D01*
X142193999Y-68698556D01*
X142239054Y-68659515D01*
X142247816Y-68655051D01*
X142419792Y-68530104D01*
X142533329Y-68416566D01*
X142594648Y-68383084D01*
X142664340Y-68388068D01*
G37*
%TD.AperFunction*%
%TA.AperFunction,Conductor*%
G36*
X184442539Y-65520185D02*
G01*
X184488294Y-65572989D01*
X184499500Y-65624500D01*
X184499500Y-124375500D01*
X184479815Y-124442539D01*
X184427011Y-124488294D01*
X184375500Y-124499500D01*
X105624500Y-124499500D01*
X105557461Y-124479815D01*
X105511706Y-124427011D01*
X105500500Y-124375500D01*
X105500500Y-120878711D01*
X107149500Y-120878711D01*
X107149500Y-121121288D01*
X107181161Y-121361785D01*
X107243947Y-121596104D01*
X107292710Y-121713828D01*
X107336776Y-121820212D01*
X107458064Y-122030289D01*
X107458066Y-122030292D01*
X107458067Y-122030293D01*
X107605733Y-122222736D01*
X107605739Y-122222743D01*
X107777256Y-122394260D01*
X107777262Y-122394265D01*
X107969711Y-122541936D01*
X108179788Y-122663224D01*
X108403900Y-122756054D01*
X108638211Y-122818838D01*
X108818586Y-122842584D01*
X108878711Y-122850500D01*
X108878712Y-122850500D01*
X109121289Y-122850500D01*
X109169388Y-122844167D01*
X109361789Y-122818838D01*
X109596100Y-122756054D01*
X109820212Y-122663224D01*
X110030289Y-122541936D01*
X110222738Y-122394265D01*
X110235056Y-122381947D01*
X150000000Y-122381947D01*
X150000000Y-122618052D01*
X150036934Y-122851247D01*
X150109897Y-123075802D01*
X150217087Y-123286174D01*
X150277338Y-123369104D01*
X150277340Y-123369105D01*
X150976212Y-122670233D01*
X150987482Y-122712292D01*
X151059890Y-122837708D01*
X151162292Y-122940110D01*
X151287708Y-123012518D01*
X151329765Y-123023787D01*
X150630893Y-123722658D01*
X150713828Y-123782914D01*
X150924197Y-123890102D01*
X151148752Y-123963065D01*
X151148751Y-123963065D01*
X151381948Y-124000000D01*
X151618052Y-124000000D01*
X151851247Y-123963065D01*
X152075802Y-123890102D01*
X152286163Y-123782918D01*
X152286169Y-123782914D01*
X152369104Y-123722658D01*
X152369105Y-123722658D01*
X151670233Y-123023787D01*
X151712292Y-123012518D01*
X151837708Y-122940110D01*
X151940110Y-122837708D01*
X152012518Y-122712292D01*
X152023787Y-122670234D01*
X152722658Y-123369105D01*
X152722658Y-123369104D01*
X152782914Y-123286169D01*
X152782918Y-123286163D01*
X152890102Y-123075802D01*
X152963065Y-122851247D01*
X153000000Y-122618052D01*
X153000000Y-122381947D01*
X156500000Y-122381947D01*
X156500000Y-122618052D01*
X156536934Y-122851247D01*
X156609897Y-123075802D01*
X156717087Y-123286174D01*
X156777338Y-123369104D01*
X156777340Y-123369105D01*
X157476212Y-122670233D01*
X157487482Y-122712292D01*
X157559890Y-122837708D01*
X157662292Y-122940110D01*
X157787708Y-123012518D01*
X157829765Y-123023787D01*
X157130893Y-123722658D01*
X157213828Y-123782914D01*
X157424197Y-123890102D01*
X157648752Y-123963065D01*
X157648751Y-123963065D01*
X157881948Y-124000000D01*
X158118052Y-124000000D01*
X158351247Y-123963065D01*
X158575802Y-123890102D01*
X158786163Y-123782918D01*
X158786169Y-123782914D01*
X158869104Y-123722658D01*
X158869105Y-123722658D01*
X158170233Y-123023787D01*
X158212292Y-123012518D01*
X158337708Y-122940110D01*
X158440110Y-122837708D01*
X158512518Y-122712292D01*
X158523787Y-122670234D01*
X159222658Y-123369105D01*
X159222658Y-123369104D01*
X159282914Y-123286169D01*
X159282918Y-123286163D01*
X159390102Y-123075802D01*
X159463065Y-122851247D01*
X159500000Y-122618052D01*
X159500000Y-122381947D01*
X163500000Y-122381947D01*
X163500000Y-122618052D01*
X163536934Y-122851247D01*
X163609897Y-123075802D01*
X163717087Y-123286174D01*
X163777338Y-123369104D01*
X163777340Y-123369105D01*
X164476212Y-122670233D01*
X164487482Y-122712292D01*
X164559890Y-122837708D01*
X164662292Y-122940110D01*
X164787708Y-123012518D01*
X164829765Y-123023787D01*
X164130893Y-123722658D01*
X164213828Y-123782914D01*
X164424197Y-123890102D01*
X164648752Y-123963065D01*
X164648751Y-123963065D01*
X164881948Y-124000000D01*
X165118052Y-124000000D01*
X165351247Y-123963065D01*
X165575802Y-123890102D01*
X165786163Y-123782918D01*
X165786169Y-123782914D01*
X165869104Y-123722658D01*
X165869105Y-123722658D01*
X165170233Y-123023787D01*
X165212292Y-123012518D01*
X165337708Y-122940110D01*
X165440110Y-122837708D01*
X165512518Y-122712292D01*
X165523787Y-122670234D01*
X166222658Y-123369105D01*
X166222658Y-123369104D01*
X166282914Y-123286169D01*
X166282918Y-123286163D01*
X166390102Y-123075802D01*
X166463065Y-122851247D01*
X166500000Y-122618052D01*
X166500000Y-122381947D01*
X170000000Y-122381947D01*
X170000000Y-122618052D01*
X170036934Y-122851247D01*
X170109897Y-123075802D01*
X170217087Y-123286174D01*
X170277338Y-123369104D01*
X170277340Y-123369105D01*
X170976212Y-122670233D01*
X170987482Y-122712292D01*
X171059890Y-122837708D01*
X171162292Y-122940110D01*
X171287708Y-123012518D01*
X171329765Y-123023787D01*
X170630893Y-123722658D01*
X170713828Y-123782914D01*
X170924197Y-123890102D01*
X171148752Y-123963065D01*
X171148751Y-123963065D01*
X171381948Y-124000000D01*
X171618052Y-124000000D01*
X171851247Y-123963065D01*
X172075802Y-123890102D01*
X172286163Y-123782918D01*
X172286169Y-123782914D01*
X172369104Y-123722658D01*
X172369105Y-123722658D01*
X171670233Y-123023787D01*
X171712292Y-123012518D01*
X171837708Y-122940110D01*
X171940110Y-122837708D01*
X172012518Y-122712292D01*
X172023787Y-122670233D01*
X172722658Y-123369105D01*
X172722658Y-123369104D01*
X172782914Y-123286169D01*
X172782918Y-123286163D01*
X172890102Y-123075802D01*
X172963065Y-122851247D01*
X173000000Y-122618052D01*
X173000000Y-122381947D01*
X172963065Y-122148752D01*
X172890102Y-121924197D01*
X172782914Y-121713828D01*
X172722658Y-121630894D01*
X172722658Y-121630893D01*
X172023787Y-122329765D01*
X172012518Y-122287708D01*
X171940110Y-122162292D01*
X171837708Y-122059890D01*
X171712292Y-121987482D01*
X171670234Y-121976212D01*
X172369105Y-121277340D01*
X172369104Y-121277338D01*
X172286174Y-121217087D01*
X172075802Y-121109897D01*
X171851247Y-121036934D01*
X171851248Y-121036934D01*
X171618052Y-121000000D01*
X171381948Y-121000000D01*
X171148752Y-121036934D01*
X170924197Y-121109897D01*
X170713830Y-121217084D01*
X170630894Y-121277340D01*
X171329766Y-121976212D01*
X171287708Y-121987482D01*
X171162292Y-122059890D01*
X171059890Y-122162292D01*
X170987482Y-122287708D01*
X170976212Y-122329765D01*
X170277340Y-121630894D01*
X170217084Y-121713830D01*
X170109897Y-121924197D01*
X170036934Y-122148752D01*
X170000000Y-122381947D01*
X166500000Y-122381947D01*
X166463065Y-122148752D01*
X166390102Y-121924197D01*
X166282914Y-121713828D01*
X166222658Y-121630894D01*
X166222658Y-121630893D01*
X165523787Y-122329765D01*
X165512518Y-122287708D01*
X165440110Y-122162292D01*
X165337708Y-122059890D01*
X165212292Y-121987482D01*
X165170234Y-121976212D01*
X165869105Y-121277340D01*
X165869104Y-121277339D01*
X165786174Y-121217087D01*
X165575802Y-121109897D01*
X165351247Y-121036934D01*
X165351248Y-121036934D01*
X165118052Y-121000000D01*
X164881948Y-121000000D01*
X164648752Y-121036934D01*
X164424197Y-121109897D01*
X164213830Y-121217084D01*
X164130894Y-121277340D01*
X164829766Y-121976212D01*
X164787708Y-121987482D01*
X164662292Y-122059890D01*
X164559890Y-122162292D01*
X164487482Y-122287708D01*
X164476212Y-122329766D01*
X163777340Y-121630894D01*
X163717084Y-121713830D01*
X163609897Y-121924197D01*
X163536934Y-122148752D01*
X163500000Y-122381947D01*
X159500000Y-122381947D01*
X159463065Y-122148752D01*
X159390102Y-121924197D01*
X159282914Y-121713828D01*
X159222658Y-121630894D01*
X159222658Y-121630893D01*
X158523787Y-122329765D01*
X158512518Y-122287708D01*
X158440110Y-122162292D01*
X158337708Y-122059890D01*
X158212292Y-121987482D01*
X158170234Y-121976212D01*
X158869105Y-121277340D01*
X158869104Y-121277339D01*
X158786174Y-121217087D01*
X158575802Y-121109897D01*
X158351247Y-121036934D01*
X158351248Y-121036934D01*
X158118052Y-121000000D01*
X157881948Y-121000000D01*
X157648752Y-121036934D01*
X157424197Y-121109897D01*
X157213830Y-121217084D01*
X157130894Y-121277340D01*
X157829766Y-121976212D01*
X157787708Y-121987482D01*
X157662292Y-122059890D01*
X157559890Y-122162292D01*
X157487482Y-122287708D01*
X157476212Y-122329766D01*
X156777340Y-121630894D01*
X156717084Y-121713830D01*
X156609897Y-121924197D01*
X156536934Y-122148752D01*
X156500000Y-122381947D01*
X153000000Y-122381947D01*
X152963065Y-122148752D01*
X152890102Y-121924197D01*
X152782914Y-121713828D01*
X152722658Y-121630894D01*
X152722658Y-121630893D01*
X152023787Y-122329765D01*
X152012518Y-122287708D01*
X151940110Y-122162292D01*
X151837708Y-122059890D01*
X151712292Y-121987482D01*
X151670234Y-121976212D01*
X152369105Y-121277340D01*
X152369104Y-121277339D01*
X152286174Y-121217087D01*
X152075802Y-121109897D01*
X151851247Y-121036934D01*
X151851248Y-121036934D01*
X151618052Y-121000000D01*
X151381948Y-121000000D01*
X151148752Y-121036934D01*
X150924197Y-121109897D01*
X150713830Y-121217084D01*
X150630894Y-121277340D01*
X151329766Y-121976212D01*
X151287708Y-121987482D01*
X151162292Y-122059890D01*
X151059890Y-122162292D01*
X150987482Y-122287708D01*
X150976212Y-122329766D01*
X150277340Y-121630894D01*
X150217084Y-121713830D01*
X150109897Y-121924197D01*
X150036934Y-122148752D01*
X150000000Y-122381947D01*
X110235056Y-122381947D01*
X110327610Y-122289394D01*
X110394260Y-122222743D01*
X110394265Y-122222738D01*
X110541936Y-122030289D01*
X110663224Y-121820212D01*
X110756054Y-121596100D01*
X110818838Y-121361789D01*
X110821489Y-121341652D01*
X115025001Y-121341652D01*
X115035056Y-121440083D01*
X115087906Y-121599572D01*
X115087908Y-121599577D01*
X115176114Y-121742580D01*
X115294919Y-121861385D01*
X115437922Y-121949591D01*
X115437927Y-121949593D01*
X115597416Y-122002442D01*
X115695855Y-122012499D01*
X116250000Y-122012499D01*
X116304136Y-122012499D01*
X116304152Y-122012498D01*
X116402583Y-122002443D01*
X116562072Y-121949593D01*
X116562077Y-121949591D01*
X116705080Y-121861385D01*
X116823885Y-121742580D01*
X116912091Y-121599577D01*
X116912093Y-121599572D01*
X116964942Y-121440083D01*
X116974999Y-121341650D01*
X116975000Y-121341637D01*
X116975000Y-121325000D01*
X116250000Y-121325000D01*
X116250000Y-122012499D01*
X115695855Y-122012499D01*
X115749999Y-122012498D01*
X115750000Y-122012498D01*
X115750000Y-121325000D01*
X115025001Y-121325000D01*
X115025001Y-121341652D01*
X110821489Y-121341652D01*
X110831363Y-121266652D01*
X120525001Y-121266652D01*
X120535056Y-121365083D01*
X120587906Y-121524572D01*
X120587908Y-121524577D01*
X120676114Y-121667580D01*
X120794919Y-121786385D01*
X120937922Y-121874591D01*
X120937927Y-121874593D01*
X121097416Y-121927442D01*
X121195855Y-121937499D01*
X121750000Y-121937499D01*
X121804136Y-121937499D01*
X121804152Y-121937498D01*
X121902583Y-121927443D01*
X122062072Y-121874593D01*
X122062077Y-121874591D01*
X122205080Y-121786385D01*
X122323885Y-121667580D01*
X122412091Y-121524577D01*
X122412093Y-121524572D01*
X122464942Y-121365083D01*
X122474999Y-121266652D01*
X125525001Y-121266652D01*
X125535056Y-121365083D01*
X125587906Y-121524572D01*
X125587908Y-121524577D01*
X125676114Y-121667580D01*
X125794919Y-121786385D01*
X125937922Y-121874591D01*
X125937927Y-121874593D01*
X126097416Y-121927442D01*
X126195855Y-121937499D01*
X126750000Y-121937499D01*
X126804136Y-121937499D01*
X126804152Y-121937498D01*
X126902583Y-121927443D01*
X127062072Y-121874593D01*
X127062077Y-121874591D01*
X127205080Y-121786385D01*
X127323885Y-121667580D01*
X127412091Y-121524577D01*
X127412093Y-121524572D01*
X127464943Y-121365083D01*
X127470367Y-121311996D01*
X127470367Y-121311995D01*
X127474999Y-121266652D01*
X127475000Y-121266637D01*
X127475000Y-121250000D01*
X126750000Y-121250000D01*
X126750000Y-121937499D01*
X126195855Y-121937499D01*
X126249999Y-121937498D01*
X126250000Y-121937498D01*
X126250000Y-121250000D01*
X125525001Y-121250000D01*
X125525001Y-121266652D01*
X122474999Y-121266652D01*
X122474999Y-121266650D01*
X122475000Y-121266637D01*
X122475000Y-121250000D01*
X121750000Y-121250000D01*
X121750000Y-121937499D01*
X121195855Y-121937499D01*
X121249999Y-121937498D01*
X121250000Y-121937498D01*
X121250000Y-121250000D01*
X120525001Y-121250000D01*
X120525001Y-121266652D01*
X110831363Y-121266652D01*
X110837888Y-121217087D01*
X110842448Y-121182453D01*
X110842448Y-121182452D01*
X110850500Y-121121289D01*
X110850500Y-120878711D01*
X179149500Y-120878711D01*
X179149500Y-121121288D01*
X179181161Y-121361785D01*
X179243947Y-121596104D01*
X179292710Y-121713828D01*
X179336776Y-121820212D01*
X179458064Y-122030289D01*
X179458066Y-122030292D01*
X179458067Y-122030293D01*
X179605733Y-122222736D01*
X179605739Y-122222743D01*
X179777256Y-122394260D01*
X179777262Y-122394265D01*
X179969711Y-122541936D01*
X180179788Y-122663224D01*
X180403900Y-122756054D01*
X180638211Y-122818838D01*
X180818586Y-122842584D01*
X180878711Y-122850500D01*
X180878712Y-122850500D01*
X181121289Y-122850500D01*
X181169388Y-122844167D01*
X181361789Y-122818838D01*
X181596100Y-122756054D01*
X181820212Y-122663224D01*
X182030289Y-122541936D01*
X182222738Y-122394265D01*
X182394265Y-122222738D01*
X182541936Y-122030289D01*
X182663224Y-121820212D01*
X182756054Y-121596100D01*
X182818838Y-121361789D01*
X182850500Y-121121288D01*
X182850500Y-120878712D01*
X182818838Y-120638211D01*
X182756054Y-120403900D01*
X182663224Y-120179788D01*
X182541936Y-119969711D01*
X182394265Y-119777262D01*
X182394260Y-119777256D01*
X182222743Y-119605739D01*
X182222736Y-119605733D01*
X182030293Y-119458067D01*
X182030292Y-119458066D01*
X182030289Y-119458064D01*
X181820212Y-119336776D01*
X181820205Y-119336773D01*
X181596104Y-119243947D01*
X181361785Y-119181161D01*
X181121289Y-119149500D01*
X181121288Y-119149500D01*
X180878712Y-119149500D01*
X180878711Y-119149500D01*
X180638214Y-119181161D01*
X180403895Y-119243947D01*
X180179794Y-119336773D01*
X180179785Y-119336777D01*
X179969706Y-119458067D01*
X179777263Y-119605733D01*
X179777256Y-119605739D01*
X179605739Y-119777256D01*
X179605733Y-119777263D01*
X179458067Y-119969706D01*
X179336777Y-120179785D01*
X179336773Y-120179794D01*
X179243947Y-120403895D01*
X179181161Y-120638214D01*
X179149500Y-120878711D01*
X110850500Y-120878711D01*
X110831363Y-120733349D01*
X110818838Y-120638211D01*
X110756054Y-120403900D01*
X110663224Y-120179788D01*
X110541936Y-119969711D01*
X110394265Y-119777262D01*
X110394260Y-119777256D01*
X110222743Y-119605739D01*
X110222736Y-119605733D01*
X110030293Y-119458067D01*
X110030292Y-119458066D01*
X110030289Y-119458064D01*
X109820212Y-119336776D01*
X109820205Y-119336773D01*
X109596104Y-119243947D01*
X109556436Y-119233318D01*
X115024500Y-119233318D01*
X115024500Y-119766681D01*
X115034563Y-119865183D01*
X115087450Y-120024784D01*
X115087455Y-120024795D01*
X115175716Y-120167887D01*
X115175719Y-120167892D01*
X115208000Y-120200173D01*
X115241485Y-120261497D01*
X115236499Y-120331188D01*
X115208000Y-120375533D01*
X115176114Y-120407419D01*
X115087908Y-120550422D01*
X115087906Y-120550427D01*
X115035057Y-120709916D01*
X115025000Y-120808349D01*
X115025000Y-120825000D01*
X116974999Y-120825000D01*
X116974999Y-120808364D01*
X116974998Y-120808347D01*
X116964943Y-120709916D01*
X116912093Y-120550427D01*
X116912091Y-120550422D01*
X116823885Y-120407419D01*
X116792000Y-120375534D01*
X116758515Y-120314211D01*
X116763499Y-120244519D01*
X116792000Y-120200172D01*
X116805675Y-120186497D01*
X116824281Y-120167891D01*
X116912549Y-120024787D01*
X116965436Y-119865185D01*
X116975500Y-119766674D01*
X116975500Y-119233326D01*
X116967838Y-119158331D01*
X116967837Y-119158318D01*
X120524500Y-119158318D01*
X120524500Y-119691681D01*
X120534563Y-119790183D01*
X120587450Y-119949784D01*
X120587455Y-119949795D01*
X120675716Y-120092887D01*
X120675719Y-120092892D01*
X120708000Y-120125173D01*
X120741485Y-120186497D01*
X120736499Y-120256188D01*
X120708000Y-120300533D01*
X120676114Y-120332419D01*
X120587908Y-120475422D01*
X120587906Y-120475427D01*
X120535057Y-120634916D01*
X120525000Y-120733349D01*
X120525000Y-120750000D01*
X122474999Y-120750000D01*
X122474999Y-120733364D01*
X122474998Y-120733347D01*
X122464943Y-120634916D01*
X122412093Y-120475427D01*
X122412091Y-120475422D01*
X122323885Y-120332419D01*
X122292000Y-120300534D01*
X122258515Y-120239211D01*
X122263499Y-120169519D01*
X122292000Y-120125172D01*
X122324281Y-120092891D01*
X122412549Y-119949787D01*
X122465436Y-119790185D01*
X122475500Y-119691674D01*
X122475500Y-119158326D01*
X122475499Y-119158318D01*
X125524500Y-119158318D01*
X125524500Y-119691681D01*
X125534563Y-119790183D01*
X125587450Y-119949784D01*
X125587455Y-119949795D01*
X125675716Y-120092887D01*
X125675719Y-120092892D01*
X125708000Y-120125173D01*
X125741485Y-120186497D01*
X125736499Y-120256188D01*
X125708000Y-120300533D01*
X125676114Y-120332419D01*
X125587908Y-120475422D01*
X125587906Y-120475427D01*
X125535057Y-120634916D01*
X125525000Y-120733349D01*
X125525000Y-120750000D01*
X127474999Y-120750000D01*
X127474999Y-120733364D01*
X127474998Y-120733347D01*
X127464943Y-120634916D01*
X127412093Y-120475427D01*
X127412091Y-120475422D01*
X127323885Y-120332419D01*
X127292000Y-120300534D01*
X127258515Y-120239211D01*
X127263499Y-120169519D01*
X127292000Y-120125172D01*
X127324281Y-120092891D01*
X127412549Y-119949787D01*
X127465436Y-119790185D01*
X127475500Y-119691674D01*
X127475500Y-119158326D01*
X127465436Y-119059815D01*
X127412549Y-118900213D01*
X127412545Y-118900207D01*
X127412544Y-118900204D01*
X127324283Y-118757112D01*
X127324280Y-118757108D01*
X127205391Y-118638219D01*
X127184400Y-118625271D01*
X127137677Y-118573322D01*
X127125500Y-118519734D01*
X127125500Y-117881902D01*
X149999500Y-117881902D01*
X149999500Y-118118097D01*
X150036446Y-118351368D01*
X150109433Y-118575996D01*
X150201715Y-118757108D01*
X150216657Y-118786433D01*
X150355483Y-118977510D01*
X150522490Y-119144517D01*
X150713567Y-119283343D01*
X150812991Y-119334002D01*
X150924003Y-119390566D01*
X150924005Y-119390566D01*
X150924008Y-119390568D01*
X151044412Y-119429689D01*
X151148631Y-119463553D01*
X151381903Y-119500500D01*
X151381908Y-119500500D01*
X151618097Y-119500500D01*
X151851368Y-119463553D01*
X151868261Y-119458064D01*
X152075992Y-119390568D01*
X152286433Y-119283343D01*
X152477510Y-119144517D01*
X152644517Y-118977510D01*
X152783343Y-118786433D01*
X152890568Y-118575992D01*
X152963553Y-118351368D01*
X153000500Y-118118097D01*
X153000500Y-117881902D01*
X156499500Y-117881902D01*
X156499500Y-118118097D01*
X156536446Y-118351368D01*
X156609433Y-118575996D01*
X156701715Y-118757108D01*
X156716657Y-118786433D01*
X156855483Y-118977510D01*
X157022490Y-119144517D01*
X157213567Y-119283343D01*
X157312991Y-119334002D01*
X157424003Y-119390566D01*
X157424005Y-119390566D01*
X157424008Y-119390568D01*
X157544412Y-119429689D01*
X157648631Y-119463553D01*
X157881903Y-119500500D01*
X157881908Y-119500500D01*
X158118097Y-119500500D01*
X158351368Y-119463553D01*
X158368261Y-119458064D01*
X158575992Y-119390568D01*
X158786433Y-119283343D01*
X158977510Y-119144517D01*
X159144517Y-118977510D01*
X159283343Y-118786433D01*
X159390568Y-118575992D01*
X159463553Y-118351368D01*
X159500500Y-118118097D01*
X159500500Y-117881902D01*
X163499500Y-117881902D01*
X163499500Y-118118097D01*
X163536446Y-118351368D01*
X163609433Y-118575996D01*
X163701715Y-118757108D01*
X163716657Y-118786433D01*
X163855483Y-118977510D01*
X164022490Y-119144517D01*
X164213567Y-119283343D01*
X164312991Y-119334002D01*
X164424003Y-119390566D01*
X164424005Y-119390566D01*
X164424008Y-119390568D01*
X164544412Y-119429689D01*
X164648631Y-119463553D01*
X164881903Y-119500500D01*
X164881908Y-119500500D01*
X165118097Y-119500500D01*
X165351368Y-119463553D01*
X165368261Y-119458064D01*
X165575992Y-119390568D01*
X165786433Y-119283343D01*
X165977510Y-119144517D01*
X166144517Y-118977510D01*
X166283343Y-118786433D01*
X166390568Y-118575992D01*
X166463553Y-118351368D01*
X166500500Y-118118097D01*
X166500500Y-117881902D01*
X169999500Y-117881902D01*
X169999500Y-118118097D01*
X170036446Y-118351368D01*
X170109433Y-118575996D01*
X170201715Y-118757108D01*
X170216657Y-118786433D01*
X170355483Y-118977510D01*
X170522490Y-119144517D01*
X170713567Y-119283343D01*
X170812991Y-119334002D01*
X170924003Y-119390566D01*
X170924005Y-119390566D01*
X170924008Y-119390568D01*
X171044412Y-119429689D01*
X171148631Y-119463553D01*
X171381903Y-119500500D01*
X171381908Y-119500500D01*
X171618097Y-119500500D01*
X171851368Y-119463553D01*
X171868261Y-119458064D01*
X172075992Y-119390568D01*
X172286433Y-119283343D01*
X172477510Y-119144517D01*
X172644517Y-118977510D01*
X172783343Y-118786433D01*
X172890568Y-118575992D01*
X172963553Y-118351368D01*
X173000500Y-118118097D01*
X173000500Y-117881902D01*
X172963553Y-117648631D01*
X172890566Y-117424003D01*
X172783342Y-117213566D01*
X172644517Y-117022490D01*
X172477510Y-116855483D01*
X172286433Y-116716657D01*
X172075996Y-116609433D01*
X171851368Y-116536446D01*
X171618097Y-116499500D01*
X171618092Y-116499500D01*
X171381908Y-116499500D01*
X171381903Y-116499500D01*
X171148631Y-116536446D01*
X170924003Y-116609433D01*
X170713566Y-116716657D01*
X170661157Y-116754735D01*
X170522490Y-116855483D01*
X170522488Y-116855485D01*
X170522487Y-116855485D01*
X170355485Y-117022487D01*
X170355485Y-117022488D01*
X170355483Y-117022490D01*
X170295862Y-117104550D01*
X170216657Y-117213566D01*
X170109433Y-117424003D01*
X170036446Y-117648631D01*
X169999500Y-117881902D01*
X166500500Y-117881902D01*
X166463553Y-117648631D01*
X166390566Y-117424003D01*
X166283342Y-117213566D01*
X166144517Y-117022490D01*
X165977510Y-116855483D01*
X165786433Y-116716657D01*
X165575996Y-116609433D01*
X165351368Y-116536446D01*
X165118097Y-116499500D01*
X165118092Y-116499500D01*
X164881908Y-116499500D01*
X164881903Y-116499500D01*
X164648631Y-116536446D01*
X164424003Y-116609433D01*
X164213566Y-116716657D01*
X164161157Y-116754735D01*
X164022490Y-116855483D01*
X164022488Y-116855485D01*
X164022487Y-116855485D01*
X163855485Y-117022487D01*
X163855485Y-117022488D01*
X163855483Y-117022490D01*
X163795862Y-117104550D01*
X163716657Y-117213566D01*
X163609433Y-117424003D01*
X163536446Y-117648631D01*
X163499500Y-117881902D01*
X159500500Y-117881902D01*
X159463553Y-117648631D01*
X159390566Y-117424003D01*
X159283342Y-117213566D01*
X159144517Y-117022490D01*
X158977510Y-116855483D01*
X158786433Y-116716657D01*
X158575996Y-116609433D01*
X158351368Y-116536446D01*
X158118097Y-116499500D01*
X158118092Y-116499500D01*
X157881908Y-116499500D01*
X157881903Y-116499500D01*
X157648631Y-116536446D01*
X157424003Y-116609433D01*
X157213566Y-116716657D01*
X157161157Y-116754735D01*
X157022490Y-116855483D01*
X157022488Y-116855485D01*
X157022487Y-116855485D01*
X156855485Y-117022487D01*
X156855485Y-117022488D01*
X156855483Y-117022490D01*
X156795862Y-117104550D01*
X156716657Y-117213566D01*
X156609433Y-117424003D01*
X156536446Y-117648631D01*
X156499500Y-117881902D01*
X153000500Y-117881902D01*
X152963553Y-117648631D01*
X152890566Y-117424003D01*
X152783342Y-117213566D01*
X152644517Y-117022490D01*
X152477510Y-116855483D01*
X152286433Y-116716657D01*
X152075996Y-116609433D01*
X151851368Y-116536446D01*
X151618097Y-116499500D01*
X151618092Y-116499500D01*
X151381908Y-116499500D01*
X151381903Y-116499500D01*
X151148631Y-116536446D01*
X150924003Y-116609433D01*
X150713566Y-116716657D01*
X150661157Y-116754735D01*
X150522490Y-116855483D01*
X150522488Y-116855485D01*
X150522487Y-116855485D01*
X150355485Y-117022487D01*
X150355485Y-117022488D01*
X150355483Y-117022490D01*
X150295862Y-117104550D01*
X150216657Y-117213566D01*
X150109433Y-117424003D01*
X150036446Y-117648631D01*
X149999500Y-117881902D01*
X127125500Y-117881902D01*
X127125500Y-116792350D01*
X127145185Y-116725311D01*
X127146398Y-116723459D01*
X127150943Y-116716657D01*
X127209394Y-116629179D01*
X127269737Y-116483497D01*
X127300500Y-116328842D01*
X127300500Y-116171158D01*
X127300500Y-116171155D01*
X127300499Y-116171153D01*
X127269738Y-116016510D01*
X127269737Y-116016503D01*
X127269735Y-116016498D01*
X127209397Y-115870827D01*
X127209390Y-115870814D01*
X127121789Y-115739711D01*
X127121786Y-115739707D01*
X127010292Y-115628213D01*
X127010288Y-115628210D01*
X126879185Y-115540609D01*
X126879172Y-115540602D01*
X126733501Y-115480264D01*
X126733489Y-115480261D01*
X126578845Y-115449500D01*
X126578842Y-115449500D01*
X126421158Y-115449500D01*
X126421155Y-115449500D01*
X126266510Y-115480261D01*
X126266498Y-115480264D01*
X126120827Y-115540602D01*
X126120814Y-115540609D01*
X125989711Y-115628210D01*
X125989707Y-115628213D01*
X125878213Y-115739707D01*
X125878210Y-115739711D01*
X125790609Y-115870814D01*
X125790602Y-115870827D01*
X125730264Y-116016498D01*
X125730261Y-116016510D01*
X125699500Y-116171153D01*
X125699500Y-116328846D01*
X125730261Y-116483489D01*
X125730264Y-116483501D01*
X125790602Y-116629172D01*
X125790609Y-116629184D01*
X125853602Y-116723459D01*
X125874480Y-116790136D01*
X125874500Y-116792350D01*
X125874500Y-118519734D01*
X125854815Y-118586773D01*
X125815600Y-118625271D01*
X125794608Y-118638219D01*
X125675719Y-118757108D01*
X125675716Y-118757112D01*
X125587455Y-118900204D01*
X125587451Y-118900213D01*
X125534564Y-119059815D01*
X125534564Y-119059816D01*
X125534563Y-119059816D01*
X125524500Y-119158318D01*
X122475499Y-119158318D01*
X122465436Y-119059815D01*
X122412549Y-118900213D01*
X122412545Y-118900207D01*
X122412544Y-118900204D01*
X122324283Y-118757112D01*
X122324280Y-118757108D01*
X122205391Y-118638219D01*
X122184400Y-118625271D01*
X122137677Y-118573322D01*
X122125500Y-118519734D01*
X122125500Y-116792350D01*
X122145185Y-116725311D01*
X122146398Y-116723459D01*
X122150943Y-116716657D01*
X122209394Y-116629179D01*
X122269737Y-116483497D01*
X122300500Y-116328842D01*
X122300500Y-116171158D01*
X122300500Y-116171155D01*
X122300499Y-116171153D01*
X122269738Y-116016510D01*
X122269737Y-116016503D01*
X122269735Y-116016498D01*
X122209397Y-115870827D01*
X122209390Y-115870814D01*
X122121789Y-115739711D01*
X122121786Y-115739707D01*
X122010292Y-115628213D01*
X122010288Y-115628210D01*
X121879185Y-115540609D01*
X121879172Y-115540602D01*
X121733501Y-115480264D01*
X121733489Y-115480261D01*
X121578845Y-115449500D01*
X121578842Y-115449500D01*
X121421158Y-115449500D01*
X121421155Y-115449500D01*
X121266510Y-115480261D01*
X121266498Y-115480264D01*
X121120827Y-115540602D01*
X121120814Y-115540609D01*
X120989711Y-115628210D01*
X120989707Y-115628213D01*
X120878213Y-115739707D01*
X120878210Y-115739711D01*
X120790609Y-115870814D01*
X120790602Y-115870827D01*
X120730264Y-116016498D01*
X120730261Y-116016510D01*
X120699500Y-116171153D01*
X120699500Y-116328846D01*
X120730261Y-116483489D01*
X120730264Y-116483501D01*
X120790602Y-116629172D01*
X120790609Y-116629184D01*
X120853602Y-116723459D01*
X120874480Y-116790136D01*
X120874500Y-116792350D01*
X120874500Y-118519734D01*
X120854815Y-118586773D01*
X120815600Y-118625271D01*
X120794608Y-118638219D01*
X120675719Y-118757108D01*
X120675716Y-118757112D01*
X120587455Y-118900204D01*
X120587451Y-118900213D01*
X120534564Y-119059815D01*
X120534564Y-119059816D01*
X120534563Y-119059816D01*
X120524500Y-119158318D01*
X116967837Y-119158318D01*
X116965436Y-119134816D01*
X116965436Y-119134815D01*
X116912549Y-118975213D01*
X116912545Y-118975207D01*
X116912544Y-118975204D01*
X116824283Y-118832112D01*
X116824280Y-118832108D01*
X116705391Y-118713219D01*
X116684400Y-118700271D01*
X116637677Y-118648322D01*
X116625500Y-118594734D01*
X116625500Y-116792350D01*
X116645185Y-116725311D01*
X116646398Y-116723459D01*
X116650943Y-116716657D01*
X116709394Y-116629179D01*
X116769737Y-116483497D01*
X116800500Y-116328842D01*
X116800500Y-116171158D01*
X116800500Y-116171155D01*
X116800499Y-116171153D01*
X116769738Y-116016510D01*
X116769737Y-116016503D01*
X116769735Y-116016498D01*
X116709397Y-115870827D01*
X116709390Y-115870814D01*
X116621789Y-115739711D01*
X116621786Y-115739707D01*
X116510292Y-115628213D01*
X116510288Y-115628210D01*
X116379185Y-115540609D01*
X116379172Y-115540602D01*
X116233501Y-115480264D01*
X116233489Y-115480261D01*
X116078845Y-115449500D01*
X116078842Y-115449500D01*
X115921158Y-115449500D01*
X115921155Y-115449500D01*
X115766510Y-115480261D01*
X115766498Y-115480264D01*
X115620827Y-115540602D01*
X115620814Y-115540609D01*
X115489711Y-115628210D01*
X115489707Y-115628213D01*
X115378213Y-115739707D01*
X115378210Y-115739711D01*
X115290609Y-115870814D01*
X115290602Y-115870827D01*
X115230264Y-116016498D01*
X115230261Y-116016510D01*
X115199500Y-116171153D01*
X115199500Y-116328846D01*
X115230261Y-116483489D01*
X115230264Y-116483501D01*
X115290602Y-116629172D01*
X115290609Y-116629184D01*
X115353602Y-116723459D01*
X115374480Y-116790136D01*
X115374500Y-116792350D01*
X115374500Y-118594734D01*
X115354815Y-118661773D01*
X115315600Y-118700271D01*
X115294608Y-118713219D01*
X115175719Y-118832108D01*
X115175716Y-118832112D01*
X115087455Y-118975204D01*
X115087450Y-118975215D01*
X115086689Y-118977512D01*
X115034564Y-119134815D01*
X115034564Y-119134816D01*
X115034563Y-119134816D01*
X115024500Y-119233318D01*
X109556436Y-119233318D01*
X109361785Y-119181161D01*
X109121289Y-119149500D01*
X109121288Y-119149500D01*
X108878712Y-119149500D01*
X108878711Y-119149500D01*
X108638214Y-119181161D01*
X108403895Y-119243947D01*
X108179794Y-119336773D01*
X108179785Y-119336777D01*
X107969706Y-119458067D01*
X107777263Y-119605733D01*
X107777256Y-119605739D01*
X107605739Y-119777256D01*
X107605733Y-119777263D01*
X107458067Y-119969706D01*
X107336777Y-120179785D01*
X107336773Y-120179794D01*
X107243947Y-120403895D01*
X107181161Y-120638214D01*
X107149500Y-120878711D01*
X105500500Y-120878711D01*
X105500500Y-104003713D01*
X106699500Y-104003713D01*
X106699500Y-104216286D01*
X106732753Y-104426239D01*
X106798444Y-104628414D01*
X106894951Y-104817820D01*
X107019890Y-104989786D01*
X107170213Y-105140109D01*
X107342182Y-105265050D01*
X107350946Y-105269516D01*
X107401742Y-105317491D01*
X107418536Y-105385312D01*
X107395998Y-105451447D01*
X107350946Y-105490484D01*
X107342182Y-105494949D01*
X107170213Y-105619890D01*
X107019890Y-105770213D01*
X106894951Y-105942179D01*
X106798444Y-106131585D01*
X106732753Y-106333760D01*
X106701119Y-106533489D01*
X106699500Y-106543713D01*
X106699500Y-106756287D01*
X106709534Y-106819644D01*
X106732753Y-106966239D01*
X106798444Y-107168414D01*
X106894951Y-107357820D01*
X107019890Y-107529786D01*
X107170213Y-107680109D01*
X107342179Y-107805048D01*
X107342181Y-107805049D01*
X107342184Y-107805051D01*
X107351493Y-107809794D01*
X107402290Y-107857766D01*
X107419087Y-107925587D01*
X107396552Y-107991722D01*
X107351505Y-108030760D01*
X107342446Y-108035376D01*
X107342440Y-108035380D01*
X107288282Y-108074727D01*
X107288282Y-108074728D01*
X107920591Y-108707037D01*
X107857007Y-108724075D01*
X107742993Y-108789901D01*
X107649901Y-108882993D01*
X107584075Y-108997007D01*
X107567037Y-109060591D01*
X106934728Y-108428282D01*
X106934727Y-108428282D01*
X106895380Y-108482439D01*
X106798904Y-108671782D01*
X106733242Y-108873869D01*
X106733242Y-108873872D01*
X106700000Y-109083753D01*
X106700000Y-109296246D01*
X106733242Y-109506127D01*
X106733242Y-109506130D01*
X106798904Y-109708217D01*
X106895375Y-109897550D01*
X106934728Y-109951716D01*
X107567037Y-109319408D01*
X107584075Y-109382993D01*
X107649901Y-109497007D01*
X107742993Y-109590099D01*
X107857007Y-109655925D01*
X107920590Y-109672962D01*
X107288282Y-110305269D01*
X107288282Y-110305270D01*
X107342449Y-110344624D01*
X107531782Y-110441095D01*
X107733870Y-110506757D01*
X107943754Y-110540000D01*
X108156246Y-110540000D01*
X108366127Y-110506757D01*
X108366130Y-110506757D01*
X108568217Y-110441095D01*
X108757554Y-110344622D01*
X108811716Y-110305270D01*
X108811717Y-110305270D01*
X108179408Y-109672962D01*
X108242993Y-109655925D01*
X108357007Y-109590099D01*
X108450099Y-109497007D01*
X108515925Y-109382993D01*
X108532962Y-109319409D01*
X109165270Y-109951717D01*
X109165270Y-109951716D01*
X109204622Y-109897554D01*
X109301095Y-109708217D01*
X109366757Y-109506130D01*
X109366757Y-109506127D01*
X109400000Y-109296246D01*
X109400000Y-109083753D01*
X109366757Y-108873872D01*
X109366757Y-108873869D01*
X109301095Y-108671782D01*
X109204624Y-108482449D01*
X109165270Y-108428282D01*
X109165269Y-108428282D01*
X108532962Y-109060590D01*
X108515925Y-108997007D01*
X108450099Y-108882993D01*
X108357007Y-108789901D01*
X108242993Y-108724075D01*
X108179409Y-108707037D01*
X108811716Y-108074728D01*
X108757547Y-108035373D01*
X108757547Y-108035372D01*
X108748500Y-108030763D01*
X108697706Y-107982788D01*
X108680912Y-107914966D01*
X108703451Y-107848832D01*
X108748508Y-107809793D01*
X108757816Y-107805051D01*
X108837007Y-107747515D01*
X108929786Y-107680109D01*
X108929788Y-107680106D01*
X108929792Y-107680104D01*
X109080104Y-107529792D01*
X109080106Y-107529788D01*
X109080109Y-107529786D01*
X109205048Y-107357820D01*
X109205047Y-107357820D01*
X109205051Y-107357816D01*
X109301557Y-107168412D01*
X109367246Y-106966243D01*
X109400500Y-106756287D01*
X109400500Y-106543713D01*
X109367246Y-106333757D01*
X109330659Y-106221153D01*
X141899500Y-106221153D01*
X141899500Y-106378846D01*
X141930261Y-106533489D01*
X141930264Y-106533501D01*
X141990602Y-106679172D01*
X141990609Y-106679184D01*
X142053602Y-106773459D01*
X142074480Y-106840136D01*
X142074500Y-106842350D01*
X142074500Y-108486606D01*
X142096763Y-108598535D01*
X142096764Y-108598539D01*
X142096763Y-108598539D01*
X142098536Y-108607449D01*
X142098537Y-108607454D01*
X142145685Y-108721281D01*
X142145688Y-108721286D01*
X142171778Y-108760331D01*
X142214142Y-108823733D01*
X142301267Y-108910858D01*
X142301270Y-108910860D01*
X142308915Y-108918505D01*
X142624205Y-109233795D01*
X142657690Y-109295118D01*
X142658141Y-109297285D01*
X142680261Y-109408489D01*
X142680264Y-109408501D01*
X142740602Y-109554172D01*
X142740609Y-109554185D01*
X142828210Y-109685288D01*
X142828213Y-109685292D01*
X142939707Y-109796786D01*
X142939711Y-109796789D01*
X143070814Y-109884390D01*
X143070827Y-109884397D01*
X143216498Y-109944735D01*
X143216503Y-109944737D01*
X143371153Y-109975499D01*
X143371156Y-109975500D01*
X143371158Y-109975500D01*
X143528844Y-109975500D01*
X143528845Y-109975499D01*
X143683497Y-109944737D01*
X143829179Y-109884394D01*
X143960289Y-109796789D01*
X144071789Y-109685289D01*
X144159394Y-109554179D01*
X144219737Y-109408497D01*
X144250500Y-109253842D01*
X144250500Y-109096158D01*
X144250500Y-109096155D01*
X144250499Y-109096153D01*
X144248032Y-109083753D01*
X144219737Y-108941503D01*
X144210211Y-108918505D01*
X144159397Y-108795827D01*
X144159390Y-108795814D01*
X144071789Y-108664711D01*
X144071786Y-108664707D01*
X143960292Y-108553213D01*
X143960288Y-108553210D01*
X143829185Y-108465609D01*
X143829172Y-108465602D01*
X143683501Y-108405264D01*
X143683489Y-108405261D01*
X143572285Y-108383141D01*
X143555528Y-108374376D01*
X143537049Y-108370356D01*
X143512010Y-108351611D01*
X143510374Y-108350756D01*
X143508795Y-108349205D01*
X143361819Y-108202229D01*
X143328334Y-108140906D01*
X143325500Y-108114548D01*
X143325500Y-106842350D01*
X143345185Y-106775311D01*
X143346398Y-106773459D01*
X143357873Y-106756286D01*
X143409394Y-106679179D01*
X143469737Y-106533497D01*
X143500500Y-106378842D01*
X143500500Y-106221158D01*
X143500500Y-106221155D01*
X143500499Y-106221153D01*
X143482683Y-106131588D01*
X143469737Y-106066503D01*
X143418241Y-105942179D01*
X143409397Y-105920827D01*
X143409390Y-105920814D01*
X143321789Y-105789711D01*
X143321786Y-105789707D01*
X143210292Y-105678213D01*
X143210288Y-105678210D01*
X143079185Y-105590609D01*
X143079172Y-105590602D01*
X142933501Y-105530264D01*
X142933489Y-105530261D01*
X142778845Y-105499500D01*
X142778842Y-105499500D01*
X142621158Y-105499500D01*
X142621155Y-105499500D01*
X142466510Y-105530261D01*
X142466498Y-105530264D01*
X142320827Y-105590602D01*
X142320814Y-105590609D01*
X142189711Y-105678210D01*
X142189707Y-105678213D01*
X142078213Y-105789707D01*
X142078210Y-105789711D01*
X141990609Y-105920814D01*
X141990602Y-105920827D01*
X141930264Y-106066498D01*
X141930261Y-106066510D01*
X141899500Y-106221153D01*
X109330659Y-106221153D01*
X109301557Y-106131588D01*
X109205051Y-105942184D01*
X109205049Y-105942181D01*
X109205048Y-105942179D01*
X109080109Y-105770213D01*
X108929786Y-105619890D01*
X108757820Y-105494951D01*
X108757115Y-105494591D01*
X108749054Y-105490485D01*
X108698259Y-105442512D01*
X108681463Y-105374692D01*
X108703999Y-105308556D01*
X108749054Y-105269515D01*
X108757816Y-105265051D01*
X108779789Y-105249086D01*
X108929786Y-105140109D01*
X108929788Y-105140106D01*
X108929792Y-105140104D01*
X109080104Y-104989792D01*
X109080106Y-104989788D01*
X109080109Y-104989786D01*
X109205048Y-104817820D01*
X109205047Y-104817820D01*
X109205051Y-104817816D01*
X109301557Y-104628412D01*
X109367246Y-104426243D01*
X109400500Y-104216287D01*
X109400500Y-104003713D01*
X109367246Y-103793757D01*
X109301557Y-103591588D01*
X109205051Y-103402184D01*
X109205049Y-103402181D01*
X109205048Y-103402179D01*
X109080109Y-103230213D01*
X108966181Y-103116285D01*
X108932696Y-103054962D01*
X108937680Y-102985270D01*
X108979552Y-102929337D01*
X109010529Y-102912422D01*
X109142086Y-102863354D01*
X109142093Y-102863350D01*
X109257187Y-102777190D01*
X109257190Y-102777187D01*
X109343350Y-102662093D01*
X109343354Y-102662086D01*
X109393596Y-102527379D01*
X109393598Y-102527372D01*
X109399999Y-102467844D01*
X109400000Y-102467827D01*
X109400000Y-101820000D01*
X108483012Y-101820000D01*
X108515925Y-101762993D01*
X108550000Y-101635826D01*
X108550000Y-101504174D01*
X108515925Y-101377007D01*
X108483012Y-101320000D01*
X109400000Y-101320000D01*
X109400000Y-100672172D01*
X109399999Y-100672155D01*
X109393598Y-100612627D01*
X109393596Y-100612620D01*
X109343354Y-100477913D01*
X109343350Y-100477906D01*
X109257190Y-100362812D01*
X109257187Y-100362809D01*
X109142093Y-100276649D01*
X109142086Y-100276645D01*
X109007379Y-100226403D01*
X109007372Y-100226401D01*
X108947844Y-100220000D01*
X108300000Y-100220000D01*
X108300000Y-101136988D01*
X108242993Y-101104075D01*
X108115826Y-101070000D01*
X107984174Y-101070000D01*
X107857007Y-101104075D01*
X107800000Y-101136988D01*
X107800000Y-100220000D01*
X107152155Y-100220000D01*
X107092627Y-100226401D01*
X107092620Y-100226403D01*
X106957913Y-100276645D01*
X106957906Y-100276649D01*
X106842812Y-100362809D01*
X106842809Y-100362812D01*
X106756649Y-100477906D01*
X106756645Y-100477913D01*
X106706403Y-100612620D01*
X106706401Y-100612627D01*
X106700000Y-100672155D01*
X106700000Y-101320000D01*
X107616988Y-101320000D01*
X107584075Y-101377007D01*
X107550000Y-101504174D01*
X107550000Y-101635826D01*
X107584075Y-101762993D01*
X107616988Y-101820000D01*
X106700000Y-101820000D01*
X106700000Y-102467844D01*
X106706401Y-102527372D01*
X106706403Y-102527379D01*
X106756645Y-102662086D01*
X106756649Y-102662093D01*
X106842809Y-102777187D01*
X106842812Y-102777190D01*
X106957906Y-102863350D01*
X106957913Y-102863354D01*
X107089470Y-102912422D01*
X107145404Y-102954293D01*
X107169821Y-103019758D01*
X107154969Y-103088031D01*
X107133819Y-103116285D01*
X107019889Y-103230215D01*
X106894951Y-103402179D01*
X106798444Y-103591585D01*
X106732753Y-103793760D01*
X106699500Y-104003713D01*
X105500500Y-104003713D01*
X105500500Y-79562132D01*
X106649500Y-79562132D01*
X106649500Y-81357870D01*
X106649501Y-81357876D01*
X106655908Y-81417483D01*
X106706202Y-81552328D01*
X106706206Y-81552335D01*
X106792452Y-81667544D01*
X106792455Y-81667547D01*
X106907664Y-81753793D01*
X106907671Y-81753797D01*
X107039082Y-81802810D01*
X107095016Y-81844681D01*
X107119433Y-81910145D01*
X107104582Y-81978418D01*
X107083431Y-82006673D01*
X106969889Y-82120215D01*
X106844951Y-82292179D01*
X106748444Y-82481585D01*
X106748443Y-82481587D01*
X106748443Y-82481588D01*
X106726690Y-82548537D01*
X106682753Y-82683760D01*
X106649500Y-82893713D01*
X106649500Y-83106286D01*
X106676830Y-83278844D01*
X106682754Y-83316243D01*
X106720935Y-83433753D01*
X106748444Y-83518414D01*
X106844951Y-83707820D01*
X106969890Y-83879786D01*
X107120213Y-84030109D01*
X107292179Y-84155048D01*
X107292181Y-84155049D01*
X107292184Y-84155051D01*
X107301493Y-84159794D01*
X107352290Y-84207766D01*
X107369087Y-84275587D01*
X107346552Y-84341722D01*
X107301505Y-84380760D01*
X107292446Y-84385376D01*
X107292440Y-84385380D01*
X107238282Y-84424727D01*
X107238282Y-84424728D01*
X107870591Y-85057037D01*
X107807007Y-85074075D01*
X107692993Y-85139901D01*
X107599901Y-85232993D01*
X107534075Y-85347007D01*
X107517037Y-85410591D01*
X106884728Y-84778282D01*
X106884727Y-84778282D01*
X106845380Y-84832439D01*
X106748904Y-85021782D01*
X106683242Y-85223869D01*
X106683242Y-85223872D01*
X106650000Y-85433753D01*
X106650000Y-85646246D01*
X106683242Y-85856127D01*
X106683242Y-85856130D01*
X106748904Y-86058217D01*
X106845375Y-86247550D01*
X106884728Y-86301716D01*
X107517037Y-85669408D01*
X107534075Y-85732993D01*
X107599901Y-85847007D01*
X107692993Y-85940099D01*
X107807007Y-86005925D01*
X107870590Y-86022962D01*
X107238282Y-86655269D01*
X107238282Y-86655270D01*
X107292452Y-86694626D01*
X107292451Y-86694626D01*
X107301495Y-86699234D01*
X107352292Y-86747208D01*
X107369087Y-86815029D01*
X107346550Y-86881164D01*
X107301499Y-86920202D01*
X107292182Y-86924949D01*
X107120213Y-87049890D01*
X106969890Y-87200213D01*
X106844951Y-87372179D01*
X106748444Y-87561585D01*
X106682753Y-87763760D01*
X106649500Y-87973713D01*
X106649500Y-88186286D01*
X106668105Y-88303757D01*
X106682754Y-88396243D01*
X106735766Y-88559397D01*
X106748444Y-88598414D01*
X106844951Y-88787820D01*
X106969890Y-88959786D01*
X107120213Y-89110109D01*
X107292182Y-89235050D01*
X107300946Y-89239516D01*
X107351742Y-89287491D01*
X107368536Y-89355312D01*
X107345998Y-89421447D01*
X107300946Y-89460484D01*
X107292182Y-89464949D01*
X107120213Y-89589890D01*
X106969890Y-89740213D01*
X106844951Y-89912179D01*
X106748444Y-90101585D01*
X106682753Y-90303760D01*
X106649500Y-90513713D01*
X106649500Y-90726286D01*
X106668105Y-90843757D01*
X106682754Y-90936243D01*
X106720922Y-91053713D01*
X106748444Y-91138414D01*
X106844951Y-91327820D01*
X106969890Y-91499786D01*
X107120213Y-91650109D01*
X107292182Y-91775050D01*
X107300946Y-91779516D01*
X107351742Y-91827491D01*
X107368536Y-91895312D01*
X107345998Y-91961447D01*
X107300946Y-92000484D01*
X107292182Y-92004949D01*
X107120213Y-92129890D01*
X106969890Y-92280213D01*
X106844951Y-92452179D01*
X106748444Y-92641585D01*
X106682753Y-92843760D01*
X106649500Y-93053713D01*
X106649500Y-93266286D01*
X106674558Y-93424500D01*
X106682754Y-93476243D01*
X106705363Y-93545827D01*
X106748444Y-93678414D01*
X106844951Y-93867820D01*
X106969890Y-94039786D01*
X107120213Y-94190109D01*
X107292179Y-94315048D01*
X107292181Y-94315049D01*
X107292184Y-94315051D01*
X107481588Y-94411557D01*
X107683757Y-94477246D01*
X107893713Y-94510500D01*
X107893714Y-94510500D01*
X108106286Y-94510500D01*
X108106287Y-94510500D01*
X108316243Y-94477246D01*
X108518412Y-94411557D01*
X108707816Y-94315051D01*
X108729789Y-94299086D01*
X108879786Y-94190109D01*
X108879788Y-94190106D01*
X108879792Y-94190104D01*
X109030104Y-94039792D01*
X109030106Y-94039788D01*
X109030109Y-94039786D01*
X109155048Y-93867820D01*
X109155047Y-93867820D01*
X109155051Y-93867816D01*
X109251557Y-93678412D01*
X109317246Y-93476243D01*
X109350500Y-93266287D01*
X109350500Y-93053713D01*
X109317246Y-92843757D01*
X109251557Y-92641588D01*
X109155051Y-92452184D01*
X109155049Y-92452181D01*
X109155048Y-92452179D01*
X109030109Y-92280213D01*
X108879786Y-92129890D01*
X108707820Y-92004951D01*
X108707115Y-92004591D01*
X108699054Y-92000485D01*
X108648259Y-91952512D01*
X108631463Y-91884692D01*
X108653999Y-91818556D01*
X108699054Y-91779515D01*
X108707816Y-91775051D01*
X108729789Y-91759086D01*
X108879786Y-91650109D01*
X108879788Y-91650106D01*
X108879792Y-91650104D01*
X109030104Y-91499792D01*
X109030106Y-91499788D01*
X109030109Y-91499786D01*
X109155048Y-91327820D01*
X109155047Y-91327820D01*
X109155051Y-91327816D01*
X109251557Y-91138412D01*
X109317246Y-90936243D01*
X109350500Y-90726287D01*
X109350500Y-90513713D01*
X109317246Y-90303757D01*
X109251557Y-90101588D01*
X109155051Y-89912184D01*
X109155049Y-89912181D01*
X109155048Y-89912179D01*
X109030109Y-89740213D01*
X108879786Y-89589890D01*
X108707818Y-89464950D01*
X108707450Y-89464762D01*
X108699054Y-89460485D01*
X108648259Y-89412512D01*
X108631463Y-89344692D01*
X108653999Y-89278556D01*
X108699054Y-89239515D01*
X108707816Y-89235051D01*
X108729789Y-89219086D01*
X108879786Y-89110109D01*
X108879788Y-89110106D01*
X108879792Y-89110104D01*
X109030104Y-88959792D01*
X109030106Y-88959788D01*
X109030109Y-88959786D01*
X109155048Y-88787820D01*
X109155047Y-88787820D01*
X109155051Y-88787816D01*
X109251557Y-88598412D01*
X109317246Y-88396243D01*
X109350500Y-88186287D01*
X109350500Y-87973713D01*
X109317246Y-87763757D01*
X109251557Y-87561588D01*
X109155051Y-87372184D01*
X109155049Y-87372181D01*
X109155048Y-87372179D01*
X109030109Y-87200213D01*
X108879786Y-87049890D01*
X108707817Y-86924949D01*
X108698504Y-86920204D01*
X108647707Y-86872230D01*
X108630912Y-86804409D01*
X108653449Y-86738274D01*
X108698507Y-86699232D01*
X108707555Y-86694622D01*
X108761716Y-86655270D01*
X108761717Y-86655270D01*
X108129408Y-86022962D01*
X108192993Y-86005925D01*
X108307007Y-85940099D01*
X108400099Y-85847007D01*
X108465925Y-85732993D01*
X108482962Y-85669409D01*
X109115270Y-86301717D01*
X109115270Y-86301716D01*
X109154622Y-86247554D01*
X109251095Y-86058217D01*
X109316757Y-85856130D01*
X109316757Y-85856127D01*
X109350000Y-85646246D01*
X109350000Y-85433753D01*
X109316757Y-85223872D01*
X109316757Y-85223869D01*
X109251095Y-85021782D01*
X109154624Y-84832449D01*
X109115270Y-84778282D01*
X109115269Y-84778282D01*
X108482962Y-85410590D01*
X108465925Y-85347007D01*
X108400099Y-85232993D01*
X108307007Y-85139901D01*
X108192993Y-85074075D01*
X108129409Y-85057037D01*
X108761716Y-84424728D01*
X108707547Y-84385373D01*
X108707547Y-84385372D01*
X108698500Y-84380763D01*
X108647706Y-84332788D01*
X108630912Y-84264966D01*
X108653451Y-84198832D01*
X108698508Y-84159793D01*
X108707816Y-84155051D01*
X108787007Y-84097515D01*
X108879786Y-84030109D01*
X108879788Y-84030106D01*
X108879792Y-84030104D01*
X109030104Y-83879792D01*
X109030106Y-83879788D01*
X109030109Y-83879786D01*
X109155048Y-83707820D01*
X109155047Y-83707820D01*
X109155051Y-83707816D01*
X109251557Y-83518412D01*
X109317246Y-83316243D01*
X109350500Y-83106287D01*
X109350500Y-82893713D01*
X109317246Y-82683757D01*
X109251557Y-82481588D01*
X109155051Y-82292184D01*
X109155049Y-82292181D01*
X109155048Y-82292179D01*
X109030109Y-82120213D01*
X108916569Y-82006673D01*
X108883084Y-81945350D01*
X108888068Y-81875658D01*
X108929940Y-81819725D01*
X108960915Y-81802810D01*
X109092331Y-81753796D01*
X109207546Y-81667546D01*
X109293796Y-81552331D01*
X109344091Y-81417483D01*
X109350500Y-81357873D01*
X109350499Y-79562128D01*
X109344091Y-79502517D01*
X109324508Y-79450013D01*
X109293797Y-79367671D01*
X109293793Y-79367664D01*
X109207547Y-79252455D01*
X109207544Y-79252452D01*
X109092335Y-79166206D01*
X109092328Y-79166202D01*
X108957482Y-79115908D01*
X108957483Y-79115908D01*
X108897883Y-79109501D01*
X108897881Y-79109500D01*
X108897873Y-79109500D01*
X108897864Y-79109500D01*
X107102129Y-79109500D01*
X107102123Y-79109501D01*
X107042516Y-79115908D01*
X106907671Y-79166202D01*
X106907664Y-79166206D01*
X106792455Y-79252452D01*
X106792452Y-79252455D01*
X106706206Y-79367664D01*
X106706202Y-79367671D01*
X106655908Y-79502517D01*
X106649501Y-79562116D01*
X106649501Y-79562123D01*
X106649500Y-79562132D01*
X105500500Y-79562132D01*
X105500500Y-68878711D01*
X107149500Y-68878711D01*
X107149500Y-69121288D01*
X107181161Y-69361785D01*
X107243947Y-69596104D01*
X107333279Y-69811770D01*
X107336776Y-69820212D01*
X107458064Y-70030289D01*
X107458066Y-70030292D01*
X107458067Y-70030293D01*
X107605733Y-70222736D01*
X107605739Y-70222743D01*
X107777256Y-70394260D01*
X107777262Y-70394265D01*
X107969711Y-70541936D01*
X108179788Y-70663224D01*
X108403900Y-70756054D01*
X108638211Y-70818838D01*
X108818586Y-70842584D01*
X108878711Y-70850500D01*
X108878712Y-70850500D01*
X109121289Y-70850500D01*
X109169388Y-70844167D01*
X109361789Y-70818838D01*
X109596100Y-70756054D01*
X109820212Y-70663224D01*
X110030289Y-70541936D01*
X110222738Y-70394265D01*
X110394265Y-70222738D01*
X110541936Y-70030289D01*
X110663224Y-69820212D01*
X110756054Y-69596100D01*
X110818838Y-69361789D01*
X110850500Y-69121288D01*
X110850500Y-68878712D01*
X110845773Y-68842810D01*
X110839320Y-68793793D01*
X110818838Y-68638211D01*
X110756054Y-68403900D01*
X110663224Y-68179788D01*
X110541936Y-67969711D01*
X110424173Y-67816239D01*
X110394266Y-67777263D01*
X110394260Y-67777256D01*
X110222743Y-67605739D01*
X110222736Y-67605733D01*
X110030293Y-67458067D01*
X110030292Y-67458066D01*
X110030289Y-67458064D01*
X109820212Y-67336776D01*
X109820205Y-67336773D01*
X109596104Y-67243947D01*
X109478944Y-67212554D01*
X109361789Y-67181162D01*
X109361788Y-67181161D01*
X109361785Y-67181161D01*
X109121289Y-67149500D01*
X109121288Y-67149500D01*
X108878712Y-67149500D01*
X108878711Y-67149500D01*
X108638214Y-67181161D01*
X108403895Y-67243947D01*
X108179794Y-67336773D01*
X108179785Y-67336777D01*
X107969706Y-67458067D01*
X107777263Y-67605733D01*
X107777256Y-67605739D01*
X107605739Y-67777256D01*
X107605733Y-67777263D01*
X107458067Y-67969706D01*
X107336777Y-68179785D01*
X107336773Y-68179794D01*
X107243947Y-68403895D01*
X107181161Y-68638214D01*
X107149500Y-68878711D01*
X105500500Y-68878711D01*
X105500500Y-66602135D01*
X114069500Y-66602135D01*
X114069500Y-68397870D01*
X114069501Y-68397876D01*
X114075908Y-68457483D01*
X114126202Y-68592328D01*
X114126206Y-68592335D01*
X114212452Y-68707544D01*
X114212455Y-68707547D01*
X114327664Y-68793793D01*
X114327671Y-68793797D01*
X114462517Y-68844091D01*
X114462516Y-68844091D01*
X114469444Y-68844835D01*
X114522127Y-68850500D01*
X116317872Y-68850499D01*
X116377483Y-68844091D01*
X116512331Y-68793796D01*
X116627546Y-68707546D01*
X116713796Y-68592331D01*
X116764091Y-68457483D01*
X116770500Y-68397873D01*
X116770499Y-68373979D01*
X116773330Y-68360963D01*
X116783940Y-68341525D01*
X116790179Y-68320275D01*
X116806803Y-68299643D01*
X116806808Y-68299636D01*
X116806811Y-68299634D01*
X116806818Y-68299626D01*
X117477037Y-67629408D01*
X117494075Y-67692993D01*
X117559901Y-67807007D01*
X117652993Y-67900099D01*
X117767007Y-67965925D01*
X117830590Y-67982962D01*
X117198282Y-68615269D01*
X117198282Y-68615270D01*
X117252449Y-68654624D01*
X117441782Y-68751095D01*
X117643870Y-68816757D01*
X117853754Y-68850000D01*
X118066246Y-68850000D01*
X118276127Y-68816757D01*
X118276130Y-68816757D01*
X118478217Y-68751095D01*
X118667554Y-68654622D01*
X118721716Y-68615270D01*
X118721717Y-68615270D01*
X118089408Y-67982962D01*
X118152993Y-67965925D01*
X118267007Y-67900099D01*
X118360099Y-67807007D01*
X118425925Y-67692993D01*
X118442962Y-67629408D01*
X119075270Y-68261717D01*
X119075270Y-68261716D01*
X119114622Y-68207555D01*
X119119232Y-68198507D01*
X119167205Y-68147709D01*
X119235025Y-68130912D01*
X119301161Y-68153447D01*
X119340204Y-68198504D01*
X119344949Y-68207817D01*
X119469890Y-68379786D01*
X119620213Y-68530109D01*
X119792181Y-68655050D01*
X119806792Y-68662494D01*
X119857589Y-68710467D01*
X119874500Y-68772980D01*
X119874500Y-70486611D01*
X119898535Y-70607444D01*
X119898540Y-70607461D01*
X119945685Y-70721281D01*
X119945688Y-70721286D01*
X119968920Y-70756054D01*
X120014142Y-70823733D01*
X120101267Y-70910858D01*
X120101270Y-70910860D01*
X120109035Y-70918625D01*
X129813181Y-80622771D01*
X129846666Y-80684094D01*
X129849500Y-80710452D01*
X129849500Y-85805945D01*
X129829815Y-85872984D01*
X129777011Y-85918739D01*
X129707853Y-85928683D01*
X129656609Y-85909047D01*
X129554185Y-85840609D01*
X129554172Y-85840602D01*
X129408501Y-85780264D01*
X129408489Y-85780261D01*
X129253845Y-85749500D01*
X129253842Y-85749500D01*
X129096158Y-85749500D01*
X129096155Y-85749500D01*
X128941510Y-85780261D01*
X128941498Y-85780264D01*
X128795827Y-85840602D01*
X128795815Y-85840609D01*
X128701541Y-85903602D01*
X128634864Y-85924480D01*
X128632650Y-85924500D01*
X125604766Y-85924500D01*
X125537727Y-85904815D01*
X125535875Y-85903602D01*
X125404185Y-85815609D01*
X125404172Y-85815602D01*
X125258501Y-85755264D01*
X125258489Y-85755261D01*
X125103845Y-85724500D01*
X125103842Y-85724500D01*
X124946158Y-85724500D01*
X124946155Y-85724500D01*
X124791510Y-85755261D01*
X124791498Y-85755264D01*
X124645827Y-85815602D01*
X124645814Y-85815609D01*
X124514711Y-85903210D01*
X124514707Y-85903213D01*
X124403213Y-86014707D01*
X124403210Y-86014711D01*
X124315609Y-86145814D01*
X124315602Y-86145827D01*
X124255264Y-86291498D01*
X124255261Y-86291510D01*
X124224500Y-86446153D01*
X124224500Y-86603846D01*
X124255261Y-86758489D01*
X124255264Y-86758501D01*
X124315602Y-86904172D01*
X124315609Y-86904185D01*
X124403210Y-87035288D01*
X124403213Y-87035292D01*
X124514707Y-87146786D01*
X124514711Y-87146789D01*
X124645814Y-87234390D01*
X124645827Y-87234397D01*
X124749138Y-87277189D01*
X124791503Y-87294737D01*
X124917176Y-87319735D01*
X124946153Y-87325499D01*
X124946156Y-87325500D01*
X124946158Y-87325500D01*
X125103844Y-87325500D01*
X125103845Y-87325499D01*
X125258497Y-87294737D01*
X125371166Y-87248067D01*
X125404172Y-87234397D01*
X125404172Y-87234396D01*
X125404179Y-87234394D01*
X125404185Y-87234390D01*
X125535875Y-87146398D01*
X125602553Y-87125520D01*
X125604766Y-87125500D01*
X128567059Y-87125500D01*
X128634098Y-87145185D01*
X128654740Y-87161819D01*
X128664707Y-87171786D01*
X128664711Y-87171789D01*
X128795814Y-87259390D01*
X128795827Y-87259397D01*
X128941498Y-87319735D01*
X128941503Y-87319737D01*
X129093644Y-87350000D01*
X129096153Y-87350499D01*
X129096156Y-87350500D01*
X129096158Y-87350500D01*
X129253844Y-87350500D01*
X129253845Y-87350499D01*
X129408497Y-87319737D01*
X129529781Y-87269500D01*
X129554172Y-87259397D01*
X129554172Y-87259396D01*
X129554179Y-87259394D01*
X129656610Y-87190951D01*
X129723286Y-87170074D01*
X129790666Y-87188558D01*
X129837357Y-87240537D01*
X129849500Y-87294054D01*
X129849500Y-96157650D01*
X129829815Y-96224689D01*
X129828626Y-96226503D01*
X129807805Y-96257665D01*
X129765609Y-96320815D01*
X129765602Y-96320828D01*
X129705264Y-96466498D01*
X129705261Y-96466510D01*
X129674500Y-96621153D01*
X129674500Y-96778846D01*
X129705261Y-96933489D01*
X129705264Y-96933501D01*
X129765602Y-97079172D01*
X129765609Y-97079185D01*
X129853210Y-97210288D01*
X129853213Y-97210292D01*
X129964707Y-97321786D01*
X129964711Y-97321789D01*
X130095814Y-97409390D01*
X130095827Y-97409397D01*
X130234678Y-97466910D01*
X130241503Y-97469737D01*
X130285595Y-97478507D01*
X130302398Y-97481850D01*
X130364309Y-97514234D01*
X130398883Y-97574950D01*
X130395144Y-97644719D01*
X130354278Y-97701392D01*
X130347100Y-97706567D01*
X130314716Y-97728206D01*
X130314707Y-97728213D01*
X130203213Y-97839707D01*
X130203210Y-97839711D01*
X130115609Y-97970814D01*
X130115602Y-97970827D01*
X130055264Y-98116498D01*
X130055261Y-98116510D01*
X130028571Y-98250691D01*
X129996186Y-98312602D01*
X129935471Y-98347176D01*
X129906954Y-98350500D01*
X129636452Y-98350500D01*
X129569413Y-98330815D01*
X129548771Y-98314181D01*
X128225793Y-96991203D01*
X128192308Y-96929880D01*
X128191887Y-96927864D01*
X128169737Y-96816503D01*
X128145599Y-96758230D01*
X128109397Y-96670827D01*
X128109390Y-96670814D01*
X128021789Y-96539711D01*
X128021786Y-96539707D01*
X127910292Y-96428213D01*
X127910288Y-96428210D01*
X127850167Y-96388038D01*
X127805362Y-96334425D01*
X127795058Y-96284936D01*
X127795058Y-96140713D01*
X127795057Y-96140711D01*
X127789382Y-96112182D01*
X127764295Y-95986061D01*
X127758881Y-95972990D01*
X127703955Y-95840385D01*
X127703948Y-95840372D01*
X127616347Y-95709269D01*
X127616344Y-95709265D01*
X127504850Y-95597771D01*
X127504846Y-95597768D01*
X127373743Y-95510167D01*
X127373730Y-95510160D01*
X127228059Y-95449822D01*
X127228047Y-95449819D01*
X127073403Y-95419058D01*
X127073400Y-95419058D01*
X126915716Y-95419058D01*
X126915713Y-95419058D01*
X126761068Y-95449819D01*
X126761056Y-95449822D01*
X126615385Y-95510160D01*
X126615372Y-95510167D01*
X126484269Y-95597768D01*
X126484265Y-95597771D01*
X126372771Y-95709265D01*
X126372768Y-95709269D01*
X126285167Y-95840372D01*
X126285160Y-95840385D01*
X126224822Y-95986056D01*
X126224819Y-95986068D01*
X126194058Y-96140711D01*
X126194058Y-96181042D01*
X126189941Y-96212729D01*
X126187809Y-96220791D01*
X126172537Y-96257665D01*
X126156480Y-96338393D01*
X126155732Y-96342152D01*
X126155727Y-96342172D01*
X126148500Y-96378507D01*
X126148500Y-97370908D01*
X126172535Y-97491742D01*
X126172537Y-97491750D01*
X126186347Y-97525090D01*
X126219688Y-97605584D01*
X126233641Y-97626465D01*
X126238571Y-97633844D01*
X126238572Y-97633845D01*
X126288141Y-97708030D01*
X126288144Y-97708034D01*
X126379586Y-97799476D01*
X126379608Y-97799496D01*
X128528841Y-99948729D01*
X128528844Y-99948733D01*
X128615969Y-100035858D01*
X128667192Y-100070084D01*
X128718416Y-100104312D01*
X128781069Y-100130263D01*
X128832250Y-100151463D01*
X128892673Y-100163481D01*
X128953095Y-100175500D01*
X134161607Y-100175500D01*
X134222029Y-100163481D01*
X134282452Y-100151463D01*
X134333633Y-100130263D01*
X134339516Y-100127826D01*
X134339520Y-100127825D01*
X134396281Y-100104314D01*
X134396280Y-100104314D01*
X134396286Y-100104312D01*
X134447509Y-100070084D01*
X134498733Y-100035858D01*
X134585858Y-99948733D01*
X134585858Y-99948731D01*
X134596066Y-99938524D01*
X134596067Y-99938521D01*
X138888437Y-95646153D01*
X142099500Y-95646153D01*
X142099500Y-95803846D01*
X142130261Y-95958489D01*
X142130264Y-95958501D01*
X142190602Y-96104172D01*
X142190609Y-96104185D01*
X142278210Y-96235288D01*
X142278213Y-96235292D01*
X142389707Y-96346786D01*
X142389711Y-96346789D01*
X142520814Y-96434390D01*
X142520827Y-96434397D01*
X142628138Y-96478846D01*
X142666503Y-96494737D01*
X142821153Y-96525499D01*
X142821156Y-96525500D01*
X142821158Y-96525500D01*
X142978844Y-96525500D01*
X142978845Y-96525499D01*
X143133497Y-96494737D01*
X143279179Y-96434394D01*
X143373459Y-96371398D01*
X143440136Y-96350520D01*
X143442350Y-96350500D01*
X146808351Y-96350500D01*
X146875390Y-96370185D01*
X146921145Y-96422989D01*
X146931089Y-96492147D01*
X146929969Y-96498690D01*
X146925500Y-96521158D01*
X146925500Y-96678846D01*
X146956261Y-96833489D01*
X146956264Y-96833501D01*
X147016602Y-96979172D01*
X147016609Y-96979185D01*
X147104210Y-97110288D01*
X147104213Y-97110292D01*
X147213181Y-97219260D01*
X147246666Y-97280583D01*
X147249500Y-97306941D01*
X147249500Y-98037770D01*
X147229815Y-98104809D01*
X147213181Y-98125451D01*
X146317047Y-99021584D01*
X146317045Y-99021586D01*
X146296271Y-99052678D01*
X146287983Y-99065084D01*
X146261358Y-99104930D01*
X146234914Y-99144507D01*
X146178343Y-99281082D01*
X146178340Y-99281092D01*
X146149500Y-99426079D01*
X146149500Y-100595396D01*
X146140062Y-100642844D01*
X146130263Y-100666503D01*
X146130262Y-100666506D01*
X146130260Y-100666511D01*
X146099500Y-100821153D01*
X146099500Y-100978846D01*
X146130261Y-101133489D01*
X146130264Y-101133501D01*
X146190602Y-101279172D01*
X146190609Y-101279185D01*
X146278210Y-101410288D01*
X146278213Y-101410292D01*
X146389707Y-101521786D01*
X146389711Y-101521789D01*
X146520814Y-101609390D01*
X146520827Y-101609397D01*
X146666498Y-101669735D01*
X146666503Y-101669737D01*
X146821153Y-101700499D01*
X146821156Y-101700500D01*
X146821158Y-101700500D01*
X146978844Y-101700500D01*
X146978845Y-101700499D01*
X147133497Y-101669737D01*
X147279179Y-101609394D01*
X147410289Y-101521789D01*
X147521789Y-101410289D01*
X147609394Y-101279179D01*
X147669737Y-101133497D01*
X147700500Y-100978842D01*
X147700500Y-100821158D01*
X147700500Y-100821155D01*
X147700499Y-100821153D01*
X147669739Y-100666511D01*
X147669738Y-100666508D01*
X147669737Y-100666503D01*
X147659937Y-100642844D01*
X147650500Y-100595396D01*
X147650500Y-99862230D01*
X147670185Y-99795191D01*
X147686819Y-99774549D01*
X148582950Y-98878418D01*
X148582952Y-98878416D01*
X148620823Y-98821736D01*
X148658954Y-98764670D01*
X148665083Y-98755496D01*
X148665084Y-98755495D01*
X148721658Y-98618913D01*
X148750500Y-98473918D01*
X148750500Y-97474500D01*
X148770185Y-97407461D01*
X148822989Y-97361706D01*
X148874500Y-97350500D01*
X148903844Y-97350500D01*
X148903845Y-97350499D01*
X149058497Y-97319737D01*
X149204179Y-97259394D01*
X149335289Y-97171789D01*
X149446789Y-97060289D01*
X149534394Y-96929179D01*
X149594737Y-96783497D01*
X149625500Y-96628842D01*
X149625500Y-96471158D01*
X149625500Y-96471155D01*
X149625499Y-96471153D01*
X149599264Y-96339257D01*
X149595662Y-96321153D01*
X165399500Y-96321153D01*
X165399500Y-96478846D01*
X165430261Y-96633489D01*
X165430264Y-96633501D01*
X165490602Y-96779172D01*
X165490609Y-96779185D01*
X165578210Y-96910288D01*
X165578213Y-96910292D01*
X165689707Y-97021786D01*
X165689711Y-97021789D01*
X165820814Y-97109390D01*
X165820827Y-97109397D01*
X165952295Y-97163852D01*
X165966503Y-97169737D01*
X166080201Y-97192353D01*
X166121153Y-97200499D01*
X166121156Y-97200500D01*
X166121158Y-97200500D01*
X166278844Y-97200500D01*
X166278845Y-97200499D01*
X166433497Y-97169737D01*
X166579179Y-97109394D01*
X166673459Y-97046398D01*
X166740136Y-97025520D01*
X166742350Y-97025500D01*
X167107235Y-97025500D01*
X167174274Y-97045185D01*
X167212772Y-97084401D01*
X167225000Y-97104225D01*
X167225720Y-97105392D01*
X167344608Y-97224280D01*
X167344612Y-97224283D01*
X167487704Y-97312544D01*
X167487707Y-97312545D01*
X167487713Y-97312549D01*
X167647315Y-97365436D01*
X167745826Y-97375500D01*
X167745831Y-97375500D01*
X168279169Y-97375500D01*
X168279174Y-97375500D01*
X168377685Y-97365436D01*
X168537287Y-97312549D01*
X168680391Y-97224281D01*
X168712319Y-97192353D01*
X168773642Y-97158868D01*
X168843334Y-97163852D01*
X168887681Y-97192353D01*
X168919608Y-97224280D01*
X168919612Y-97224283D01*
X169062704Y-97312544D01*
X169062707Y-97312545D01*
X169062713Y-97312549D01*
X169222315Y-97365436D01*
X169320826Y-97375500D01*
X169320831Y-97375500D01*
X169854169Y-97375500D01*
X169854174Y-97375500D01*
X169952685Y-97365436D01*
X170112287Y-97312549D01*
X170255391Y-97224281D01*
X170374281Y-97105391D01*
X170387227Y-97084401D01*
X170439174Y-97037679D01*
X170492765Y-97025500D01*
X172661607Y-97025500D01*
X172724389Y-97013012D01*
X172782452Y-97001463D01*
X172836250Y-96979179D01*
X172896286Y-96954312D01*
X172965405Y-96908127D01*
X172998733Y-96885858D01*
X173085858Y-96798733D01*
X173085859Y-96798731D01*
X173092925Y-96791665D01*
X173092928Y-96791661D01*
X176398729Y-93485860D01*
X176398733Y-93485858D01*
X176485858Y-93398733D01*
X176535460Y-93324499D01*
X176554312Y-93296286D01*
X176601463Y-93182451D01*
X176625500Y-93061607D01*
X176625500Y-92938393D01*
X176625500Y-92432980D01*
X176645185Y-92365941D01*
X176693208Y-92322494D01*
X176707818Y-92315050D01*
X176879786Y-92190109D01*
X176879788Y-92190106D01*
X176879792Y-92190104D01*
X177030104Y-92039792D01*
X177030106Y-92039788D01*
X177030109Y-92039786D01*
X177155048Y-91867820D01*
X177155047Y-91867820D01*
X177155051Y-91867816D01*
X177251557Y-91678412D01*
X177317246Y-91476243D01*
X177350500Y-91266287D01*
X177350500Y-91053713D01*
X177317246Y-90843757D01*
X177251557Y-90641588D01*
X177155051Y-90452184D01*
X177155049Y-90452181D01*
X177155048Y-90452179D01*
X177030109Y-90280213D01*
X176879786Y-90129890D01*
X176707820Y-90004951D01*
X176707115Y-90004591D01*
X176699054Y-90000485D01*
X176648259Y-89952512D01*
X176631463Y-89884692D01*
X176653999Y-89818556D01*
X176699054Y-89779515D01*
X176707816Y-89775051D01*
X176794138Y-89712335D01*
X176879786Y-89650109D01*
X176879788Y-89650106D01*
X176879792Y-89650104D01*
X177030104Y-89499792D01*
X177030106Y-89499788D01*
X177030109Y-89499786D01*
X177155048Y-89327820D01*
X177155047Y-89327820D01*
X177155051Y-89327816D01*
X177251557Y-89138412D01*
X177317246Y-88936243D01*
X177350500Y-88726287D01*
X177350500Y-88513713D01*
X177317246Y-88303757D01*
X177251557Y-88101588D01*
X177155051Y-87912184D01*
X177155049Y-87912181D01*
X177155048Y-87912179D01*
X177030109Y-87740213D01*
X176879786Y-87589890D01*
X176707820Y-87464951D01*
X176707115Y-87464591D01*
X176699054Y-87460485D01*
X176648259Y-87412512D01*
X176631463Y-87344692D01*
X176653999Y-87278556D01*
X176699054Y-87239515D01*
X176707816Y-87235051D01*
X176755774Y-87200208D01*
X176879786Y-87110109D01*
X176879788Y-87110106D01*
X176879792Y-87110104D01*
X177030104Y-86959792D01*
X177030106Y-86959788D01*
X177030109Y-86959786D01*
X177155048Y-86787820D01*
X177155047Y-86787820D01*
X177155051Y-86787816D01*
X177251557Y-86598412D01*
X177317246Y-86396243D01*
X177350500Y-86186287D01*
X177350500Y-85973713D01*
X177317246Y-85763757D01*
X177251557Y-85561588D01*
X177155051Y-85372184D01*
X177155049Y-85372181D01*
X177155048Y-85372179D01*
X177030109Y-85200213D01*
X176879786Y-85049890D01*
X176707820Y-84924951D01*
X176707115Y-84924591D01*
X176699054Y-84920485D01*
X176648259Y-84872512D01*
X176631463Y-84804692D01*
X176653999Y-84738556D01*
X176699054Y-84699515D01*
X176707816Y-84695051D01*
X176762570Y-84655270D01*
X176879786Y-84570109D01*
X176879788Y-84570106D01*
X176879792Y-84570104D01*
X177030104Y-84419792D01*
X177030106Y-84419788D01*
X177030109Y-84419786D01*
X177155048Y-84247820D01*
X177155047Y-84247820D01*
X177155051Y-84247816D01*
X177251557Y-84058412D01*
X177317246Y-83856243D01*
X177350500Y-83646287D01*
X177350500Y-83433713D01*
X177317246Y-83223757D01*
X177251557Y-83021588D01*
X177155051Y-82832184D01*
X177155049Y-82832181D01*
X177155048Y-82832179D01*
X177030109Y-82660213D01*
X176879786Y-82509890D01*
X176707820Y-82384951D01*
X176699600Y-82380763D01*
X176699054Y-82380485D01*
X176648259Y-82332512D01*
X176631463Y-82264692D01*
X176653999Y-82198556D01*
X176699054Y-82159515D01*
X176707816Y-82155051D01*
X176793622Y-82092710D01*
X176879786Y-82030109D01*
X176879788Y-82030106D01*
X176879792Y-82030104D01*
X177030104Y-81879792D01*
X177030106Y-81879788D01*
X177030109Y-81879786D01*
X177155048Y-81707820D01*
X177155047Y-81707820D01*
X177155051Y-81707816D01*
X177251557Y-81518412D01*
X177317246Y-81316243D01*
X177350500Y-81106287D01*
X177350500Y-80893713D01*
X180649500Y-80893713D01*
X180649500Y-81106286D01*
X180681840Y-81310476D01*
X180682754Y-81316243D01*
X180696281Y-81357876D01*
X180748444Y-81518414D01*
X180844951Y-81707820D01*
X180969890Y-81879786D01*
X181120213Y-82030109D01*
X181292182Y-82155050D01*
X181300946Y-82159516D01*
X181351742Y-82207491D01*
X181368536Y-82275312D01*
X181345998Y-82341447D01*
X181300946Y-82380484D01*
X181292182Y-82384949D01*
X181120213Y-82509890D01*
X180969890Y-82660213D01*
X180844951Y-82832179D01*
X180748444Y-83021585D01*
X180748443Y-83021587D01*
X180748443Y-83021588D01*
X180716092Y-83121153D01*
X180682753Y-83223760D01*
X180649500Y-83433713D01*
X180649500Y-83646286D01*
X180682753Y-83856239D01*
X180748444Y-84058414D01*
X180844951Y-84247820D01*
X180969890Y-84419786D01*
X181120213Y-84570109D01*
X181292182Y-84695050D01*
X181300946Y-84699516D01*
X181351742Y-84747491D01*
X181368536Y-84815312D01*
X181345998Y-84881447D01*
X181300946Y-84920484D01*
X181292182Y-84924949D01*
X181120213Y-85049890D01*
X180969890Y-85200213D01*
X180844951Y-85372179D01*
X180748444Y-85561585D01*
X180682753Y-85763760D01*
X180649500Y-85973713D01*
X180649500Y-86186286D01*
X180673435Y-86337410D01*
X180682754Y-86396243D01*
X180729954Y-86541510D01*
X180748444Y-86598414D01*
X180844951Y-86787820D01*
X180969890Y-86959786D01*
X181083430Y-87073326D01*
X181116915Y-87134649D01*
X181111931Y-87204341D01*
X181070059Y-87260274D01*
X181039083Y-87277189D01*
X180907669Y-87326203D01*
X180907664Y-87326206D01*
X180792455Y-87412452D01*
X180792452Y-87412455D01*
X180706206Y-87527664D01*
X180706202Y-87527671D01*
X180655908Y-87662517D01*
X180649501Y-87722116D01*
X180649501Y-87722123D01*
X180649500Y-87722135D01*
X180649500Y-89517870D01*
X180649501Y-89517876D01*
X180655908Y-89577483D01*
X180706202Y-89712328D01*
X180706206Y-89712335D01*
X180792452Y-89827544D01*
X180792455Y-89827547D01*
X180907664Y-89913793D01*
X180907671Y-89913797D01*
X181042517Y-89964091D01*
X181042516Y-89964091D01*
X181049444Y-89964835D01*
X181102127Y-89970500D01*
X182897872Y-89970499D01*
X182957483Y-89964091D01*
X183092331Y-89913796D01*
X183207546Y-89827546D01*
X183293796Y-89712331D01*
X183344091Y-89577483D01*
X183350500Y-89517873D01*
X183350499Y-87722128D01*
X183344091Y-87662517D01*
X183293796Y-87527669D01*
X183293795Y-87527668D01*
X183293793Y-87527664D01*
X183207547Y-87412455D01*
X183207544Y-87412452D01*
X183092335Y-87326206D01*
X183092328Y-87326202D01*
X182960917Y-87277189D01*
X182904983Y-87235318D01*
X182880566Y-87169853D01*
X182895418Y-87101580D01*
X182916563Y-87073332D01*
X183030104Y-86959792D01*
X183155051Y-86787816D01*
X183251557Y-86598412D01*
X183317246Y-86396243D01*
X183350500Y-86186287D01*
X183350500Y-85973713D01*
X183317246Y-85763757D01*
X183251557Y-85561588D01*
X183155051Y-85372184D01*
X183155049Y-85372181D01*
X183155048Y-85372179D01*
X183030109Y-85200213D01*
X182879786Y-85049890D01*
X182707820Y-84924951D01*
X182707115Y-84924591D01*
X182699054Y-84920485D01*
X182648259Y-84872512D01*
X182631463Y-84804692D01*
X182653999Y-84738556D01*
X182699054Y-84699515D01*
X182707816Y-84695051D01*
X182762570Y-84655270D01*
X182879786Y-84570109D01*
X182879788Y-84570106D01*
X182879792Y-84570104D01*
X183030104Y-84419792D01*
X183030106Y-84419788D01*
X183030109Y-84419786D01*
X183155048Y-84247820D01*
X183155047Y-84247820D01*
X183155051Y-84247816D01*
X183251557Y-84058412D01*
X183317246Y-83856243D01*
X183350500Y-83646287D01*
X183350500Y-83433713D01*
X183317246Y-83223757D01*
X183251557Y-83021588D01*
X183155051Y-82832184D01*
X183155049Y-82832181D01*
X183155048Y-82832179D01*
X183030109Y-82660213D01*
X182879786Y-82509890D01*
X182707820Y-82384951D01*
X182699600Y-82380763D01*
X182699054Y-82380485D01*
X182648259Y-82332512D01*
X182631463Y-82264692D01*
X182653999Y-82198556D01*
X182699054Y-82159515D01*
X182707816Y-82155051D01*
X182793622Y-82092710D01*
X182879786Y-82030109D01*
X182879788Y-82030106D01*
X182879792Y-82030104D01*
X183030104Y-81879792D01*
X183030106Y-81879788D01*
X183030109Y-81879786D01*
X183155048Y-81707820D01*
X183155047Y-81707820D01*
X183155051Y-81707816D01*
X183251557Y-81518412D01*
X183317246Y-81316243D01*
X183350500Y-81106287D01*
X183350500Y-80893713D01*
X183317246Y-80683757D01*
X183251557Y-80481588D01*
X183155051Y-80292184D01*
X183155049Y-80292181D01*
X183155048Y-80292179D01*
X183030109Y-80120213D01*
X182879786Y-79969890D01*
X182707820Y-79844951D01*
X182518414Y-79748444D01*
X182518413Y-79748443D01*
X182518412Y-79748443D01*
X182316243Y-79682754D01*
X182316241Y-79682753D01*
X182316240Y-79682753D01*
X182154957Y-79657208D01*
X182106287Y-79649500D01*
X181893713Y-79649500D01*
X181845042Y-79657208D01*
X181683760Y-79682753D01*
X181481585Y-79748444D01*
X181292179Y-79844951D01*
X181120213Y-79969890D01*
X180969890Y-80120213D01*
X180844951Y-80292179D01*
X180748444Y-80481585D01*
X180682753Y-80683760D01*
X180649500Y-80893713D01*
X177350500Y-80893713D01*
X177317246Y-80683757D01*
X177251557Y-80481588D01*
X177155051Y-80292184D01*
X177155049Y-80292181D01*
X177155048Y-80292179D01*
X177030109Y-80120213D01*
X176916569Y-80006673D01*
X176883084Y-79945350D01*
X176888068Y-79875658D01*
X176929940Y-79819725D01*
X176960915Y-79802810D01*
X177092331Y-79753796D01*
X177207546Y-79667546D01*
X177293796Y-79552331D01*
X177344091Y-79417483D01*
X177350500Y-79357873D01*
X177350499Y-77562128D01*
X177344091Y-77502517D01*
X177293796Y-77367669D01*
X177293795Y-77367668D01*
X177293793Y-77367664D01*
X177207547Y-77252455D01*
X177207544Y-77252452D01*
X177092335Y-77166206D01*
X177092328Y-77166202D01*
X176957482Y-77115908D01*
X176957483Y-77115908D01*
X176897883Y-77109501D01*
X176897881Y-77109500D01*
X176897873Y-77109500D01*
X176897864Y-77109500D01*
X175102129Y-77109500D01*
X175102123Y-77109501D01*
X175042516Y-77115908D01*
X174907671Y-77166202D01*
X174907664Y-77166206D01*
X174792455Y-77252452D01*
X174792452Y-77252455D01*
X174706206Y-77367664D01*
X174706202Y-77367671D01*
X174655908Y-77502517D01*
X174649501Y-77562116D01*
X174649501Y-77562123D01*
X174649500Y-77562135D01*
X174649500Y-79357870D01*
X174649501Y-79357876D01*
X174655908Y-79417483D01*
X174706202Y-79552328D01*
X174706206Y-79552335D01*
X174792452Y-79667544D01*
X174792455Y-79667547D01*
X174907664Y-79753793D01*
X174907671Y-79753797D01*
X175039082Y-79802810D01*
X175095016Y-79844681D01*
X175119433Y-79910145D01*
X175104582Y-79978418D01*
X175083431Y-80006673D01*
X174969889Y-80120215D01*
X174844951Y-80292179D01*
X174748444Y-80481585D01*
X174682753Y-80683760D01*
X174649500Y-80893713D01*
X174649500Y-81106286D01*
X174681840Y-81310476D01*
X174682754Y-81316243D01*
X174696281Y-81357876D01*
X174748444Y-81518414D01*
X174844951Y-81707820D01*
X174969890Y-81879786D01*
X175120213Y-82030109D01*
X175292182Y-82155050D01*
X175300946Y-82159516D01*
X175351742Y-82207491D01*
X175368536Y-82275312D01*
X175345998Y-82341447D01*
X175300946Y-82380484D01*
X175292182Y-82384949D01*
X175120213Y-82509890D01*
X174969890Y-82660213D01*
X174844951Y-82832179D01*
X174748444Y-83021585D01*
X174748443Y-83021587D01*
X174748443Y-83021588D01*
X174716092Y-83121153D01*
X174682753Y-83223760D01*
X174649500Y-83433713D01*
X174649500Y-83646286D01*
X174682753Y-83856239D01*
X174748444Y-84058414D01*
X174844951Y-84247820D01*
X174969890Y-84419786D01*
X175120213Y-84570109D01*
X175292182Y-84695050D01*
X175300946Y-84699516D01*
X175351742Y-84747491D01*
X175368536Y-84815312D01*
X175345998Y-84881447D01*
X175300946Y-84920484D01*
X175292182Y-84924949D01*
X175120213Y-85049890D01*
X174969890Y-85200213D01*
X174844951Y-85372179D01*
X174748444Y-85561585D01*
X174682753Y-85763760D01*
X174649500Y-85973713D01*
X174649500Y-86186286D01*
X174673435Y-86337410D01*
X174682754Y-86396243D01*
X174729954Y-86541510D01*
X174748444Y-86598414D01*
X174844951Y-86787820D01*
X174969890Y-86959786D01*
X175120213Y-87110109D01*
X175292182Y-87235050D01*
X175300946Y-87239516D01*
X175351742Y-87287491D01*
X175368536Y-87355312D01*
X175345998Y-87421447D01*
X175300946Y-87460484D01*
X175292182Y-87464949D01*
X175120213Y-87589890D01*
X174969890Y-87740213D01*
X174844951Y-87912179D01*
X174748444Y-88101585D01*
X174748443Y-88101587D01*
X174748443Y-88101588D01*
X174716880Y-88198729D01*
X174682753Y-88303760D01*
X174649500Y-88513713D01*
X174649500Y-88726286D01*
X174682753Y-88936239D01*
X174748444Y-89138414D01*
X174844951Y-89327820D01*
X174969890Y-89499786D01*
X175120213Y-89650109D01*
X175292182Y-89775050D01*
X175300946Y-89779516D01*
X175351742Y-89827491D01*
X175368536Y-89895312D01*
X175345998Y-89961447D01*
X175300946Y-90000484D01*
X175292182Y-90004949D01*
X175120213Y-90129890D01*
X174969890Y-90280213D01*
X174844951Y-90452179D01*
X174748444Y-90641585D01*
X174748443Y-90641587D01*
X174748443Y-90641588D01*
X174715598Y-90742672D01*
X174682753Y-90843760D01*
X174649500Y-91053713D01*
X174649500Y-91266286D01*
X174682753Y-91476239D01*
X174748444Y-91678414D01*
X174844951Y-91867820D01*
X174969890Y-92039786D01*
X175120213Y-92190109D01*
X175292181Y-92315050D01*
X175306792Y-92322494D01*
X175357589Y-92370467D01*
X175374500Y-92432980D01*
X175374500Y-92689548D01*
X175354815Y-92756587D01*
X175338181Y-92777229D01*
X172377229Y-95738181D01*
X172315906Y-95771666D01*
X172289548Y-95774500D01*
X170492765Y-95774500D01*
X170425726Y-95754815D01*
X170387227Y-95715598D01*
X170374281Y-95694609D01*
X170255391Y-95575719D01*
X170255387Y-95575716D01*
X170112295Y-95487455D01*
X170112289Y-95487452D01*
X170112287Y-95487451D01*
X169952685Y-95434564D01*
X169952683Y-95434563D01*
X169854181Y-95424500D01*
X169854174Y-95424500D01*
X169320826Y-95424500D01*
X169320818Y-95424500D01*
X169222316Y-95434563D01*
X169222315Y-95434564D01*
X169176279Y-95449819D01*
X169062715Y-95487450D01*
X169062704Y-95487455D01*
X168919612Y-95575716D01*
X168919608Y-95575719D01*
X168887681Y-95607647D01*
X168826358Y-95641132D01*
X168756666Y-95636148D01*
X168712319Y-95607647D01*
X168680391Y-95575719D01*
X168680387Y-95575716D01*
X168537295Y-95487455D01*
X168537289Y-95487452D01*
X168537287Y-95487451D01*
X168377685Y-95434564D01*
X168377683Y-95434563D01*
X168279181Y-95424500D01*
X168279174Y-95424500D01*
X167745826Y-95424500D01*
X167745818Y-95424500D01*
X167647316Y-95434563D01*
X167647315Y-95434564D01*
X167601279Y-95449819D01*
X167487715Y-95487450D01*
X167487704Y-95487455D01*
X167344612Y-95575716D01*
X167344608Y-95575719D01*
X167225720Y-95694607D01*
X167225719Y-95694609D01*
X167212772Y-95715598D01*
X167160826Y-95762321D01*
X167107235Y-95774500D01*
X166742350Y-95774500D01*
X166675311Y-95754815D01*
X166673459Y-95753602D01*
X166579184Y-95690609D01*
X166579172Y-95690602D01*
X166433501Y-95630264D01*
X166433489Y-95630261D01*
X166278845Y-95599500D01*
X166278842Y-95599500D01*
X166121158Y-95599500D01*
X166121155Y-95599500D01*
X165966510Y-95630261D01*
X165966498Y-95630264D01*
X165820827Y-95690602D01*
X165820814Y-95690609D01*
X165689711Y-95778210D01*
X165689707Y-95778213D01*
X165578213Y-95889707D01*
X165578210Y-95889711D01*
X165490609Y-96020814D01*
X165490602Y-96020827D01*
X165430264Y-96166498D01*
X165430261Y-96166510D01*
X165399500Y-96321153D01*
X149595662Y-96321153D01*
X149594738Y-96316507D01*
X149594735Y-96316498D01*
X149534397Y-96170827D01*
X149534390Y-96170814D01*
X149446789Y-96039711D01*
X149446786Y-96039707D01*
X149335292Y-95928213D01*
X149335288Y-95928210D01*
X149204185Y-95840609D01*
X149204175Y-95840604D01*
X149134810Y-95811872D01*
X149094582Y-95784992D01*
X148643150Y-95333560D01*
X148635860Y-95326270D01*
X148635858Y-95326267D01*
X148548733Y-95239142D01*
X148497509Y-95204915D01*
X148446286Y-95170688D01*
X148446283Y-95170686D01*
X148446280Y-95170685D01*
X148372832Y-95140263D01*
X148372831Y-95140262D01*
X148365792Y-95137347D01*
X148332452Y-95123537D01*
X148265682Y-95110256D01*
X148261202Y-95109365D01*
X148261199Y-95109364D01*
X148226498Y-95102462D01*
X148211607Y-95099500D01*
X148211606Y-95099500D01*
X143442350Y-95099500D01*
X143375311Y-95079815D01*
X143373459Y-95078602D01*
X143279184Y-95015609D01*
X143279172Y-95015602D01*
X143133501Y-94955264D01*
X143133489Y-94955261D01*
X142978845Y-94924500D01*
X142978842Y-94924500D01*
X142821158Y-94924500D01*
X142821155Y-94924500D01*
X142666510Y-94955261D01*
X142666498Y-94955264D01*
X142520827Y-95015602D01*
X142520814Y-95015609D01*
X142389711Y-95103210D01*
X142389707Y-95103213D01*
X142278213Y-95214707D01*
X142278210Y-95214711D01*
X142190609Y-95345814D01*
X142190602Y-95345827D01*
X142130264Y-95491498D01*
X142130261Y-95491510D01*
X142099500Y-95646153D01*
X138888437Y-95646153D01*
X140122772Y-94411819D01*
X140184095Y-94378334D01*
X140210453Y-94375500D01*
X148289548Y-94375500D01*
X148356587Y-94395185D01*
X148377228Y-94411818D01*
X148865141Y-94899732D01*
X148865142Y-94899733D01*
X148920670Y-94955261D01*
X148952268Y-94986859D01*
X149054707Y-95055307D01*
X149054711Y-95055309D01*
X149054714Y-95055311D01*
X149168548Y-95102463D01*
X149274497Y-95123537D01*
X149289388Y-95126499D01*
X149289392Y-95126500D01*
X149289393Y-95126500D01*
X166298417Y-95126500D01*
X166358839Y-95114481D01*
X166419262Y-95102463D01*
X166452602Y-95088652D01*
X166533096Y-95055312D01*
X166584319Y-95021084D01*
X166635543Y-94986858D01*
X166722668Y-94899733D01*
X166722669Y-94899731D01*
X166729735Y-94892665D01*
X166729738Y-94892661D01*
X171889729Y-89732670D01*
X171889733Y-89732668D01*
X171976858Y-89645543D01*
X172028256Y-89568619D01*
X172045312Y-89543095D01*
X172077681Y-89464949D01*
X172092463Y-89429262D01*
X172104561Y-89368443D01*
X172106980Y-89356284D01*
X172116500Y-89308417D01*
X172116500Y-69899451D01*
X172136185Y-69832412D01*
X172152814Y-69811774D01*
X173085877Y-68878711D01*
X179149500Y-68878711D01*
X179149500Y-69121288D01*
X179181161Y-69361785D01*
X179243947Y-69596104D01*
X179333279Y-69811770D01*
X179336776Y-69820212D01*
X179458064Y-70030289D01*
X179458066Y-70030292D01*
X179458067Y-70030293D01*
X179605733Y-70222736D01*
X179605739Y-70222743D01*
X179777256Y-70394260D01*
X179777262Y-70394265D01*
X179969711Y-70541936D01*
X180179788Y-70663224D01*
X180403900Y-70756054D01*
X180638211Y-70818838D01*
X180818586Y-70842584D01*
X180878711Y-70850500D01*
X180878712Y-70850500D01*
X181121289Y-70850500D01*
X181169388Y-70844167D01*
X181361789Y-70818838D01*
X181596100Y-70756054D01*
X181820212Y-70663224D01*
X182030289Y-70541936D01*
X182222738Y-70394265D01*
X182394265Y-70222738D01*
X182541936Y-70030289D01*
X182663224Y-69820212D01*
X182756054Y-69596100D01*
X182818838Y-69361789D01*
X182850500Y-69121288D01*
X182850500Y-68878712D01*
X182845773Y-68842810D01*
X182839320Y-68793793D01*
X182818838Y-68638211D01*
X182756054Y-68403900D01*
X182663224Y-68179788D01*
X182541936Y-67969711D01*
X182424173Y-67816239D01*
X182394266Y-67777263D01*
X182394260Y-67777256D01*
X182222743Y-67605739D01*
X182222736Y-67605733D01*
X182030293Y-67458067D01*
X182030292Y-67458066D01*
X182030289Y-67458064D01*
X181820212Y-67336776D01*
X181820205Y-67336773D01*
X181596104Y-67243947D01*
X181478944Y-67212554D01*
X181361789Y-67181162D01*
X181361788Y-67181161D01*
X181361785Y-67181161D01*
X181121289Y-67149500D01*
X181121288Y-67149500D01*
X180878712Y-67149500D01*
X180878711Y-67149500D01*
X180638214Y-67181161D01*
X180403895Y-67243947D01*
X180179794Y-67336773D01*
X180179785Y-67336777D01*
X179969706Y-67458067D01*
X179777263Y-67605733D01*
X179777256Y-67605739D01*
X179605739Y-67777256D01*
X179605733Y-67777263D01*
X179458067Y-67969706D01*
X179336777Y-68179785D01*
X179336773Y-68179794D01*
X179243947Y-68403895D01*
X179181161Y-68638214D01*
X179149500Y-68878711D01*
X173085877Y-68878711D01*
X173122162Y-68842426D01*
X173183483Y-68808943D01*
X173248162Y-68812179D01*
X173263757Y-68817246D01*
X173473713Y-68850500D01*
X173473714Y-68850500D01*
X173686286Y-68850500D01*
X173686287Y-68850500D01*
X173896243Y-68817246D01*
X174098412Y-68751557D01*
X174287816Y-68655051D01*
X174374138Y-68592335D01*
X174459786Y-68530109D01*
X174459788Y-68530106D01*
X174459792Y-68530104D01*
X174610104Y-68379792D01*
X174610106Y-68379788D01*
X174610109Y-68379786D01*
X174735048Y-68207820D01*
X174735050Y-68207817D01*
X174735051Y-68207816D01*
X174831557Y-68018412D01*
X174897246Y-67816243D01*
X174930500Y-67606287D01*
X174930500Y-67393713D01*
X174897246Y-67183757D01*
X174831557Y-66981588D01*
X174735051Y-66792184D01*
X174735049Y-66792181D01*
X174735048Y-66792179D01*
X174610109Y-66620213D01*
X174459786Y-66469890D01*
X174287820Y-66344951D01*
X174098414Y-66248444D01*
X174098413Y-66248443D01*
X174098412Y-66248443D01*
X173896243Y-66182754D01*
X173896241Y-66182753D01*
X173896240Y-66182753D01*
X173734957Y-66157208D01*
X173686287Y-66149500D01*
X173473713Y-66149500D01*
X173425042Y-66157208D01*
X173263760Y-66182753D01*
X173061585Y-66248444D01*
X172872179Y-66344951D01*
X172700213Y-66469890D01*
X172549890Y-66620213D01*
X172424949Y-66792182D01*
X172420484Y-66800946D01*
X172372509Y-66851742D01*
X172304688Y-66868536D01*
X172238553Y-66845998D01*
X172199516Y-66800946D01*
X172195050Y-66792182D01*
X172070109Y-66620213D01*
X171919786Y-66469890D01*
X171747820Y-66344951D01*
X171558414Y-66248444D01*
X171558413Y-66248443D01*
X171558412Y-66248443D01*
X171356243Y-66182754D01*
X171356241Y-66182753D01*
X171356240Y-66182753D01*
X171194957Y-66157208D01*
X171146287Y-66149500D01*
X170933713Y-66149500D01*
X170885042Y-66157208D01*
X170723760Y-66182753D01*
X170521585Y-66248444D01*
X170332179Y-66344951D01*
X170160213Y-66469890D01*
X170009890Y-66620213D01*
X169884949Y-66792182D01*
X169880202Y-66801499D01*
X169832227Y-66852293D01*
X169764405Y-66869087D01*
X169698271Y-66846548D01*
X169659234Y-66801495D01*
X169654626Y-66792452D01*
X169615270Y-66738282D01*
X169615269Y-66738282D01*
X168982962Y-67370590D01*
X168965925Y-67307007D01*
X168900099Y-67192993D01*
X168807007Y-67099901D01*
X168692993Y-67034075D01*
X168629409Y-67017037D01*
X169261716Y-66384728D01*
X169207550Y-66345375D01*
X169018217Y-66248904D01*
X168816129Y-66183242D01*
X168606246Y-66150000D01*
X168393754Y-66150000D01*
X168183872Y-66183242D01*
X168183869Y-66183242D01*
X167981782Y-66248904D01*
X167792439Y-66345380D01*
X167738282Y-66384727D01*
X167738282Y-66384728D01*
X168370591Y-67017037D01*
X168307007Y-67034075D01*
X168192993Y-67099901D01*
X168099901Y-67192993D01*
X168034075Y-67307007D01*
X168017037Y-67370591D01*
X167346818Y-66700372D01*
X167313333Y-66639049D01*
X167313330Y-66639036D01*
X167310499Y-66626015D01*
X167310499Y-66602128D01*
X167304091Y-66542517D01*
X167275926Y-66467002D01*
X167253798Y-66407673D01*
X167253793Y-66407664D01*
X167167547Y-66292455D01*
X167167544Y-66292452D01*
X167052335Y-66206206D01*
X167052328Y-66206202D01*
X166917482Y-66155908D01*
X166917483Y-66155908D01*
X166857883Y-66149501D01*
X166857881Y-66149500D01*
X166857873Y-66149500D01*
X166857864Y-66149500D01*
X165062129Y-66149500D01*
X165062123Y-66149501D01*
X165002516Y-66155908D01*
X164867671Y-66206202D01*
X164867664Y-66206206D01*
X164752455Y-66292452D01*
X164752452Y-66292455D01*
X164666206Y-66407664D01*
X164666202Y-66407671D01*
X164615908Y-66542517D01*
X164609501Y-66602116D01*
X164609500Y-66602135D01*
X164609500Y-68397870D01*
X164609501Y-68397876D01*
X164615908Y-68457483D01*
X164666202Y-68592328D01*
X164666206Y-68592335D01*
X164752452Y-68707544D01*
X164752455Y-68707547D01*
X164867664Y-68793793D01*
X164867671Y-68793797D01*
X165002517Y-68844091D01*
X165002516Y-68844091D01*
X165009444Y-68844835D01*
X165062127Y-68850500D01*
X166857872Y-68850499D01*
X166917483Y-68844091D01*
X167052331Y-68793796D01*
X167167546Y-68707546D01*
X167253796Y-68592331D01*
X167304091Y-68457483D01*
X167310500Y-68397873D01*
X167310499Y-68373979D01*
X167313330Y-68360963D01*
X167323940Y-68341525D01*
X167330179Y-68320275D01*
X167346803Y-68299643D01*
X167346808Y-68299636D01*
X167346811Y-68299634D01*
X167346818Y-68299626D01*
X168017037Y-67629408D01*
X168034075Y-67692993D01*
X168099901Y-67807007D01*
X168192993Y-67900099D01*
X168307007Y-67965925D01*
X168370590Y-67982962D01*
X167738282Y-68615269D01*
X167738282Y-68615270D01*
X167792449Y-68654624D01*
X167981782Y-68751095D01*
X168183870Y-68816757D01*
X168393754Y-68850000D01*
X168606246Y-68850000D01*
X168816127Y-68816757D01*
X168816130Y-68816757D01*
X169018217Y-68751095D01*
X169207554Y-68654622D01*
X169261716Y-68615270D01*
X169261717Y-68615270D01*
X168629408Y-67982962D01*
X168692993Y-67965925D01*
X168807007Y-67900099D01*
X168900099Y-67807007D01*
X168965925Y-67692993D01*
X168982962Y-67629409D01*
X169615270Y-68261717D01*
X169615270Y-68261716D01*
X169654622Y-68207555D01*
X169659232Y-68198507D01*
X169707205Y-68147709D01*
X169775025Y-68130912D01*
X169841161Y-68153447D01*
X169880204Y-68198504D01*
X169884949Y-68207817D01*
X170009890Y-68379786D01*
X170160213Y-68530109D01*
X170332181Y-68655050D01*
X170346792Y-68662494D01*
X170397589Y-68710467D01*
X170414500Y-68772980D01*
X170414500Y-88749547D01*
X170394815Y-88816586D01*
X170378181Y-88837228D01*
X165827229Y-93388181D01*
X165765906Y-93421666D01*
X165739548Y-93424500D01*
X150285453Y-93424500D01*
X150218414Y-93404815D01*
X150197772Y-93388181D01*
X149396224Y-92586634D01*
X149385859Y-92576269D01*
X149385858Y-92576267D01*
X149298733Y-92489142D01*
X149233700Y-92445688D01*
X149196286Y-92420688D01*
X149196287Y-92420688D01*
X149196285Y-92420687D01*
X149112494Y-92385981D01*
X149112495Y-92385981D01*
X149104962Y-92382861D01*
X149082452Y-92373537D01*
X149022029Y-92361518D01*
X149018080Y-92360732D01*
X149018078Y-92360732D01*
X148961610Y-92349500D01*
X148961607Y-92349500D01*
X148961606Y-92349500D01*
X139442741Y-92349500D01*
X139442721Y-92349499D01*
X139436607Y-92349499D01*
X139313394Y-92349499D01*
X139212597Y-92369548D01*
X139212592Y-92369548D01*
X139192549Y-92373536D01*
X139192547Y-92373536D01*
X139145397Y-92393067D01*
X139078719Y-92420685D01*
X139078717Y-92420686D01*
X138976266Y-92489141D01*
X137684241Y-93781166D01*
X137622918Y-93814651D01*
X137553226Y-93809667D01*
X137497293Y-93767795D01*
X137474943Y-93717677D01*
X137469737Y-93691503D01*
X137469735Y-93691498D01*
X137409397Y-93545827D01*
X137409390Y-93545814D01*
X137321789Y-93414711D01*
X137321786Y-93414707D01*
X137210292Y-93303213D01*
X137210288Y-93303210D01*
X137079185Y-93215609D01*
X137079172Y-93215602D01*
X136933501Y-93155264D01*
X136933489Y-93155261D01*
X136778845Y-93124500D01*
X136778842Y-93124500D01*
X136621158Y-93124500D01*
X136621155Y-93124500D01*
X136466510Y-93155261D01*
X136466498Y-93155264D01*
X136320827Y-93215602D01*
X136320814Y-93215609D01*
X136189711Y-93303210D01*
X136189707Y-93303213D01*
X136078213Y-93414707D01*
X136078210Y-93414711D01*
X135990609Y-93545814D01*
X135990602Y-93545827D01*
X135930264Y-93691498D01*
X135930261Y-93691508D01*
X135899362Y-93846848D01*
X135866977Y-93908759D01*
X135865426Y-93910337D01*
X135112584Y-94663181D01*
X135051261Y-94696666D01*
X135024903Y-94699500D01*
X132804766Y-94699500D01*
X132737727Y-94679815D01*
X132735875Y-94678602D01*
X132604185Y-94590609D01*
X132604172Y-94590602D01*
X132458501Y-94530264D01*
X132458489Y-94530261D01*
X132303845Y-94499500D01*
X132303842Y-94499500D01*
X132198500Y-94499500D01*
X132131461Y-94479815D01*
X132085706Y-94427011D01*
X132074500Y-94375500D01*
X132074500Y-88768046D01*
X132094185Y-88701007D01*
X132146989Y-88655252D01*
X132174309Y-88646429D01*
X132203848Y-88640552D01*
X132308497Y-88619737D01*
X132454179Y-88559394D01*
X132585289Y-88471789D01*
X132585291Y-88471786D01*
X132589993Y-88467928D01*
X132591142Y-88469328D01*
X132644978Y-88439919D01*
X132714671Y-88444890D01*
X132718811Y-88446519D01*
X132769215Y-88467396D01*
X132845945Y-88499179D01*
X132957158Y-88521300D01*
X133019065Y-88553683D01*
X133020645Y-88555235D01*
X133821263Y-89355855D01*
X133821267Y-89355858D01*
X133923710Y-89424309D01*
X133923711Y-89424309D01*
X133923715Y-89424312D01*
X133990397Y-89451932D01*
X134037548Y-89471463D01*
X134057597Y-89475451D01*
X134122624Y-89488385D01*
X134158392Y-89495501D01*
X134158394Y-89495501D01*
X134287721Y-89495501D01*
X134287741Y-89495500D01*
X159414242Y-89495500D01*
X159481281Y-89515185D01*
X159501923Y-89531819D01*
X159620213Y-89650109D01*
X159792182Y-89775050D01*
X159800946Y-89779516D01*
X159851742Y-89827491D01*
X159868536Y-89895312D01*
X159845998Y-89961447D01*
X159800946Y-90000484D01*
X159792182Y-90004949D01*
X159620213Y-90129890D01*
X159469890Y-90280213D01*
X159344951Y-90452179D01*
X159248444Y-90641585D01*
X159248443Y-90641587D01*
X159248443Y-90641588D01*
X159215598Y-90742672D01*
X159182753Y-90843760D01*
X159149500Y-91053713D01*
X159149500Y-91266286D01*
X159182753Y-91476239D01*
X159248444Y-91678414D01*
X159344951Y-91867820D01*
X159469890Y-92039786D01*
X159620213Y-92190109D01*
X159792179Y-92315048D01*
X159792181Y-92315049D01*
X159792184Y-92315051D01*
X159981588Y-92411557D01*
X160183757Y-92477246D01*
X160393713Y-92510500D01*
X160393714Y-92510500D01*
X160606286Y-92510500D01*
X160606287Y-92510500D01*
X160816243Y-92477246D01*
X161018412Y-92411557D01*
X161207816Y-92315051D01*
X161255774Y-92280208D01*
X161379786Y-92190109D01*
X161379788Y-92190106D01*
X161379792Y-92190104D01*
X161530104Y-92039792D01*
X161530106Y-92039788D01*
X161530109Y-92039786D01*
X161655048Y-91867820D01*
X161655047Y-91867820D01*
X161655051Y-91867816D01*
X161751557Y-91678412D01*
X161817246Y-91476243D01*
X161850500Y-91266287D01*
X161850500Y-91053713D01*
X161817246Y-90843757D01*
X161751557Y-90641588D01*
X161655051Y-90452184D01*
X161655049Y-90452181D01*
X161655048Y-90452179D01*
X161530109Y-90280213D01*
X161379786Y-90129890D01*
X161207820Y-90004951D01*
X161207115Y-90004591D01*
X161199054Y-90000485D01*
X161148259Y-89952512D01*
X161131463Y-89884692D01*
X161153999Y-89818556D01*
X161199054Y-89779515D01*
X161207816Y-89775051D01*
X161294138Y-89712335D01*
X161379786Y-89650109D01*
X161379788Y-89650106D01*
X161379792Y-89650104D01*
X161530104Y-89499792D01*
X161530106Y-89499788D01*
X161530109Y-89499786D01*
X161655048Y-89327820D01*
X161655047Y-89327820D01*
X161655051Y-89327816D01*
X161751557Y-89138412D01*
X161817246Y-88936243D01*
X161850500Y-88726287D01*
X161850500Y-88513713D01*
X161817246Y-88303757D01*
X161751557Y-88101588D01*
X161655051Y-87912184D01*
X161655049Y-87912181D01*
X161655048Y-87912179D01*
X161530109Y-87740213D01*
X161379786Y-87589890D01*
X161207820Y-87464951D01*
X161207115Y-87464591D01*
X161199054Y-87460485D01*
X161148259Y-87412512D01*
X161131463Y-87344692D01*
X161153999Y-87278556D01*
X161199054Y-87239515D01*
X161207816Y-87235051D01*
X161255774Y-87200208D01*
X161379786Y-87110109D01*
X161379788Y-87110106D01*
X161379792Y-87110104D01*
X161530104Y-86959792D01*
X161530106Y-86959788D01*
X161530109Y-86959786D01*
X161655048Y-86787820D01*
X161655047Y-86787820D01*
X161655051Y-86787816D01*
X161751557Y-86598412D01*
X161817246Y-86396243D01*
X161850500Y-86186287D01*
X161850500Y-85973713D01*
X161817246Y-85763757D01*
X161751557Y-85561588D01*
X161655051Y-85372184D01*
X161655049Y-85372181D01*
X161655048Y-85372179D01*
X161530109Y-85200213D01*
X161379786Y-85049890D01*
X161207817Y-84924949D01*
X161198504Y-84920204D01*
X161147707Y-84872230D01*
X161130912Y-84804409D01*
X161153449Y-84738274D01*
X161198507Y-84699232D01*
X161207555Y-84694622D01*
X161261716Y-84655270D01*
X161261717Y-84655270D01*
X160629408Y-84022962D01*
X160692993Y-84005925D01*
X160807007Y-83940099D01*
X160900099Y-83847007D01*
X160965925Y-83732993D01*
X160982962Y-83669409D01*
X161615270Y-84301717D01*
X161615270Y-84301716D01*
X161654622Y-84247554D01*
X161751095Y-84058217D01*
X161816757Y-83856130D01*
X161816757Y-83856127D01*
X161850000Y-83646246D01*
X161850000Y-83433753D01*
X161816757Y-83223872D01*
X161816757Y-83223869D01*
X161751095Y-83021782D01*
X161654624Y-82832449D01*
X161615270Y-82778282D01*
X161615269Y-82778282D01*
X160982962Y-83410590D01*
X160965925Y-83347007D01*
X160900099Y-83232993D01*
X160807007Y-83139901D01*
X160692993Y-83074075D01*
X160629409Y-83057037D01*
X161261716Y-82424728D01*
X161207547Y-82385373D01*
X161207547Y-82385372D01*
X161198500Y-82380763D01*
X161147706Y-82332788D01*
X161130912Y-82264966D01*
X161153451Y-82198832D01*
X161198508Y-82159793D01*
X161207816Y-82155051D01*
X161294165Y-82092315D01*
X161379786Y-82030109D01*
X161379788Y-82030106D01*
X161379792Y-82030104D01*
X161530104Y-81879792D01*
X161530106Y-81879788D01*
X161530109Y-81879786D01*
X161655048Y-81707820D01*
X161655047Y-81707820D01*
X161655051Y-81707816D01*
X161751557Y-81518412D01*
X161817246Y-81316243D01*
X161850500Y-81106287D01*
X161850500Y-80893713D01*
X161817246Y-80683757D01*
X161751557Y-80481588D01*
X161655051Y-80292184D01*
X161655049Y-80292181D01*
X161655048Y-80292179D01*
X161530109Y-80120213D01*
X161416569Y-80006673D01*
X161383084Y-79945350D01*
X161388068Y-79875658D01*
X161429940Y-79819725D01*
X161460915Y-79802810D01*
X161592331Y-79753796D01*
X161707546Y-79667546D01*
X161793796Y-79552331D01*
X161844091Y-79417483D01*
X161850500Y-79357873D01*
X161850499Y-77562128D01*
X161844091Y-77502517D01*
X161793796Y-77367669D01*
X161793795Y-77367668D01*
X161793793Y-77367664D01*
X161707547Y-77252455D01*
X161707544Y-77252452D01*
X161592335Y-77166206D01*
X161592328Y-77166202D01*
X161457482Y-77115908D01*
X161457483Y-77115908D01*
X161397883Y-77109501D01*
X161397881Y-77109500D01*
X161397873Y-77109500D01*
X161397864Y-77109500D01*
X159602129Y-77109500D01*
X159602123Y-77109501D01*
X159542516Y-77115908D01*
X159407671Y-77166202D01*
X159407664Y-77166206D01*
X159292455Y-77252452D01*
X159292452Y-77252455D01*
X159206206Y-77367664D01*
X159206202Y-77367671D01*
X159155908Y-77502517D01*
X159149501Y-77562116D01*
X159149501Y-77562123D01*
X159149500Y-77562135D01*
X159149500Y-79357870D01*
X159149501Y-79357876D01*
X159155908Y-79417483D01*
X159206202Y-79552328D01*
X159206206Y-79552335D01*
X159292452Y-79667544D01*
X159292455Y-79667547D01*
X159407664Y-79753793D01*
X159407671Y-79753797D01*
X159539082Y-79802810D01*
X159595016Y-79844681D01*
X159619433Y-79910145D01*
X159604582Y-79978418D01*
X159583431Y-80006673D01*
X159469889Y-80120215D01*
X159344951Y-80292179D01*
X159248444Y-80481585D01*
X159182753Y-80683760D01*
X159149500Y-80893713D01*
X159149500Y-81106286D01*
X159181840Y-81310476D01*
X159182754Y-81316243D01*
X159196281Y-81357876D01*
X159248444Y-81518414D01*
X159344951Y-81707820D01*
X159469890Y-81879786D01*
X159620213Y-82030109D01*
X159792179Y-82155048D01*
X159792181Y-82155049D01*
X159792184Y-82155051D01*
X159801493Y-82159794D01*
X159852290Y-82207766D01*
X159869087Y-82275587D01*
X159846552Y-82341722D01*
X159801505Y-82380760D01*
X159792446Y-82385376D01*
X159792440Y-82385380D01*
X159738282Y-82424727D01*
X159738282Y-82424728D01*
X160370591Y-83057037D01*
X160307007Y-83074075D01*
X160192993Y-83139901D01*
X160099901Y-83232993D01*
X160034075Y-83347007D01*
X160017037Y-83410591D01*
X159384728Y-82778282D01*
X159384727Y-82778282D01*
X159345380Y-82832439D01*
X159248904Y-83021782D01*
X159247045Y-83026273D01*
X159245217Y-83025516D01*
X159210494Y-83076295D01*
X159146135Y-83103491D01*
X159077289Y-83091575D01*
X159044322Y-83067980D01*
X157286818Y-81310476D01*
X157253333Y-81249153D01*
X157250499Y-81222795D01*
X157250499Y-79449998D01*
X157250498Y-79449981D01*
X157239999Y-79347203D01*
X157239998Y-79347200D01*
X157184814Y-79180666D01*
X157092712Y-79031344D01*
X156968656Y-78907288D01*
X156875888Y-78850069D01*
X156819336Y-78815187D01*
X156819331Y-78815185D01*
X156817862Y-78814698D01*
X156652797Y-78760001D01*
X156652795Y-78760000D01*
X156550016Y-78749500D01*
X156550009Y-78749500D01*
X154857204Y-78749500D01*
X154790165Y-78729815D01*
X154769523Y-78713181D01*
X147516930Y-71460588D01*
X147516928Y-71460586D01*
X147376788Y-71358768D01*
X147222445Y-71280127D01*
X147057701Y-71226598D01*
X147057699Y-71226597D01*
X147057698Y-71226597D01*
X146926271Y-71205781D01*
X146886611Y-71199500D01*
X146713389Y-71199500D01*
X146673728Y-71205781D01*
X146542302Y-71226597D01*
X146377552Y-71280128D01*
X146223211Y-71358768D01*
X146143256Y-71416859D01*
X146083072Y-71460586D01*
X146083070Y-71460588D01*
X146083069Y-71460588D01*
X145960588Y-71583069D01*
X145960588Y-71583070D01*
X145960586Y-71583072D01*
X145916859Y-71643256D01*
X145858768Y-71723211D01*
X145780128Y-71877552D01*
X145726597Y-72042302D01*
X145699500Y-72213389D01*
X145699500Y-72386610D01*
X145713295Y-72473713D01*
X145726598Y-72557701D01*
X145780127Y-72722445D01*
X145858768Y-72876788D01*
X145960586Y-73016928D01*
X145960588Y-73016930D01*
X152713181Y-79769523D01*
X152746666Y-79830846D01*
X152749500Y-79857204D01*
X152749500Y-81550001D01*
X152749501Y-81550018D01*
X152760000Y-81652796D01*
X152760001Y-81652799D01*
X152793468Y-81753793D01*
X152815186Y-81819334D01*
X152907288Y-81968656D01*
X153031344Y-82092712D01*
X153180666Y-82184814D01*
X153347203Y-82239999D01*
X153449991Y-82250500D01*
X155062795Y-82250499D01*
X155129834Y-82270184D01*
X155150476Y-82286818D01*
X159139745Y-86276087D01*
X159173230Y-86337410D01*
X159174537Y-86344368D01*
X159182753Y-86396241D01*
X159182754Y-86396243D01*
X159229950Y-86541498D01*
X159248444Y-86598414D01*
X159344951Y-86787820D01*
X159469890Y-86959786D01*
X159620213Y-87110109D01*
X159792182Y-87235050D01*
X159800946Y-87239516D01*
X159851742Y-87287491D01*
X159868536Y-87355312D01*
X159845998Y-87421447D01*
X159800946Y-87460484D01*
X159792182Y-87464949D01*
X159620213Y-87589890D01*
X159469890Y-87740213D01*
X159344951Y-87912179D01*
X159248444Y-88101585D01*
X159229848Y-88158818D01*
X159190410Y-88216494D01*
X159126052Y-88243692D01*
X159111917Y-88244500D01*
X151239451Y-88244500D01*
X151172412Y-88224815D01*
X151126657Y-88172011D01*
X151116713Y-88102853D01*
X151145738Y-88039297D01*
X151151770Y-88032819D01*
X151656925Y-87527664D01*
X152258797Y-86925791D01*
X152320118Y-86892308D01*
X152322128Y-86891889D01*
X152433497Y-86869737D01*
X152579179Y-86809394D01*
X152710289Y-86721789D01*
X152821789Y-86610289D01*
X152909394Y-86479179D01*
X152969737Y-86333497D01*
X153000500Y-86178842D01*
X153000500Y-86021158D01*
X153000500Y-86021155D01*
X153000499Y-86021153D01*
X152991219Y-85974500D01*
X152969737Y-85866503D01*
X152961662Y-85847007D01*
X152909397Y-85720827D01*
X152909390Y-85720814D01*
X152821789Y-85589711D01*
X152821786Y-85589707D01*
X152710292Y-85478213D01*
X152710288Y-85478210D01*
X152579185Y-85390609D01*
X152579172Y-85390602D01*
X152433501Y-85330264D01*
X152433489Y-85330261D01*
X152278845Y-85299500D01*
X152278842Y-85299500D01*
X152121158Y-85299500D01*
X152121155Y-85299500D01*
X151966510Y-85330261D01*
X151966498Y-85330264D01*
X151820827Y-85390602D01*
X151820814Y-85390609D01*
X151689711Y-85478210D01*
X151689707Y-85478213D01*
X151578213Y-85589707D01*
X151578210Y-85589711D01*
X151490609Y-85720814D01*
X151490602Y-85720827D01*
X151430264Y-85866498D01*
X151430261Y-85866508D01*
X151408141Y-85977714D01*
X151375756Y-86039625D01*
X151374205Y-86041203D01*
X150277229Y-87138181D01*
X150215906Y-87171666D01*
X150189548Y-87174500D01*
X145311555Y-87174500D01*
X145244516Y-87154815D01*
X145198761Y-87102011D01*
X145188817Y-87032853D01*
X145193840Y-87014588D01*
X145192969Y-87014324D01*
X145194731Y-87008509D01*
X145194737Y-87008497D01*
X145225500Y-86853842D01*
X145225500Y-86696158D01*
X145225500Y-86696155D01*
X145225499Y-86696153D01*
X145225194Y-86694622D01*
X145194737Y-86541503D01*
X145134568Y-86396241D01*
X145134397Y-86395827D01*
X145134390Y-86395814D01*
X145046789Y-86264711D01*
X145046786Y-86264707D01*
X144935292Y-86153213D01*
X144935288Y-86153210D01*
X144804185Y-86065609D01*
X144804172Y-86065602D01*
X144658501Y-86005264D01*
X144658489Y-86005261D01*
X144503845Y-85974500D01*
X144503842Y-85974500D01*
X144346158Y-85974500D01*
X144346155Y-85974500D01*
X144191510Y-86005261D01*
X144191498Y-86005264D01*
X144045827Y-86065602D01*
X144045815Y-86065609D01*
X143951541Y-86128602D01*
X143884864Y-86149480D01*
X143882650Y-86149500D01*
X134959451Y-86149500D01*
X134892412Y-86129815D01*
X134846657Y-86077011D01*
X134836713Y-86007853D01*
X134865738Y-85944297D01*
X134871770Y-85937819D01*
X135462583Y-85347007D01*
X136997771Y-83811819D01*
X137059094Y-83778334D01*
X137085452Y-83775500D01*
X143092059Y-83775500D01*
X143159098Y-83795185D01*
X143179740Y-83811819D01*
X143189707Y-83821786D01*
X143189711Y-83821789D01*
X143320814Y-83909390D01*
X143320827Y-83909397D01*
X143466498Y-83969735D01*
X143466503Y-83969737D01*
X143621153Y-84000499D01*
X143621156Y-84000500D01*
X143621158Y-84000500D01*
X143778844Y-84000500D01*
X143778845Y-84000499D01*
X143933497Y-83969737D01*
X144079179Y-83909394D01*
X144210289Y-83821789D01*
X144321789Y-83710289D01*
X144409394Y-83579179D01*
X144469737Y-83433497D01*
X144500500Y-83278842D01*
X144500500Y-83121158D01*
X144500500Y-83121155D01*
X144500499Y-83121153D01*
X144496986Y-83103491D01*
X144469737Y-82966503D01*
X144439587Y-82893713D01*
X144409397Y-82820827D01*
X144409390Y-82820814D01*
X144321789Y-82689711D01*
X144321786Y-82689707D01*
X144210292Y-82578213D01*
X144210288Y-82578210D01*
X144079185Y-82490609D01*
X144079172Y-82490602D01*
X143933501Y-82430264D01*
X143933489Y-82430261D01*
X143778845Y-82399500D01*
X143778842Y-82399500D01*
X143621158Y-82399500D01*
X143621155Y-82399500D01*
X143466510Y-82430261D01*
X143466498Y-82430264D01*
X143320827Y-82490602D01*
X143320813Y-82490610D01*
X143301372Y-82503601D01*
X143234695Y-82524480D01*
X143232480Y-82524500D01*
X136713389Y-82524500D01*
X136592553Y-82548535D01*
X136592541Y-82548539D01*
X136560262Y-82561909D01*
X136545397Y-82568067D01*
X136523169Y-82577274D01*
X136478713Y-82595688D01*
X136468557Y-82602475D01*
X136468449Y-82602547D01*
X136376268Y-82664140D01*
X136350702Y-82689707D01*
X136289142Y-82751267D01*
X132286181Y-86754228D01*
X132224858Y-86787713D01*
X132155166Y-86782729D01*
X132099233Y-86740857D01*
X132074816Y-86675393D01*
X132074500Y-86666547D01*
X132074500Y-81549986D01*
X146250001Y-81549986D01*
X146260494Y-81652697D01*
X146315641Y-81819119D01*
X146315643Y-81819124D01*
X146407684Y-81968345D01*
X146531654Y-82092315D01*
X146680875Y-82184356D01*
X146680880Y-82184358D01*
X146847302Y-82239505D01*
X146847309Y-82239506D01*
X146950019Y-82249999D01*
X148249999Y-82249999D01*
X148750000Y-82249999D01*
X150049972Y-82249999D01*
X150049986Y-82249998D01*
X150152697Y-82239505D01*
X150319119Y-82184358D01*
X150319124Y-82184356D01*
X150468345Y-82092315D01*
X150592315Y-81968345D01*
X150684356Y-81819124D01*
X150684358Y-81819119D01*
X150739505Y-81652697D01*
X150739506Y-81652690D01*
X150749999Y-81549986D01*
X150750000Y-81549973D01*
X150750000Y-80750000D01*
X148750000Y-80750000D01*
X148750000Y-82249999D01*
X148249999Y-82249999D01*
X148250000Y-82249998D01*
X148250000Y-80750000D01*
X146250001Y-80750000D01*
X146250001Y-81549986D01*
X132074500Y-81549986D01*
X132074500Y-79450013D01*
X146250000Y-79450013D01*
X146250000Y-80250000D01*
X148250000Y-80250000D01*
X148750000Y-80250000D01*
X150749999Y-80250000D01*
X150749999Y-79450028D01*
X150749998Y-79450013D01*
X150739505Y-79347302D01*
X150684358Y-79180880D01*
X150684356Y-79180875D01*
X150592315Y-79031654D01*
X150468345Y-78907684D01*
X150319124Y-78815643D01*
X150319119Y-78815641D01*
X150152697Y-78760494D01*
X150152690Y-78760493D01*
X150049986Y-78750000D01*
X148750000Y-78750000D01*
X148750000Y-80250000D01*
X148250000Y-80250000D01*
X148250000Y-78750000D01*
X146950028Y-78750000D01*
X146950012Y-78750001D01*
X146847302Y-78760494D01*
X146680880Y-78815641D01*
X146680875Y-78815643D01*
X146531654Y-78907684D01*
X146407684Y-79031654D01*
X146315643Y-79180875D01*
X146315641Y-79180880D01*
X146260494Y-79347302D01*
X146260493Y-79347309D01*
X146250000Y-79450013D01*
X132074500Y-79450013D01*
X132074500Y-78937393D01*
X132074499Y-78937389D01*
X132050463Y-78816548D01*
X132022691Y-78749500D01*
X132003312Y-78702715D01*
X131986256Y-78677190D01*
X131934858Y-78600267D01*
X131847733Y-78513142D01*
X131847729Y-78513139D01*
X123701819Y-70367229D01*
X123668334Y-70305906D01*
X123665500Y-70279548D01*
X123665500Y-68772980D01*
X123685185Y-68705941D01*
X123733208Y-68662494D01*
X123747818Y-68655050D01*
X123919786Y-68530109D01*
X123919788Y-68530106D01*
X123919792Y-68530104D01*
X124070104Y-68379792D01*
X124070106Y-68379788D01*
X124070109Y-68379786D01*
X124195048Y-68207820D01*
X124195050Y-68207817D01*
X124195051Y-68207816D01*
X124291557Y-68018412D01*
X124357246Y-67816243D01*
X124390500Y-67606287D01*
X124390500Y-67393713D01*
X124357246Y-67183757D01*
X124291557Y-66981588D01*
X124195051Y-66792184D01*
X124155889Y-66738282D01*
X124107511Y-66671694D01*
X124107508Y-66671691D01*
X124083792Y-66639049D01*
X124070104Y-66620208D01*
X124052031Y-66602135D01*
X129609500Y-66602135D01*
X129609500Y-68397870D01*
X129609501Y-68397876D01*
X129615908Y-68457483D01*
X129666202Y-68592328D01*
X129666206Y-68592335D01*
X129752452Y-68707544D01*
X129752455Y-68707547D01*
X129867664Y-68793793D01*
X129867671Y-68793797D01*
X129999082Y-68842810D01*
X130055016Y-68884681D01*
X130079433Y-68950145D01*
X130064582Y-69018418D01*
X130043431Y-69046673D01*
X129929889Y-69160215D01*
X129804951Y-69332179D01*
X129708444Y-69521585D01*
X129642753Y-69723760D01*
X129609500Y-69933713D01*
X129609500Y-70146286D01*
X129642735Y-70356127D01*
X129642754Y-70356243D01*
X129703088Y-70541932D01*
X129708444Y-70558414D01*
X129804951Y-70747820D01*
X129929890Y-70919786D01*
X130080213Y-71070109D01*
X130252182Y-71195050D01*
X130260946Y-71199516D01*
X130311742Y-71247491D01*
X130328536Y-71315312D01*
X130305998Y-71381447D01*
X130260946Y-71420484D01*
X130252182Y-71424949D01*
X130080213Y-71549890D01*
X129929890Y-71700213D01*
X129804951Y-71872179D01*
X129708444Y-72061585D01*
X129642753Y-72263760D01*
X129609500Y-72473713D01*
X129609500Y-72686286D01*
X129639672Y-72876788D01*
X129642754Y-72896243D01*
X129681967Y-73016929D01*
X129708444Y-73098414D01*
X129804951Y-73287820D01*
X129929890Y-73459786D01*
X130080213Y-73610109D01*
X130252179Y-73735048D01*
X130252181Y-73735049D01*
X130252184Y-73735051D01*
X130441588Y-73831557D01*
X130643757Y-73897246D01*
X130853713Y-73930500D01*
X130853714Y-73930500D01*
X131066286Y-73930500D01*
X131066287Y-73930500D01*
X131276243Y-73897246D01*
X131478412Y-73831557D01*
X131667816Y-73735051D01*
X131689789Y-73719086D01*
X131839786Y-73610109D01*
X131839788Y-73610106D01*
X131839792Y-73610104D01*
X131990104Y-73459792D01*
X131990106Y-73459788D01*
X131990109Y-73459786D01*
X132115048Y-73287820D01*
X132115047Y-73287820D01*
X132115051Y-73287816D01*
X132119514Y-73279054D01*
X132167488Y-73228259D01*
X132235308Y-73211463D01*
X132301444Y-73233999D01*
X132340486Y-73279056D01*
X132344951Y-73287820D01*
X132469890Y-73459786D01*
X132620213Y-73610109D01*
X132792179Y-73735048D01*
X132792181Y-73735049D01*
X132792184Y-73735051D01*
X132981588Y-73831557D01*
X133183757Y-73897246D01*
X133393713Y-73930500D01*
X133393714Y-73930500D01*
X133606286Y-73930500D01*
X133606287Y-73930500D01*
X133816243Y-73897246D01*
X134018412Y-73831557D01*
X134207816Y-73735051D01*
X134229789Y-73719086D01*
X134379786Y-73610109D01*
X134379788Y-73610106D01*
X134379792Y-73610104D01*
X134530104Y-73459792D01*
X134530106Y-73459788D01*
X134530109Y-73459786D01*
X134655048Y-73287820D01*
X134655047Y-73287820D01*
X134655051Y-73287816D01*
X134751557Y-73098412D01*
X134817246Y-72896243D01*
X134850500Y-72686287D01*
X134850500Y-72473713D01*
X134817246Y-72263757D01*
X134751557Y-72061588D01*
X134655051Y-71872184D01*
X134655049Y-71872181D01*
X134655048Y-71872179D01*
X134530109Y-71700213D01*
X134379786Y-71549890D01*
X134207820Y-71424951D01*
X134207115Y-71424591D01*
X134199054Y-71420485D01*
X134148259Y-71372512D01*
X134131463Y-71304692D01*
X134153999Y-71238556D01*
X134199054Y-71199515D01*
X134207816Y-71195051D01*
X134262572Y-71155269D01*
X134379786Y-71070109D01*
X134379788Y-71070106D01*
X134379792Y-71070104D01*
X134530104Y-70919792D01*
X134530106Y-70919788D01*
X134530109Y-70919786D01*
X134655048Y-70747820D01*
X134655047Y-70747820D01*
X134655051Y-70747816D01*
X134751557Y-70558412D01*
X134817246Y-70356243D01*
X134850500Y-70146287D01*
X134850500Y-69933713D01*
X134817246Y-69723757D01*
X134751557Y-69521588D01*
X134655051Y-69332184D01*
X134655049Y-69332181D01*
X134655048Y-69332179D01*
X134530109Y-69160213D01*
X134379786Y-69009890D01*
X134207817Y-68884949D01*
X134198504Y-68880204D01*
X134147707Y-68832230D01*
X134130912Y-68764409D01*
X134153449Y-68698274D01*
X134198507Y-68659232D01*
X134207555Y-68654622D01*
X134261716Y-68615270D01*
X134261717Y-68615270D01*
X133629408Y-67982962D01*
X133692993Y-67965925D01*
X133807007Y-67900099D01*
X133900099Y-67807007D01*
X133965925Y-67692993D01*
X133982962Y-67629409D01*
X134615270Y-68261717D01*
X134615270Y-68261716D01*
X134654622Y-68207554D01*
X134751095Y-68018217D01*
X134816757Y-67816130D01*
X134816757Y-67816127D01*
X134850000Y-67606246D01*
X134850000Y-67393753D01*
X134849994Y-67393713D01*
X137649500Y-67393713D01*
X137649500Y-67606286D01*
X137682735Y-67816127D01*
X137682754Y-67816243D01*
X137732617Y-67969706D01*
X137748444Y-68018414D01*
X137844951Y-68207820D01*
X137969890Y-68379786D01*
X138120213Y-68530109D01*
X138292182Y-68655050D01*
X138300946Y-68659516D01*
X138351742Y-68707491D01*
X138368536Y-68775312D01*
X138345998Y-68841447D01*
X138300946Y-68880484D01*
X138292182Y-68884949D01*
X138120213Y-69009890D01*
X137969890Y-69160213D01*
X137844951Y-69332179D01*
X137748444Y-69521585D01*
X137682753Y-69723760D01*
X137649500Y-69933713D01*
X137649500Y-70146286D01*
X137682735Y-70356127D01*
X137682754Y-70356243D01*
X137743088Y-70541932D01*
X137748444Y-70558414D01*
X137844951Y-70747820D01*
X137969890Y-70919786D01*
X138120213Y-71070109D01*
X138292179Y-71195048D01*
X138292181Y-71195049D01*
X138292184Y-71195051D01*
X138481588Y-71291557D01*
X138683757Y-71357246D01*
X138893713Y-71390500D01*
X138893714Y-71390500D01*
X139106286Y-71390500D01*
X139106287Y-71390500D01*
X139316243Y-71357246D01*
X139518412Y-71291557D01*
X139707816Y-71195051D01*
X139762572Y-71155269D01*
X139879786Y-71070109D01*
X139879788Y-71070106D01*
X139879792Y-71070104D01*
X140030104Y-70919792D01*
X140030106Y-70919788D01*
X140030109Y-70919786D01*
X140155048Y-70747820D01*
X140155047Y-70747820D01*
X140155051Y-70747816D01*
X140159514Y-70739054D01*
X140207488Y-70688259D01*
X140275308Y-70671463D01*
X140341444Y-70693999D01*
X140380486Y-70739056D01*
X140384951Y-70747820D01*
X140509890Y-70919786D01*
X140660213Y-71070109D01*
X140832179Y-71195048D01*
X140832181Y-71195049D01*
X140832184Y-71195051D01*
X141021588Y-71291557D01*
X141223757Y-71357246D01*
X141433713Y-71390500D01*
X141433714Y-71390500D01*
X141646286Y-71390500D01*
X141646287Y-71390500D01*
X141856243Y-71357246D01*
X142058412Y-71291557D01*
X142247816Y-71195051D01*
X142302572Y-71155269D01*
X142419786Y-71070109D01*
X142419788Y-71070106D01*
X142419792Y-71070104D01*
X142570104Y-70919792D01*
X142570106Y-70919788D01*
X142570109Y-70919786D01*
X142655890Y-70801717D01*
X142695051Y-70747816D01*
X142699793Y-70738508D01*
X142747763Y-70687711D01*
X142815583Y-70670911D01*
X142881719Y-70693445D01*
X142920763Y-70738500D01*
X142925373Y-70747547D01*
X142964728Y-70801716D01*
X143597037Y-70169408D01*
X143614075Y-70232993D01*
X143679901Y-70347007D01*
X143772993Y-70440099D01*
X143887007Y-70505925D01*
X143950590Y-70522962D01*
X143318282Y-71155269D01*
X143318282Y-71155270D01*
X143372449Y-71194624D01*
X143561782Y-71291095D01*
X143763870Y-71356757D01*
X143973754Y-71390000D01*
X144186246Y-71390000D01*
X144396127Y-71356757D01*
X144396130Y-71356757D01*
X144598217Y-71291095D01*
X144787554Y-71194622D01*
X144841716Y-71155270D01*
X144841717Y-71155270D01*
X144209408Y-70522962D01*
X144272993Y-70505925D01*
X144387007Y-70440099D01*
X144480099Y-70347007D01*
X144545925Y-70232993D01*
X144562962Y-70169409D01*
X145195270Y-70801717D01*
X145195270Y-70801716D01*
X145234622Y-70747554D01*
X145331095Y-70558217D01*
X145396757Y-70356130D01*
X145396757Y-70356127D01*
X145430000Y-70146246D01*
X145430000Y-69933753D01*
X145396757Y-69723872D01*
X145396757Y-69723869D01*
X145331095Y-69521782D01*
X145234624Y-69332449D01*
X145195270Y-69278282D01*
X145195269Y-69278282D01*
X144562962Y-69910590D01*
X144545925Y-69847007D01*
X144480099Y-69732993D01*
X144387007Y-69639901D01*
X144272993Y-69574075D01*
X144209409Y-69557037D01*
X144879627Y-68886818D01*
X144940950Y-68853333D01*
X144967307Y-68850499D01*
X144977872Y-68850499D01*
X145037483Y-68844091D01*
X145172331Y-68793796D01*
X145287546Y-68707546D01*
X145373796Y-68592331D01*
X145424091Y-68457483D01*
X145430500Y-68397873D01*
X145430499Y-66602128D01*
X145424091Y-66542517D01*
X145422810Y-66539083D01*
X145373797Y-66407671D01*
X145373793Y-66407664D01*
X145287547Y-66292455D01*
X145287544Y-66292452D01*
X145172335Y-66206206D01*
X145172328Y-66206202D01*
X145037482Y-66155908D01*
X145037483Y-66155908D01*
X144977883Y-66149501D01*
X144977881Y-66149500D01*
X144977873Y-66149500D01*
X144977864Y-66149500D01*
X143182129Y-66149500D01*
X143182123Y-66149501D01*
X143122516Y-66155908D01*
X142987671Y-66206202D01*
X142987664Y-66206206D01*
X142872455Y-66292452D01*
X142872452Y-66292455D01*
X142786206Y-66407664D01*
X142786203Y-66407669D01*
X142737189Y-66539083D01*
X142695317Y-66595016D01*
X142629853Y-66619433D01*
X142561580Y-66604581D01*
X142533326Y-66583430D01*
X142419786Y-66469890D01*
X142247820Y-66344951D01*
X142058414Y-66248444D01*
X142058413Y-66248443D01*
X142058412Y-66248443D01*
X141856243Y-66182754D01*
X141856241Y-66182753D01*
X141856240Y-66182753D01*
X141694957Y-66157208D01*
X141646287Y-66149500D01*
X141433713Y-66149500D01*
X141385042Y-66157208D01*
X141223760Y-66182753D01*
X141021585Y-66248444D01*
X140832179Y-66344951D01*
X140660213Y-66469890D01*
X140509890Y-66620213D01*
X140384949Y-66792182D01*
X140380484Y-66800946D01*
X140332509Y-66851742D01*
X140264688Y-66868536D01*
X140198553Y-66845998D01*
X140159516Y-66800946D01*
X140155050Y-66792182D01*
X140030109Y-66620213D01*
X139879786Y-66469890D01*
X139707820Y-66344951D01*
X139518414Y-66248444D01*
X139518413Y-66248443D01*
X139518412Y-66248443D01*
X139316243Y-66182754D01*
X139316241Y-66182753D01*
X139316240Y-66182753D01*
X139154957Y-66157208D01*
X139106287Y-66149500D01*
X138893713Y-66149500D01*
X138845042Y-66157208D01*
X138683760Y-66182753D01*
X138481585Y-66248444D01*
X138292179Y-66344951D01*
X138120213Y-66469890D01*
X137969890Y-66620213D01*
X137844951Y-66792179D01*
X137748444Y-66981585D01*
X137682753Y-67183760D01*
X137649500Y-67393713D01*
X134849994Y-67393713D01*
X134816757Y-67183872D01*
X134816757Y-67183869D01*
X134751095Y-66981782D01*
X134654624Y-66792449D01*
X134615270Y-66738282D01*
X134615269Y-66738282D01*
X133982962Y-67370590D01*
X133965925Y-67307007D01*
X133900099Y-67192993D01*
X133807007Y-67099901D01*
X133692993Y-67034075D01*
X133629409Y-67017037D01*
X134261716Y-66384728D01*
X134207550Y-66345375D01*
X134018217Y-66248904D01*
X133816129Y-66183242D01*
X133606246Y-66150000D01*
X133393754Y-66150000D01*
X133183872Y-66183242D01*
X133183869Y-66183242D01*
X132981782Y-66248904D01*
X132792439Y-66345380D01*
X132738282Y-66384727D01*
X132738282Y-66384728D01*
X133370591Y-67017037D01*
X133307007Y-67034075D01*
X133192993Y-67099901D01*
X133099901Y-67192993D01*
X133034075Y-67307007D01*
X133017037Y-67370591D01*
X132346818Y-66700372D01*
X132313333Y-66639049D01*
X132313330Y-66639036D01*
X132310499Y-66626015D01*
X132310499Y-66602128D01*
X132304091Y-66542517D01*
X132275926Y-66467002D01*
X132253798Y-66407673D01*
X132253793Y-66407664D01*
X132167547Y-66292455D01*
X132167544Y-66292452D01*
X132052335Y-66206206D01*
X132052328Y-66206202D01*
X131917482Y-66155908D01*
X131917483Y-66155908D01*
X131857883Y-66149501D01*
X131857881Y-66149500D01*
X131857873Y-66149500D01*
X131857864Y-66149500D01*
X130062129Y-66149500D01*
X130062123Y-66149501D01*
X130002516Y-66155908D01*
X129867671Y-66206202D01*
X129867664Y-66206206D01*
X129752455Y-66292452D01*
X129752452Y-66292455D01*
X129666206Y-66407664D01*
X129666202Y-66407671D01*
X129615908Y-66542517D01*
X129609501Y-66602116D01*
X129609500Y-66602135D01*
X124052031Y-66602135D01*
X123919792Y-66469896D01*
X123919786Y-66469890D01*
X123747820Y-66344951D01*
X123558414Y-66248444D01*
X123558413Y-66248443D01*
X123558412Y-66248443D01*
X123356243Y-66182754D01*
X123356241Y-66182753D01*
X123356240Y-66182753D01*
X123194957Y-66157208D01*
X123146287Y-66149500D01*
X122933713Y-66149500D01*
X122885042Y-66157208D01*
X122723760Y-66182753D01*
X122521585Y-66248444D01*
X122332179Y-66344951D01*
X122160213Y-66469890D01*
X122009890Y-66620213D01*
X121884949Y-66792182D01*
X121880484Y-66800946D01*
X121832509Y-66851742D01*
X121764688Y-66868536D01*
X121698553Y-66845998D01*
X121659516Y-66800946D01*
X121655050Y-66792182D01*
X121530109Y-66620213D01*
X121379786Y-66469890D01*
X121207820Y-66344951D01*
X121018414Y-66248444D01*
X121018413Y-66248443D01*
X121018412Y-66248443D01*
X120816243Y-66182754D01*
X120816241Y-66182753D01*
X120816240Y-66182753D01*
X120654957Y-66157208D01*
X120606287Y-66149500D01*
X120393713Y-66149500D01*
X120345042Y-66157208D01*
X120183760Y-66182753D01*
X119981585Y-66248444D01*
X119792179Y-66344951D01*
X119620213Y-66469890D01*
X119469890Y-66620213D01*
X119344949Y-66792182D01*
X119340202Y-66801499D01*
X119292227Y-66852293D01*
X119224405Y-66869087D01*
X119158271Y-66846548D01*
X119119234Y-66801495D01*
X119114626Y-66792452D01*
X119075270Y-66738282D01*
X119075269Y-66738282D01*
X118442962Y-67370590D01*
X118425925Y-67307007D01*
X118360099Y-67192993D01*
X118267007Y-67099901D01*
X118152993Y-67034075D01*
X118089409Y-67017037D01*
X118721716Y-66384728D01*
X118667550Y-66345375D01*
X118478217Y-66248904D01*
X118276129Y-66183242D01*
X118066246Y-66150000D01*
X117853754Y-66150000D01*
X117643872Y-66183242D01*
X117643869Y-66183242D01*
X117441782Y-66248904D01*
X117252439Y-66345380D01*
X117198282Y-66384727D01*
X117198282Y-66384728D01*
X117830591Y-67017037D01*
X117767007Y-67034075D01*
X117652993Y-67099901D01*
X117559901Y-67192993D01*
X117494075Y-67307007D01*
X117477037Y-67370591D01*
X116806818Y-66700372D01*
X116773333Y-66639049D01*
X116773330Y-66639036D01*
X116770499Y-66626015D01*
X116770499Y-66602128D01*
X116764091Y-66542517D01*
X116735926Y-66467002D01*
X116713798Y-66407673D01*
X116713793Y-66407664D01*
X116627547Y-66292455D01*
X116627544Y-66292452D01*
X116512335Y-66206206D01*
X116512328Y-66206202D01*
X116377482Y-66155908D01*
X116377483Y-66155908D01*
X116317883Y-66149501D01*
X116317881Y-66149500D01*
X116317873Y-66149500D01*
X116317864Y-66149500D01*
X114522129Y-66149500D01*
X114522123Y-66149501D01*
X114462516Y-66155908D01*
X114327671Y-66206202D01*
X114327664Y-66206206D01*
X114212455Y-66292452D01*
X114212452Y-66292455D01*
X114126206Y-66407664D01*
X114126202Y-66407671D01*
X114075908Y-66542517D01*
X114069501Y-66602116D01*
X114069500Y-66602135D01*
X105500500Y-66602135D01*
X105500500Y-65624500D01*
X105520185Y-65557461D01*
X105572989Y-65511706D01*
X105624500Y-65500500D01*
X184375500Y-65500500D01*
X184442539Y-65520185D01*
G37*
%TD.AperFunction*%
%TD*%
M02*
