%TF.GenerationSoftware,KiCad,Pcbnew,9.0.5*%
%TF.CreationDate,2026-04-24T16:33:20+02:00*%
%TF.ProjectId,pg-id656,70672d69-6436-4353-962e-6b696361645f,5*%
%TF.SameCoordinates,Original*%
%TF.FileFunction,Legend,Bot*%
%TF.FilePolarity,Positive*%
%FSLAX46Y46*%
G04 Gerber Fmt 4.6, Leading zero omitted, Abs format (unit mm)*
G04 Created by KiCad (PCBNEW 9.0.5) date 2026-04-24 16:33:20*
%MOMM*%
%LPD*%
G01*
G04 APERTURE LIST*
%ADD10C,0.200000*%
%ADD11C,0.250000*%
%ADD12C,0.150000*%
%ADD13C,0.100000*%
%ADD14C,0.120000*%
%ADD15C,0.127000*%
%ADD16C,0.304800*%
G04 APERTURE END LIST*
D10*
X171310000Y-106410000D02*
G75*
G02*
X170310000Y-106410000I-500000J0D01*
G01*
X170310000Y-106410000D02*
G75*
G02*
X171310000Y-106410000I500000J0D01*
G01*
X169060100Y-106410000D02*
G75*
G02*
X168059900Y-106410000I-500100J0D01*
G01*
X168059900Y-106410000D02*
G75*
G02*
X169060100Y-106410000I500100J0D01*
G01*
D11*
X172828926Y-106560000D02*
G75*
G02*
X166591074Y-106560000I-3118926J0D01*
G01*
X166591074Y-106560000D02*
G75*
G02*
X172828926Y-106560000I3118926J0D01*
G01*
D10*
X169190000Y-107800000D02*
G75*
G02*
X170250000Y-107800000I530000J0D01*
G01*
X139677945Y-88019600D02*
X139535088Y-88067219D01*
X139535088Y-88067219D02*
X139296993Y-88067219D01*
X139296993Y-88067219D02*
X139201755Y-88019600D01*
X139201755Y-88019600D02*
X139154136Y-87971980D01*
X139154136Y-87971980D02*
X139106517Y-87876742D01*
X139106517Y-87876742D02*
X139106517Y-87781504D01*
X139106517Y-87781504D02*
X139154136Y-87686266D01*
X139154136Y-87686266D02*
X139201755Y-87638647D01*
X139201755Y-87638647D02*
X139296993Y-87591028D01*
X139296993Y-87591028D02*
X139487469Y-87543409D01*
X139487469Y-87543409D02*
X139582707Y-87495790D01*
X139582707Y-87495790D02*
X139630326Y-87448171D01*
X139630326Y-87448171D02*
X139677945Y-87352933D01*
X139677945Y-87352933D02*
X139677945Y-87257695D01*
X139677945Y-87257695D02*
X139630326Y-87162457D01*
X139630326Y-87162457D02*
X139582707Y-87114838D01*
X139582707Y-87114838D02*
X139487469Y-87067219D01*
X139487469Y-87067219D02*
X139249374Y-87067219D01*
X139249374Y-87067219D02*
X139106517Y-87114838D01*
X138820802Y-87067219D02*
X138249374Y-87067219D01*
X138535088Y-88067219D02*
X138535088Y-87067219D01*
X137916040Y-88067219D02*
X137916040Y-87067219D01*
X137916040Y-87067219D02*
X137582707Y-87781504D01*
X137582707Y-87781504D02*
X137249374Y-87067219D01*
X137249374Y-87067219D02*
X137249374Y-88067219D01*
X136868421Y-87067219D02*
X136249374Y-87067219D01*
X136249374Y-87067219D02*
X136582707Y-87448171D01*
X136582707Y-87448171D02*
X136439850Y-87448171D01*
X136439850Y-87448171D02*
X136344612Y-87495790D01*
X136344612Y-87495790D02*
X136296993Y-87543409D01*
X136296993Y-87543409D02*
X136249374Y-87638647D01*
X136249374Y-87638647D02*
X136249374Y-87876742D01*
X136249374Y-87876742D02*
X136296993Y-87971980D01*
X136296993Y-87971980D02*
X136344612Y-88019600D01*
X136344612Y-88019600D02*
X136439850Y-88067219D01*
X136439850Y-88067219D02*
X136725564Y-88067219D01*
X136725564Y-88067219D02*
X136820802Y-88019600D01*
X136820802Y-88019600D02*
X136868421Y-87971980D01*
X135868421Y-87162457D02*
X135820802Y-87114838D01*
X135820802Y-87114838D02*
X135725564Y-87067219D01*
X135725564Y-87067219D02*
X135487469Y-87067219D01*
X135487469Y-87067219D02*
X135392231Y-87114838D01*
X135392231Y-87114838D02*
X135344612Y-87162457D01*
X135344612Y-87162457D02*
X135296993Y-87257695D01*
X135296993Y-87257695D02*
X135296993Y-87352933D01*
X135296993Y-87352933D02*
X135344612Y-87495790D01*
X135344612Y-87495790D02*
X135916040Y-88067219D01*
X135916040Y-88067219D02*
X135296993Y-88067219D01*
X134392231Y-88067219D02*
X134868421Y-88067219D01*
X134868421Y-88067219D02*
X134868421Y-87067219D01*
X133630326Y-87400552D02*
X133630326Y-88067219D01*
X133868421Y-87019600D02*
X134106516Y-87733885D01*
X134106516Y-87733885D02*
X133487469Y-87733885D01*
X133201754Y-87067219D02*
X132535088Y-87067219D01*
X132535088Y-87067219D02*
X132963659Y-88067219D01*
X131725564Y-87067219D02*
X131916040Y-87067219D01*
X131916040Y-87067219D02*
X132011278Y-87114838D01*
X132011278Y-87114838D02*
X132058897Y-87162457D01*
X132058897Y-87162457D02*
X132154135Y-87305314D01*
X132154135Y-87305314D02*
X132201754Y-87495790D01*
X132201754Y-87495790D02*
X132201754Y-87876742D01*
X132201754Y-87876742D02*
X132154135Y-87971980D01*
X132154135Y-87971980D02*
X132106516Y-88019600D01*
X132106516Y-88019600D02*
X132011278Y-88067219D01*
X132011278Y-88067219D02*
X131820802Y-88067219D01*
X131820802Y-88067219D02*
X131725564Y-88019600D01*
X131725564Y-88019600D02*
X131677945Y-87971980D01*
X131677945Y-87971980D02*
X131630326Y-87876742D01*
X131630326Y-87876742D02*
X131630326Y-87638647D01*
X131630326Y-87638647D02*
X131677945Y-87543409D01*
X131677945Y-87543409D02*
X131725564Y-87495790D01*
X131725564Y-87495790D02*
X131820802Y-87448171D01*
X131820802Y-87448171D02*
X132011278Y-87448171D01*
X132011278Y-87448171D02*
X132106516Y-87495790D01*
X132106516Y-87495790D02*
X132154135Y-87543409D01*
X132154135Y-87543409D02*
X132201754Y-87638647D01*
X130630326Y-88067219D02*
X130963659Y-87591028D01*
X131201754Y-88067219D02*
X131201754Y-87067219D01*
X131201754Y-87067219D02*
X130820802Y-87067219D01*
X130820802Y-87067219D02*
X130725564Y-87114838D01*
X130725564Y-87114838D02*
X130677945Y-87162457D01*
X130677945Y-87162457D02*
X130630326Y-87257695D01*
X130630326Y-87257695D02*
X130630326Y-87400552D01*
X130630326Y-87400552D02*
X130677945Y-87495790D01*
X130677945Y-87495790D02*
X130725564Y-87543409D01*
X130725564Y-87543409D02*
X130820802Y-87591028D01*
X130820802Y-87591028D02*
X131201754Y-87591028D01*
X129677945Y-87114838D02*
X129773183Y-87067219D01*
X129773183Y-87067219D02*
X129916040Y-87067219D01*
X129916040Y-87067219D02*
X130058897Y-87114838D01*
X130058897Y-87114838D02*
X130154135Y-87210076D01*
X130154135Y-87210076D02*
X130201754Y-87305314D01*
X130201754Y-87305314D02*
X130249373Y-87495790D01*
X130249373Y-87495790D02*
X130249373Y-87638647D01*
X130249373Y-87638647D02*
X130201754Y-87829123D01*
X130201754Y-87829123D02*
X130154135Y-87924361D01*
X130154135Y-87924361D02*
X130058897Y-88019600D01*
X130058897Y-88019600D02*
X129916040Y-88067219D01*
X129916040Y-88067219D02*
X129820802Y-88067219D01*
X129820802Y-88067219D02*
X129677945Y-88019600D01*
X129677945Y-88019600D02*
X129630326Y-87971980D01*
X129630326Y-87971980D02*
X129630326Y-87638647D01*
X129630326Y-87638647D02*
X129820802Y-87638647D01*
D12*
X145884819Y-110958333D02*
X145408628Y-110625000D01*
X145884819Y-110386905D02*
X144884819Y-110386905D01*
X144884819Y-110386905D02*
X144884819Y-110767857D01*
X144884819Y-110767857D02*
X144932438Y-110863095D01*
X144932438Y-110863095D02*
X144980057Y-110910714D01*
X144980057Y-110910714D02*
X145075295Y-110958333D01*
X145075295Y-110958333D02*
X145218152Y-110958333D01*
X145218152Y-110958333D02*
X145313390Y-110910714D01*
X145313390Y-110910714D02*
X145361009Y-110863095D01*
X145361009Y-110863095D02*
X145408628Y-110767857D01*
X145408628Y-110767857D02*
X145408628Y-110386905D01*
X145313390Y-111529762D02*
X145265771Y-111434524D01*
X145265771Y-111434524D02*
X145218152Y-111386905D01*
X145218152Y-111386905D02*
X145122914Y-111339286D01*
X145122914Y-111339286D02*
X145075295Y-111339286D01*
X145075295Y-111339286D02*
X144980057Y-111386905D01*
X144980057Y-111386905D02*
X144932438Y-111434524D01*
X144932438Y-111434524D02*
X144884819Y-111529762D01*
X144884819Y-111529762D02*
X144884819Y-111720238D01*
X144884819Y-111720238D02*
X144932438Y-111815476D01*
X144932438Y-111815476D02*
X144980057Y-111863095D01*
X144980057Y-111863095D02*
X145075295Y-111910714D01*
X145075295Y-111910714D02*
X145122914Y-111910714D01*
X145122914Y-111910714D02*
X145218152Y-111863095D01*
X145218152Y-111863095D02*
X145265771Y-111815476D01*
X145265771Y-111815476D02*
X145313390Y-111720238D01*
X145313390Y-111720238D02*
X145313390Y-111529762D01*
X145313390Y-111529762D02*
X145361009Y-111434524D01*
X145361009Y-111434524D02*
X145408628Y-111386905D01*
X145408628Y-111386905D02*
X145503866Y-111339286D01*
X145503866Y-111339286D02*
X145694342Y-111339286D01*
X145694342Y-111339286D02*
X145789580Y-111386905D01*
X145789580Y-111386905D02*
X145837200Y-111434524D01*
X145837200Y-111434524D02*
X145884819Y-111529762D01*
X145884819Y-111529762D02*
X145884819Y-111720238D01*
X145884819Y-111720238D02*
X145837200Y-111815476D01*
X145837200Y-111815476D02*
X145789580Y-111863095D01*
X145789580Y-111863095D02*
X145694342Y-111910714D01*
X145694342Y-111910714D02*
X145503866Y-111910714D01*
X145503866Y-111910714D02*
X145408628Y-111863095D01*
X145408628Y-111863095D02*
X145361009Y-111815476D01*
X145361009Y-111815476D02*
X145313390Y-111720238D01*
X129359580Y-105857142D02*
X129407200Y-105809523D01*
X129407200Y-105809523D02*
X129454819Y-105666666D01*
X129454819Y-105666666D02*
X129454819Y-105571428D01*
X129454819Y-105571428D02*
X129407200Y-105428571D01*
X129407200Y-105428571D02*
X129311961Y-105333333D01*
X129311961Y-105333333D02*
X129216723Y-105285714D01*
X129216723Y-105285714D02*
X129026247Y-105238095D01*
X129026247Y-105238095D02*
X128883390Y-105238095D01*
X128883390Y-105238095D02*
X128692914Y-105285714D01*
X128692914Y-105285714D02*
X128597676Y-105333333D01*
X128597676Y-105333333D02*
X128502438Y-105428571D01*
X128502438Y-105428571D02*
X128454819Y-105571428D01*
X128454819Y-105571428D02*
X128454819Y-105666666D01*
X128454819Y-105666666D02*
X128502438Y-105809523D01*
X128502438Y-105809523D02*
X128550057Y-105857142D01*
X129454819Y-106809523D02*
X129454819Y-106238095D01*
X129454819Y-106523809D02*
X128454819Y-106523809D01*
X128454819Y-106523809D02*
X128597676Y-106428571D01*
X128597676Y-106428571D02*
X128692914Y-106333333D01*
X128692914Y-106333333D02*
X128740533Y-106238095D01*
X128454819Y-107428571D02*
X128454819Y-107523809D01*
X128454819Y-107523809D02*
X128502438Y-107619047D01*
X128502438Y-107619047D02*
X128550057Y-107666666D01*
X128550057Y-107666666D02*
X128645295Y-107714285D01*
X128645295Y-107714285D02*
X128835771Y-107761904D01*
X128835771Y-107761904D02*
X129073866Y-107761904D01*
X129073866Y-107761904D02*
X129264342Y-107714285D01*
X129264342Y-107714285D02*
X129359580Y-107666666D01*
X129359580Y-107666666D02*
X129407200Y-107619047D01*
X129407200Y-107619047D02*
X129454819Y-107523809D01*
X129454819Y-107523809D02*
X129454819Y-107428571D01*
X129454819Y-107428571D02*
X129407200Y-107333333D01*
X129407200Y-107333333D02*
X129359580Y-107285714D01*
X129359580Y-107285714D02*
X129264342Y-107238095D01*
X129264342Y-107238095D02*
X129073866Y-107190476D01*
X129073866Y-107190476D02*
X128835771Y-107190476D01*
X128835771Y-107190476D02*
X128645295Y-107238095D01*
X128645295Y-107238095D02*
X128550057Y-107285714D01*
X128550057Y-107285714D02*
X128502438Y-107333333D01*
X128502438Y-107333333D02*
X128454819Y-107428571D01*
X147966666Y-108359580D02*
X148014285Y-108407200D01*
X148014285Y-108407200D02*
X148157142Y-108454819D01*
X148157142Y-108454819D02*
X148252380Y-108454819D01*
X148252380Y-108454819D02*
X148395237Y-108407200D01*
X148395237Y-108407200D02*
X148490475Y-108311961D01*
X148490475Y-108311961D02*
X148538094Y-108216723D01*
X148538094Y-108216723D02*
X148585713Y-108026247D01*
X148585713Y-108026247D02*
X148585713Y-107883390D01*
X148585713Y-107883390D02*
X148538094Y-107692914D01*
X148538094Y-107692914D02*
X148490475Y-107597676D01*
X148490475Y-107597676D02*
X148395237Y-107502438D01*
X148395237Y-107502438D02*
X148252380Y-107454819D01*
X148252380Y-107454819D02*
X148157142Y-107454819D01*
X148157142Y-107454819D02*
X148014285Y-107502438D01*
X148014285Y-107502438D02*
X147966666Y-107550057D01*
X147633332Y-107454819D02*
X147014285Y-107454819D01*
X147014285Y-107454819D02*
X147347618Y-107835771D01*
X147347618Y-107835771D02*
X147204761Y-107835771D01*
X147204761Y-107835771D02*
X147109523Y-107883390D01*
X147109523Y-107883390D02*
X147061904Y-107931009D01*
X147061904Y-107931009D02*
X147014285Y-108026247D01*
X147014285Y-108026247D02*
X147014285Y-108264342D01*
X147014285Y-108264342D02*
X147061904Y-108359580D01*
X147061904Y-108359580D02*
X147109523Y-108407200D01*
X147109523Y-108407200D02*
X147204761Y-108454819D01*
X147204761Y-108454819D02*
X147490475Y-108454819D01*
X147490475Y-108454819D02*
X147585713Y-108407200D01*
X147585713Y-108407200D02*
X147633332Y-108359580D01*
X117884819Y-113583333D02*
X117408628Y-113250000D01*
X117884819Y-113011905D02*
X116884819Y-113011905D01*
X116884819Y-113011905D02*
X116884819Y-113392857D01*
X116884819Y-113392857D02*
X116932438Y-113488095D01*
X116932438Y-113488095D02*
X116980057Y-113535714D01*
X116980057Y-113535714D02*
X117075295Y-113583333D01*
X117075295Y-113583333D02*
X117218152Y-113583333D01*
X117218152Y-113583333D02*
X117313390Y-113535714D01*
X117313390Y-113535714D02*
X117361009Y-113488095D01*
X117361009Y-113488095D02*
X117408628Y-113392857D01*
X117408628Y-113392857D02*
X117408628Y-113011905D01*
X116884819Y-113916667D02*
X116884819Y-114535714D01*
X116884819Y-114535714D02*
X117265771Y-114202381D01*
X117265771Y-114202381D02*
X117265771Y-114345238D01*
X117265771Y-114345238D02*
X117313390Y-114440476D01*
X117313390Y-114440476D02*
X117361009Y-114488095D01*
X117361009Y-114488095D02*
X117456247Y-114535714D01*
X117456247Y-114535714D02*
X117694342Y-114535714D01*
X117694342Y-114535714D02*
X117789580Y-114488095D01*
X117789580Y-114488095D02*
X117837200Y-114440476D01*
X117837200Y-114440476D02*
X117884819Y-114345238D01*
X117884819Y-114345238D02*
X117884819Y-114059524D01*
X117884819Y-114059524D02*
X117837200Y-113964286D01*
X117837200Y-113964286D02*
X117789580Y-113916667D01*
X140016666Y-73759580D02*
X140064285Y-73807200D01*
X140064285Y-73807200D02*
X140207142Y-73854819D01*
X140207142Y-73854819D02*
X140302380Y-73854819D01*
X140302380Y-73854819D02*
X140445237Y-73807200D01*
X140445237Y-73807200D02*
X140540475Y-73711961D01*
X140540475Y-73711961D02*
X140588094Y-73616723D01*
X140588094Y-73616723D02*
X140635713Y-73426247D01*
X140635713Y-73426247D02*
X140635713Y-73283390D01*
X140635713Y-73283390D02*
X140588094Y-73092914D01*
X140588094Y-73092914D02*
X140540475Y-72997676D01*
X140540475Y-72997676D02*
X140445237Y-72902438D01*
X140445237Y-72902438D02*
X140302380Y-72854819D01*
X140302380Y-72854819D02*
X140207142Y-72854819D01*
X140207142Y-72854819D02*
X140064285Y-72902438D01*
X140064285Y-72902438D02*
X140016666Y-72950057D01*
X139064285Y-73854819D02*
X139635713Y-73854819D01*
X139349999Y-73854819D02*
X139349999Y-72854819D01*
X139349999Y-72854819D02*
X139445237Y-72997676D01*
X139445237Y-72997676D02*
X139540475Y-73092914D01*
X139540475Y-73092914D02*
X139635713Y-73140533D01*
X147254819Y-96033333D02*
X146778628Y-95700000D01*
X147254819Y-95461905D02*
X146254819Y-95461905D01*
X146254819Y-95461905D02*
X146254819Y-95842857D01*
X146254819Y-95842857D02*
X146302438Y-95938095D01*
X146302438Y-95938095D02*
X146350057Y-95985714D01*
X146350057Y-95985714D02*
X146445295Y-96033333D01*
X146445295Y-96033333D02*
X146588152Y-96033333D01*
X146588152Y-96033333D02*
X146683390Y-95985714D01*
X146683390Y-95985714D02*
X146731009Y-95938095D01*
X146731009Y-95938095D02*
X146778628Y-95842857D01*
X146778628Y-95842857D02*
X146778628Y-95461905D01*
X146254819Y-96890476D02*
X146254819Y-96700000D01*
X146254819Y-96700000D02*
X146302438Y-96604762D01*
X146302438Y-96604762D02*
X146350057Y-96557143D01*
X146350057Y-96557143D02*
X146492914Y-96461905D01*
X146492914Y-96461905D02*
X146683390Y-96414286D01*
X146683390Y-96414286D02*
X147064342Y-96414286D01*
X147064342Y-96414286D02*
X147159580Y-96461905D01*
X147159580Y-96461905D02*
X147207200Y-96509524D01*
X147207200Y-96509524D02*
X147254819Y-96604762D01*
X147254819Y-96604762D02*
X147254819Y-96795238D01*
X147254819Y-96795238D02*
X147207200Y-96890476D01*
X147207200Y-96890476D02*
X147159580Y-96938095D01*
X147159580Y-96938095D02*
X147064342Y-96985714D01*
X147064342Y-96985714D02*
X146826247Y-96985714D01*
X146826247Y-96985714D02*
X146731009Y-96938095D01*
X146731009Y-96938095D02*
X146683390Y-96890476D01*
X146683390Y-96890476D02*
X146635771Y-96795238D01*
X146635771Y-96795238D02*
X146635771Y-96604762D01*
X146635771Y-96604762D02*
X146683390Y-96509524D01*
X146683390Y-96509524D02*
X146731009Y-96461905D01*
X146731009Y-96461905D02*
X146826247Y-96414286D01*
X149654819Y-96033333D02*
X149178628Y-95700000D01*
X149654819Y-95461905D02*
X148654819Y-95461905D01*
X148654819Y-95461905D02*
X148654819Y-95842857D01*
X148654819Y-95842857D02*
X148702438Y-95938095D01*
X148702438Y-95938095D02*
X148750057Y-95985714D01*
X148750057Y-95985714D02*
X148845295Y-96033333D01*
X148845295Y-96033333D02*
X148988152Y-96033333D01*
X148988152Y-96033333D02*
X149083390Y-95985714D01*
X149083390Y-95985714D02*
X149131009Y-95938095D01*
X149131009Y-95938095D02*
X149178628Y-95842857D01*
X149178628Y-95842857D02*
X149178628Y-95461905D01*
X148654819Y-96938095D02*
X148654819Y-96461905D01*
X148654819Y-96461905D02*
X149131009Y-96414286D01*
X149131009Y-96414286D02*
X149083390Y-96461905D01*
X149083390Y-96461905D02*
X149035771Y-96557143D01*
X149035771Y-96557143D02*
X149035771Y-96795238D01*
X149035771Y-96795238D02*
X149083390Y-96890476D01*
X149083390Y-96890476D02*
X149131009Y-96938095D01*
X149131009Y-96938095D02*
X149226247Y-96985714D01*
X149226247Y-96985714D02*
X149464342Y-96985714D01*
X149464342Y-96985714D02*
X149559580Y-96938095D01*
X149559580Y-96938095D02*
X149607200Y-96890476D01*
X149607200Y-96890476D02*
X149654819Y-96795238D01*
X149654819Y-96795238D02*
X149654819Y-96557143D01*
X149654819Y-96557143D02*
X149607200Y-96461905D01*
X149607200Y-96461905D02*
X149559580Y-96414286D01*
X130959580Y-105857142D02*
X131007200Y-105809523D01*
X131007200Y-105809523D02*
X131054819Y-105666666D01*
X131054819Y-105666666D02*
X131054819Y-105571428D01*
X131054819Y-105571428D02*
X131007200Y-105428571D01*
X131007200Y-105428571D02*
X130911961Y-105333333D01*
X130911961Y-105333333D02*
X130816723Y-105285714D01*
X130816723Y-105285714D02*
X130626247Y-105238095D01*
X130626247Y-105238095D02*
X130483390Y-105238095D01*
X130483390Y-105238095D02*
X130292914Y-105285714D01*
X130292914Y-105285714D02*
X130197676Y-105333333D01*
X130197676Y-105333333D02*
X130102438Y-105428571D01*
X130102438Y-105428571D02*
X130054819Y-105571428D01*
X130054819Y-105571428D02*
X130054819Y-105666666D01*
X130054819Y-105666666D02*
X130102438Y-105809523D01*
X130102438Y-105809523D02*
X130150057Y-105857142D01*
X131054819Y-106809523D02*
X131054819Y-106238095D01*
X131054819Y-106523809D02*
X130054819Y-106523809D01*
X130054819Y-106523809D02*
X130197676Y-106428571D01*
X130197676Y-106428571D02*
X130292914Y-106333333D01*
X130292914Y-106333333D02*
X130340533Y-106238095D01*
X131054819Y-107761904D02*
X131054819Y-107190476D01*
X131054819Y-107476190D02*
X130054819Y-107476190D01*
X130054819Y-107476190D02*
X130197676Y-107380952D01*
X130197676Y-107380952D02*
X130292914Y-107285714D01*
X130292914Y-107285714D02*
X130340533Y-107190476D01*
X136359580Y-106233333D02*
X136407200Y-106185714D01*
X136407200Y-106185714D02*
X136454819Y-106042857D01*
X136454819Y-106042857D02*
X136454819Y-105947619D01*
X136454819Y-105947619D02*
X136407200Y-105804762D01*
X136407200Y-105804762D02*
X136311961Y-105709524D01*
X136311961Y-105709524D02*
X136216723Y-105661905D01*
X136216723Y-105661905D02*
X136026247Y-105614286D01*
X136026247Y-105614286D02*
X135883390Y-105614286D01*
X135883390Y-105614286D02*
X135692914Y-105661905D01*
X135692914Y-105661905D02*
X135597676Y-105709524D01*
X135597676Y-105709524D02*
X135502438Y-105804762D01*
X135502438Y-105804762D02*
X135454819Y-105947619D01*
X135454819Y-105947619D02*
X135454819Y-106042857D01*
X135454819Y-106042857D02*
X135502438Y-106185714D01*
X135502438Y-106185714D02*
X135550057Y-106233333D01*
X135454819Y-107138095D02*
X135454819Y-106661905D01*
X135454819Y-106661905D02*
X135931009Y-106614286D01*
X135931009Y-106614286D02*
X135883390Y-106661905D01*
X135883390Y-106661905D02*
X135835771Y-106757143D01*
X135835771Y-106757143D02*
X135835771Y-106995238D01*
X135835771Y-106995238D02*
X135883390Y-107090476D01*
X135883390Y-107090476D02*
X135931009Y-107138095D01*
X135931009Y-107138095D02*
X136026247Y-107185714D01*
X136026247Y-107185714D02*
X136264342Y-107185714D01*
X136264342Y-107185714D02*
X136359580Y-107138095D01*
X136359580Y-107138095D02*
X136407200Y-107090476D01*
X136407200Y-107090476D02*
X136454819Y-106995238D01*
X136454819Y-106995238D02*
X136454819Y-106757143D01*
X136454819Y-106757143D02*
X136407200Y-106661905D01*
X136407200Y-106661905D02*
X136359580Y-106614286D01*
D13*
X150444284Y-101406109D02*
X150682379Y-101406109D01*
X150682379Y-101406109D02*
X150682379Y-100906109D01*
X150301426Y-101382300D02*
X150229998Y-101406109D01*
X150229998Y-101406109D02*
X150110950Y-101406109D01*
X150110950Y-101406109D02*
X150063331Y-101382300D01*
X150063331Y-101382300D02*
X150039522Y-101358490D01*
X150039522Y-101358490D02*
X150015712Y-101310871D01*
X150015712Y-101310871D02*
X150015712Y-101263252D01*
X150015712Y-101263252D02*
X150039522Y-101215633D01*
X150039522Y-101215633D02*
X150063331Y-101191823D01*
X150063331Y-101191823D02*
X150110950Y-101168014D01*
X150110950Y-101168014D02*
X150206188Y-101144204D01*
X150206188Y-101144204D02*
X150253807Y-101120395D01*
X150253807Y-101120395D02*
X150277617Y-101096585D01*
X150277617Y-101096585D02*
X150301426Y-101048966D01*
X150301426Y-101048966D02*
X150301426Y-101001347D01*
X150301426Y-101001347D02*
X150277617Y-100953728D01*
X150277617Y-100953728D02*
X150253807Y-100929919D01*
X150253807Y-100929919D02*
X150206188Y-100906109D01*
X150206188Y-100906109D02*
X150087141Y-100906109D01*
X150087141Y-100906109D02*
X150015712Y-100929919D01*
X149801427Y-101406109D02*
X149801427Y-100906109D01*
X149801427Y-100906109D02*
X149634760Y-101263252D01*
X149634760Y-101263252D02*
X149468094Y-100906109D01*
X149468094Y-100906109D02*
X149468094Y-101406109D01*
X149015712Y-100906109D02*
X149110950Y-100906109D01*
X149110950Y-100906109D02*
X149158569Y-100929919D01*
X149158569Y-100929919D02*
X149182379Y-100953728D01*
X149182379Y-100953728D02*
X149229998Y-101025157D01*
X149229998Y-101025157D02*
X149253807Y-101120395D01*
X149253807Y-101120395D02*
X149253807Y-101310871D01*
X149253807Y-101310871D02*
X149229998Y-101358490D01*
X149229998Y-101358490D02*
X149206188Y-101382300D01*
X149206188Y-101382300D02*
X149158569Y-101406109D01*
X149158569Y-101406109D02*
X149063331Y-101406109D01*
X149063331Y-101406109D02*
X149015712Y-101382300D01*
X149015712Y-101382300D02*
X148991903Y-101358490D01*
X148991903Y-101358490D02*
X148968093Y-101310871D01*
X148968093Y-101310871D02*
X148968093Y-101191823D01*
X148968093Y-101191823D02*
X148991903Y-101144204D01*
X148991903Y-101144204D02*
X149015712Y-101120395D01*
X149015712Y-101120395D02*
X149063331Y-101096585D01*
X149063331Y-101096585D02*
X149158569Y-101096585D01*
X149158569Y-101096585D02*
X149206188Y-101120395D01*
X149206188Y-101120395D02*
X149229998Y-101144204D01*
X149229998Y-101144204D02*
X149253807Y-101191823D01*
X148753808Y-101406109D02*
X148753808Y-100906109D01*
X148753808Y-100906109D02*
X148634760Y-100906109D01*
X148634760Y-100906109D02*
X148563332Y-100929919D01*
X148563332Y-100929919D02*
X148515713Y-100977538D01*
X148515713Y-100977538D02*
X148491903Y-101025157D01*
X148491903Y-101025157D02*
X148468094Y-101120395D01*
X148468094Y-101120395D02*
X148468094Y-101191823D01*
X148468094Y-101191823D02*
X148491903Y-101287061D01*
X148491903Y-101287061D02*
X148515713Y-101334680D01*
X148515713Y-101334680D02*
X148563332Y-101382300D01*
X148563332Y-101382300D02*
X148634760Y-101406109D01*
X148634760Y-101406109D02*
X148753808Y-101406109D01*
X148277617Y-101382300D02*
X148206189Y-101406109D01*
X148206189Y-101406109D02*
X148087141Y-101406109D01*
X148087141Y-101406109D02*
X148039522Y-101382300D01*
X148039522Y-101382300D02*
X148015713Y-101358490D01*
X148015713Y-101358490D02*
X147991903Y-101310871D01*
X147991903Y-101310871D02*
X147991903Y-101263252D01*
X147991903Y-101263252D02*
X148015713Y-101215633D01*
X148015713Y-101215633D02*
X148039522Y-101191823D01*
X148039522Y-101191823D02*
X148087141Y-101168014D01*
X148087141Y-101168014D02*
X148182379Y-101144204D01*
X148182379Y-101144204D02*
X148229998Y-101120395D01*
X148229998Y-101120395D02*
X148253808Y-101096585D01*
X148253808Y-101096585D02*
X148277617Y-101048966D01*
X148277617Y-101048966D02*
X148277617Y-101001347D01*
X148277617Y-101001347D02*
X148253808Y-100953728D01*
X148253808Y-100953728D02*
X148229998Y-100929919D01*
X148229998Y-100929919D02*
X148182379Y-100906109D01*
X148182379Y-100906109D02*
X148063332Y-100906109D01*
X148063332Y-100906109D02*
X147991903Y-100929919D01*
X147849046Y-100906109D02*
X147682380Y-101406109D01*
X147682380Y-101406109D02*
X147515713Y-100906109D01*
X147087142Y-101406109D02*
X147372856Y-101406109D01*
X147229999Y-101406109D02*
X147229999Y-100906109D01*
X147229999Y-100906109D02*
X147277618Y-100977538D01*
X147277618Y-100977538D02*
X147325237Y-101025157D01*
X147325237Y-101025157D02*
X147372856Y-101048966D01*
X146658571Y-100906109D02*
X146753809Y-100906109D01*
X146753809Y-100906109D02*
X146801428Y-100929919D01*
X146801428Y-100929919D02*
X146825238Y-100953728D01*
X146825238Y-100953728D02*
X146872857Y-101025157D01*
X146872857Y-101025157D02*
X146896666Y-101120395D01*
X146896666Y-101120395D02*
X146896666Y-101310871D01*
X146896666Y-101310871D02*
X146872857Y-101358490D01*
X146872857Y-101358490D02*
X146849047Y-101382300D01*
X146849047Y-101382300D02*
X146801428Y-101406109D01*
X146801428Y-101406109D02*
X146706190Y-101406109D01*
X146706190Y-101406109D02*
X146658571Y-101382300D01*
X146658571Y-101382300D02*
X146634762Y-101358490D01*
X146634762Y-101358490D02*
X146610952Y-101310871D01*
X146610952Y-101310871D02*
X146610952Y-101191823D01*
X146610952Y-101191823D02*
X146634762Y-101144204D01*
X146634762Y-101144204D02*
X146658571Y-101120395D01*
X146658571Y-101120395D02*
X146706190Y-101096585D01*
X146706190Y-101096585D02*
X146801428Y-101096585D01*
X146801428Y-101096585D02*
X146849047Y-101120395D01*
X146849047Y-101120395D02*
X146872857Y-101144204D01*
X146872857Y-101144204D02*
X146896666Y-101191823D01*
X146444286Y-100906109D02*
X146110953Y-101406109D01*
X146110953Y-100906109D02*
X146444286Y-101406109D01*
X145991905Y-100906109D02*
X145706191Y-100906109D01*
X145849048Y-101406109D02*
X145849048Y-100906109D01*
X145253811Y-101406109D02*
X145420477Y-101168014D01*
X145539525Y-101406109D02*
X145539525Y-100906109D01*
X145539525Y-100906109D02*
X145349049Y-100906109D01*
X145349049Y-100906109D02*
X145301430Y-100929919D01*
X145301430Y-100929919D02*
X145277620Y-100953728D01*
X145277620Y-100953728D02*
X145253811Y-101001347D01*
X145253811Y-101001347D02*
X145253811Y-101072776D01*
X145253811Y-101072776D02*
X145277620Y-101120395D01*
X145277620Y-101120395D02*
X145301430Y-101144204D01*
X145301430Y-101144204D02*
X145349049Y-101168014D01*
X145349049Y-101168014D02*
X145539525Y-101168014D01*
D12*
X144854819Y-95033333D02*
X144378628Y-94700000D01*
X144854819Y-94461905D02*
X143854819Y-94461905D01*
X143854819Y-94461905D02*
X143854819Y-94842857D01*
X143854819Y-94842857D02*
X143902438Y-94938095D01*
X143902438Y-94938095D02*
X143950057Y-94985714D01*
X143950057Y-94985714D02*
X144045295Y-95033333D01*
X144045295Y-95033333D02*
X144188152Y-95033333D01*
X144188152Y-95033333D02*
X144283390Y-94985714D01*
X144283390Y-94985714D02*
X144331009Y-94938095D01*
X144331009Y-94938095D02*
X144378628Y-94842857D01*
X144378628Y-94842857D02*
X144378628Y-94461905D01*
X143854819Y-95366667D02*
X143854819Y-96033333D01*
X143854819Y-96033333D02*
X144854819Y-95604762D01*
X142759580Y-96633333D02*
X142807200Y-96585714D01*
X142807200Y-96585714D02*
X142854819Y-96442857D01*
X142854819Y-96442857D02*
X142854819Y-96347619D01*
X142854819Y-96347619D02*
X142807200Y-96204762D01*
X142807200Y-96204762D02*
X142711961Y-96109524D01*
X142711961Y-96109524D02*
X142616723Y-96061905D01*
X142616723Y-96061905D02*
X142426247Y-96014286D01*
X142426247Y-96014286D02*
X142283390Y-96014286D01*
X142283390Y-96014286D02*
X142092914Y-96061905D01*
X142092914Y-96061905D02*
X141997676Y-96109524D01*
X141997676Y-96109524D02*
X141902438Y-96204762D01*
X141902438Y-96204762D02*
X141854819Y-96347619D01*
X141854819Y-96347619D02*
X141854819Y-96442857D01*
X141854819Y-96442857D02*
X141902438Y-96585714D01*
X141902438Y-96585714D02*
X141950057Y-96633333D01*
X142283390Y-97204762D02*
X142235771Y-97109524D01*
X142235771Y-97109524D02*
X142188152Y-97061905D01*
X142188152Y-97061905D02*
X142092914Y-97014286D01*
X142092914Y-97014286D02*
X142045295Y-97014286D01*
X142045295Y-97014286D02*
X141950057Y-97061905D01*
X141950057Y-97061905D02*
X141902438Y-97109524D01*
X141902438Y-97109524D02*
X141854819Y-97204762D01*
X141854819Y-97204762D02*
X141854819Y-97395238D01*
X141854819Y-97395238D02*
X141902438Y-97490476D01*
X141902438Y-97490476D02*
X141950057Y-97538095D01*
X141950057Y-97538095D02*
X142045295Y-97585714D01*
X142045295Y-97585714D02*
X142092914Y-97585714D01*
X142092914Y-97585714D02*
X142188152Y-97538095D01*
X142188152Y-97538095D02*
X142235771Y-97490476D01*
X142235771Y-97490476D02*
X142283390Y-97395238D01*
X142283390Y-97395238D02*
X142283390Y-97204762D01*
X142283390Y-97204762D02*
X142331009Y-97109524D01*
X142331009Y-97109524D02*
X142378628Y-97061905D01*
X142378628Y-97061905D02*
X142473866Y-97014286D01*
X142473866Y-97014286D02*
X142664342Y-97014286D01*
X142664342Y-97014286D02*
X142759580Y-97061905D01*
X142759580Y-97061905D02*
X142807200Y-97109524D01*
X142807200Y-97109524D02*
X142854819Y-97204762D01*
X142854819Y-97204762D02*
X142854819Y-97395238D01*
X142854819Y-97395238D02*
X142807200Y-97490476D01*
X142807200Y-97490476D02*
X142759580Y-97538095D01*
X142759580Y-97538095D02*
X142664342Y-97585714D01*
X142664342Y-97585714D02*
X142473866Y-97585714D01*
X142473866Y-97585714D02*
X142378628Y-97538095D01*
X142378628Y-97538095D02*
X142331009Y-97490476D01*
X142331009Y-97490476D02*
X142283390Y-97395238D01*
X140366666Y-84159580D02*
X140414285Y-84207200D01*
X140414285Y-84207200D02*
X140557142Y-84254819D01*
X140557142Y-84254819D02*
X140652380Y-84254819D01*
X140652380Y-84254819D02*
X140795237Y-84207200D01*
X140795237Y-84207200D02*
X140890475Y-84111961D01*
X140890475Y-84111961D02*
X140938094Y-84016723D01*
X140938094Y-84016723D02*
X140985713Y-83826247D01*
X140985713Y-83826247D02*
X140985713Y-83683390D01*
X140985713Y-83683390D02*
X140938094Y-83492914D01*
X140938094Y-83492914D02*
X140890475Y-83397676D01*
X140890475Y-83397676D02*
X140795237Y-83302438D01*
X140795237Y-83302438D02*
X140652380Y-83254819D01*
X140652380Y-83254819D02*
X140557142Y-83254819D01*
X140557142Y-83254819D02*
X140414285Y-83302438D01*
X140414285Y-83302438D02*
X140366666Y-83350057D01*
X139985713Y-83350057D02*
X139938094Y-83302438D01*
X139938094Y-83302438D02*
X139842856Y-83254819D01*
X139842856Y-83254819D02*
X139604761Y-83254819D01*
X139604761Y-83254819D02*
X139509523Y-83302438D01*
X139509523Y-83302438D02*
X139461904Y-83350057D01*
X139461904Y-83350057D02*
X139414285Y-83445295D01*
X139414285Y-83445295D02*
X139414285Y-83540533D01*
X139414285Y-83540533D02*
X139461904Y-83683390D01*
X139461904Y-83683390D02*
X140033332Y-84254819D01*
X140033332Y-84254819D02*
X139414285Y-84254819D01*
X142729819Y-102908333D02*
X142253628Y-102575000D01*
X142729819Y-102336905D02*
X141729819Y-102336905D01*
X141729819Y-102336905D02*
X141729819Y-102717857D01*
X141729819Y-102717857D02*
X141777438Y-102813095D01*
X141777438Y-102813095D02*
X141825057Y-102860714D01*
X141825057Y-102860714D02*
X141920295Y-102908333D01*
X141920295Y-102908333D02*
X142063152Y-102908333D01*
X142063152Y-102908333D02*
X142158390Y-102860714D01*
X142158390Y-102860714D02*
X142206009Y-102813095D01*
X142206009Y-102813095D02*
X142253628Y-102717857D01*
X142253628Y-102717857D02*
X142253628Y-102336905D01*
X142063152Y-103765476D02*
X142729819Y-103765476D01*
X141682200Y-103527381D02*
X142396485Y-103289286D01*
X142396485Y-103289286D02*
X142396485Y-103908333D01*
X124929580Y-98108333D02*
X124977200Y-98060714D01*
X124977200Y-98060714D02*
X125024819Y-97917857D01*
X125024819Y-97917857D02*
X125024819Y-97822619D01*
X125024819Y-97822619D02*
X124977200Y-97679762D01*
X124977200Y-97679762D02*
X124881961Y-97584524D01*
X124881961Y-97584524D02*
X124786723Y-97536905D01*
X124786723Y-97536905D02*
X124596247Y-97489286D01*
X124596247Y-97489286D02*
X124453390Y-97489286D01*
X124453390Y-97489286D02*
X124262914Y-97536905D01*
X124262914Y-97536905D02*
X124167676Y-97584524D01*
X124167676Y-97584524D02*
X124072438Y-97679762D01*
X124072438Y-97679762D02*
X124024819Y-97822619D01*
X124024819Y-97822619D02*
X124024819Y-97917857D01*
X124024819Y-97917857D02*
X124072438Y-98060714D01*
X124072438Y-98060714D02*
X124120057Y-98108333D01*
X124024819Y-98965476D02*
X124024819Y-98775000D01*
X124024819Y-98775000D02*
X124072438Y-98679762D01*
X124072438Y-98679762D02*
X124120057Y-98632143D01*
X124120057Y-98632143D02*
X124262914Y-98536905D01*
X124262914Y-98536905D02*
X124453390Y-98489286D01*
X124453390Y-98489286D02*
X124834342Y-98489286D01*
X124834342Y-98489286D02*
X124929580Y-98536905D01*
X124929580Y-98536905D02*
X124977200Y-98584524D01*
X124977200Y-98584524D02*
X125024819Y-98679762D01*
X125024819Y-98679762D02*
X125024819Y-98870238D01*
X125024819Y-98870238D02*
X124977200Y-98965476D01*
X124977200Y-98965476D02*
X124929580Y-99013095D01*
X124929580Y-99013095D02*
X124834342Y-99060714D01*
X124834342Y-99060714D02*
X124596247Y-99060714D01*
X124596247Y-99060714D02*
X124501009Y-99013095D01*
X124501009Y-99013095D02*
X124453390Y-98965476D01*
X124453390Y-98965476D02*
X124405771Y-98870238D01*
X124405771Y-98870238D02*
X124405771Y-98679762D01*
X124405771Y-98679762D02*
X124453390Y-98584524D01*
X124453390Y-98584524D02*
X124501009Y-98536905D01*
X124501009Y-98536905D02*
X124596247Y-98489286D01*
X141366666Y-86359580D02*
X141414285Y-86407200D01*
X141414285Y-86407200D02*
X141557142Y-86454819D01*
X141557142Y-86454819D02*
X141652380Y-86454819D01*
X141652380Y-86454819D02*
X141795237Y-86407200D01*
X141795237Y-86407200D02*
X141890475Y-86311961D01*
X141890475Y-86311961D02*
X141938094Y-86216723D01*
X141938094Y-86216723D02*
X141985713Y-86026247D01*
X141985713Y-86026247D02*
X141985713Y-85883390D01*
X141985713Y-85883390D02*
X141938094Y-85692914D01*
X141938094Y-85692914D02*
X141890475Y-85597676D01*
X141890475Y-85597676D02*
X141795237Y-85502438D01*
X141795237Y-85502438D02*
X141652380Y-85454819D01*
X141652380Y-85454819D02*
X141557142Y-85454819D01*
X141557142Y-85454819D02*
X141414285Y-85502438D01*
X141414285Y-85502438D02*
X141366666Y-85550057D01*
X140890475Y-86454819D02*
X140699999Y-86454819D01*
X140699999Y-86454819D02*
X140604761Y-86407200D01*
X140604761Y-86407200D02*
X140557142Y-86359580D01*
X140557142Y-86359580D02*
X140461904Y-86216723D01*
X140461904Y-86216723D02*
X140414285Y-86026247D01*
X140414285Y-86026247D02*
X140414285Y-85645295D01*
X140414285Y-85645295D02*
X140461904Y-85550057D01*
X140461904Y-85550057D02*
X140509523Y-85502438D01*
X140509523Y-85502438D02*
X140604761Y-85454819D01*
X140604761Y-85454819D02*
X140795237Y-85454819D01*
X140795237Y-85454819D02*
X140890475Y-85502438D01*
X140890475Y-85502438D02*
X140938094Y-85550057D01*
X140938094Y-85550057D02*
X140985713Y-85645295D01*
X140985713Y-85645295D02*
X140985713Y-85883390D01*
X140985713Y-85883390D02*
X140938094Y-85978628D01*
X140938094Y-85978628D02*
X140890475Y-86026247D01*
X140890475Y-86026247D02*
X140795237Y-86073866D01*
X140795237Y-86073866D02*
X140604761Y-86073866D01*
X140604761Y-86073866D02*
X140509523Y-86026247D01*
X140509523Y-86026247D02*
X140461904Y-85978628D01*
X140461904Y-85978628D02*
X140414285Y-85883390D01*
X154159580Y-102983333D02*
X154207200Y-102935714D01*
X154207200Y-102935714D02*
X154254819Y-102792857D01*
X154254819Y-102792857D02*
X154254819Y-102697619D01*
X154254819Y-102697619D02*
X154207200Y-102554762D01*
X154207200Y-102554762D02*
X154111961Y-102459524D01*
X154111961Y-102459524D02*
X154016723Y-102411905D01*
X154016723Y-102411905D02*
X153826247Y-102364286D01*
X153826247Y-102364286D02*
X153683390Y-102364286D01*
X153683390Y-102364286D02*
X153492914Y-102411905D01*
X153492914Y-102411905D02*
X153397676Y-102459524D01*
X153397676Y-102459524D02*
X153302438Y-102554762D01*
X153302438Y-102554762D02*
X153254819Y-102697619D01*
X153254819Y-102697619D02*
X153254819Y-102792857D01*
X153254819Y-102792857D02*
X153302438Y-102935714D01*
X153302438Y-102935714D02*
X153350057Y-102983333D01*
X153588152Y-103840476D02*
X154254819Y-103840476D01*
X153207200Y-103602381D02*
X153921485Y-103364286D01*
X153921485Y-103364286D02*
X153921485Y-103983333D01*
X139642857Y-104359580D02*
X139690476Y-104407200D01*
X139690476Y-104407200D02*
X139833333Y-104454819D01*
X139833333Y-104454819D02*
X139928571Y-104454819D01*
X139928571Y-104454819D02*
X140071428Y-104407200D01*
X140071428Y-104407200D02*
X140166666Y-104311961D01*
X140166666Y-104311961D02*
X140214285Y-104216723D01*
X140214285Y-104216723D02*
X140261904Y-104026247D01*
X140261904Y-104026247D02*
X140261904Y-103883390D01*
X140261904Y-103883390D02*
X140214285Y-103692914D01*
X140214285Y-103692914D02*
X140166666Y-103597676D01*
X140166666Y-103597676D02*
X140071428Y-103502438D01*
X140071428Y-103502438D02*
X139928571Y-103454819D01*
X139928571Y-103454819D02*
X139833333Y-103454819D01*
X139833333Y-103454819D02*
X139690476Y-103502438D01*
X139690476Y-103502438D02*
X139642857Y-103550057D01*
X138690476Y-104454819D02*
X139261904Y-104454819D01*
X138976190Y-104454819D02*
X138976190Y-103454819D01*
X138976190Y-103454819D02*
X139071428Y-103597676D01*
X139071428Y-103597676D02*
X139166666Y-103692914D01*
X139166666Y-103692914D02*
X139261904Y-103740533D01*
X138357142Y-103454819D02*
X137738095Y-103454819D01*
X137738095Y-103454819D02*
X138071428Y-103835771D01*
X138071428Y-103835771D02*
X137928571Y-103835771D01*
X137928571Y-103835771D02*
X137833333Y-103883390D01*
X137833333Y-103883390D02*
X137785714Y-103931009D01*
X137785714Y-103931009D02*
X137738095Y-104026247D01*
X137738095Y-104026247D02*
X137738095Y-104264342D01*
X137738095Y-104264342D02*
X137785714Y-104359580D01*
X137785714Y-104359580D02*
X137833333Y-104407200D01*
X137833333Y-104407200D02*
X137928571Y-104454819D01*
X137928571Y-104454819D02*
X138214285Y-104454819D01*
X138214285Y-104454819D02*
X138309523Y-104407200D01*
X138309523Y-104407200D02*
X138357142Y-104359580D01*
X142561904Y-77654819D02*
X142561904Y-78464342D01*
X142561904Y-78464342D02*
X142514285Y-78559580D01*
X142514285Y-78559580D02*
X142466666Y-78607200D01*
X142466666Y-78607200D02*
X142371428Y-78654819D01*
X142371428Y-78654819D02*
X142180952Y-78654819D01*
X142180952Y-78654819D02*
X142085714Y-78607200D01*
X142085714Y-78607200D02*
X142038095Y-78559580D01*
X142038095Y-78559580D02*
X141990476Y-78464342D01*
X141990476Y-78464342D02*
X141990476Y-77654819D01*
X141609523Y-77654819D02*
X140990476Y-77654819D01*
X140990476Y-77654819D02*
X141323809Y-78035771D01*
X141323809Y-78035771D02*
X141180952Y-78035771D01*
X141180952Y-78035771D02*
X141085714Y-78083390D01*
X141085714Y-78083390D02*
X141038095Y-78131009D01*
X141038095Y-78131009D02*
X140990476Y-78226247D01*
X140990476Y-78226247D02*
X140990476Y-78464342D01*
X140990476Y-78464342D02*
X141038095Y-78559580D01*
X141038095Y-78559580D02*
X141085714Y-78607200D01*
X141085714Y-78607200D02*
X141180952Y-78654819D01*
X141180952Y-78654819D02*
X141466666Y-78654819D01*
X141466666Y-78654819D02*
X141561904Y-78607200D01*
X141561904Y-78607200D02*
X141609523Y-78559580D01*
X163766666Y-98454819D02*
X164099999Y-97978628D01*
X164338094Y-98454819D02*
X164338094Y-97454819D01*
X164338094Y-97454819D02*
X163957142Y-97454819D01*
X163957142Y-97454819D02*
X163861904Y-97502438D01*
X163861904Y-97502438D02*
X163814285Y-97550057D01*
X163814285Y-97550057D02*
X163766666Y-97645295D01*
X163766666Y-97645295D02*
X163766666Y-97788152D01*
X163766666Y-97788152D02*
X163814285Y-97883390D01*
X163814285Y-97883390D02*
X163861904Y-97931009D01*
X163861904Y-97931009D02*
X163957142Y-97978628D01*
X163957142Y-97978628D02*
X164338094Y-97978628D01*
X163290475Y-98454819D02*
X163099999Y-98454819D01*
X163099999Y-98454819D02*
X163004761Y-98407200D01*
X163004761Y-98407200D02*
X162957142Y-98359580D01*
X162957142Y-98359580D02*
X162861904Y-98216723D01*
X162861904Y-98216723D02*
X162814285Y-98026247D01*
X162814285Y-98026247D02*
X162814285Y-97645295D01*
X162814285Y-97645295D02*
X162861904Y-97550057D01*
X162861904Y-97550057D02*
X162909523Y-97502438D01*
X162909523Y-97502438D02*
X163004761Y-97454819D01*
X163004761Y-97454819D02*
X163195237Y-97454819D01*
X163195237Y-97454819D02*
X163290475Y-97502438D01*
X163290475Y-97502438D02*
X163338094Y-97550057D01*
X163338094Y-97550057D02*
X163385713Y-97645295D01*
X163385713Y-97645295D02*
X163385713Y-97883390D01*
X163385713Y-97883390D02*
X163338094Y-97978628D01*
X163338094Y-97978628D02*
X163290475Y-98026247D01*
X163290475Y-98026247D02*
X163195237Y-98073866D01*
X163195237Y-98073866D02*
X163004761Y-98073866D01*
X163004761Y-98073866D02*
X162909523Y-98026247D01*
X162909523Y-98026247D02*
X162861904Y-97978628D01*
X162861904Y-97978628D02*
X162814285Y-97883390D01*
X128384819Y-113508333D02*
X127908628Y-113175000D01*
X128384819Y-112936905D02*
X127384819Y-112936905D01*
X127384819Y-112936905D02*
X127384819Y-113317857D01*
X127384819Y-113317857D02*
X127432438Y-113413095D01*
X127432438Y-113413095D02*
X127480057Y-113460714D01*
X127480057Y-113460714D02*
X127575295Y-113508333D01*
X127575295Y-113508333D02*
X127718152Y-113508333D01*
X127718152Y-113508333D02*
X127813390Y-113460714D01*
X127813390Y-113460714D02*
X127861009Y-113413095D01*
X127861009Y-113413095D02*
X127908628Y-113317857D01*
X127908628Y-113317857D02*
X127908628Y-112936905D01*
X128384819Y-114460714D02*
X128384819Y-113889286D01*
X128384819Y-114175000D02*
X127384819Y-114175000D01*
X127384819Y-114175000D02*
X127527676Y-114079762D01*
X127527676Y-114079762D02*
X127622914Y-113984524D01*
X127622914Y-113984524D02*
X127670533Y-113889286D01*
X135359580Y-81907142D02*
X135407200Y-81859523D01*
X135407200Y-81859523D02*
X135454819Y-81716666D01*
X135454819Y-81716666D02*
X135454819Y-81621428D01*
X135454819Y-81621428D02*
X135407200Y-81478571D01*
X135407200Y-81478571D02*
X135311961Y-81383333D01*
X135311961Y-81383333D02*
X135216723Y-81335714D01*
X135216723Y-81335714D02*
X135026247Y-81288095D01*
X135026247Y-81288095D02*
X134883390Y-81288095D01*
X134883390Y-81288095D02*
X134692914Y-81335714D01*
X134692914Y-81335714D02*
X134597676Y-81383333D01*
X134597676Y-81383333D02*
X134502438Y-81478571D01*
X134502438Y-81478571D02*
X134454819Y-81621428D01*
X134454819Y-81621428D02*
X134454819Y-81716666D01*
X134454819Y-81716666D02*
X134502438Y-81859523D01*
X134502438Y-81859523D02*
X134550057Y-81907142D01*
X135454819Y-82859523D02*
X135454819Y-82288095D01*
X135454819Y-82573809D02*
X134454819Y-82573809D01*
X134454819Y-82573809D02*
X134597676Y-82478571D01*
X134597676Y-82478571D02*
X134692914Y-82383333D01*
X134692914Y-82383333D02*
X134740533Y-82288095D01*
X134788152Y-83716666D02*
X135454819Y-83716666D01*
X134407200Y-83478571D02*
X135121485Y-83240476D01*
X135121485Y-83240476D02*
X135121485Y-83859523D01*
X157942857Y-85259580D02*
X157990476Y-85307200D01*
X157990476Y-85307200D02*
X158133333Y-85354819D01*
X158133333Y-85354819D02*
X158228571Y-85354819D01*
X158228571Y-85354819D02*
X158371428Y-85307200D01*
X158371428Y-85307200D02*
X158466666Y-85211961D01*
X158466666Y-85211961D02*
X158514285Y-85116723D01*
X158514285Y-85116723D02*
X158561904Y-84926247D01*
X158561904Y-84926247D02*
X158561904Y-84783390D01*
X158561904Y-84783390D02*
X158514285Y-84592914D01*
X158514285Y-84592914D02*
X158466666Y-84497676D01*
X158466666Y-84497676D02*
X158371428Y-84402438D01*
X158371428Y-84402438D02*
X158228571Y-84354819D01*
X158228571Y-84354819D02*
X158133333Y-84354819D01*
X158133333Y-84354819D02*
X157990476Y-84402438D01*
X157990476Y-84402438D02*
X157942857Y-84450057D01*
X156990476Y-85354819D02*
X157561904Y-85354819D01*
X157276190Y-85354819D02*
X157276190Y-84354819D01*
X157276190Y-84354819D02*
X157371428Y-84497676D01*
X157371428Y-84497676D02*
X157466666Y-84592914D01*
X157466666Y-84592914D02*
X157561904Y-84640533D01*
X156133333Y-84354819D02*
X156323809Y-84354819D01*
X156323809Y-84354819D02*
X156419047Y-84402438D01*
X156419047Y-84402438D02*
X156466666Y-84450057D01*
X156466666Y-84450057D02*
X156561904Y-84592914D01*
X156561904Y-84592914D02*
X156609523Y-84783390D01*
X156609523Y-84783390D02*
X156609523Y-85164342D01*
X156609523Y-85164342D02*
X156561904Y-85259580D01*
X156561904Y-85259580D02*
X156514285Y-85307200D01*
X156514285Y-85307200D02*
X156419047Y-85354819D01*
X156419047Y-85354819D02*
X156228571Y-85354819D01*
X156228571Y-85354819D02*
X156133333Y-85307200D01*
X156133333Y-85307200D02*
X156085714Y-85259580D01*
X156085714Y-85259580D02*
X156038095Y-85164342D01*
X156038095Y-85164342D02*
X156038095Y-84926247D01*
X156038095Y-84926247D02*
X156085714Y-84831009D01*
X156085714Y-84831009D02*
X156133333Y-84783390D01*
X156133333Y-84783390D02*
X156228571Y-84735771D01*
X156228571Y-84735771D02*
X156419047Y-84735771D01*
X156419047Y-84735771D02*
X156514285Y-84783390D01*
X156514285Y-84783390D02*
X156561904Y-84831009D01*
X156561904Y-84831009D02*
X156609523Y-84926247D01*
X132859580Y-106157142D02*
X132907200Y-106109523D01*
X132907200Y-106109523D02*
X132954819Y-105966666D01*
X132954819Y-105966666D02*
X132954819Y-105871428D01*
X132954819Y-105871428D02*
X132907200Y-105728571D01*
X132907200Y-105728571D02*
X132811961Y-105633333D01*
X132811961Y-105633333D02*
X132716723Y-105585714D01*
X132716723Y-105585714D02*
X132526247Y-105538095D01*
X132526247Y-105538095D02*
X132383390Y-105538095D01*
X132383390Y-105538095D02*
X132192914Y-105585714D01*
X132192914Y-105585714D02*
X132097676Y-105633333D01*
X132097676Y-105633333D02*
X132002438Y-105728571D01*
X132002438Y-105728571D02*
X131954819Y-105871428D01*
X131954819Y-105871428D02*
X131954819Y-105966666D01*
X131954819Y-105966666D02*
X132002438Y-106109523D01*
X132002438Y-106109523D02*
X132050057Y-106157142D01*
X132954819Y-107109523D02*
X132954819Y-106538095D01*
X132954819Y-106823809D02*
X131954819Y-106823809D01*
X131954819Y-106823809D02*
X132097676Y-106728571D01*
X132097676Y-106728571D02*
X132192914Y-106633333D01*
X132192914Y-106633333D02*
X132240533Y-106538095D01*
X132050057Y-107490476D02*
X132002438Y-107538095D01*
X132002438Y-107538095D02*
X131954819Y-107633333D01*
X131954819Y-107633333D02*
X131954819Y-107871428D01*
X131954819Y-107871428D02*
X132002438Y-107966666D01*
X132002438Y-107966666D02*
X132050057Y-108014285D01*
X132050057Y-108014285D02*
X132145295Y-108061904D01*
X132145295Y-108061904D02*
X132240533Y-108061904D01*
X132240533Y-108061904D02*
X132383390Y-108014285D01*
X132383390Y-108014285D02*
X132954819Y-107442857D01*
X132954819Y-107442857D02*
X132954819Y-108061904D01*
X124929580Y-91333333D02*
X124977200Y-91285714D01*
X124977200Y-91285714D02*
X125024819Y-91142857D01*
X125024819Y-91142857D02*
X125024819Y-91047619D01*
X125024819Y-91047619D02*
X124977200Y-90904762D01*
X124977200Y-90904762D02*
X124881961Y-90809524D01*
X124881961Y-90809524D02*
X124786723Y-90761905D01*
X124786723Y-90761905D02*
X124596247Y-90714286D01*
X124596247Y-90714286D02*
X124453390Y-90714286D01*
X124453390Y-90714286D02*
X124262914Y-90761905D01*
X124262914Y-90761905D02*
X124167676Y-90809524D01*
X124167676Y-90809524D02*
X124072438Y-90904762D01*
X124072438Y-90904762D02*
X124024819Y-91047619D01*
X124024819Y-91047619D02*
X124024819Y-91142857D01*
X124024819Y-91142857D02*
X124072438Y-91285714D01*
X124072438Y-91285714D02*
X124120057Y-91333333D01*
X124024819Y-91666667D02*
X124024819Y-92333333D01*
X124024819Y-92333333D02*
X125024819Y-91904762D01*
X123384819Y-113508333D02*
X122908628Y-113175000D01*
X123384819Y-112936905D02*
X122384819Y-112936905D01*
X122384819Y-112936905D02*
X122384819Y-113317857D01*
X122384819Y-113317857D02*
X122432438Y-113413095D01*
X122432438Y-113413095D02*
X122480057Y-113460714D01*
X122480057Y-113460714D02*
X122575295Y-113508333D01*
X122575295Y-113508333D02*
X122718152Y-113508333D01*
X122718152Y-113508333D02*
X122813390Y-113460714D01*
X122813390Y-113460714D02*
X122861009Y-113413095D01*
X122861009Y-113413095D02*
X122908628Y-113317857D01*
X122908628Y-113317857D02*
X122908628Y-112936905D01*
X122480057Y-113889286D02*
X122432438Y-113936905D01*
X122432438Y-113936905D02*
X122384819Y-114032143D01*
X122384819Y-114032143D02*
X122384819Y-114270238D01*
X122384819Y-114270238D02*
X122432438Y-114365476D01*
X122432438Y-114365476D02*
X122480057Y-114413095D01*
X122480057Y-114413095D02*
X122575295Y-114460714D01*
X122575295Y-114460714D02*
X122670533Y-114460714D01*
X122670533Y-114460714D02*
X122813390Y-114413095D01*
X122813390Y-114413095D02*
X123384819Y-113841667D01*
X123384819Y-113841667D02*
X123384819Y-114460714D01*
D14*
%TO.C,R8*%
X143477500Y-111362258D02*
X143477500Y-110887742D01*
X144522500Y-111362258D02*
X144522500Y-110887742D01*
%TO.C,C10*%
X128490000Y-103615580D02*
X128490000Y-103334420D01*
X129510000Y-103615580D02*
X129510000Y-103334420D01*
%TO.C,C3*%
X148161252Y-105390000D02*
X147638748Y-105390000D01*
X148161252Y-106860000D02*
X147638748Y-106860000D01*
%TO.C,R3*%
X115477500Y-113987258D02*
X115477500Y-113512742D01*
X116522500Y-113987258D02*
X116522500Y-113512742D01*
%TO.C,C1*%
X140111252Y-74227500D02*
X139588748Y-74227500D01*
X140111252Y-75697500D02*
X139588748Y-75697500D01*
%TO.C,R6*%
X146277500Y-98537742D02*
X146277500Y-99012258D01*
X147322500Y-98537742D02*
X147322500Y-99012258D01*
%TO.C,R5*%
X148602500Y-99037258D02*
X148602500Y-98562742D01*
X149647500Y-99037258D02*
X149647500Y-98562742D01*
%TO.C,C11*%
X130090000Y-103615580D02*
X130090000Y-103334420D01*
X131110000Y-103615580D02*
X131110000Y-103334420D01*
%TO.C,C5*%
X135490000Y-103915580D02*
X135490000Y-103634420D01*
X136510000Y-103915580D02*
X136510000Y-103634420D01*
D15*
%TO.C,LSM6DSV16XTR*%
X146487500Y-101875000D02*
X146987500Y-101875000D01*
X146487500Y-104375000D02*
X146987500Y-104375000D01*
X149487500Y-101875000D02*
X148987500Y-101875000D01*
X149487500Y-104375000D02*
X148987500Y-104375000D01*
D10*
X150087500Y-102375000D02*
G75*
G02*
X149887500Y-102375000I-100000J0D01*
G01*
X149887500Y-102375000D02*
G75*
G02*
X150087500Y-102375000I100000J0D01*
G01*
D14*
%TO.C,R7*%
X143877500Y-97637742D02*
X143877500Y-98112258D01*
X144922500Y-97637742D02*
X144922500Y-98112258D01*
%TO.C,C8*%
X141840000Y-99640580D02*
X141840000Y-99359420D01*
X142860000Y-99640580D02*
X142860000Y-99359420D01*
%TO.C,C2*%
X140461252Y-81165000D02*
X139938748Y-81165000D01*
X140461252Y-82635000D02*
X139938748Y-82635000D01*
D16*
%TO.C,U1*%
X129000000Y-89500000D02*
X129000000Y-100500000D01*
X129000000Y-100500000D02*
X140000000Y-100500000D01*
X140000000Y-89500000D02*
X129000000Y-89500000D01*
X140000000Y-100500000D02*
X140000000Y-89500000D01*
X140900000Y-100900000D02*
G75*
G02*
X140300000Y-100900000I-300000J0D01*
G01*
X140300000Y-100900000D02*
G75*
G02*
X140900000Y-100900000I300000J0D01*
G01*
D14*
%TO.C,R4*%
X143190000Y-102847936D02*
X143190000Y-103302064D01*
X144660000Y-102847936D02*
X144660000Y-103302064D01*
%TO.C,C6*%
X125490000Y-98134420D02*
X125490000Y-98415580D01*
X126510000Y-98134420D02*
X126510000Y-98415580D01*
%TO.C,C9*%
X138584420Y-85490000D02*
X138865580Y-85490000D01*
X138584420Y-86510000D02*
X138865580Y-86510000D01*
%TO.C,C4*%
X151715000Y-103290580D02*
X151715000Y-103009420D01*
X152735000Y-103290580D02*
X152735000Y-103009420D01*
%TO.C,C13*%
X139140580Y-101990000D02*
X138859420Y-101990000D01*
X139140580Y-103010000D02*
X138859420Y-103010000D01*
%TO.C,U3*%
X137390000Y-77402500D02*
X137390000Y-78922500D01*
X137390000Y-78922500D02*
X137440000Y-78922500D01*
X138390000Y-77402500D02*
X137390000Y-77402500D01*
X138560000Y-78922500D02*
X139340000Y-78922500D01*
X140460000Y-78922500D02*
X140510000Y-78922500D01*
X140510000Y-77402500D02*
X139510000Y-77402500D01*
X140510000Y-78922500D02*
X140510000Y-77402500D01*
X139330000Y-79462500D02*
X139000000Y-79702500D01*
X139000000Y-79222500D01*
X139330000Y-79462500D01*
G36*
X139330000Y-79462500D02*
G01*
X139000000Y-79702500D01*
X139000000Y-79222500D01*
X139330000Y-79462500D01*
G37*
%TO.C,R9*%
X163337742Y-95877500D02*
X163812258Y-95877500D01*
X163337742Y-96922500D02*
X163812258Y-96922500D01*
%TO.C,R1*%
X125977500Y-113912258D02*
X125977500Y-113437742D01*
X127022500Y-113912258D02*
X127022500Y-113437742D01*
%TO.C,C14*%
X135990000Y-82690580D02*
X135990000Y-82409420D01*
X137010000Y-82690580D02*
X137010000Y-82409420D01*
%TO.C,C16*%
X157159420Y-85990000D02*
X157440580Y-85990000D01*
X157159420Y-87010000D02*
X157440580Y-87010000D01*
%TO.C,C12*%
X131765000Y-103811252D02*
X131765000Y-103288748D01*
X133235000Y-103811252D02*
X133235000Y-103288748D01*
%TO.C,C7*%
X125490000Y-91359420D02*
X125490000Y-91640580D01*
X126510000Y-91359420D02*
X126510000Y-91640580D01*
%TO.C,R2*%
X120977500Y-113912258D02*
X120977500Y-113437742D01*
X122022500Y-113912258D02*
X122022500Y-113437742D01*
%TD*%
M02*
